<?xml version="1.0" encoding="utf-8"?>
<!-- Generator: Adobe Illustrator 16.0.0, SVG Export Plug-In . SVG Version: 6.00 Build 0)  -->
<!DOCTYPE svg PUBLIC "-//W3C//DTD SVG 1.1//EN" "http://www.w3.org/Graphics/SVG/1.1/DTD/svg11.dtd">
<svg version="1.1" id="Layer_1" xmlns="http://www.w3.org/2000/svg" xmlns:xlink="http://www.w3.org/1999/xlink" x="0px" y="0px"
	 width="800px" height="200px" viewBox="0 0 800 200" enable-background="new 0 0 800 200" xml:space="preserve">
<rect fill="#53B2B2" width="800" height="200"/>
<line fill="none" stroke="#C1E6E9" stroke-miterlimit="10" x1="201.667" y1="98.97" x2="57.17" y2="139.482"/>
<line fill="none" stroke="#C1E6E9" stroke-miterlimit="10" x1="110.585" y1="42.292" x2="201.667" y2="98.97"/>
<g>
	<g>
		<g>
			<g>
				<g>
					
						<rect x="203.221" y="97.488" transform="matrix(-0.4543 0.8908 -0.8908 -0.4543 386.1442 -36.0391)" fill="#C1E6E9" width="1.778" height="5.51"/>
					
						<rect x="210.531" y="101.215" transform="matrix(-0.4542 0.8909 -0.8909 -0.4542 400.0789 -37.1539)" fill="#C1E6E9" width="1.777" height="5.51"/>
					
						<rect x="217.841" y="104.943" transform="matrix(-0.454 0.891 -0.891 -0.454 413.9935 -38.294)" fill="#C1E6E9" width="1.778" height="5.509"/>
					
						<rect x="225.152" y="108.67" transform="matrix(-0.4542 0.8909 -0.8909 -0.4542 427.9819 -39.3389)" fill="#C1E6E9" width="1.778" height="5.509"/>
					
						<rect x="232.462" y="112.396" transform="matrix(-0.4542 0.8909 -0.8909 -0.4542 441.9328 -40.4308)" fill="#C1E6E9" width="1.777" height="5.51"/>
					
						<rect x="239.774" y="116.125" transform="matrix(-0.4545 0.8908 -0.8908 -0.4545 455.9259 -41.4704)" fill="#C1E6E9" width="1.777" height="5.509"/>
					
						<rect x="247.082" y="119.852" transform="matrix(-0.4545 0.8908 -0.8908 -0.4545 469.8758 -42.5607)" fill="#C1E6E9" width="1.777" height="5.509"/>
				</g>
			</g>
			<g>
				<g>
					
						<rect x="254.393" y="123.579" transform="matrix(-0.454 0.891 -0.891 -0.454 483.7465 -43.7641)" fill="#C1E6E9" width="1.778" height="5.51"/>
					
						<rect x="261.704" y="127.306" transform="matrix(-0.4545 0.8908 -0.8908 -0.4545 497.7825 -44.7429)" fill="#C1E6E9" width="1.777" height="5.51"/>
					
						<rect x="269.013" y="131.033" transform="matrix(-0.454 0.891 -0.891 -0.454 511.6459 -45.9522)" fill="#C1E6E9" width="1.778" height="5.51"/>
					
						<rect x="276.325" y="134.762" transform="matrix(-0.454 0.891 -0.891 -0.454 525.5978 -47.0467)" fill="#C1E6E9" width="1.778" height="5.508"/>
					
						<rect x="283.635" y="138.487" transform="matrix(-0.4545 0.8908 -0.8908 -0.4545 539.6399 -48.0149)" fill="#C1E6E9" width="1.777" height="5.51"/>
					
						<rect x="290.946" y="142.216" transform="matrix(-0.4542 0.8909 -0.8909 -0.4542 553.5475 -49.1697)" fill="#C1E6E9" width="1.777" height="5.509"/>
					
						<rect x="298.255" y="145.943" transform="matrix(-0.4542 0.8909 -0.8909 -0.4542 567.4965 -50.2619)" fill="#C1E6E9" width="1.777" height="5.508"/>
				</g>
			</g>
		</g>
	</g>
</g>
<g>
	<g>
		<g>
			<g>
				<g>
					
						<rect x="449.605" y="116.129" transform="matrix(-0.1813 -0.9834 0.9834 -0.1813 415.584 583.0709)" fill="#C1E6E9" width="1.778" height="4.841"/>
					
						<rect x="442.516" y="117.437" transform="matrix(-0.1818 -0.9833 0.9833 -0.1818 406.1713 577.6644)" fill="#C1E6E9" width="1.778" height="4.84"/>
					
						<rect x="435.428" y="118.745" transform="matrix(-0.1813 -0.9834 0.9834 -0.1813 396.2645 572.218)" fill="#C1E6E9" width="1.778" height="4.84"/>
					
						<rect x="428.338" y="120.054" transform="matrix(-0.1813 -0.9834 0.9834 -0.1813 386.6035 566.7914)" fill="#C1E6E9" width="1.778" height="4.839"/>
					
						<rect x="421.25" y="121.361" transform="matrix(-0.1813 -0.9834 0.9834 -0.1813 376.944 561.3652)" fill="#C1E6E9" width="1.778" height="4.84"/>
					
						<rect x="414.16" y="122.668" transform="matrix(-0.1813 -0.9834 0.9834 -0.1813 367.2828 555.9376)" fill="#C1E6E9" width="1.778" height="4.84"/>
					
						<rect x="407.073" y="123.976" transform="matrix(-0.1813 -0.9834 0.9834 -0.1813 357.6245 550.5123)" fill="#C1E6E9" width="1.778" height="4.839"/>
				</g>
			</g>
			<g>
				<g>
					
						<rect x="399.983" y="125.284" transform="matrix(-0.1816 -0.9834 0.9834 -0.1816 348.0756 545.0995)" fill="#C1E6E9" width="1.778" height="4.841"/>
					
						<rect x="392.894" y="126.592" transform="matrix(-0.1813 -0.9834 0.9834 -0.1813 338.3028 539.6586)" fill="#C1E6E9" width="1.778" height="4.84"/>
					
						<rect x="385.806" y="127.899" transform="matrix(-0.1813 -0.9834 0.9834 -0.1813 328.6436 534.2325)" fill="#C1E6E9" width="1.778" height="4.841"/>
					
						<rect x="378.716" y="129.208" transform="matrix(-0.1816 -0.9834 0.9834 -0.1816 319.0892 528.8219)" fill="#C1E6E9" width="1.778" height="4.839"/>
					
						<rect x="371.628" y="130.515" transform="matrix(-0.1813 -0.9834 0.9834 -0.1813 309.3227 523.3795)" fill="#C1E6E9" width="1.778" height="4.84"/>
					
						<rect x="364.538" y="131.823" transform="matrix(-0.1813 -0.9834 0.9834 -0.1813 299.6613 517.9517)" fill="#C1E6E9" width="1.778" height="4.84"/>
					
						<rect x="357.45" y="133.131" transform="matrix(-0.1816 -0.9834 0.9834 -0.1816 290.1048 512.5448)" fill="#C1E6E9" width="1.778" height="4.839"/>
				</g>
			</g>
			<g>
				<g>
					
						<rect x="350.36" y="134.438" transform="matrix(-0.1816 -0.9834 0.9834 -0.1816 280.4413 507.1184)" fill="#C1E6E9" width="1.778" height="4.84"/>
					
						<rect x="343.272" y="135.746" transform="matrix(-0.1813 -0.9834 0.9834 -0.1813 270.6815 501.6728)" fill="#C1E6E9" width="1.778" height="4.84"/>
					
						<rect x="336.184" y="137.053" transform="matrix(-0.1813 -0.9834 0.9834 -0.1813 261.0223 496.2469)" fill="#C1E6E9" width="1.778" height="4.841"/>
					
						<rect x="329.094" y="138.362" transform="matrix(-0.1816 -0.9834 0.9834 -0.1816 251.4552 490.841)" fill="#C1E6E9" width="1.778" height="4.839"/>
					
						<rect x="322.006" y="139.669" transform="matrix(-0.1813 -0.9834 0.9834 -0.1813 241.7015 485.3938)" fill="#C1E6E9" width="1.778" height="4.84"/>
					
						<rect x="314.916" y="140.977" transform="matrix(-0.1813 -0.9834 0.9834 -0.1813 232.04 479.9659)" fill="#C1E6E9" width="1.778" height="4.84"/>
					
						<rect x="307.828" y="142.285" transform="matrix(-0.1816 -0.9834 0.9834 -0.1816 222.4708 474.564)" fill="#C1E6E9" width="1.778" height="4.839"/>
				</g>
			</g>
		</g>
	</g>
</g>
<g>
	<g>
		<g>
			<g>
				<g>
					
						<rect x="638.812" y="114.956" transform="matrix(0.6109 0.7917 -0.7917 0.6109 341.468 -460.9423)" fill="#C1E6E9" width="1.778" height="3.97"/>
					
						<rect x="643.494" y="111.345" transform="matrix(0.6109 0.7917 -0.7917 0.6109 340.4305 -466.0537)" fill="#C1E6E9" width="1.778" height="3.97"/>
					
						<rect x="648.175" y="107.734" transform="matrix(0.6109 0.7917 -0.7917 0.6109 339.3929 -471.1652)" fill="#C1E6E9" width="1.778" height="3.97"/>
					
						<rect x="652.857" y="104.122" transform="matrix(0.6107 0.7919 -0.7919 0.6107 338.5506 -476.3829)" fill="#C1E6E9" width="1.778" height="3.969"/>
					
						<rect x="657.539" y="100.51" transform="matrix(0.6111 0.7916 -0.7916 0.6111 337.2195 -481.3343)" fill="#C1E6E9" width="1.777" height="3.97"/>
					
						<rect x="662.221" y="96.898" transform="matrix(0.6106 0.7919 -0.7919 0.6106 336.534 -486.6425)" fill="#C1E6E9" width="1.777" height="3.97"/>
					
						<rect x="666.901" y="93.288" transform="matrix(0.6109 0.7917 -0.7917 0.6109 335.2418 -491.6109)" fill="#C1E6E9" width="1.778" height="3.969"/>
				</g>
			</g>
			<g>
				<g>
					
						<rect x="671.583" y="89.675" transform="matrix(0.6109 0.7917 -0.7917 0.6109 334.2039 -496.723)" fill="#C1E6E9" width="1.778" height="3.97"/>
					
						<rect x="676.265" y="86.064" transform="matrix(0.6109 0.7917 -0.7917 0.6109 333.1663 -501.8344)" fill="#C1E6E9" width="1.778" height="3.97"/>
					
						<rect x="680.947" y="82.453" transform="matrix(0.6109 0.7917 -0.7917 0.6109 332.1287 -506.9459)" fill="#C1E6E9" width="1.778" height="3.97"/>
					
						<rect x="685.629" y="78.841" transform="matrix(0.6109 0.7917 -0.7917 0.6109 331.0908 -512.058)" fill="#C1E6E9" width="1.778" height="3.969"/>
					
						<rect x="690.31" y="75.229" transform="matrix(0.6109 0.7917 -0.7917 0.6109 330.0531 -517.169)" fill="#C1E6E9" width="1.778" height="3.97"/>
					
						<rect x="694.992" y="71.617" transform="matrix(0.6105 0.7921 -0.7921 0.6105 329.3744 -522.5021)" fill="#C1E6E9" width="1.777" height="3.97"/>
					
						<rect x="699.673" y="68.007" transform="matrix(0.6109 0.7917 -0.7917 0.6109 327.9776 -527.3916)" fill="#C1E6E9" width="1.778" height="3.969"/>
				</g>
			</g>
			<g>
				<g>
					
						<rect x="704.355" y="64.394" transform="matrix(0.6109 0.7917 -0.7917 0.6109 326.9396 -532.5037)" fill="#C1E6E9" width="1.778" height="3.97"/>
					
						<rect x="709.037" y="60.783" transform="matrix(0.6109 0.7917 -0.7917 0.6109 325.9019 -537.6152)" fill="#C1E6E9" width="1.778" height="3.97"/>
					
						<rect x="713.718" y="57.172" transform="matrix(0.6109 0.7917 -0.7917 0.6109 324.8645 -542.7265)" fill="#C1E6E9" width="1.778" height="3.97"/>
					
						<rect x="718.4" y="53.56" transform="matrix(0.6109 0.7917 -0.7917 0.6109 323.8266 -547.8386)" fill="#C1E6E9" width="1.778" height="3.969"/>
					
						<rect x="723.081" y="49.948" transform="matrix(0.6109 0.7917 -0.7917 0.6109 322.7888 -552.9497)" fill="#C1E6E9" width="1.778" height="3.97"/>
					
						<rect x="727.764" y="46.336" transform="matrix(0.6106 0.7919 -0.7919 0.6106 322.0148 -558.2387)" fill="#C1E6E9" width="1.777" height="3.97"/>
					
						<rect x="732.444" y="42.726" transform="matrix(0.6109 0.7917 -0.7917 0.6109 320.7132 -563.1724)" fill="#C1E6E9" width="1.778" height="3.969"/>
				</g>
			</g>
		</g>
	</g>
</g>
<line fill="none" stroke="#C1E6E9" stroke-miterlimit="10" x1="521.26" y1="173.062" x2="638.114" y2="118.135"/>
<line fill="none" stroke="#C1E6E9" stroke-miterlimit="10" x1="638.114" y1="118.135" x2="543.17" y2="24.876"/>
<line fill="none" stroke="#C1E6E9" stroke-miterlimit="10" x1="638.114" y1="118.135" x2="452.878" y2="118.135"/>
<line fill="none" stroke="#C1E6E9" stroke-miterlimit="10" x1="426.878" y1="118.135" x2="248.345" y2="46.786"/>
<g>
	<g>
		<g>
			<g>
				<g>
					
						<rect x="540.82" y="24.275" transform="matrix(-0.7185 -0.6955 0.6955 -0.7185 912.6277 422.0293)" fill="#C1E6E9" width="1.778" height="4.15"/>
					
						<rect x="536.52" y="28.716" transform="matrix(-0.7185 -0.6955 0.6955 -0.7185 902.1498 426.6708)" fill="#C1E6E9" width="1.778" height="4.15"/>
					
						<rect x="532.222" y="33.156" transform="matrix(-0.7183 -0.6958 0.6958 -0.7183 891.5223 431.4492)" fill="#C1E6E9" width="1.777" height="4.151"/>
					
						<rect x="527.922" y="37.598" transform="matrix(-0.7183 -0.6958 0.6958 -0.7183 881.0431 436.0889)" fill="#C1E6E9" width="1.777" height="4.15"/>
					
						<rect x="523.622" y="42.038" transform="matrix(-0.7185 -0.6955 0.6955 -0.7185 870.7178 440.5953)" fill="#C1E6E9" width="1.778" height="4.15"/>
					
						<rect x="519.322" y="46.48" transform="matrix(-0.7183 -0.6958 0.6958 -0.7183 860.0868 445.3676)" fill="#C1E6E9" width="1.777" height="4.15"/>
					
						<rect x="515.023" y="50.92" transform="matrix(-0.7185 -0.6955 0.6955 -0.7185 849.7629 449.8782)" fill="#C1E6E9" width="1.778" height="4.149"/>
				</g>
			</g>
			<g>
				<g>
					
						<rect x="510.723" y="55.361" transform="matrix(-0.7185 -0.6955 0.6955 -0.7185 839.2836 454.5207)" fill="#C1E6E9" width="1.778" height="4.15"/>
					
						<rect x="506.424" y="59.802" transform="matrix(-0.7183 -0.6958 0.6958 -0.7183 828.6545 459.2854)" fill="#C1E6E9" width="1.777" height="4.15"/>
					
						<rect x="502.124" y="64.242" transform="matrix(-0.7185 -0.6955 0.6955 -0.7185 818.3296 463.8036)" fill="#C1E6E9" width="1.778" height="4.15"/>
					
						<rect x="497.824" y="68.684" transform="matrix(-0.7185 -0.6955 0.6955 -0.7185 807.8506 468.4452)" fill="#C1E6E9" width="1.778" height="4.149"/>
					
						<rect x="493.524" y="73.124" transform="matrix(-0.7185 -0.6955 0.6955 -0.7185 797.3737 473.0866)" fill="#C1E6E9" width="1.778" height="4.15"/>
					
						<rect x="489.224" y="77.566" transform="matrix(-0.7185 -0.6955 0.6955 -0.7185 786.8951 477.7294)" fill="#C1E6E9" width="1.778" height="4.15"/>
					
						<rect x="484.926" y="82.006" transform="matrix(-0.7185 -0.6955 0.6955 -0.7185 776.4196 482.3699)" fill="#C1E6E9" width="1.778" height="4.15"/>
				</g>
			</g>
			<g>
				<g>
					
						<rect x="480.626" y="86.448" transform="matrix(-0.7184 -0.6956 0.6956 -0.7184 765.8666 487.0649)" fill="#C1E6E9" width="1.777" height="4.15"/>
					
						<rect x="476.326" y="90.888" transform="matrix(-0.7183 -0.6958 0.6958 -0.7183 755.311 491.7596)" fill="#C1E6E9" width="1.777" height="4.151"/>
					
						<rect x="472.026" y="95.328" transform="matrix(-0.7185 -0.6955 0.6955 -0.7185 744.9857 496.294)" fill="#C1E6E9" width="1.778" height="4.15"/>
					
						<rect x="467.726" y="99.77" transform="matrix(-0.7185 -0.6955 0.6955 -0.7185 734.5073 500.9368)" fill="#C1E6E9" width="1.778" height="4.15"/>
					
						<rect x="463.428" y="104.21" transform="matrix(-0.7183 -0.6958 0.6958 -0.7183 723.8787 505.6774)" fill="#C1E6E9" width="1.777" height="4.151"/>
					
						<rect x="459.127" y="108.652" transform="matrix(-0.7185 -0.6955 0.6955 -0.7185 713.5513 510.2199)" fill="#C1E6E9" width="1.778" height="4.15"/>
					
						<rect x="454.829" y="113.092" transform="matrix(-0.7183 -0.6958 0.6958 -0.7183 702.9234 514.9561)" fill="#C1E6E9" width="1.777" height="4.15"/>
				</g>
			</g>
		</g>
	</g>
</g>
<line fill="none" stroke="#C1E6E9" stroke-miterlimit="10" x1="57.17" y1="139.482" x2="307" y2="145.598"/>
<circle fill="#FFFFFF" cx="57.17" cy="139.482" r="26.966"/>
<circle fill="#005551" cx="201.667" cy="98.97" r="8.427"/>
<circle fill="#9BD8DA" cx="248.345" cy="46.786" r="21.91"/>
<circle fill="#248784" cx="452.878" cy="118.135" r="32.022"/>
<circle fill="#248784" cx="110.585" cy="42.292" r="17.416"/>
<circle fill="#248784" cx="736.429" cy="42.292" r="26.405"/>
<circle fill="#FFFFFF" cx="543.17" cy="24.876" r="21.91"/>
<circle fill="#9BD8DA" cx="521.26" cy="173.062" r="21.91"/>
<path fill="#FFFFFF" d="M304.012,98.969c-25.752,0-46.629,20.876-46.629,46.628c0,11.594,4.241,22.19,11.243,30.348
	c-0.907,3.117-2.952,5.565-6.765,5.887c-0.293,0.024-0.583,0.029-0.873,0.034c1.787,1.719,4.424,2.703,7.28,2.463
	c2.477-0.208,5.275-0.712,7.399-1.717c7.856,6.025,17.679,9.614,28.345,9.614c25.752,0,46.629-20.877,46.629-46.629
	S329.764,98.969,304.012,98.969z"/>
<path fill="#005551" d="M638.114,55.775c-34.44,0-62.359,27.919-62.359,62.359c0,21.035,10.426,39.623,26.38,50.918
	c-0.171,2.465,0.334,5.285,1.024,7.719c0.857,3.017,3.015,5.3,5.667,6.409c-0.108-0.299-0.218-0.597-0.306-0.906
	c-0.931-3.279,0.194-5.952,2.355-8.033c8.23,4.003,17.471,6.253,27.238,6.253c34.44,0,62.359-27.919,62.359-62.359
	C700.474,83.695,672.555,55.775,638.114,55.775z"/>
<g display="none">
	<path display="inline" d="M39.915,181.686c0.636,0.249,1.188,0.624,1.636,1.083c0.447,0.46,0.788,1.046,1.024,1.717
		c0.237,0.67,0.368,1.426,0.372,2.266s-0.119,1.596-0.348,2.27c-0.229,0.673-0.565,1.263-1.007,1.727
		c-0.442,0.464-0.991,0.845-1.624,1.101c-0.633,0.255-1.332,0.385-2.114,0.389c-0.783,0.005-1.482-0.118-2.119-0.366
		c-0.636-0.249-1.188-0.624-1.635-1.083c-0.447-0.46-0.789-1.046-1.046-1.717c-0.258-0.67-0.347-1.426-0.351-2.266
		s0.076-1.596,0.327-2.269c0.25-0.674,0.585-1.264,1.027-1.728c0.442-0.464,0.991-0.845,1.624-1.101
		c0.633-0.255,1.332-0.385,2.115-0.389C38.58,181.314,39.279,181.438,39.915,181.686z M40.211,189.747
		c0.504-0.717,0.774-1.705,0.768-2.965s-0.287-2.245-0.799-2.956c-0.512-0.712-1.317-1.043-2.375-1.037
		c-0.55,0.003-1.016,0.089-1.396,0.259c-0.38,0.17-0.717,0.466-0.969,0.803c-0.252,0.338-0.462,0.759-0.586,1.264
		c-0.125,0.504-0.206,1.093-0.202,1.723c0.003,0.63,0.09,1.175,0.22,1.679c0.129,0.503,0.344,0.922,0.6,1.256
		c0.255,0.335,0.596,0.585,0.978,0.751s0.848,0.289,1.398,0.286C38.905,190.804,39.708,190.463,40.211,189.747z"/>
	<path display="inline" d="M47.441,183.598c0.774-1.578,1.85-2.382,3.247-2.389c0.55-0.003,1.038,0.12,1.462,0.37l-0.226,1.407
		c-0.042,0.168-0.147,0.274-0.274,0.274c-0.127,0.001-0.296-0.04-0.508-0.103c-0.212-0.062-0.487-0.102-0.868-0.1
		c-1.228,0.006-2.155,0.768-2.74,2.24l0.028,5.249c0.17,0.041,0.572,0.102,1.208,0.225c0.211,0.04,0.318,0.187,0.319,0.396
		l0.005,0.882l-4.932,0.026l-0.005-0.882c-0.001-0.21,0.104-0.357,0.316-0.4l1.205-0.237l-0.04-7.579
		c-0.678-0.123-1.08-0.205-1.208-0.245c-0.212-0.042-0.319-0.188-0.32-0.398l-0.005-0.882l1.524-0.008l1.08-0.006
		c0.211-0.001,0.317,0.02,0.402,0.104c0.085,0.083,0.129,0.208,0.172,0.397l0.136,1.657H47.441z"/>
	<path display="inline" d="M57.377,181.236c0.465-0.002,0.889,0.036,1.292,0.14c0.402,0.104,0.763,0.248,1.103,0.456l2.921-0.016
		l0.003,0.692c0.001,0.231-0.146,0.38-0.442,0.444l-1.205,0.174c0.256,0.461,0.344,0.964,0.346,1.51
		c0.003,0.504-0.079,0.987-0.289,1.408s-0.461,0.779-0.82,1.075c-0.358,0.296-0.78,0.551-1.266,0.721
		c-0.486,0.171-1.014,0.236-1.607,0.239c-0.508,0.003-0.974-0.058-1.419-0.181c-0.211,0.127-0.379,0.296-0.506,0.465
		c-0.126,0.168-0.167,0.294-0.167,0.462c0.001,0.252,0.087,0.44,0.299,0.566c0.212,0.124,0.487,0.228,0.827,0.268
		c0.339,0.04,0.741,0.08,1.165,0.078s0.868,0.037,1.313,0.077c0.445,0.039,0.889,0.059,1.313,0.141
		c0.424,0.081,0.826,0.204,1.166,0.37c0.339,0.167,0.616,0.438,0.829,0.731c0.213,0.293,0.3,0.67,0.303,1.174
		c0.002,0.462-0.101,0.925-0.331,1.346c-0.231,0.421-0.589,0.801-1.01,1.14c-0.421,0.338-0.928,0.593-1.562,0.806
		c-0.634,0.214-1.332,0.301-2.115,0.306c-0.783,0.004-1.482-0.055-2.075-0.22c-0.594-0.165-1.082-0.373-1.464-0.623
		c-0.382-0.25-0.68-0.563-0.873-0.897c-0.192-0.335-0.3-0.671-0.302-1.049c-0.003-0.524,0.164-0.967,0.501-1.347
		c0.336-0.379,0.801-0.676,1.392-0.889c-0.296-0.125-0.552-0.333-0.722-0.563c-0.17-0.23-0.278-0.566-0.28-0.944
		c-0.001-0.168,0.041-0.294,0.083-0.462c0.041-0.168,0.125-0.337,0.251-0.506c0.126-0.168,0.273-0.316,0.442-0.464
		c0.169-0.147,0.38-0.254,0.591-0.381c-0.531-0.291-0.956-0.688-1.255-1.169c-0.299-0.482-0.45-1.048-0.453-1.698
		c-0.002-0.504,0.079-0.987,0.289-1.409c0.209-0.421,0.482-0.778,0.841-1.075c0.358-0.295,0.801-0.528,1.308-0.699
		c0.507-0.171,1.036-0.237,1.629-0.24L57.377,181.236z M60.803,192.619c-0.001-0.252-0.066-0.462-0.215-0.629
		c-0.148-0.167-0.361-0.292-0.616-0.375c-0.254-0.082-0.529-0.144-0.869-0.185c-0.338-0.039-0.678-0.08-1.059-0.099
		s-0.741-0.017-1.122-0.036c-0.382-0.02-0.741-0.08-1.081-0.12c-0.401,0.19-0.738,0.424-0.991,0.697
		c-0.252,0.274-0.377,0.611-0.375,0.989c0.001,0.252,0.066,0.462,0.194,0.671s0.319,0.376,0.574,0.521
		c0.254,0.146,0.573,0.271,0.955,0.353c0.381,0.082,0.847,0.121,1.355,0.118c0.508-0.002,0.952-0.068,1.354-0.154
		c0.401-0.086,0.74-0.234,1.014-0.404c0.274-0.169,0.485-0.359,0.632-0.591s0.23-0.463,0.229-0.757H60.803z M57.428,186.884
		c0.381-0.002,0.719-0.067,1.015-0.174c0.296-0.105,0.527-0.254,0.738-0.444c0.21-0.19,0.357-0.443,0.441-0.695
		s0.146-0.547,0.144-0.862c-0.003-0.65-0.218-1.175-0.622-1.549c-0.404-0.377-0.977-0.563-1.739-0.559
		c-0.762,0.004-1.333,0.195-1.732,0.576c-0.4,0.38-0.588,0.906-0.584,1.557c0.002,0.315,0.067,0.608,0.174,0.86
		c0.107,0.251,0.235,0.48,0.448,0.669c0.213,0.188,0.447,0.334,0.743,0.438c0.297,0.104,0.593,0.144,0.974,0.142L57.428,186.884z"/>
	<path display="inline" d="M73.302,190.579c0.191,0.041,0.319,0.208,0.32,0.397l0.005,0.902l-1.375,0.007l-0.148,0.001l-0.677,0.004
		c-0.169,0.001-0.318-0.04-0.445-0.082c-0.127-0.041-0.17-0.167-0.214-0.334l-0.217-1.007c-0.295,0.253-0.59,0.485-0.843,0.697
		c-0.253,0.211-0.548,0.38-0.844,0.509c-0.295,0.126-0.591,0.233-0.929,0.319c-0.338,0.086-0.719,0.109-1.143,0.111
		c-0.423,0.002-0.783-0.06-1.144-0.184c-0.361-0.124-0.7-0.27-0.956-0.498c-0.255-0.229-0.468-0.523-0.639-0.879
		s-0.237-0.775-0.24-1.259c-0.002-0.42,0.102-0.84,0.333-1.22c0.23-0.379,0.631-0.759,1.137-1.056
		c0.507-0.297,1.183-0.573,2.028-0.767c0.846-0.192,1.861-0.282,3.089-0.289l-0.004-0.819c-0.004-0.84-0.198-1.469-0.56-1.887
		c-0.362-0.418-0.893-0.646-1.591-0.642c-0.466,0.003-0.847,0.067-1.163,0.194c-0.317,0.128-0.57,0.234-0.802,0.383
		c-0.232,0.147-0.443,0.254-0.612,0.381s-0.316,0.17-0.486,0.171c-0.127,0-0.254-0.02-0.339-0.082
		c-0.085-0.063-0.17-0.167-0.213-0.251l-0.342-0.586c0.59-0.571,1.222-0.973,1.898-1.271c0.676-0.297,1.437-0.428,2.283-0.432
		c0.592-0.003,1.143,0.078,1.61,0.285c0.467,0.208,0.849,0.457,1.168,0.792c0.319,0.334,0.554,0.753,0.727,1.256
		c0.172,0.503,0.238,1.049,0.242,1.637l0.028,5.312c0.296,0.062,0.932,0.184,1.06,0.226L73.302,190.579z M70.363,187.151
		c-0.868,0.004-1.608,0.05-2.2,0.159c-0.592,0.107-1.099,0.278-1.479,0.448c-0.38,0.17-0.675,0.381-0.844,0.634
		c-0.167,0.253-0.251,0.506-0.25,0.8s0.066,0.503,0.152,0.713c0.085,0.209,0.213,0.377,0.383,0.502
		c0.17,0.125,0.34,0.208,0.552,0.271c0.212,0.062,0.445,0.102,0.699,0.101c0.339-0.002,0.614-0.045,0.889-0.109
		s0.528-0.15,0.781-0.277c0.254-0.128,0.485-0.297,0.696-0.466c0.21-0.169,0.421-0.38,0.632-0.591L70.363,187.151z"/>
	<path display="inline" d="M78.152,182.784c1.052-1.14,2.234-1.713,3.546-1.72c1.143-0.006,2.034,0.347,2.672,1.099
		c0.597,0.711,0.919,1.696,0.926,2.913l0.028,5.229c0.678,0.123,1.08,0.204,1.208,0.246c0.212,0.041,0.34,0.188,0.341,0.396
		l0.005,0.903l-3.429,0.019l-0.036-6.761c-0.009-1.68-0.754-2.558-2.257-2.55c-1.059,0.006-2.029,0.515-2.913,1.507l0.033,6.299
		c0.042-0.001,0.466,0.081,1.229,0.245c0.211,0.04,0.318,0.187,0.319,0.396l0.005,0.882l-4.931,0.026l-0.005-0.882
		c-0.001-0.21,0.083-0.357,0.294-0.4l1.226-0.237l-0.04-7.579c-0.678-0.123-1.102-0.205-1.229-0.245
		c-0.212-0.042-0.297-0.188-0.298-0.398l-0.005-0.882l1.524-0.008l1.101-0.006c0.254-0.001,0.424,0.124,0.51,0.375l0.176,1.154
		V182.784z"/>
	<path display="inline" d="M92.992,190.915l0.004,0.903l-4.931,0.025l-0.005-0.903c-0.001-0.188,0.125-0.356,0.315-0.399
		c0.19-0.043,1.227-0.237,1.227-0.237l-0.041-7.58c0,0-1.038-0.184-1.229-0.224c-0.19-0.042-0.319-0.209-0.32-0.397l-0.005-0.882
		l3.408-0.019l0.048,9.092c0,0,1.017,0.183,1.208,0.224C92.863,190.559,92.991,190.727,92.992,190.915z M89.242,178.38
		c-0.086-0.168-0.107-0.336-0.108-0.504s0.019-0.357,0.103-0.525c0.083-0.169,0.168-0.315,0.294-0.443
		c0.126-0.125,0.253-0.21,0.422-0.295c0.168-0.085,0.338-0.107,0.507-0.108s0.338,0.02,0.508,0.103
		c0.17,0.084,0.297,0.167,0.425,0.291c0.128,0.126,0.213,0.272,0.299,0.44c0.085,0.167,0.129,0.356,0.13,0.524
		c0,0.168-0.041,0.336-0.125,0.505c-0.084,0.168-0.168,0.293-0.294,0.421c-0.126,0.126-0.253,0.21-0.422,0.295
		s-0.338,0.107-0.507,0.108s-0.339-0.02-0.508-0.103c-0.17-0.083-0.297-0.166-0.425-0.291
		C89.413,178.672,89.328,178.547,89.242,178.38z"/>
	<path display="inline" d="M102.486,181.122l0.004,0.799c0.001,0.252-0.103,0.504-0.271,0.714l-5.759,7.695l4.762-0.025
		c0.059-0.84,0.12-1.303,0.12-1.387c0.042-0.168,0.147-0.253,0.316-0.253l0.741-0.005l0.017,3.107l-8.169,0.044l-0.004-0.776
		c-0.001-0.211,0.083-0.442,0.25-0.674l5.801-7.736l-4.593,0.024c-0.06,0.776-0.1,1.176-0.099,1.26
		c-0.042,0.169-0.168,0.273-0.337,0.274l-0.741,0.004l-0.016-3.002l1.08-0.006L102.486,181.122z"/>
	<path display="inline" d="M108.868,190.83l0.005,0.903l-4.932,0.026l-0.005-0.903c-0.001-0.188,0.125-0.357,0.316-0.4
		c0.19-0.043,1.226-0.236,1.226-0.236l-0.04-7.58c0,0-1.038-0.184-1.229-0.224c-0.191-0.042-0.319-0.21-0.32-0.398l-0.004-0.882
		l3.407-0.018l0.048,9.092c0,0,1.017,0.183,1.208,0.224C108.739,190.475,108.867,190.642,108.868,190.83z M105.119,178.296
		c-0.086-0.168-0.108-0.336-0.109-0.504s0.019-0.357,0.104-0.525c0.083-0.169,0.167-0.315,0.294-0.443
		c0.126-0.126,0.252-0.21,0.421-0.295s0.338-0.107,0.507-0.108s0.339,0.02,0.509,0.103c0.169,0.083,0.297,0.167,0.425,0.291
		c0.127,0.126,0.213,0.272,0.299,0.439c0.085,0.168,0.128,0.357,0.129,0.525s-0.041,0.336-0.124,0.504
		c-0.084,0.169-0.168,0.294-0.294,0.422c-0.126,0.126-0.252,0.21-0.422,0.295c-0.169,0.085-0.337,0.107-0.507,0.108
		s-0.339-0.02-0.509-0.103c-0.169-0.083-0.296-0.167-0.424-0.291C105.29,178.588,105.204,178.463,105.119,178.296z"/>
	<path display="inline" d="M113.375,182.598c1.052-1.14,2.234-1.713,3.546-1.721c1.143-0.006,2.034,0.347,2.672,1.1
		c0.597,0.711,0.919,1.696,0.926,2.913l0.028,5.229c0.678,0.122,1.081,0.204,1.208,0.245c0.212,0.041,0.34,0.188,0.341,0.396
		l0.005,0.903l-3.429,0.019l-0.036-6.761c-0.009-1.68-0.754-2.558-2.257-2.55c-1.058,0.006-2.029,0.515-2.913,1.507l0.033,6.299
		c0.042,0,0.466,0.082,1.229,0.245c0.212,0.04,0.319,0.188,0.32,0.397l0.005,0.882l-4.932,0.026l-0.005-0.882
		c-0.001-0.21,0.083-0.358,0.294-0.4l1.226-0.238l-0.04-7.579c-0.678-0.123-1.102-0.205-1.229-0.245
		c-0.211-0.042-0.297-0.188-0.298-0.397l-0.005-0.882l1.524-0.009l1.101-0.006c0.254-0.001,0.424,0.124,0.51,0.376l0.176,1.154
		V182.598z"/>
	<path display="inline" d="M127.421,180.864c0.466-0.002,0.89,0.036,1.292,0.14c0.403,0.104,0.764,0.248,1.103,0.456l2.921-0.016
		l0.003,0.692c0.001,0.231-0.146,0.38-0.442,0.444l-1.206,0.174c0.256,0.461,0.344,0.965,0.347,1.511
		c0.003,0.504-0.08,0.986-0.289,1.407c-0.21,0.421-0.462,0.78-0.82,1.076c-0.358,0.296-0.78,0.55-1.266,0.72
		c-0.486,0.171-1.015,0.236-1.607,0.239c-0.508,0.003-0.974-0.057-1.419-0.181c-0.211,0.127-0.379,0.296-0.505,0.465
		c-0.126,0.168-0.168,0.295-0.167,0.463c0.001,0.252,0.087,0.439,0.299,0.565c0.212,0.124,0.488,0.228,0.827,0.269
		c0.339,0.04,0.741,0.079,1.165,0.077s0.868,0.037,1.313,0.077c0.444,0.04,0.889,0.059,1.313,0.141s0.827,0.204,1.166,0.371
		c0.34,0.166,0.616,0.438,0.83,0.73c0.213,0.293,0.3,0.67,0.302,1.174c0.002,0.462-0.101,0.925-0.331,1.346
		c-0.231,0.422-0.589,0.801-1.01,1.14c-0.421,0.338-0.928,0.593-1.562,0.806c-0.634,0.214-1.332,0.302-2.115,0.306
		c-0.783,0.004-1.482-0.055-2.075-0.22s-1.082-0.373-1.463-0.623c-0.383-0.25-0.68-0.563-0.873-0.897
		c-0.193-0.335-0.3-0.671-0.302-1.049c-0.003-0.524,0.164-0.967,0.5-1.346c0.336-0.38,0.801-0.677,1.392-0.89
		c-0.297-0.124-0.552-0.333-0.723-0.563c-0.17-0.23-0.278-0.566-0.28-0.944c-0.001-0.168,0.041-0.294,0.082-0.462
		s0.125-0.337,0.251-0.505c0.126-0.169,0.274-0.317,0.442-0.465c0.169-0.147,0.38-0.254,0.591-0.381
		c-0.531-0.291-0.956-0.688-1.255-1.169c-0.299-0.482-0.45-1.048-0.454-1.698c-0.002-0.504,0.08-0.987,0.289-1.408
		s0.482-0.779,0.841-1.076c0.358-0.295,0.801-0.528,1.308-0.699c0.508-0.171,1.036-0.237,1.629-0.24L127.421,180.864z
		 M130.847,192.247c-0.001-0.252-0.066-0.462-0.215-0.629s-0.361-0.292-0.616-0.375c-0.254-0.082-0.53-0.144-0.869-0.185
		c-0.339-0.039-0.678-0.08-1.059-0.099s-0.741-0.017-1.122-0.036c-0.381-0.02-0.741-0.08-1.081-0.12
		c-0.401,0.19-0.738,0.424-0.991,0.697c-0.252,0.275-0.377,0.611-0.375,0.989c0.001,0.252,0.066,0.462,0.194,0.671
		c0.128,0.21,0.319,0.377,0.574,0.521c0.255,0.146,0.573,0.271,0.954,0.353c0.381,0.082,0.848,0.121,1.355,0.119
		c0.508-0.003,0.952-0.069,1.354-0.155c0.402-0.086,0.74-0.234,1.014-0.403c0.274-0.17,0.485-0.36,0.631-0.592
		c0.147-0.231,0.23-0.463,0.229-0.757H130.847z M127.473,186.512c0.381-0.002,0.719-0.067,1.015-0.173
		c0.296-0.106,0.528-0.255,0.738-0.444c0.211-0.191,0.357-0.443,0.441-0.696c0.083-0.252,0.146-0.547,0.144-0.862
		c-0.003-0.65-0.218-1.174-0.622-1.549c-0.404-0.377-0.977-0.563-1.738-0.559c-0.762,0.004-1.333,0.195-1.733,0.577
		c-0.4,0.379-0.587,0.905-0.584,1.556c0.002,0.315,0.067,0.608,0.174,0.86c0.107,0.251,0.235,0.481,0.448,0.669
		c0.212,0.188,0.446,0.334,0.743,0.438s0.593,0.144,0.974,0.142L127.473,186.512z"/>
	<path display="inline" d="M147.898,190.183c0.191,0.041,0.319,0.208,0.32,0.397l0.004,0.902l-1.376,0.008l-0.148,0.001
		l-0.677,0.003c-0.169,0.001-0.317-0.04-0.445-0.081c-0.127-0.042-0.17-0.167-0.213-0.335l-0.217-1.007
		c-0.295,0.254-0.59,0.485-0.843,0.698c-0.253,0.21-0.548,0.38-0.844,0.508c-0.296,0.127-0.591,0.234-0.93,0.319
		c-0.338,0.086-0.719,0.109-1.142,0.112c-0.423,0.002-0.784-0.06-1.144-0.184s-0.7-0.27-0.955-0.499
		c-0.255-0.229-0.469-0.522-0.639-0.879c-0.171-0.355-0.237-0.774-0.24-1.258c-0.002-0.42,0.102-0.841,0.332-1.22
		c0.231-0.379,0.631-0.76,1.137-1.056c0.506-0.297,1.182-0.574,2.028-0.767c0.846-0.193,1.861-0.282,3.088-0.289l-0.004-0.819
		c-0.004-0.84-0.198-1.469-0.56-1.887s-0.893-0.646-1.591-0.642c-0.466,0.002-0.846,0.066-1.163,0.194s-0.57,0.234-0.802,0.382
		c-0.232,0.147-0.444,0.255-0.612,0.382c-0.168,0.126-0.316,0.169-0.485,0.17c-0.127,0.001-0.255-0.019-0.339-0.082
		c-0.085-0.063-0.17-0.167-0.213-0.251l-0.342-0.586c0.589-0.57,1.222-0.973,1.898-1.27c0.676-0.298,1.437-0.428,2.283-0.433
		c0.593-0.003,1.144,0.078,1.61,0.286c0.467,0.207,0.849,0.457,1.168,0.791c0.319,0.334,0.554,0.753,0.726,1.256
		s0.238,1.049,0.241,1.637l0.028,5.313c0.297,0.061,0.932,0.184,1.06,0.225L147.898,190.183z M144.959,186.755
		c-0.868,0.005-1.608,0.051-2.2,0.159c-0.592,0.107-1.099,0.278-1.479,0.448c-0.38,0.17-0.675,0.382-0.843,0.635
		s-0.251,0.505-0.25,0.799s0.066,0.504,0.152,0.713c0.086,0.21,0.214,0.377,0.383,0.502c0.17,0.125,0.34,0.208,0.552,0.271
		c0.212,0.062,0.445,0.103,0.699,0.101c0.338-0.001,0.614-0.045,0.888-0.108c0.275-0.065,0.528-0.15,0.782-0.278
		c0.253-0.127,0.485-0.296,0.696-0.466c0.211-0.169,0.421-0.38,0.632-0.591L144.959,186.755z"/>
	<path display="inline" d="M152.748,182.389c1.052-1.14,2.234-1.713,3.546-1.721c1.143-0.006,2.034,0.347,2.673,1.1
		c0.596,0.711,0.919,1.696,0.925,2.913l0.028,5.229c0.678,0.122,1.081,0.204,1.208,0.245c0.212,0.041,0.34,0.188,0.341,0.396
		l0.004,0.903l-3.428,0.019l-0.036-6.761c-0.009-1.68-0.754-2.558-2.257-2.55c-1.058,0.006-2.029,0.515-2.912,1.507l0.033,6.299
		c0.042,0,0.466,0.082,1.229,0.245c0.211,0.04,0.318,0.188,0.319,0.397l0.005,0.882l-4.932,0.025l-0.005-0.881
		c-0.001-0.211,0.083-0.358,0.294-0.4l1.226-0.238l-0.04-7.579c-0.678-0.123-1.102-0.205-1.229-0.245
		c-0.211-0.042-0.297-0.188-0.298-0.397l-0.005-0.882l1.524-0.009l1.101-0.006c0.254-0.001,0.424,0.124,0.51,0.376l0.176,1.154
		V182.389z"/>
	<path display="inline" d="M167.048,180.591c1.185-0.007,2.182,0.408,2.949,1.244l-0.023-4.367c-0.721-0.122-1.208-0.203-1.42-0.244
		s-0.318-0.167-0.319-0.377l-0.005-0.924l3.598-0.019l0.074,13.941c0.678,0.122,1.102,0.204,1.229,0.245
		c0.211,0.041,0.297,0.166,0.298,0.376l0.005,0.924l-2.625,0.015c-0.254,0.001-0.424-0.146-0.51-0.397l-0.176-1.279
		c-1.01,1.224-2.191,1.817-3.588,1.825c-1.27,0.007-2.246-0.45-2.97-1.37c-0.725-0.94-1.113-2.262-1.122-4.025
		c-0.008-1.596,0.408-2.941,1.228-3.954c0.841-1.054,1.981-1.606,3.399-1.613H167.048z M167.162,190.06
		c1.101-0.006,2.071-0.558,2.87-1.632l-0.027-5.123c-0.64-0.837-1.467-1.252-2.483-1.247c-1.016,0.006-1.797,0.346-2.343,1.063
		s-0.795,1.726-0.788,3.027c0.011,2.016,0.525,3.231,1.585,3.688c0.34,0.146,0.742,0.206,1.165,0.204L167.162,190.06z"/>
	<path display="inline" d="M182.492,182.881c0.775-1.578,1.85-2.382,3.247-2.39c0.55-0.003,1.038,0.121,1.462,0.37l-0.226,1.408
		c-0.041,0.168-0.146,0.273-0.273,0.274s-0.296-0.04-0.508-0.103c-0.212-0.062-0.487-0.103-0.869-0.1
		c-1.228,0.006-2.155,0.767-2.739,2.239l0.028,5.249c0.169,0.041,0.572,0.102,1.208,0.226c0.212,0.04,0.318,0.187,0.319,0.396
		l0.005,0.882l-4.931,0.026l-0.005-0.882c-0.001-0.21,0.104-0.358,0.315-0.4l1.205-0.237l-0.04-7.579
		c-0.678-0.124-1.081-0.205-1.208-0.246c-0.211-0.042-0.318-0.188-0.319-0.397l-0.005-0.882l1.524-0.008l1.079-0.006
		c0.212-0.001,0.318,0.02,0.403,0.104c0.084,0.083,0.128,0.208,0.171,0.397l0.136,1.657H182.492z"/>
	<path display="inline" d="M192.619,180.497c0.635-0.004,1.228,0.099,1.78,0.305c0.551,0.208,1.018,0.499,1.401,0.896
		c0.384,0.397,0.725,0.899,0.94,1.486c0.214,0.586,0.345,1.258,0.349,2.014c0.002,0.293-0.018,0.504-0.081,0.588
		s-0.211,0.147-0.381,0.148l-7.111,0.038c0.003,0.672,0.091,1.259,0.264,1.762c0.171,0.504,0.428,0.88,0.726,1.215
		c0.298,0.334,0.638,0.584,1.063,0.75c0.424,0.165,0.848,0.247,1.356,0.244c0.465-0.002,0.888-0.046,1.227-0.153
		c0.338-0.106,0.634-0.234,0.887-0.361c0.253-0.128,0.465-0.234,0.634-0.34c0.168-0.104,0.295-0.169,0.422-0.17
		c0.169-0.001,0.275,0.063,0.36,0.187l0.533,0.69c-0.231,0.296-0.505,0.507-0.843,0.719c-0.337,0.212-0.654,0.402-1.034,0.53
		c-0.38,0.129-0.761,0.235-1.141,0.301c-0.381,0.064-0.783,0.108-1.164,0.11c-0.741,0.004-1.418-0.118-2.055-0.367
		c-0.636-0.248-1.167-0.623-1.635-1.104c-0.468-0.479-0.81-1.066-1.068-1.778c-0.258-0.713-0.389-1.51-0.394-2.434
		c-0.004-0.756,0.12-1.429,0.349-2.06s0.565-1.221,0.986-1.685c0.421-0.465,0.948-0.846,1.582-1.122
		c0.633-0.275,1.331-0.405,2.093-0.409H192.619z M192.69,181.862c-0.91,0.004-1.628,0.26-2.133,0.787
		c-0.505,0.527-0.84,1.265-0.962,2.188l5.82-0.03c-0.002-0.42-0.068-0.819-0.197-1.175s-0.279-0.691-0.513-0.941
		c-0.234-0.251-0.531-0.461-0.871-0.605s-0.742-0.206-1.166-0.203L192.69,181.862z"/>
	<path display="inline" d="M215.606,180.564l0.004,0.902c0.001,0.21-0.104,0.336-0.315,0.38c-0.084,0-0.232,0.064-0.528,0.106
		c-0.296,0.045-0.465,0.108-0.529,0.108l-2.936,9.128l-1.481,0.009c-0.19,0.001-0.318-0.083-0.383-0.334l-2.409-7.21
		c-0.064-0.168-0.107-0.336-0.151-0.504c-0.043-0.167-0.065-0.335-0.108-0.461c-0.041,0.168-0.04,0.336-0.082,0.504
		c-0.042,0.169-0.083,0.295-0.125,0.463l-2.375,7.215c-0.083,0.253-0.209,0.357-0.421,0.358l-1.439,0.008l-3.011-9.118
		c-0.042,0.001-0.19-0.019-0.36-0.061c-0.424-0.081-0.635-0.143-0.699-0.143c-0.212-0.042-0.339-0.188-0.341-0.397l-0.004-0.882
		l4.783-0.025l0.004,0.882c0.001,0.21-0.104,0.357-0.315,0.401c-0.127,0.041-0.529,0.107-1.163,0.236l1.723,5.702
		c0.13,0.629,0.26,1.111,0.304,1.447c0.062-0.295,0.208-0.778,0.416-1.451l2.207-6.898c0.083-0.253,0.252-0.38,0.506-0.381
		l0.825-0.004c0.275-0.002,0.446,0.123,0.531,0.375l2.259,6.875c0.086,0.293,0.216,0.775,0.389,1.425
		c0.082-0.482,0.185-0.967,0.31-1.429l1.705-5.721c-0.084,0.001-0.508-0.081-1.229-0.224c-0.211-0.042-0.34-0.188-0.341-0.397
		l-0.004-0.882L215.606,180.564z"/>
	<path display="inline" d="M226.05,189.768c0.19,0.041,0.318,0.209,0.319,0.398l0.005,0.902l-1.375,0.007l-0.148,0.001l-0.677,0.004
		c-0.169,0-0.317-0.041-0.445-0.082c-0.127-0.041-0.17-0.167-0.213-0.335l-0.217-1.007c-0.295,0.254-0.59,0.485-0.843,0.698
		c-0.253,0.21-0.548,0.38-0.843,0.508c-0.296,0.127-0.592,0.234-0.93,0.319c-0.338,0.086-0.719,0.109-1.142,0.112
		c-0.423,0.002-0.783-0.06-1.144-0.184c-0.36-0.124-0.7-0.27-0.955-0.499c-0.256-0.229-0.469-0.522-0.64-0.878
		c-0.171-0.356-0.237-0.775-0.239-1.259c-0.002-0.42,0.102-0.841,0.332-1.22c0.231-0.379,0.631-0.759,1.138-1.056
		c0.506-0.297,1.182-0.574,2.028-0.767c0.846-0.193,1.861-0.282,3.088-0.289l-0.004-0.819c-0.004-0.84-0.198-1.469-0.561-1.887
		c-0.362-0.418-0.892-0.646-1.591-0.642c-0.465,0.002-0.846,0.066-1.163,0.194c-0.316,0.128-0.57,0.234-0.802,0.382
		c-0.232,0.148-0.443,0.255-0.612,0.382c-0.168,0.127-0.316,0.169-0.486,0.17c-0.127,0.001-0.254-0.019-0.339-0.082
		c-0.085-0.063-0.17-0.167-0.213-0.251l-0.342-0.586c0.589-0.57,1.223-0.972,1.898-1.27c0.675-0.298,1.437-0.428,2.283-0.433
		c0.593-0.003,1.144,0.078,1.61,0.286c0.467,0.207,0.849,0.457,1.168,0.791c0.319,0.335,0.554,0.753,0.726,1.256
		c0.172,0.503,0.239,1.049,0.242,1.637l0.028,5.313c0.297,0.061,0.932,0.184,1.059,0.225V189.768z M223.111,186.34
		c-0.868,0.005-1.608,0.051-2.2,0.159c-0.592,0.107-1.099,0.278-1.479,0.448c-0.38,0.17-0.675,0.382-0.843,0.635
		c-0.168,0.253-0.252,0.505-0.25,0.799c0.001,0.294,0.066,0.504,0.152,0.713c0.086,0.21,0.214,0.377,0.384,0.502
		s0.34,0.208,0.552,0.271c0.211,0.062,0.445,0.103,0.699,0.101c0.339-0.001,0.613-0.045,0.889-0.108
		c0.274-0.065,0.528-0.15,0.782-0.278c0.253-0.127,0.485-0.296,0.696-0.465c0.21-0.17,0.421-0.381,0.631-0.592L223.111,186.34z"/>
	<path display="inline" d="M230.924,182.624c0.775-1.579,1.851-2.382,3.247-2.39c0.55-0.003,1.038,0.12,1.462,0.37l-0.226,1.407
		c-0.041,0.169-0.146,0.274-0.273,0.275c-0.127,0-0.297-0.041-0.508-0.103c-0.212-0.062-0.487-0.103-0.869-0.101
		c-1.228,0.007-2.155,0.768-2.739,2.24l0.028,5.249c0.169,0.041,0.572,0.102,1.207,0.226c0.212,0.039,0.319,0.187,0.32,0.396
		l0.004,0.882l-4.931,0.026l-0.004-0.882c-0.001-0.21,0.104-0.358,0.315-0.4l1.205-0.238l-0.04-7.579
		c-0.678-0.123-1.081-0.205-1.208-0.245c-0.212-0.042-0.318-0.188-0.319-0.397l-0.005-0.882l1.524-0.009l1.079-0.005
		c0.212-0.002,0.318,0.02,0.403,0.103c0.085,0.084,0.128,0.209,0.171,0.398l0.136,1.657H230.924z"/>
	<path display="inline" d="M241.115,180.197c1.185-0.006,2.182,0.408,2.949,1.244l-0.023-4.367c-0.72-0.122-1.208-0.203-1.419-0.244
		s-0.318-0.166-0.319-0.376l-0.005-0.924l3.598-0.02l0.074,13.941c0.678,0.122,1.102,0.204,1.229,0.245
		c0.211,0.041,0.297,0.167,0.298,0.377l0.005,0.924l-2.625,0.014c-0.254,0.001-0.424-0.146-0.51-0.396l-0.176-1.279
		c-1.01,1.223-2.192,1.817-3.588,1.824c-1.27,0.007-2.246-0.45-2.97-1.37c-0.725-0.94-1.113-2.262-1.122-4.025
		c-0.009-1.596,0.408-2.941,1.228-3.953c0.841-1.055,1.981-1.606,3.399-1.614H241.115z M241.229,189.667
		c1.101-0.006,2.071-0.558,2.87-1.633l-0.027-5.123c-0.64-0.836-1.467-1.252-2.483-1.246c-1.016,0.005-1.797,0.345-2.343,1.062
		s-0.795,1.727-0.788,3.028c0.011,2.016,0.525,3.23,1.585,3.687c0.339,0.146,0.742,0.206,1.165,0.204L241.229,189.667z"/>
	<path display="inline" d="M253.593,190.063l0.005,0.903l-4.931,0.025l-0.005-0.903c-0.001-0.188,0.125-0.356,0.315-0.399
		c0.19-0.043,1.226-0.237,1.226-0.237l-0.04-7.58c0,0-1.038-0.184-1.229-0.224c-0.19-0.042-0.318-0.21-0.319-0.398l-0.005-0.882
		l3.407-0.018l0.048,9.092c0,0,1.017,0.183,1.208,0.224C253.464,189.706,253.592,189.874,253.593,190.063z M249.844,177.527
		c-0.085-0.168-0.108-0.336-0.109-0.504s0.02-0.357,0.103-0.525c0.084-0.169,0.168-0.315,0.294-0.443
		c0.126-0.126,0.252-0.21,0.421-0.295s0.338-0.107,0.507-0.108s0.339,0.02,0.508,0.103c0.17,0.083,0.297,0.167,0.425,0.291
		c0.127,0.126,0.213,0.272,0.298,0.439c0.086,0.168,0.129,0.357,0.13,0.525s-0.04,0.336-0.125,0.504
		c-0.083,0.169-0.167,0.294-0.294,0.422c-0.126,0.126-0.253,0.21-0.422,0.295c-0.168,0.085-0.338,0.107-0.507,0.108
		s-0.338-0.02-0.508-0.103s-0.297-0.167-0.425-0.291C250.015,177.819,249.929,177.694,249.844,177.527z"/>
	<path display="inline" d="M258.101,181.829c1.052-1.14,2.234-1.713,3.546-1.72c1.143-0.007,2.034,0.347,2.673,1.099
		c0.597,0.711,0.919,1.696,0.926,2.913l0.028,5.229c0.678,0.122,1.08,0.204,1.207,0.245c0.212,0.041,0.34,0.188,0.341,0.397
		l0.004,0.903l-3.429,0.018l-0.036-6.761c-0.009-1.68-0.754-2.558-2.257-2.549c-1.058,0.005-2.029,0.515-2.912,1.506l0.033,6.299
		c0.042,0,0.466,0.082,1.229,0.246c0.211,0.04,0.318,0.187,0.319,0.396l0.005,0.882l-4.931,0.026l-0.005-0.882
		c-0.001-0.21,0.083-0.358,0.294-0.4l1.226-0.238l-0.04-7.578c-0.678-0.124-1.102-0.205-1.229-0.246
		c-0.211-0.042-0.297-0.188-0.298-0.397l-0.005-0.882l1.523-0.008l1.101-0.006c0.254-0.002,0.424,0.123,0.51,0.375l0.175,1.154
		V181.829z"/>
	<path display="inline" d="M272.147,180.097c0.465-0.003,0.889,0.036,1.292,0.14c0.402,0.103,0.763,0.247,1.103,0.456l2.92-0.016
		l0.003,0.692c0.001,0.231-0.146,0.379-0.442,0.443l-1.206,0.175c0.257,0.46,0.344,0.964,0.347,1.51
		c0.003,0.504-0.079,0.986-0.289,1.407s-0.461,0.78-0.82,1.076s-0.78,0.55-1.266,0.721c-0.486,0.17-1.015,0.235-1.607,0.238
		c-0.508,0.003-0.974-0.057-1.419-0.181c-0.211,0.127-0.379,0.296-0.506,0.465c-0.126,0.169-0.167,0.295-0.167,0.463
		c0.001,0.252,0.087,0.439,0.299,0.565c0.212,0.124,0.488,0.229,0.827,0.269c0.338,0.04,0.741,0.08,1.165,0.077
		c0.423-0.002,0.868,0.038,1.312,0.077c0.445,0.04,0.89,0.059,1.313,0.141s0.826,0.205,1.166,0.371
		c0.339,0.166,0.616,0.438,0.829,0.73s0.3,0.671,0.303,1.175c0.002,0.462-0.101,0.924-0.332,1.345
		c-0.23,0.422-0.588,0.802-1.009,1.14c-0.422,0.338-0.928,0.593-1.563,0.806c-0.633,0.214-1.331,0.302-2.114,0.306
		s-1.482-0.055-2.076-0.22s-1.082-0.373-1.464-0.623c-0.382-0.25-0.68-0.563-0.872-0.897c-0.192-0.335-0.3-0.67-0.302-1.048
		c-0.002-0.524,0.165-0.967,0.501-1.347c0.337-0.38,0.8-0.677,1.392-0.89c-0.297-0.124-0.552-0.333-0.723-0.563
		c-0.17-0.23-0.278-0.565-0.28-0.943c-0.001-0.168,0.041-0.295,0.082-0.463s0.125-0.336,0.251-0.505
		c0.126-0.169,0.274-0.317,0.442-0.465c0.168-0.146,0.379-0.254,0.59-0.381c-0.53-0.291-0.956-0.688-1.255-1.169
		s-0.45-1.048-0.453-1.698c-0.003-0.504,0.079-0.987,0.289-1.408s0.483-0.779,0.841-1.076c0.358-0.295,0.801-0.528,1.309-0.699
		c0.507-0.171,1.036-0.236,1.628-0.24L272.147,180.097z M275.573,191.479c-0.001-0.252-0.066-0.462-0.215-0.629
		c-0.149-0.167-0.361-0.292-0.616-0.374c-0.254-0.083-0.529-0.145-0.869-0.186c-0.339-0.039-0.678-0.08-1.059-0.099
		c-0.381-0.019-0.741-0.017-1.123-0.036c-0.381-0.02-0.741-0.08-1.08-0.12c-0.401,0.19-0.738,0.424-0.991,0.697
		c-0.253,0.275-0.378,0.611-0.376,0.989c0.001,0.252,0.066,0.462,0.195,0.671c0.128,0.21,0.319,0.377,0.574,0.521
		c0.255,0.146,0.573,0.271,0.954,0.353c0.382,0.082,0.848,0.122,1.355,0.119c0.508-0.003,0.952-0.068,1.354-0.155
		c0.402-0.086,0.74-0.234,1.014-0.403c0.274-0.17,0.485-0.36,0.631-0.592c0.147-0.23,0.23-0.463,0.229-0.757H275.573z
		 M272.198,185.743c0.381-0.002,0.72-0.067,1.016-0.173c0.295-0.106,0.527-0.255,0.738-0.444c0.21-0.19,0.357-0.443,0.44-0.696
		c0.083-0.252,0.145-0.546,0.144-0.861c-0.003-0.65-0.218-1.175-0.622-1.55c-0.404-0.377-0.976-0.563-1.738-0.559
		c-0.762,0.005-1.333,0.196-1.732,0.577c-0.4,0.379-0.588,0.905-0.584,1.556c0.001,0.315,0.067,0.609,0.174,0.86
		c0.107,0.252,0.236,0.481,0.448,0.67c0.213,0.188,0.446,0.333,0.743,0.438c0.297,0.103,0.594,0.143,0.975,0.141V185.743z"/>
	<path display="inline" d="M285.284,190.251c-0.468-0.459-0.683-1.13-0.688-2.012l-0.035-6.509l-1.291,0.007
		c-0.127,0.001-0.211-0.02-0.297-0.082c-0.084-0.063-0.107-0.188-0.107-0.315l-0.004-0.734l1.755-0.239l0.406-3.3
		c-0.001-0.105,0.041-0.189,0.125-0.252c0.084-0.063,0.169-0.085,0.296-0.086l0.952-0.005l0.02,3.653l3.069-0.017l0.007,1.364
		l-3.069,0.017l0.034,6.383c0.002,0.463,0.11,0.798,0.323,1.006c0.212,0.21,0.53,0.313,0.869,0.311
		c0.211-0.001,0.381-0.044,0.528-0.086c0.148-0.043,0.275-0.106,0.38-0.171c0.105-0.063,0.168-0.126,0.253-0.169
		c0.084-0.042,0.168-0.085,0.211-0.085c0.085-0.001,0.169,0.041,0.254,0.167l0.555,0.879c-0.337,0.295-0.716,0.549-1.181,0.72
		c-0.465,0.17-0.93,0.257-1.417,0.26C286.388,190.959,285.752,190.711,285.284,190.251z"/>
	<path display="inline" d="M297.844,179.938c1.143-0.006,2.034,0.347,2.672,1.077c0.618,0.711,0.94,1.717,0.947,2.935l0.028,5.229
		c0.678,0.121,1.081,0.203,1.208,0.246c0.212,0.039,0.318,0.187,0.32,0.396l0.004,0.882l-3.407,0.018l-0.036-6.761
		c-0.009-1.68-0.776-2.536-2.278-2.528c-1.058,0.006-1.987,0.515-2.87,1.506l0.033,6.299l0.254,0.041
		c0.551,0.103,0.847,0.163,0.932,0.185c0.212,0.04,0.34,0.187,0.341,0.396l0.005,0.882l-4.953,0.026l-0.005-0.882
		c-0.001-0.21,0.125-0.358,0.337-0.4l1.184-0.237l-0.066-12.409c-0.805-0.121-1.271-0.202-1.398-0.245
		c-0.212-0.039-0.34-0.187-0.341-0.396l-0.004-0.882l3.641-0.019l0.033,6.256C295.434,180.497,296.553,179.945,297.844,179.938z"/>
	<path display="inline" d="M311.204,180.245c0.636,0.249,1.188,0.624,1.635,1.083c0.447,0.46,0.789,1.046,1.025,1.717
		c0.237,0.671,0.368,1.426,0.372,2.266s-0.119,1.596-0.348,2.27c-0.229,0.673-0.565,1.263-1.007,1.727
		c-0.441,0.465-0.99,0.846-1.624,1.101s-1.332,0.385-2.115,0.39c-0.783,0.004-1.482-0.118-2.118-0.367
		c-0.636-0.248-1.188-0.623-1.635-1.083s-0.789-1.046-1.046-1.716c-0.257-0.671-0.346-1.427-0.351-2.267
		c-0.004-0.839,0.076-1.596,0.327-2.269c0.25-0.674,0.586-1.264,1.028-1.728s0.99-0.845,1.624-1.101
		c0.633-0.255,1.331-0.385,2.114-0.389C309.868,179.874,310.567,179.997,311.204,180.245z M311.5,188.307
		c0.504-0.717,0.774-1.705,0.768-2.965c-0.006-1.259-0.287-2.245-0.799-2.956s-1.318-1.043-2.376-1.037
		c-0.55,0.003-1.015,0.089-1.396,0.259s-0.717,0.466-0.97,0.804c-0.252,0.337-0.461,0.758-0.585,1.263
		c-0.125,0.504-0.206,1.093-0.203,1.723s0.091,1.175,0.221,1.679c0.129,0.503,0.343,0.922,0.599,1.257
		c0.256,0.334,0.596,0.584,0.978,0.75c0.382,0.166,0.848,0.29,1.398,0.287C310.193,189.363,310.996,189.022,311.5,188.307z"/>
	<path display="inline" d="M320.694,189.308c1.058-0.006,2.029-0.515,2.892-1.485l-0.034-6.299c-0.127-0.041-0.53-0.123-1.208-0.245
		c-0.211-0.041-0.318-0.188-0.319-0.398l-0.005-0.902l1.524-0.008l1.884-0.01l0.048,9.112c0.678,0.122,1.08,0.204,1.208,0.245
		c0.212,0.041,0.319,0.166,0.32,0.376l0.005,0.902l-2.646,0.015c-0.254,0.001-0.424-0.145-0.51-0.396l-0.154-1.134
		c-1.01,1.14-2.192,1.712-3.546,1.72c-1.143,0.006-2.034-0.366-2.673-1.099c-0.597-0.711-0.94-1.654-0.947-2.914l-0.028-5.248
		c-0.678-0.123-1.059-0.205-1.187-0.245c-0.212-0.042-0.34-0.188-0.341-0.397l-0.005-0.882l3.429-0.019l0.036,6.761
		c0.004,0.798,0.177,1.447,0.56,1.887c0.383,0.439,0.935,0.646,1.697,0.642L320.694,189.308z"/>
	<path display="inline" d="M332.349,179.776c0.465-0.002,0.889,0.036,1.292,0.14c0.402,0.104,0.763,0.248,1.103,0.456l2.92-0.016
		l0.003,0.692c0.001,0.231-0.146,0.38-0.442,0.444l-1.206,0.174c0.256,0.461,0.344,0.964,0.347,1.51
		c0.003,0.504-0.08,0.987-0.289,1.408c-0.21,0.421-0.462,0.78-0.82,1.076c-0.358,0.295-0.78,0.55-1.266,0.72
		c-0.486,0.171-1.015,0.236-1.607,0.239c-0.508,0.003-0.974-0.058-1.419-0.181c-0.211,0.127-0.379,0.296-0.505,0.465
		c-0.126,0.168-0.168,0.295-0.167,0.463c0.001,0.252,0.087,0.439,0.299,0.565c0.212,0.124,0.488,0.228,0.827,0.268
		c0.338,0.041,0.741,0.08,1.165,0.078s0.868,0.037,1.313,0.077c0.444,0.04,0.889,0.059,1.313,0.141
		c0.424,0.082,0.827,0.204,1.166,0.37c0.34,0.167,0.616,0.438,0.83,0.731c0.213,0.293,0.3,0.67,0.303,1.174
		c0.002,0.462-0.101,0.925-0.332,1.346c-0.231,0.421-0.588,0.801-1.01,1.14c-0.421,0.338-0.929,0.593-1.562,0.806
		c-0.634,0.214-1.332,0.301-2.115,0.306c-0.783,0.004-1.482-0.055-2.075-0.22c-0.594-0.165-1.082-0.373-1.464-0.623
		c-0.382-0.25-0.68-0.563-0.873-0.897s-0.3-0.671-0.302-1.049c-0.003-0.524,0.164-0.967,0.5-1.346
		c0.337-0.38,0.801-0.677,1.392-0.89c-0.297-0.124-0.552-0.333-0.723-0.563c-0.17-0.23-0.278-0.566-0.28-0.944
		c-0.001-0.168,0.041-0.294,0.082-0.462s0.125-0.337,0.251-0.505c0.126-0.169,0.274-0.317,0.442-0.465s0.38-0.254,0.59-0.381
		c-0.53-0.291-0.956-0.688-1.254-1.169c-0.299-0.482-0.45-1.048-0.454-1.698c-0.002-0.504,0.079-0.987,0.289-1.408
		c0.209-0.422,0.482-0.779,0.841-1.076c0.358-0.295,0.801-0.528,1.309-0.699s1.036-0.237,1.628-0.24L332.349,179.776z
		 M335.774,191.159c-0.001-0.252-0.066-0.462-0.215-0.629c-0.148-0.167-0.361-0.292-0.616-0.375
		c-0.254-0.082-0.53-0.144-0.869-0.185c-0.339-0.039-0.678-0.08-1.059-0.099c-0.381-0.019-0.741-0.017-1.122-0.036
		s-0.741-0.08-1.08-0.12c-0.401,0.19-0.738,0.424-0.991,0.697c-0.252,0.274-0.377,0.611-0.375,0.989
		c0.001,0.252,0.066,0.462,0.194,0.671s0.319,0.376,0.575,0.521c0.254,0.146,0.573,0.271,0.954,0.353
		c0.381,0.082,0.848,0.121,1.355,0.118c0.508-0.002,0.952-0.068,1.354-0.154c0.402-0.086,0.74-0.234,1.014-0.403
		c0.274-0.17,0.485-0.36,0.631-0.592c0.147-0.231,0.23-0.463,0.229-0.757H335.774z M332.4,185.424
		c0.381-0.002,0.719-0.067,1.015-0.173c0.296-0.106,0.528-0.255,0.739-0.444c0.21-0.191,0.357-0.443,0.441-0.696
		c0.083-0.252,0.145-0.547,0.143-0.862c-0.003-0.65-0.218-1.175-0.622-1.549c-0.404-0.377-0.977-0.563-1.738-0.559
		s-1.333,0.195-1.732,0.577c-0.4,0.379-0.588,0.905-0.584,1.556c0.002,0.315,0.067,0.608,0.174,0.86
		c0.106,0.251,0.235,0.481,0.448,0.669c0.212,0.188,0.446,0.334,0.743,0.438s0.593,0.144,0.974,0.142L332.4,185.424z"/>
	<path display="inline" d="M345.812,179.684c1.143-0.006,2.034,0.347,2.673,1.078c0.617,0.71,0.94,1.716,0.946,2.934l0.028,5.229
		c0.678,0.122,1.081,0.203,1.208,0.246c0.211,0.04,0.318,0.187,0.319,0.396l0.005,0.882l-3.408,0.019l-0.036-6.761
		c-0.009-1.68-0.775-2.537-2.278-2.529c-1.058,0.006-1.987,0.515-2.871,1.507l0.034,6.299l0.254,0.04
		c0.551,0.103,0.848,0.164,0.933,0.185c0.212,0.04,0.339,0.187,0.341,0.396l0.004,0.882l-4.953,0.026l-0.004-0.882
		c-0.001-0.21,0.125-0.357,0.336-0.4l1.184-0.237l-0.066-12.409c-0.805-0.121-1.271-0.202-1.398-0.244
		c-0.211-0.04-0.339-0.187-0.34-0.396l-0.005-0.882l3.64-0.02l0.033,6.257C343.402,180.242,344.521,179.69,345.812,179.684z"/>
	<path display="inline" d="M354.165,189.886c-0.468-0.46-0.683-1.13-0.688-2.012l-0.035-6.509l-1.291,0.007
		c-0.127,0-0.211-0.02-0.296-0.083c-0.085-0.063-0.107-0.188-0.107-0.314l-0.004-0.734l1.755-0.24l0.406-3.299
		c-0.001-0.105,0.041-0.189,0.125-0.253c0.084-0.063,0.169-0.085,0.296-0.085l0.953-0.005l0.02,3.652l3.068-0.016l0.007,1.364
		l-3.069,0.016l0.034,6.383c0.002,0.463,0.109,0.799,0.323,1.007c0.212,0.209,0.531,0.313,0.869,0.311
		c0.212-0.001,0.381-0.044,0.529-0.087s0.274-0.105,0.38-0.17c0.106-0.064,0.169-0.127,0.253-0.169
		c0.084-0.043,0.169-0.085,0.211-0.086c0.084,0,0.169,0.042,0.255,0.167l0.555,0.879c-0.337,0.296-0.717,0.55-1.182,0.721
		c-0.464,0.17-0.93,0.257-1.417,0.259C355.269,190.594,354.633,190.345,354.165,189.886z"/>
	<path display="inline" d="M365.439,176.556c-1.439,0.008-2.155,0.81-2.146,2.426l0.005,0.987l3.09-0.017l0.007,1.344l-3.048,0.017
		l0.04,7.538c0.847,0.12,1.313,0.202,1.419,0.223c0.212,0.041,0.318,0.188,0.32,0.396l0.005,0.903l-5.249,0.028l-0.005-0.903
		c-0.001-0.209,0.104-0.357,0.315-0.4l1.311-0.237l-0.04-7.496l-1.186-0.141c-0.339-0.082-0.509-0.229-0.51-0.48l-0.004-0.756
		l1.692-0.009l-0.005-1.028c-0.006-1.219,0.306-2.165,0.979-2.84c0.653-0.676,1.541-0.996,2.683-1.002
		c0.466-0.002,0.91,0.079,1.334,0.204l-0.038,0.944c0.001,0.126-0.063,0.21-0.189,0.253c-0.127,0.043-0.275,0.044-0.487,0.045
		l-0.317,0.001H365.439z"/>
	<path display="inline" d="M373.042,189.029c1.059-0.006,2.03-0.515,2.892-1.485l-0.033-6.298c-0.127-0.042-0.53-0.124-1.208-0.246
		c-0.212-0.041-0.318-0.187-0.319-0.397l-0.005-0.902l1.524-0.008l1.883-0.011l0.048,9.112c0.678,0.122,1.081,0.204,1.208,0.246
		c0.212,0.04,0.318,0.166,0.32,0.376l0.004,0.902l-2.646,0.014c-0.254,0.002-0.424-0.144-0.51-0.396l-0.154-1.133
		c-1.01,1.139-2.192,1.712-3.547,1.719c-1.143,0.006-2.034-0.366-2.672-1.098c-0.596-0.711-0.94-1.654-0.946-2.914l-0.028-5.248
		c-0.678-0.124-1.06-0.205-1.187-0.246c-0.212-0.042-0.339-0.188-0.34-0.397l-0.005-0.882l3.429-0.019l0.036,6.761
		c0.004,0.798,0.177,1.447,0.561,1.887s0.935,0.646,1.696,0.642V189.029z"/>
	<path display="inline" d="M385.533,189.361l0.005,0.903l-4.953,0.026l-0.005-0.903c-0.001-0.209,0.125-0.356,0.337-0.4l1.184-0.236
		l-0.066-12.409c-0.678-0.122-1.059-0.204-1.186-0.245c-0.212-0.041-0.34-0.167-0.341-0.377l-0.005-0.902l3.429-0.018l0.074,13.92
		c0.678,0.122,1.06,0.204,1.187,0.245C385.404,189.006,385.532,189.152,385.533,189.361z"/>
	<path display="inline" d="M395.641,179.377c1.186-0.006,2.182,0.408,2.949,1.244l-0.023-4.367c-0.72-0.122-1.207-0.203-1.419-0.244
		c-0.212-0.041-0.318-0.166-0.319-0.376l-0.005-0.924l3.598-0.02l0.074,13.941c0.678,0.122,1.101,0.204,1.229,0.245
		c0.212,0.041,0.297,0.167,0.298,0.377l0.005,0.924l-2.624,0.014c-0.254,0.001-0.424-0.146-0.51-0.396l-0.176-1.279
		c-1.009,1.223-2.191,1.816-3.589,1.824c-1.27,0.007-2.246-0.45-2.97-1.37c-0.725-0.94-1.113-2.262-1.122-4.025
		c-0.008-1.596,0.408-2.941,1.228-3.953c0.841-1.055,1.981-1.606,3.399-1.614H395.641z M395.755,188.847
		c1.1-0.006,2.071-0.559,2.869-1.633l-0.027-5.123c-0.64-0.836-1.466-1.252-2.483-1.246c-1.016,0.005-1.797,0.345-2.343,1.062
		c-0.547,0.717-0.795,1.727-0.789,3.028c0.011,2.016,0.525,3.23,1.586,3.687c0.339,0.146,0.742,0.206,1.166,0.204L395.755,188.847z"
		/>
	<path display="inline" d="M408.119,189.241l0.005,0.903l-4.931,0.026l-0.005-0.903c-0.001-0.188,0.125-0.356,0.315-0.399
		c0.189-0.043,1.226-0.237,1.226-0.237l-0.04-7.58c0,0-1.038-0.184-1.229-0.224c-0.19-0.042-0.318-0.21-0.319-0.398l-0.005-0.882
		l3.407-0.018l0.048,9.092c0,0,1.017,0.183,1.208,0.224C407.99,188.886,408.118,189.053,408.119,189.241z M404.37,176.707
		c-0.085-0.168-0.107-0.336-0.108-0.504s0.02-0.357,0.103-0.525c0.084-0.169,0.168-0.315,0.295-0.443
		c0.126-0.126,0.252-0.21,0.421-0.295c0.168-0.085,0.338-0.107,0.507-0.108c0.17-0.001,0.339,0.02,0.509,0.103
		s0.298,0.167,0.426,0.291c0.127,0.126,0.213,0.272,0.298,0.439c0.086,0.168,0.129,0.357,0.13,0.525s-0.04,0.336-0.125,0.504
		c-0.083,0.169-0.167,0.294-0.293,0.422c-0.127,0.126-0.253,0.21-0.423,0.295c-0.168,0.085-0.337,0.107-0.507,0.108
		c-0.169,0.001-0.339-0.02-0.509-0.103c-0.169-0.083-0.296-0.167-0.424-0.291C404.541,176.999,404.455,176.874,404.37,176.707z"/>
	<path display="inline" d="M413.485,179.324c0.74-0.004,1.673,0.181,2.797,0.552l0.004,0.735l0.011,1.995l-0.825,0.004
		c-0.212,0.002-0.318-0.082-0.361-0.293c0-0.041-0.046-0.503-0.135-1.384c-0.636-0.144-1.187-0.225-1.652-0.223h-0.021
		c-0.593,0.003-1.078,0.174-1.457,0.47s-0.569,0.612-0.567,0.969s0.089,0.63,0.259,0.797c0.299,0.334,0.702,0.563,1.232,0.728
		c0.529,0.165,0.974,0.269,1.313,0.393l1.018,0.372c0.339,0.125,0.639,0.333,0.894,0.542c0.594,0.458,0.872,1.066,0.877,1.843
		c0.005,1.008-0.329,1.829-1.024,2.44c-0.718,0.634-1.688,0.997-2.832,1.003c-1.142,0.006-2.328-0.177-3.474-0.549l-0.015-2.771
		l0.762-0.004c0.169-0.001,0.276,0.082,0.32,0.25c0,0.063,0.044,0.504,0.134,1.343c0.593,0.291,1.335,0.413,2.181,0.408
		c0.699-0.003,1.249-0.194,1.649-0.533c0.358-0.317,0.546-0.675,0.543-1.074c-0.002-0.399-0.087-0.691-0.258-0.88
		c-0.17-0.188-0.382-0.376-0.637-0.501c-0.255-0.124-0.552-0.249-0.892-0.331c-0.933-0.289-1.59-0.495-1.971-0.661
		c-0.382-0.166-0.701-0.374-0.956-0.583c-0.595-0.479-0.896-1.129-0.899-1.969c-0.005-0.86,0.33-1.556,1.004-2.147
		c0.718-0.634,1.688-0.933,3.002-0.939H413.485z"/>
	<path display="inline" d="M423.027,190.213c-1.376,0.008-2.479-0.47-3.353-1.431c-0.915-1.003-1.389-2.345-1.397-4.024
		c-0.009-1.638,0.408-2.92,1.271-3.933c0.904-1.034,2.172-1.545,3.761-1.553c0.803-0.005,1.863,0.242,3.177,0.738l0.015,2.771
		l-0.847,0.005c-0.21,0.001-0.317-0.082-0.361-0.292c-0.021-0.084-0.044-0.336-0.089-0.798c-0.044-0.461-0.067-0.671-0.067-0.692
		c-0.338-0.103-0.593-0.144-0.763-0.185c-0.423-0.062-0.803-0.08-1.186-0.078c-0.38,0.002-0.783,0.109-1.162,0.279
		c-0.381,0.17-0.718,0.445-0.99,0.782c-0.548,0.717-0.796,1.684-0.79,2.943c0.007,1.26,0.311,2.267,0.863,2.978
		c0.555,0.689,1.297,1.043,2.27,1.037c0.89-0.004,1.672-0.303,2.347-0.894c0.125-0.127,0.272-0.17,0.422-0.171
		c0.148,0,0.254,0.041,0.34,0.167l0.511,0.689C426.113,189.65,424.762,190.204,423.027,190.213z"/>
	<path display="inline" d="M433.413,188.709c1.057-0.006,2.028-0.515,2.89-1.485l-0.033-6.299c-0.126-0.041-0.528-0.123-1.206-0.245
		c-0.213-0.041-0.319-0.187-0.321-0.397l-0.004-0.902l1.522-0.009l1.884-0.01l0.049,9.112c0.679,0.122,1.08,0.204,1.208,0.245
		c0.212,0.041,0.318,0.167,0.319,0.377l0.005,0.902l-2.646,0.014c-0.254,0.001-0.423-0.145-0.51-0.396l-0.153-1.133
		c-1.01,1.139-2.192,1.712-3.547,1.719c-1.142,0.006-2.034-0.366-2.672-1.099c-0.597-0.71-0.939-1.653-0.946-2.913l-0.027-5.248
		c-0.679-0.124-1.061-0.206-1.187-0.246c-0.214-0.042-0.34-0.188-0.342-0.397l-0.004-0.882l3.428-0.019l0.035,6.761
		c0.005,0.798,0.178,1.447,0.563,1.887c0.382,0.439,0.934,0.646,1.696,0.642V188.709z"/>
	<path display="inline" d="M445.109,179.156c0.74-0.004,1.673,0.181,2.797,0.552l0.004,0.735l0.011,1.995l-0.825,0.004
		c-0.212,0.002-0.318-0.082-0.361-0.293c0-0.041-0.046-0.503-0.136-1.384c-0.635-0.144-1.186-0.225-1.65-0.223h-0.021
		c-0.593,0.003-1.078,0.174-1.458,0.47c-0.379,0.296-0.568,0.612-0.566,0.969s0.088,0.63,0.258,0.797
		c0.3,0.334,0.702,0.563,1.232,0.728c0.529,0.165,0.975,0.269,1.313,0.393l1.018,0.373c0.34,0.124,0.638,0.332,0.894,0.541
		c0.595,0.458,0.872,1.066,0.876,1.843c0.006,1.008-0.329,1.829-1.022,2.441c-0.718,0.633-1.688,0.996-2.832,1.002
		c-1.142,0.006-2.328-0.177-3.474-0.549l-0.015-2.771l0.762-0.004c0.169-0.001,0.275,0.082,0.318,0.25
		c0,0.063,0.046,0.504,0.135,1.343c0.594,0.291,1.335,0.413,2.182,0.408c0.699-0.003,1.247-0.194,1.649-0.533
		c0.356-0.316,0.545-0.675,0.543-1.074s-0.088-0.691-0.259-0.88c-0.17-0.188-0.382-0.376-0.637-0.501
		c-0.254-0.124-0.552-0.249-0.891-0.331c-0.934-0.289-1.59-0.495-1.973-0.661c-0.381-0.166-0.699-0.374-0.954-0.583
		c-0.596-0.479-0.896-1.129-0.9-1.969c-0.005-0.86,0.33-1.556,1.004-2.147c0.718-0.633,1.688-0.933,3.002-0.939H445.109z"/>
	<path display="inline" d="M453.788,179.11c0.74-0.004,1.673,0.181,2.797,0.552l0.004,0.735l0.011,1.995l-0.825,0.004
		c-0.213,0.001-0.318-0.082-0.361-0.293c-0.001-0.041-0.046-0.504-0.136-1.384c-0.635-0.145-1.187-0.226-1.65-0.223h-0.021
		c-0.593,0.003-1.078,0.174-1.459,0.47c-0.378,0.296-0.567,0.612-0.565,0.969s0.088,0.63,0.258,0.797
		c0.299,0.334,0.702,0.563,1.232,0.728c0.528,0.165,0.974,0.269,1.313,0.393l1.018,0.372c0.34,0.124,0.638,0.333,0.893,0.541
		c0.596,0.459,0.872,1.067,0.876,1.844c0.006,1.008-0.328,1.829-1.022,2.44c-0.717,0.634-1.688,0.997-2.831,1.003
		c-1.143,0.006-2.328-0.178-3.475-0.549l-0.015-2.771l0.763-0.004c0.169-0.001,0.275,0.082,0.317,0.25
		c0,0.063,0.047,0.504,0.135,1.343c0.595,0.291,1.336,0.413,2.183,0.408c0.699-0.004,1.247-0.195,1.649-0.533
		c0.355-0.317,0.545-0.675,0.543-1.074s-0.089-0.691-0.259-0.88s-0.382-0.376-0.637-0.501c-0.254-0.124-0.553-0.249-0.891-0.331
		c-0.934-0.289-1.59-0.495-1.974-0.661c-0.381-0.166-0.698-0.375-0.953-0.583c-0.596-0.479-0.896-1.129-0.901-1.969
		c-0.005-0.86,0.331-1.556,1.005-2.147c0.718-0.634,1.688-0.933,3.001-0.939H453.788z"/>
	<path display="inline" d="M463.219,188.949l0.005,0.903l-4.933,0.026l-0.005-0.903c-0.001-0.188,0.126-0.357,0.317-0.4
		c0.188-0.043,1.226-0.237,1.226-0.237l-0.041-7.58c0,0-1.039-0.184-1.228-0.224c-0.191-0.042-0.32-0.209-0.321-0.397l-0.005-0.882
		l3.408-0.019l0.049,9.092c0,0,1.017,0.184,1.208,0.225S463.218,188.761,463.219,188.949z M459.471,176.414
		c-0.086-0.167-0.108-0.335-0.109-0.503s0.02-0.357,0.104-0.526c0.083-0.168,0.167-0.315,0.293-0.442
		c0.127-0.126,0.253-0.211,0.421-0.296c0.17-0.085,0.339-0.107,0.509-0.108c0.169,0,0.338,0.021,0.508,0.104s0.298,0.166,0.425,0.29
		c0.128,0.127,0.214,0.272,0.3,0.44c0.085,0.167,0.128,0.356,0.129,0.524s-0.04,0.336-0.123,0.505
		c-0.084,0.168-0.169,0.294-0.296,0.421c-0.125,0.126-0.253,0.211-0.421,0.296c-0.17,0.085-0.339,0.107-0.508,0.107
		c-0.17,0.001-0.339-0.02-0.509-0.103s-0.296-0.166-0.425-0.291C459.641,176.706,459.556,176.582,459.471,176.414z"/>
	<path display="inline" d="M471.401,179.395c0.637,0.249,1.188,0.624,1.636,1.083c0.448,0.46,0.789,1.046,1.024,1.717
		c0.236,0.671,0.368,1.426,0.373,2.266c0.004,0.84-0.12,1.597-0.349,2.27s-0.563,1.263-1.007,1.727
		c-0.442,0.465-0.989,0.846-1.624,1.101c-0.632,0.256-1.331,0.385-2.115,0.39c-0.783,0.004-1.48-0.118-2.118-0.367
		c-0.635-0.248-1.188-0.623-1.636-1.083c-0.445-0.46-0.786-1.046-1.045-1.716c-0.258-0.671-0.346-1.426-0.35-2.266
		c-0.005-0.84,0.075-1.597,0.326-2.27c0.251-0.674,0.586-1.263,1.026-1.728c0.443-0.464,0.992-0.845,1.624-1.101
		c0.635-0.255,1.331-0.385,2.114-0.389C470.066,179.024,470.767,179.146,471.401,179.395z M471.698,187.456
		c0.504-0.717,0.774-1.704,0.768-2.964s-0.287-2.246-0.799-2.957s-1.317-1.043-2.377-1.037c-0.549,0.003-1.015,0.089-1.395,0.259
		c-0.381,0.17-0.718,0.466-0.97,0.804c-0.252,0.337-0.461,0.758-0.586,1.263c-0.124,0.505-0.204,1.093-0.201,1.723
		s0.09,1.175,0.219,1.679c0.131,0.503,0.344,0.922,0.6,1.257c0.256,0.334,0.596,0.584,0.979,0.75
		c0.381,0.166,0.849,0.29,1.397,0.287C470.393,188.513,471.194,188.173,471.698,187.456z"/>
	<path display="inline" d="M478.903,180.657c1.051-1.14,2.233-1.714,3.547-1.721c1.142-0.006,2.033,0.347,2.672,1.1
		c0.596,0.71,0.918,1.696,0.925,2.913l0.027,5.229c0.678,0.122,1.082,0.204,1.208,0.245c0.214,0.041,0.34,0.188,0.342,0.396
		l0.004,0.903l-3.427,0.019l-0.036-6.761c-0.009-1.68-0.756-2.558-2.259-2.55c-1.057,0.006-2.028,0.515-2.911,1.507l0.033,6.299
		c0.041,0,0.465,0.081,1.229,0.245c0.212,0.04,0.317,0.188,0.318,0.397l0.005,0.882l-4.93,0.025l-0.005-0.882
		c-0.001-0.21,0.083-0.357,0.293-0.399l1.227-0.238l-0.04-7.579c-0.677-0.123-1.102-0.205-1.229-0.245
		c-0.21-0.042-0.296-0.188-0.297-0.398l-0.005-0.882l1.523-0.008l1.101-0.006c0.254-0.001,0.425,0.124,0.51,0.375l0.176,1.155
		V180.657z"/>
	<path display="inline" d="M492.991,178.902c0.742-0.004,1.674,0.181,2.797,0.552l0.004,0.735l0.011,1.995l-0.825,0.004
		c-0.211,0.001-0.318-0.082-0.362-0.293c0-0.041-0.044-0.504-0.133-1.384c-0.637-0.145-1.188-0.226-1.654-0.223h-0.02
		c-0.593,0.003-1.08,0.174-1.458,0.47c-0.381,0.296-0.567,0.612-0.565,0.969s0.088,0.629,0.258,0.797
		c0.297,0.334,0.699,0.563,1.23,0.728c0.53,0.165,0.977,0.269,1.315,0.393l1.019,0.372c0.339,0.124,0.635,0.333,0.891,0.541
		c0.595,0.459,0.873,1.067,0.878,1.844c0.005,1.008-0.33,1.828-1.024,2.44c-0.716,0.634-1.688,0.996-2.831,1.003
		c-1.144,0.006-2.33-0.178-3.474-0.55l-0.015-2.771l0.762-0.005c0.17-0.001,0.275,0.083,0.318,0.251
		c0.001,0.063,0.044,0.503,0.134,1.343c0.594,0.291,1.337,0.413,2.184,0.408c0.696-0.004,1.247-0.195,1.646-0.533
		c0.358-0.317,0.548-0.675,0.546-1.074s-0.088-0.691-0.259-0.88c-0.17-0.189-0.384-0.376-0.639-0.501s-0.551-0.249-0.89-0.331
		c-0.933-0.289-1.592-0.495-1.973-0.661c-0.383-0.166-0.701-0.375-0.956-0.583c-0.594-0.479-0.894-1.129-0.898-1.969
		c-0.004-0.86,0.331-1.556,1.005-2.147c0.715-0.634,1.688-0.933,3-0.939H492.991z"/>
</g>
<g>
	<path d="M339.046,42.707c-0.765,1.98-1.845,3.645-3.24,5.085c-2.925,2.97-6.705,4.41-11.475,4.41h-14.895v-1.89
		c0-0.45,0.27-0.765,0.72-0.855l2.52-0.495V23.268c-1.44-0.27-2.25-0.45-2.52-0.54c-0.45-0.09-0.72-0.405-0.72-0.855v-1.89h14.895
		c4.77,0,8.595,1.44,11.475,4.41c2.925,2.97,4.41,6.885,4.41,11.7C340.216,38.522,339.812,40.727,339.046,42.707z M334.907,30.783
		c-0.54-1.53-1.26-2.88-2.25-3.96c-2.025-2.25-4.815-3.33-8.325-3.33h-7.245v25.199h7.245c3.51,0,6.255-1.08,8.325-3.33
		s3.06-5.31,3.06-9.27C335.717,34.112,335.447,32.313,334.907,30.783z"/>
	<path d="M366.002,19.983v7.785h-2.16c-0.54,0-0.855-0.225-0.945-0.765c0-0.135-0.135-1.305-0.315-3.465h-12.06v10.71h11.879v3.42
		h-11.879v11.024h12.06c0.18-1.98,0.27-3.105,0.27-3.24c0.09-0.54,0.45-0.72,0.99-0.72h2.16v7.47h-23.129v-1.89
		c0-0.45,0.225-0.765,0.675-0.855l2.565-0.495V23.268c-1.44-0.27-2.295-0.45-2.565-0.54c-0.45-0.09-0.675-0.405-0.675-0.855v-1.89
		H366.002z"/>
	<path d="M395.206,43.022c0,2.79-0.99,4.995-2.97,6.615c-2.025,1.71-4.815,2.565-8.37,2.565h-14.625v-1.98
		c0-0.45,0.225-0.72,0.675-0.81l2.565-0.54V23.223c-1.44-0.27-2.295-0.45-2.565-0.54c-0.45-0.09-0.675-0.36-0.675-0.81v-1.98h13.544
		c5.76,0,9.315,1.665,10.709,4.905c0.45,1.08,0.63,2.115,0.63,3.195s-0.09,1.98-0.36,2.7c-0.27,0.72-0.585,1.395-1.08,2.025
		c-1.08,1.35-2.61,2.295-4.59,2.925C392.866,36.587,395.206,39.062,395.206,43.022z M376.847,34.382h5.76c3.6,0,5.85-1.08,6.75-3.24
		c0.27-0.72,0.45-1.44,0.45-2.25c0-1.89-0.54-3.24-1.71-4.14s-2.88-1.35-5.31-1.35h-5.939V34.382z M383.822,48.782
		c3.6,0,5.805-1.17,6.705-3.51c0.27-0.72,0.36-1.485,0.36-2.34c0-1.665-0.54-2.97-1.71-3.96c-1.17-0.99-2.97-1.44-5.354-1.44h-6.975
		v11.205h7.02L383.822,48.782z"/>
	<path d="M429.766,50.402v1.8h-9.27v-1.8c0-0.405,0.225-0.63,0.629-0.72l1.846-0.54l-2.52-6.479h-13.905l-2.52,6.479l1.845,0.54
		c0.404,0.09,0.585,0.315,0.585,0.72v1.8h-9.225v-1.8c0-0.405,0.225-0.63,0.585-0.72l1.8-0.54l11.7-29.159h4.409l11.655,29.159
		l1.799,0.54C429.54,49.772,429.766,49.997,429.766,50.402z M419.235,39.512l-4.77-12.419c-0.36-0.81-0.675-1.8-0.99-3.015
		c-0.36,1.35-0.63,2.34-0.899,3.06l-4.815,12.375H419.235z"/>
	<path d="M458.385,19.983v7.11h-2.205c-0.539,0-0.765-0.135-0.854-0.45s-0.271-1.26-0.45-2.97h-7.56v25.289c0,0,0.181,0,0.54,0.09
		c1.17,0.225,1.936,0.36,2.25,0.45c0.314,0.09,0.449,0.36,0.449,0.81v1.89h-10.889v-1.89c0-0.45,0.27-0.81,0.765-0.9
		c0.495-0.09,1.306-0.27,2.476-0.495V23.628h-7.605c-0.18,1.71-0.314,2.7-0.404,3.015s-0.36,0.45-0.9,0.45h-2.16v-7.11h24.299h1.53
		H458.385z"/>
	<path d="M490.92,36.182c0,2.43-0.359,4.59-1.125,6.615c-0.765,2.025-1.845,3.78-3.239,5.22c-1.396,1.44-3.015,2.565-4.995,3.375
		c-1.979,0.81-4.14,1.26-6.479,1.26s-4.5-0.45-6.479-1.26c-1.98-0.81-3.645-1.935-5.04-3.375s-2.476-3.195-3.24-5.22
		s-1.17-4.229-1.17-6.66c0-2.43,0.405-4.635,1.17-6.66s1.845-3.78,3.24-5.22s3.06-2.61,5.04-3.42c1.979-0.81,4.14-1.215,6.479-1.215
		s4.5,0.405,6.479,1.215c1.98,0.81,3.645,1.935,5.04,3.375c1.395,1.44,2.475,3.195,3.24,5.22c0.765,2.025,1.124,4.23,1.124,6.66
		L490.92,36.182z M486.421,36.182c0-1.979-0.271-3.78-0.811-5.354c-0.54-1.575-1.26-2.925-2.25-4.005
		c-0.989-1.08-2.16-1.89-3.6-2.475s-3.06-0.855-4.77-0.855s-3.24,0.27-4.681,0.855c-1.439,0.585-2.609,1.395-3.6,2.475
		s-1.8,2.43-2.34,4.005c-0.539,1.575-0.81,3.375-0.81,5.354c0,1.98,0.271,3.735,0.81,5.31c0.54,1.575,1.35,2.88,2.34,3.96
		c0.99,1.08,2.16,1.935,3.6,2.52c1.44,0.585,3.016,0.9,4.726,0.9s3.285-0.315,4.725-0.9s2.61-1.44,3.6-2.52
		c0.99-1.08,1.755-2.385,2.295-3.96c0.54-1.575,0.811-3.33,0.811-5.31H486.421z"/>
</g>
</svg>
