<?xml version="1.0" encoding="utf-8"?>
<!-- Generator: Adobe Illustrator 16.0.0, SVG Export Plug-In . SVG Version: 6.00 Build 0)  -->
<!DOCTYPE svg PUBLIC "-//W3C//DTD SVG 1.1//EN" "http://www.w3.org/Graphics/SVG/1.1/DTD/svg11.dtd">
<svg version="1.1" id="Layer_1" xmlns="http://www.w3.org/2000/svg" xmlns:xlink="http://www.w3.org/1999/xlink" x="0px" y="0px"
	 width="800px" height="200px" viewBox="0 0 800 200" enable-background="new 0 0 800 200" xml:space="preserve">
<rect x="0" fill="#53B2B2" width="800" height="200"/>
<line fill="none" stroke="#C1E6E9" stroke-miterlimit="10" x1="201.667" y1="98.97" x2="57.17" y2="139.482"/>
<line fill="none" stroke="#C1E6E9" stroke-miterlimit="10" x1="110.585" y1="42.292" x2="201.667" y2="98.97"/>
<g>
	<g>
		<g>
			<g>
				<g>
					
						<rect x="203.232" y="97.487" transform="matrix(0.4542 -0.8909 0.8909 0.4542 22.0992 236.557)" fill="#C1E6E9" width="1.778" height="5.51"/>
					
						<rect x="210.537" y="101.222" transform="matrix(0.4545 -0.8908 0.8908 0.4545 22.7234 245.0559)" fill="#C1E6E9" width="1.777" height="5.51"/>
					
						<rect x="217.842" y="104.945" transform="matrix(0.4538 -0.8911 0.8911 0.4538 23.5004 253.739)" fill="#C1E6E9" width="1.778" height="5.51"/>
					
						<rect x="225.157" y="108.678" transform="matrix(0.4542 -0.8909 0.8909 0.4542 24.0964 262.197)" fill="#C1E6E9" width="1.778" height="5.508"/>
					
						<rect x="232.468" y="112.404" transform="matrix(0.4542 -0.8909 0.8909 0.4542 24.7658 270.7447)" fill="#C1E6E9" width="1.778" height="5.51"/>
					
						<rect x="239.759" y="116.126" transform="matrix(0.4547 -0.8907 0.8907 0.4547 25.3486 279.1625)" fill="#C1E6E9" width="1.776" height="5.509"/>
					
						<rect x="247.067" y="119.852" transform="matrix(0.4545 -0.8908 0.8908 0.4545 26.0567 287.7593)" fill="#C1E6E9" width="1.777" height="5.509"/>
				</g>
			</g>
			<g>
				<g>
					
						<rect x="254.396" y="123.581" transform="matrix(0.4538 -0.8911 0.8911 0.4538 26.8586 296.4913)" fill="#C1E6E9" width="1.778" height="5.51"/>
					
						<rect x="261.687" y="127.307" transform="matrix(0.4545 -0.8908 0.8908 0.4545 27.3922 304.85)" fill="#C1E6E9" width="1.777" height="5.51"/>
					
						<rect x="269.017" y="131.036" transform="matrix(0.4542 -0.8909 0.8909 0.4542 28.114 313.4737)" fill="#C1E6E9" width="1.778" height="5.51"/>
					
						<rect x="276.327" y="134.765" transform="matrix(0.4542 -0.8909 0.8909 0.4542 28.783 322.0209)" fill="#C1E6E9" width="1.778" height="5.507"/>
					
						<rect x="283.617" y="138.489" transform="matrix(0.4547 -0.8907 0.8907 0.4547 29.3479 330.421)" fill="#C1E6E9" width="1.776" height="5.51"/>
					
						<rect x="290.953" y="142.225" transform="matrix(0.4538 -0.8911 0.8911 0.4538 30.2132 339.2513)" fill="#C1E6E9" width="1.778" height="5.51"/>
					
						<rect x="298.262" y="145.953" transform="matrix(0.4538 -0.8911 0.8911 0.4538 30.8843 347.8002)" fill="#C1E6E9" width="1.778" height="5.508"/>
				</g>
			</g>
		</g>
	</g>
</g>
<g>
	<g>
		<g>
			<g>
				<g>
					
						<rect x="449.602" y="116.142" transform="matrix(0.1813 0.9834 -0.9834 0.1813 485.4131 -345.9587)" fill="#C1E6E9" width="1.778" height="4.841"/>
					
						<rect x="442.526" y="117.455" transform="matrix(0.1817 0.9833 -0.9833 0.1817 480.7094 -337.9422)" fill="#C1E6E9" width="1.779" height="4.839"/>
					
						<rect x="435.424" y="118.757" transform="matrix(0.1812 0.9834 -0.9834 0.1812 476.4225 -329.8718)" fill="#C1E6E9" width="1.778" height="4.84"/>
					
						<rect x="428.336" y="120.065" transform="matrix(0.1817 0.9833 -0.9833 0.1817 471.6647 -321.8521)" fill="#C1E6E9" width="1.779" height="4.839"/>
					
						<rect x="421.247" y="121.372" transform="matrix(0.1812 0.9834 -0.9834 0.1812 467.3857 -313.7874)" fill="#C1E6E9" width="1.778" height="4.84"/>
					
						<rect x="414.156" y="122.681" transform="matrix(0.1812 0.9834 -0.9834 0.1812 462.8667 -305.7434)" fill="#C1E6E9" width="1.778" height="4.839"/>
					
						<rect x="407.069" y="123.987" transform="matrix(0.1813 0.9834 -0.9834 0.1813 458.3059 -297.7079)" fill="#C1E6E9" width="1.778" height="4.839"/>
				</g>
			</g>
			<g>
				<g>
					
						<rect x="399.972" y="125.27" transform="matrix(0.1817 0.9833 -0.9833 0.1817 453.5754 -289.7013)" fill="#C1E6E9" width="1.779" height="4.841"/>
					
						<rect x="392.891" y="126.603" transform="matrix(0.1812 0.9834 -0.9834 0.1812 449.3119 -281.6181)" fill="#C1E6E9" width="1.778" height="4.839"/>
					
						<rect x="385.803" y="127.91" transform="matrix(0.1813 0.9834 -0.9834 0.1813 444.7533 -273.5826)" fill="#C1E6E9" width="1.778" height="4.84"/>
					
						<rect x="378.706" y="129.195" transform="matrix(0.1818 0.9833 -0.9833 0.1818 439.992 -265.5845)" fill="#C1E6E9" width="1.778" height="4.839"/>
					
						<rect x="371.625" y="130.525" transform="matrix(0.1818 0.9833 -0.9833 0.1818 435.507 -257.532)" fill="#C1E6E9" width="1.778" height="4.84"/>
					
						<rect x="364.535" y="131.833" transform="matrix(0.1812 0.9834 -0.9834 0.1812 431.2376 -249.4493)" fill="#C1E6E9" width="1.778" height="4.84"/>
					
						<rect x="357.441" y="133.118" transform="matrix(0.1818 0.9833 -0.9833 0.1818 426.4524 -241.464)" fill="#C1E6E9" width="1.778" height="4.839"/>
				</g>
			</g>
			<g>
				<g>
					
						<rect x="350.352" y="134.427" transform="matrix(0.1813 0.9834 -0.9834 0.1813 422.1385 -233.3835)" fill="#C1E6E9" width="1.778" height="4.84"/>
					
						<rect x="343.269" y="135.755" transform="matrix(0.1813 0.9834 -0.9834 0.1813 417.6463 -225.3301)" fill="#C1E6E9" width="1.778" height="4.84"/>
					
						<rect x="336.18" y="137.062" transform="matrix(0.1812 0.9834 -0.9834 0.1812 413.1645 -217.2811)" fill="#C1E6E9" width="1.778" height="4.841"/>
					
						<rect x="329.086" y="138.35" transform="matrix(0.1817 0.9833 -0.9833 0.1817 408.4326 -209.2928)" fill="#C1E6E9" width="1.779" height="4.839"/>
					
						<rect x="322.002" y="139.678" transform="matrix(0.1812 0.9834 -0.9834 0.1812 404.1274 -201.1962)" fill="#C1E6E9" width="1.778" height="4.84"/>
					
						<rect x="314.912" y="140.985" transform="matrix(0.1812 0.9834 -0.9834 0.1812 399.6078 -193.1535)" fill="#C1E6E9" width="1.778" height="4.84"/>
					
						<rect x="307.821" y="142.274" transform="matrix(0.1817 0.9833 -0.9833 0.1817 394.8905 -185.1719)" fill="#C1E6E9" width="1.779" height="4.839"/>
				</g>
			</g>
		</g>
	</g>
</g>
<g>
	<g>
		<g>
			<g>
				<g>
					
						<rect x="638.79" y="114.963" transform="matrix(-0.6107 -0.7919 0.7919 -0.6107 937.699 694.9189)" fill="#C1E6E9" width="1.778" height="3.97"/>
					
						<rect x="643.471" y="111.353" transform="matrix(-0.6107 -0.7919 0.7919 -0.6107 948.099 692.8104)" fill="#C1E6E9" width="1.778" height="3.969"/>
					
						<rect x="648.153" y="107.741" transform="matrix(-0.6109 -0.7917 0.7917 -0.6109 958.6926 690.5964)" fill="#C1E6E9" width="1.778" height="3.97"/>
					
						<rect x="652.878" y="104.132" transform="matrix(-0.6107 -0.7919 0.7919 -0.6107 968.9677 688.6301)" fill="#C1E6E9" width="1.778" height="3.969"/>
					
						<rect x="657.561" y="100.527" transform="matrix(-0.6112 -0.7915 0.7915 -0.6112 979.756 686.3151)" fill="#C1E6E9" width="1.777" height="3.97"/>
					
						<rect x="662.235" y="96.867" transform="matrix(-0.6106 -0.7919 0.7919 -0.6106 989.7321 684.3694)" fill="#C1E6E9" width="1.777" height="3.97"/>
					
						<rect x="666.878" y="93.296" transform="matrix(-0.6108 -0.7918 0.7918 -0.6108 1000.1968 682.2066)" fill="#C1E6E9" width="1.778" height="3.969"/>
				</g>
			</g>
			<g>
				<g>
					
						<rect x="671.56" y="89.683" transform="matrix(-0.6113 -0.7914 0.7914 -0.6113 1010.9536 679.8912)" fill="#C1E6E9" width="1.778" height="3.97"/>
					
						<rect x="676.242" y="86.073" transform="matrix(-0.6108 -0.7918 0.7918 -0.6108 1020.999 677.9861)" fill="#C1E6E9" width="1.778" height="3.97"/>
					
						<rect x="680.924" y="82.462" transform="matrix(-0.6108 -0.7918 0.7918 -0.6108 1031.3992 675.8766)" fill="#C1E6E9" width="1.778" height="3.97"/>
					
						<rect x="685.606" y="78.85" transform="matrix(-0.6108 -0.7918 0.7918 -0.6108 1041.801 673.7655)" fill="#C1E6E9" width="1.778" height="3.969"/>
					
						<rect x="690.287" y="75.238" transform="matrix(-0.6108 -0.7918 0.7918 -0.6108 1052.201 671.6545)" fill="#C1E6E9" width="1.778" height="3.97"/>
					
						<rect x="695.02" y="71.654" transform="matrix(-0.6105 -0.7921 0.7921 -0.6105 1062.4036 669.7879)" fill="#C1E6E9" width="1.777" height="3.97"/>
					
						<rect x="699.649" y="68.017" transform="matrix(-0.6108 -0.7918 0.7918 -0.6108 1073.0001 667.4344)" fill="#C1E6E9" width="1.778" height="3.969"/>
				</g>
			</g>
			<g>
				<g>
					
						<rect x="704.332" y="64.404" transform="matrix(-0.6109 -0.7917 0.7917 -0.6109 1083.5035 665.2598)" fill="#C1E6E9" width="1.778" height="3.97"/>
					
						<rect x="709.012" y="60.793" transform="matrix(-0.6111 -0.7915 0.7915 -0.6111 1094.0625 663.0464)" fill="#C1E6E9" width="1.778" height="3.97"/>
					
						<rect x="713.694" y="57.182" transform="matrix(-0.6108 -0.7918 0.7918 -0.6108 1104.2021 661.1028)" fill="#C1E6E9" width="1.778" height="3.969"/>
					
						<rect x="718.377" y="53.57" transform="matrix(-0.6109 -0.7917 0.7917 -0.6109 1114.7054 658.9254)" fill="#C1E6E9" width="1.778" height="3.969"/>
					
						<rect x="723.058" y="49.959" transform="matrix(-0.6108 -0.7918 0.7918 -0.6108 1125.0039 656.881)" fill="#C1E6E9" width="1.778" height="3.97"/>
					
						<rect x="727.776" y="46.301" transform="matrix(-0.6106 -0.7919 0.7919 -0.6106 1135.3372 654.8338)" fill="#C1E6E9" width="1.777" height="3.97"/>
					
						<rect x="732.42" y="42.736" transform="matrix(-0.6108 -0.7918 0.7918 -0.6108 1145.8033 652.6602)" fill="#C1E6E9" width="1.778" height="3.969"/>
				</g>
			</g>
		</g>
	</g>
</g>
<line fill="none" stroke="#C1E6E9" stroke-miterlimit="10" x1="521.26" y1="173.063" x2="638.114" y2="118.135"/>
<line fill="none" stroke="#C1E6E9" stroke-miterlimit="10" x1="638.114" y1="118.135" x2="543.17" y2="24.876"/>
<line fill="none" stroke="#C1E6E9" stroke-miterlimit="10" x1="638.114" y1="118.135" x2="452.878" y2="118.135"/>
<line fill="none" stroke="#C1E6E9" stroke-miterlimit="10" x1="426.878" y1="118.135" x2="248.345" y2="46.786"/>
<g>
	<g>
		<g>
			<g>
				<g>
					
						<rect x="540.847" y="24.263" transform="matrix(0.7185 0.6955 -0.6955 0.7185 170.7897 -369.3517)" fill="#C1E6E9" width="1.778" height="4.15"/>
					
						<rect x="536.547" y="28.705" transform="matrix(0.7185 0.6955 -0.6955 0.7185 172.6684 -365.1113)" fill="#C1E6E9" width="1.778" height="4.15"/>
					
						<rect x="532.214" y="33.129" transform="matrix(0.7183 0.6958 -0.6958 0.7183 174.6773 -360.9891)" fill="#C1E6E9" width="1.777" height="4.151"/>
					
						<rect x="527.914" y="37.57" transform="matrix(0.7183 0.6958 -0.6958 0.7183 176.5559 -356.7464)" fill="#C1E6E9" width="1.777" height="4.15"/>
					
						<rect x="523.648" y="42.028" transform="matrix(0.7184 0.6956 -0.6956 0.7184 178.3821 -352.4585)" fill="#C1E6E9" width="1.778" height="4.149"/>
					
						<rect x="519.316" y="46.453" transform="matrix(0.7183 0.6958 -0.6958 0.7183 180.3138 -348.2615)" fill="#C1E6E9" width="1.777" height="4.15"/>
					
						<rect x="515.048" y="50.91" transform="matrix(0.7184 0.6956 -0.6956 0.7184 182.1391 -343.9754)" fill="#C1E6E9" width="1.778" height="4.149"/>
				</g>
			</g>
			<g>
				<g>
					
						<rect x="510.748" y="55.352" transform="matrix(0.7184 0.6956 -0.6956 0.7184 184.018 -339.7332)" fill="#C1E6E9" width="1.778" height="4.15"/>
					
						<rect x="506.417" y="59.776" transform="matrix(0.7183 0.6958 -0.6958 0.7183 185.9496 -335.534)" fill="#C1E6E9" width="1.777" height="4.151"/>
					
						<rect x="502.149" y="64.235" transform="matrix(0.7184 0.6956 -0.6956 0.7184 187.7755 -331.2503)" fill="#C1E6E9" width="1.778" height="4.149"/>
					
						<rect x="497.849" y="68.676" transform="matrix(0.7184 0.6956 -0.6956 0.7184 189.654 -327.0084)" fill="#C1E6E9" width="1.778" height="4.148"/>
					
						<rect x="493.55" y="73.117" transform="matrix(0.7184 0.6956 -0.6956 0.7184 191.533 -322.7674)" fill="#C1E6E9" width="1.778" height="4.15"/>
					
						<rect x="489.25" y="77.559" transform="matrix(0.7184 0.6956 -0.6956 0.7184 193.4121 -318.5255)" fill="#C1E6E9" width="1.778" height="4.15"/>
					
						<rect x="484.951" y="81.999" transform="matrix(0.7184 0.6956 -0.6956 0.7184 195.2898 -314.2847)" fill="#C1E6E9" width="1.778" height="4.149"/>
				</g>
			</g>
			<g>
				<g>
					
						<rect x="480.635" y="86.454" transform="matrix(0.7184 0.6956 -0.6956 0.7184 197.1683 -310.0241)" fill="#C1E6E9" width="1.777" height="4.15"/>
					
						<rect x="476.323" y="90.862" transform="matrix(0.7183 0.6958 -0.6958 0.7183 199.1003 -305.8383)" fill="#C1E6E9" width="1.777" height="4.151"/>
					
						<rect x="472.051" y="95.322" transform="matrix(0.7184 0.6956 -0.6956 0.7184 200.9257 -301.5594)" fill="#C1E6E9" width="1.778" height="4.15"/>
					
						<rect x="467.751" y="99.765" transform="matrix(0.7183 0.6958 -0.6958 0.7183 202.884 -297.3703)" fill="#C1E6E9" width="1.778" height="4.149"/>
					
						<rect x="463.425" y="104.186" transform="matrix(0.7183 0.6958 -0.6958 0.7183 204.7362 -293.1108)" fill="#C1E6E9" width="1.777" height="4.151"/>
					
						<rect x="459.151" y="108.646" transform="matrix(0.7185 0.6955 -0.6955 0.7185 206.4828 -288.7845)" fill="#C1E6E9" width="1.778" height="4.15"/>
					
						<rect x="454.826" y="113.069" transform="matrix(0.7183 0.6958 -0.6958 0.7183 208.4936 -284.6256)" fill="#C1E6E9" width="1.777" height="4.15"/>
				</g>
			</g>
		</g>
	</g>
</g>
<line fill="none" stroke="#C1E6E9" stroke-miterlimit="10" x1="57.17" y1="139.482" x2="307" y2="145.598"/>
<circle fill="#FFFFFF" cx="57.17" cy="139.482" r="26.966"/>
<circle fill="#005551" cx="201.667" cy="98.97" r="8.427"/>
<circle fill="#9BD8DA" cx="248.345" cy="46.786" r="21.91"/>
<circle fill="#248784" cx="452.878" cy="118.135" r="32.022"/>
<circle fill="#248784" cx="110.585" cy="42.292" r="17.416"/>
<circle fill="#248784" cx="736.429" cy="42.292" r="26.405"/>
<circle fill="#FFFFFF" cx="543.17" cy="24.876" r="21.91"/>
<circle fill="#9BD8DA" cx="521.26" cy="173.063" r="21.91"/>
<path fill="#FFFFFF" d="M304.012,98.969c-25.752,0-46.629,20.876-46.629,46.629c0,11.594,4.241,22.189,11.243,30.348
	c-0.907,3.117-2.952,5.564-6.766,5.887c-0.293,0.023-0.583,0.029-0.873,0.034c1.787,1.719,4.425,2.702,7.28,2.463
	c2.478-0.208,5.275-0.712,7.399-1.718c7.855,6.025,17.679,9.615,28.345,9.615c25.752,0,46.629-20.877,46.629-46.629
	C350.641,119.845,329.764,98.969,304.012,98.969z"/>
<path fill="#005551" d="M638.114,55.775c-34.439,0-62.358,27.919-62.358,62.359c0,21.035,10.426,39.623,26.38,50.918
	c-0.171,2.466,0.334,5.285,1.023,7.72c0.857,3.017,3.016,5.299,5.667,6.408c-0.107-0.299-0.218-0.597-0.306-0.906
	c-0.931-3.278,0.194-5.951,2.354-8.032c8.23,4.003,17.472,6.253,27.238,6.253c34.44,0,62.359-27.919,62.359-62.359
	C700.474,83.695,672.555,55.775,638.114,55.775z"/>
<g display="none">
	<path display="inline" d="M39.915,181.686c0.636,0.25,1.188,0.625,1.636,1.084c0.447,0.459,0.788,1.045,1.024,1.717
		c0.236,0.67,0.367,1.426,0.371,2.266c0.005,0.84-0.118,1.596-0.348,2.27c-0.229,0.674-0.564,1.264-1.007,1.728
		s-0.991,0.845-1.624,1.101s-1.332,0.385-2.114,0.39c-0.783,0.005-1.481-0.118-2.119-0.366c-0.636-0.249-1.188-0.624-1.635-1.083
		c-0.447-0.46-0.789-1.046-1.046-1.717c-0.258-0.671-0.347-1.427-0.351-2.267s0.075-1.596,0.326-2.269
		c0.25-0.674,0.586-1.265,1.027-1.728c0.442-0.465,0.991-0.846,1.624-1.102c0.633-0.255,1.332-0.385,2.115-0.389
		C38.58,181.314,39.279,181.438,39.915,181.686z M40.211,189.747c0.504-0.717,0.773-1.705,0.768-2.965
		c-0.006-1.261-0.287-2.245-0.799-2.956c-0.512-0.712-1.317-1.043-2.375-1.037c-0.55,0.003-1.016,0.089-1.396,0.259
		c-0.381,0.17-0.718,0.466-0.97,0.804s-0.462,0.758-0.586,1.264c-0.125,0.504-0.206,1.093-0.202,1.723
		c0.003,0.63,0.091,1.176,0.221,1.68c0.129,0.502,0.344,0.922,0.6,1.256c0.255,0.334,0.596,0.584,0.979,0.75
		c0.382,0.166,0.848,0.289,1.397,0.287C38.905,190.805,39.708,190.463,40.211,189.747z"/>
	<path display="inline" d="M47.441,183.598c0.774-1.578,1.851-2.382,3.247-2.389c0.55-0.003,1.038,0.12,1.462,0.37l-0.226,1.407
		c-0.042,0.168-0.147,0.273-0.274,0.273c-0.127,0.001-0.296-0.039-0.508-0.103c-0.212-0.062-0.487-0.103-0.868-0.101
		c-1.228,0.006-2.154,0.769-2.739,2.24l0.027,5.249c0.17,0.041,0.572,0.103,1.208,0.226c0.211,0.039,0.318,0.187,0.319,0.396
		l0.005,0.882l-4.932,0.026l-0.005-0.882c-0.002-0.211,0.104-0.357,0.315-0.4l1.205-0.236l-0.04-7.58
		c-0.678-0.123-1.08-0.205-1.208-0.244c-0.212-0.043-0.319-0.188-0.32-0.398l-0.005-0.882l1.524-0.009l1.08-0.006
		c0.211,0,0.316,0.021,0.401,0.104c0.085,0.083,0.13,0.208,0.173,0.397l0.136,1.656h0.021V183.598z"/>
	<path display="inline" d="M57.377,181.236c0.465-0.002,0.889,0.035,1.292,0.14c0.401,0.104,0.763,0.248,1.103,0.456l2.921-0.016
		l0.003,0.691c0.001,0.231-0.146,0.381-0.441,0.444l-1.205,0.174c0.256,0.461,0.344,0.964,0.346,1.51
		c0.003,0.505-0.079,0.987-0.289,1.408s-0.461,0.779-0.819,1.075s-0.78,0.551-1.267,0.721c-0.485,0.171-1.014,0.236-1.606,0.239
		c-0.509,0.003-0.975-0.058-1.419-0.181c-0.211,0.127-0.38,0.295-0.507,0.465c-0.126,0.168-0.167,0.294-0.167,0.462
		c0.001,0.252,0.088,0.44,0.3,0.565s0.486,0.229,0.826,0.269s0.741,0.079,1.165,0.077c0.425-0.002,0.868,0.037,1.313,0.078
		c0.445,0.039,0.889,0.059,1.313,0.141c0.425,0.081,0.826,0.204,1.166,0.37c0.34,0.167,0.616,0.438,0.829,0.731
		c0.213,0.293,0.301,0.67,0.304,1.174c0.002,0.461-0.102,0.924-0.331,1.346c-0.231,0.421-0.589,0.801-1.011,1.14
		c-0.421,0.338-0.928,0.593-1.562,0.806c-0.634,0.215-1.332,0.301-2.115,0.307c-0.783,0.004-1.481-0.055-2.075-0.221
		c-0.594-0.164-1.082-0.373-1.464-0.623s-0.68-0.563-0.873-0.896c-0.191-0.335-0.3-0.671-0.302-1.049
		c-0.003-0.523,0.164-0.967,0.501-1.348c0.336-0.379,0.801-0.676,1.392-0.889c-0.296-0.125-0.552-0.333-0.722-0.563
		c-0.17-0.23-0.278-0.566-0.28-0.944c-0.001-0.168,0.041-0.294,0.083-0.462c0.041-0.168,0.125-0.337,0.251-0.506
		c0.126-0.168,0.273-0.316,0.442-0.465c0.169-0.146,0.38-0.254,0.591-0.381c-0.531-0.291-0.956-0.688-1.255-1.168
		c-0.299-0.482-0.45-1.049-0.453-1.698c-0.002-0.505,0.079-0.987,0.289-1.409c0.209-0.421,0.482-0.778,0.841-1.075
		c0.358-0.295,0.802-0.528,1.309-0.698c0.507-0.172,1.036-0.238,1.629-0.24L57.377,181.236z M60.803,192.619
		c-0.001-0.252-0.066-0.462-0.215-0.629s-0.361-0.292-0.616-0.375c-0.254-0.082-0.529-0.145-0.869-0.186
		c-0.338-0.039-0.678-0.08-1.059-0.099s-0.741-0.017-1.122-0.036c-0.382-0.02-0.741-0.08-1.081-0.12
		c-0.401,0.19-0.738,0.425-0.991,0.697c-0.252,0.274-0.377,0.61-0.375,0.989c0.001,0.252,0.066,0.462,0.194,0.671
		s0.318,0.376,0.574,0.521c0.254,0.146,0.572,0.271,0.954,0.354s0.848,0.121,1.355,0.117c0.508-0.002,0.952-0.067,1.354-0.153
		c0.4-0.086,0.739-0.234,1.014-0.404c0.273-0.169,0.484-0.358,0.632-0.591s0.23-0.463,0.229-0.757L60.803,192.619L60.803,192.619z
		 M57.428,186.884c0.381-0.002,0.719-0.067,1.015-0.174c0.296-0.104,0.527-0.254,0.738-0.444c0.21-0.189,0.357-0.442,0.441-0.695
		c0.084-0.252,0.146-0.547,0.144-0.861c-0.003-0.65-0.218-1.175-0.622-1.549c-0.403-0.377-0.977-0.563-1.739-0.559
		c-0.762,0.004-1.333,0.194-1.731,0.575c-0.4,0.38-0.588,0.906-0.584,1.558c0.002,0.314,0.066,0.607,0.174,0.859
		s0.235,0.48,0.448,0.67c0.213,0.188,0.447,0.334,0.743,0.438c0.297,0.104,0.593,0.145,0.974,0.142V186.884z"/>
	<path display="inline" d="M73.302,190.579c0.191,0.041,0.319,0.208,0.32,0.397l0.005,0.901l-1.375,0.007l-0.148,0.001l-0.677,0.005
		c-0.169,0-0.318-0.041-0.445-0.082s-0.17-0.168-0.214-0.334l-0.217-1.008c-0.295,0.253-0.59,0.485-0.843,0.697
		c-0.253,0.211-0.548,0.38-0.845,0.509c-0.295,0.126-0.591,0.233-0.929,0.319s-0.719,0.109-1.143,0.111
		c-0.423,0.002-0.783-0.061-1.145-0.185c-0.36-0.124-0.7-0.271-0.956-0.498c-0.255-0.229-0.468-0.522-0.639-0.879
		s-0.237-0.774-0.24-1.259c-0.002-0.42,0.103-0.84,0.333-1.221c0.23-0.379,0.631-0.759,1.138-1.056s1.183-0.573,2.027-0.767
		c0.846-0.192,1.861-0.282,3.089-0.289l-0.004-0.819c-0.004-0.84-0.198-1.469-0.56-1.887c-0.362-0.418-0.894-0.646-1.591-0.642
		c-0.467,0.002-0.848,0.066-1.163,0.193c-0.317,0.128-0.57,0.234-0.803,0.383c-0.231,0.147-0.442,0.254-0.611,0.381
		s-0.316,0.17-0.486,0.172c-0.127,0-0.254-0.021-0.339-0.082c-0.085-0.063-0.17-0.168-0.213-0.252l-0.342-0.586
		c0.59-0.57,1.222-0.973,1.897-1.271c0.676-0.297,1.438-0.428,2.283-0.433c0.592-0.002,1.143,0.078,1.61,0.285
		c0.467,0.209,0.849,0.457,1.168,0.793c0.318,0.334,0.554,0.752,0.727,1.256c0.172,0.502,0.238,1.049,0.242,1.637l0.028,5.313
		c0.296,0.062,0.932,0.184,1.06,0.226L73.302,190.579z M70.363,187.15c-0.867,0.005-1.607,0.051-2.199,0.16
		c-0.593,0.106-1.1,0.277-1.479,0.447s-0.675,0.381-0.844,0.635c-0.167,0.252-0.251,0.506-0.25,0.799
		c0.001,0.295,0.065,0.504,0.152,0.714c0.085,0.209,0.213,0.377,0.383,0.502s0.34,0.208,0.552,0.271s0.445,0.103,0.699,0.102
		c0.339-0.002,0.614-0.045,0.889-0.109c0.275-0.064,0.528-0.15,0.781-0.277c0.254-0.127,0.484-0.297,0.696-0.466
		c0.21-0.169,0.421-0.38,0.632-0.591L70.363,187.15z"/>
	<path display="inline" d="M78.152,182.784c1.053-1.14,2.234-1.714,3.546-1.72c1.144-0.006,2.034,0.347,2.673,1.099
		c0.597,0.711,0.919,1.696,0.926,2.913l0.028,5.229c0.678,0.123,1.079,0.204,1.208,0.246c0.212,0.041,0.34,0.188,0.341,0.396
		l0.005,0.902l-3.429,0.02l-0.036-6.762c-0.01-1.68-0.754-2.558-2.258-2.549c-1.059,0.006-2.028,0.515-2.912,1.506l0.032,6.3
		c0.042-0.001,0.467,0.081,1.229,0.245c0.211,0.039,0.317,0.187,0.318,0.396l0.006,0.882l-4.932,0.026l-0.005-0.882
		c-0.001-0.211,0.083-0.357,0.294-0.4l1.227-0.236l-0.04-7.58c-0.679-0.123-1.103-0.205-1.229-0.244
		c-0.212-0.043-0.297-0.188-0.298-0.398l-0.005-0.882l1.523-0.008l1.102-0.007c0.254,0,0.424,0.125,0.51,0.375l0.176,1.154V182.784
		L78.152,182.784z"/>
	<path display="inline" d="M92.992,190.915l0.004,0.903l-4.932,0.024l-0.005-0.903c-0.001-0.188,0.125-0.355,0.315-0.398
		c0.189-0.043,1.227-0.237,1.227-0.237l-0.041-7.579c0,0-1.038-0.185-1.229-0.225c-0.19-0.042-0.319-0.209-0.32-0.396l-0.005-0.883
		l3.408-0.019l0.048,9.092c0,0,1.017,0.183,1.208,0.224S92.991,190.727,92.992,190.915z M89.242,178.38
		c-0.087-0.168-0.107-0.336-0.108-0.504s0.019-0.356,0.103-0.524c0.083-0.17,0.168-0.315,0.294-0.443
		c0.126-0.125,0.254-0.21,0.423-0.295c0.168-0.086,0.338-0.107,0.507-0.108s0.338,0.021,0.508,0.103
		c0.17,0.084,0.297,0.168,0.425,0.291c0.128,0.127,0.213,0.272,0.299,0.44c0.085,0.167,0.129,0.356,0.13,0.524
		c0,0.168-0.041,0.336-0.125,0.505c-0.084,0.168-0.168,0.293-0.294,0.421c-0.126,0.126-0.253,0.21-0.422,0.295
		s-0.338,0.107-0.507,0.107c-0.169,0.002-0.339-0.02-0.508-0.103c-0.17-0.083-0.297-0.166-0.425-0.291
		C89.413,178.672,89.328,178.547,89.242,178.38z"/>
	<path display="inline" d="M102.486,181.122l0.004,0.799c0.002,0.252-0.103,0.504-0.271,0.714l-5.759,7.695l4.762-0.025
		c0.059-0.84,0.12-1.303,0.12-1.387c0.042-0.168,0.146-0.253,0.316-0.253l0.74-0.005l0.018,3.107l-8.169,0.043l-0.004-0.775
		c-0.001-0.211,0.083-0.442,0.25-0.674l5.801-7.736l-4.593,0.023c-0.061,0.776-0.101,1.177-0.1,1.261
		c-0.042,0.169-0.168,0.272-0.337,0.274l-0.741,0.004l-0.016-3.002l1.08-0.006L102.486,181.122z"/>
	<path display="inline" d="M108.868,190.83l0.005,0.902l-4.933,0.026l-0.005-0.903c-0.001-0.188,0.125-0.356,0.316-0.399
		c0.189-0.043,1.226-0.235,1.226-0.235l-0.04-7.58c0,0-1.038-0.185-1.229-0.225c-0.191-0.042-0.319-0.21-0.32-0.398l-0.004-0.882
		l3.407-0.018l0.048,9.092c0,0,1.017,0.183,1.208,0.224C108.739,190.475,108.867,190.643,108.868,190.83z M105.119,178.296
		c-0.086-0.168-0.108-0.336-0.109-0.504s0.019-0.356,0.104-0.524c0.083-0.17,0.167-0.315,0.295-0.443
		c0.126-0.126,0.252-0.21,0.421-0.295c0.169-0.086,0.338-0.107,0.507-0.108s0.339,0.021,0.509,0.103
		c0.169,0.084,0.297,0.168,0.425,0.291c0.127,0.127,0.213,0.272,0.299,0.439c0.085,0.168,0.128,0.357,0.129,0.525
		c0.002,0.168-0.04,0.336-0.123,0.504c-0.084,0.169-0.169,0.294-0.295,0.422c-0.126,0.126-0.252,0.21-0.422,0.295
		c-0.169,0.085-0.337,0.107-0.507,0.107c-0.17,0.002-0.339-0.02-0.509-0.103c-0.169-0.083-0.296-0.167-0.424-0.291
		C105.29,178.588,105.204,178.463,105.119,178.296z"/>
	<path display="inline" d="M113.375,182.598c1.052-1.14,2.233-1.713,3.546-1.721c1.143-0.006,2.034,0.348,2.672,1.1
		c0.597,0.711,0.919,1.696,0.926,2.914l0.028,5.229c0.678,0.122,1.081,0.204,1.208,0.245c0.212,0.041,0.34,0.188,0.341,0.396
		l0.005,0.903l-3.429,0.019l-0.036-6.761c-0.009-1.68-0.754-2.558-2.257-2.55c-1.059,0.006-2.029,0.515-2.913,1.507l0.033,6.299
		c0.042,0,0.466,0.082,1.229,0.245c0.212,0.04,0.319,0.188,0.32,0.396l0.005,0.883l-4.932,0.025l-0.005-0.882
		c-0.002-0.21,0.083-0.358,0.294-0.399l1.226-0.238l-0.04-7.579c-0.678-0.123-1.102-0.205-1.229-0.245
		c-0.212-0.042-0.298-0.188-0.299-0.396l-0.005-0.883l1.524-0.009l1.101-0.006c0.254-0.001,0.424,0.124,0.511,0.376l0.176,1.154
		V182.598z"/>
	<path display="inline" d="M127.421,180.864c0.466-0.003,0.89,0.036,1.292,0.14c0.403,0.104,0.764,0.248,1.103,0.456l2.921-0.017
		l0.004,0.692c0.001,0.231-0.146,0.38-0.442,0.444l-1.206,0.174c0.256,0.461,0.344,0.965,0.347,1.512
		c0.003,0.504-0.08,0.985-0.289,1.406c-0.21,0.421-0.462,0.78-0.819,1.076c-0.358,0.296-0.78,0.55-1.267,0.72
		c-0.485,0.171-1.015,0.236-1.606,0.239c-0.508,0.003-0.975-0.057-1.419-0.182c-0.211,0.127-0.379,0.297-0.505,0.466
		c-0.126,0.168-0.169,0.295-0.167,0.463c0.001,0.252,0.087,0.438,0.299,0.565c0.212,0.123,0.487,0.228,0.827,0.269
		c0.339,0.04,0.74,0.079,1.165,0.077c0.424-0.002,0.867,0.037,1.313,0.076c0.444,0.041,0.889,0.06,1.313,0.142
		c0.424,0.082,0.826,0.204,1.166,0.371c0.34,0.166,0.615,0.438,0.829,0.729c0.214,0.293,0.301,0.67,0.303,1.174
		c0.002,0.463-0.102,0.926-0.331,1.347c-0.231,0.422-0.589,0.801-1.01,1.14c-0.422,0.338-0.929,0.594-1.563,0.807
		s-1.332,0.302-2.115,0.306s-1.481-0.056-2.075-0.22c-0.593-0.166-1.081-0.373-1.463-0.623c-0.383-0.25-0.68-0.563-0.873-0.897
		c-0.192-0.335-0.3-0.671-0.302-1.049c-0.003-0.524,0.164-0.967,0.5-1.347c0.336-0.379,0.801-0.676,1.393-0.889
		c-0.298-0.125-0.553-0.334-0.724-0.563c-0.17-0.23-0.277-0.566-0.279-0.944c-0.002-0.168,0.04-0.294,0.081-0.462
		s0.125-0.337,0.251-0.505c0.127-0.169,0.274-0.316,0.442-0.465c0.169-0.147,0.38-0.254,0.591-0.381
		c-0.53-0.291-0.956-0.688-1.255-1.17s-0.45-1.047-0.454-1.697c-0.002-0.504,0.08-0.987,0.289-1.408s0.482-0.779,0.841-1.076
		c0.358-0.295,0.802-0.527,1.309-0.699c0.508-0.17,1.036-0.236,1.629-0.24L127.421,180.864z M130.847,192.247
		c-0.001-0.252-0.066-0.462-0.215-0.629c-0.149-0.167-0.361-0.292-0.616-0.375c-0.254-0.082-0.53-0.144-0.869-0.185
		c-0.339-0.039-0.678-0.08-1.059-0.1s-0.741-0.018-1.122-0.036c-0.381-0.021-0.741-0.08-1.081-0.12
		c-0.401,0.19-0.738,0.424-0.991,0.697c-0.252,0.275-0.377,0.611-0.375,0.989c0.001,0.252,0.066,0.462,0.194,0.671
		c0.128,0.21,0.319,0.377,0.574,0.521c0.255,0.146,0.572,0.271,0.954,0.353c0.381,0.082,0.848,0.121,1.354,0.118
		c0.508-0.002,0.952-0.068,1.354-0.154c0.401-0.086,0.739-0.234,1.014-0.402c0.273-0.171,0.485-0.361,0.631-0.593
		c0.147-0.231,0.23-0.463,0.229-0.757L130.847,192.247L130.847,192.247z M127.473,186.512c0.381-0.002,0.719-0.066,1.015-0.173
		c0.297-0.106,0.528-0.255,0.738-0.444c0.211-0.19,0.357-0.442,0.441-0.695c0.083-0.252,0.146-0.547,0.144-0.862
		c-0.003-0.649-0.218-1.174-0.622-1.549c-0.403-0.377-0.977-0.563-1.737-0.56c-0.763,0.004-1.333,0.195-1.733,0.578
		c-0.4,0.379-0.587,0.904-0.584,1.555c0.002,0.315,0.067,0.608,0.174,0.861c0.107,0.25,0.235,0.48,0.448,0.668
		c0.212,0.188,0.446,0.334,0.743,0.438s0.593,0.144,0.974,0.142V186.512z"/>
	<path display="inline" d="M147.898,190.184c0.191,0.041,0.319,0.207,0.32,0.396l0.004,0.902l-1.376,0.008l-0.148,0.001
		l-0.677,0.003c-0.169,0.001-0.316-0.04-0.444-0.081c-0.127-0.042-0.171-0.167-0.214-0.335l-0.217-1.008
		c-0.295,0.255-0.59,0.486-0.843,0.699c-0.253,0.209-0.548,0.379-0.844,0.508c-0.296,0.127-0.591,0.233-0.931,0.318
		c-0.338,0.086-0.719,0.109-1.142,0.112c-0.423,0.002-0.784-0.06-1.144-0.185c-0.36-0.123-0.7-0.27-0.955-0.498
		c-0.255-0.229-0.47-0.522-0.64-0.879c-0.171-0.355-0.236-0.774-0.239-1.258c-0.002-0.421,0.102-0.842,0.332-1.221
		s0.631-0.76,1.137-1.057s1.182-0.573,2.027-0.767c0.847-0.192,1.861-0.282,3.089-0.288l-0.005-0.82
		c-0.004-0.84-0.197-1.469-0.56-1.887s-0.893-0.646-1.591-0.642c-0.466,0.002-0.846,0.065-1.163,0.194
		c-0.317,0.128-0.57,0.233-0.802,0.382c-0.232,0.147-0.444,0.255-0.612,0.382c-0.168,0.126-0.316,0.169-0.485,0.17
		c-0.127,0.001-0.255-0.02-0.339-0.082c-0.085-0.063-0.17-0.167-0.213-0.251l-0.342-0.586c0.589-0.569,1.222-0.974,1.897-1.271
		c0.677-0.297,1.438-0.428,2.283-0.433c0.594-0.003,1.145,0.078,1.61,0.286c0.467,0.207,0.849,0.457,1.168,0.791
		s0.554,0.753,0.726,1.256s0.238,1.049,0.241,1.637l0.028,5.313c0.297,0.062,0.932,0.185,1.06,0.226L147.898,190.184z
		 M144.959,186.755c-0.868,0.005-1.608,0.052-2.2,0.159s-1.099,0.277-1.479,0.447c-0.38,0.171-0.675,0.383-0.843,0.636
		s-0.251,0.505-0.25,0.799s0.066,0.504,0.152,0.713c0.086,0.21,0.214,0.377,0.383,0.502c0.17,0.125,0.34,0.208,0.552,0.271
		c0.212,0.062,0.445,0.103,0.699,0.101c0.338-0.001,0.614-0.045,0.888-0.107c0.275-0.065,0.528-0.15,0.782-0.278
		c0.253-0.127,0.485-0.296,0.696-0.466s0.421-0.381,0.632-0.592L144.959,186.755z"/>
	<path display="inline" d="M152.748,182.389c1.052-1.14,2.233-1.713,3.546-1.721c1.143-0.006,2.034,0.348,2.673,1.1
		c0.596,0.711,0.919,1.696,0.925,2.914l0.028,5.229c0.678,0.122,1.081,0.204,1.208,0.245c0.212,0.041,0.34,0.188,0.341,0.396
		l0.004,0.903l-3.428,0.019l-0.036-6.761c-0.009-1.68-0.754-2.558-2.257-2.55c-1.059,0.006-2.029,0.515-2.912,1.507l0.033,6.299
		c0.042,0,0.466,0.082,1.229,0.245c0.211,0.04,0.318,0.188,0.319,0.396l0.005,0.883l-4.932,0.025l-0.006-0.882
		c-0.001-0.211,0.083-0.358,0.295-0.399l1.226-0.238l-0.04-7.579c-0.678-0.123-1.102-0.205-1.229-0.245
		c-0.212-0.042-0.298-0.188-0.299-0.396l-0.005-0.883l1.524-0.009l1.101-0.006c0.254-0.001,0.424,0.124,0.51,0.376l0.177,1.154
		V182.389z"/>
	<path display="inline" d="M167.048,180.591c1.185-0.007,2.182,0.408,2.949,1.244l-0.023-4.367c-0.721-0.122-1.208-0.202-1.42-0.243
		s-0.318-0.168-0.319-0.377l-0.005-0.925l3.599-0.019l0.073,13.94c0.679,0.122,1.103,0.204,1.229,0.245
		c0.211,0.041,0.297,0.166,0.298,0.376l0.005,0.925l-2.625,0.015c-0.254,0.001-0.424-0.146-0.51-0.397l-0.176-1.279
		c-1.011,1.225-2.191,1.817-3.588,1.825c-1.271,0.007-2.246-0.45-2.971-1.37c-0.725-0.939-1.112-2.262-1.122-4.024
		c-0.008-1.597,0.408-2.941,1.229-3.954c0.841-1.055,1.98-1.605,3.398-1.613L167.048,180.591L167.048,180.591z M167.162,190.061
		c1.101-0.006,2.07-0.559,2.869-1.633l-0.026-5.123c-0.641-0.837-1.467-1.252-2.483-1.246c-1.016,0.006-1.797,0.346-2.343,1.063
		s-0.795,1.727-0.788,3.027c0.011,2.016,0.525,3.23,1.585,3.688c0.34,0.146,0.742,0.206,1.165,0.204L167.162,190.061z"/>
	<path display="inline" d="M182.492,182.881c0.774-1.578,1.85-2.382,3.246-2.39c0.551-0.003,1.038,0.12,1.463,0.37l-0.227,1.408
		c-0.041,0.168-0.146,0.272-0.272,0.273s-0.297-0.04-0.509-0.104c-0.212-0.062-0.486-0.103-0.868-0.1
		c-1.229,0.006-2.155,0.768-2.739,2.239l0.027,5.249c0.17,0.041,0.572,0.102,1.208,0.226c0.213,0.04,0.318,0.188,0.319,0.396
		l0.005,0.882l-4.931,0.025l-0.005-0.881c-0.001-0.211,0.104-0.358,0.314-0.4l1.205-0.237l-0.04-7.579
		c-0.678-0.124-1.081-0.205-1.208-0.246c-0.211-0.041-0.317-0.188-0.318-0.396l-0.005-0.883l1.523-0.008l1.079-0.006
		c0.212-0.001,0.318,0.021,0.403,0.104c0.084,0.083,0.128,0.208,0.171,0.397l0.136,1.656h0.021V182.881z"/>
	<path display="inline" d="M192.619,180.497c0.635-0.004,1.228,0.099,1.779,0.305c0.552,0.208,1.019,0.499,1.401,0.896
		c0.384,0.396,0.725,0.899,0.939,1.485s0.346,1.258,0.35,2.015c0.002,0.293-0.019,0.504-0.081,0.588
		c-0.063,0.084-0.211,0.147-0.381,0.147l-7.111,0.038c0.003,0.673,0.091,1.259,0.264,1.763c0.172,0.504,0.429,0.879,0.727,1.215
		c0.298,0.334,0.638,0.584,1.063,0.75c0.425,0.164,0.849,0.246,1.356,0.244c0.465-0.002,0.888-0.047,1.227-0.153
		s0.635-0.233,0.888-0.361s0.465-0.233,0.634-0.34c0.168-0.104,0.295-0.169,0.422-0.17c0.169-0.001,0.275,0.063,0.36,0.187
		l0.532,0.69c-0.23,0.296-0.505,0.507-0.843,0.72c-0.337,0.211-0.653,0.401-1.034,0.529c-0.38,0.129-0.761,0.234-1.141,0.301
		c-0.381,0.064-0.783,0.108-1.164,0.11c-0.741,0.004-1.418-0.118-2.055-0.367c-0.636-0.248-1.167-0.623-1.635-1.104
		c-0.469-0.479-0.811-1.065-1.068-1.777c-0.258-0.713-0.389-1.51-0.395-2.434c-0.004-0.756,0.12-1.43,0.35-2.061
		c0.229-0.631,0.564-1.221,0.986-1.686c0.421-0.465,0.947-0.846,1.581-1.121s1.331-0.405,2.094-0.409H192.619L192.619,180.497z
		 M192.69,181.861c-0.91,0.005-1.628,0.261-2.133,0.787c-0.505,0.527-0.84,1.266-0.962,2.188l5.82-0.03
		c-0.002-0.42-0.068-0.818-0.197-1.175s-0.279-0.69-0.513-0.94c-0.234-0.252-0.531-0.461-0.871-0.605s-0.742-0.206-1.166-0.203
		L192.69,181.861z"/>
	<path display="inline" d="M215.606,180.564l0.004,0.901c0.001,0.21-0.104,0.336-0.314,0.38c-0.084,0-0.232,0.064-0.528,0.106
		c-0.296,0.045-0.465,0.108-0.529,0.108l-2.936,9.127l-1.481,0.01c-0.189,0.001-0.317-0.083-0.383-0.334l-2.409-7.211
		c-0.063-0.168-0.106-0.336-0.15-0.504c-0.043-0.166-0.065-0.334-0.108-0.461c-0.041,0.168-0.04,0.336-0.082,0.504
		c-0.042,0.17-0.083,0.295-0.125,0.464l-2.375,7.215c-0.083,0.253-0.209,0.356-0.421,0.358l-1.438,0.008l-3.012-9.118
		c-0.042,0.001-0.189-0.019-0.359-0.062c-0.424-0.08-0.636-0.143-0.699-0.143c-0.212-0.042-0.339-0.188-0.341-0.396l-0.004-0.883
		l4.782-0.025l0.005,0.883c0.001,0.21-0.104,0.357-0.315,0.4c-0.127,0.041-0.529,0.107-1.163,0.236l1.723,5.702
		c0.131,0.629,0.261,1.11,0.305,1.446c0.062-0.295,0.208-0.777,0.416-1.45l2.207-6.898c0.083-0.253,0.252-0.38,0.506-0.381
		l0.825-0.004c0.274-0.002,0.445,0.123,0.53,0.375l2.26,6.875c0.086,0.293,0.216,0.774,0.389,1.425
		c0.082-0.482,0.185-0.967,0.31-1.429l1.705-5.722c-0.084,0.002-0.508-0.08-1.229-0.224c-0.211-0.042-0.34-0.188-0.341-0.396
		l-0.005-0.882L215.606,180.564z"/>
	<path display="inline" d="M226.05,189.768c0.189,0.041,0.318,0.209,0.319,0.398l0.005,0.902l-1.375,0.007l-0.148,0.001
		l-0.677,0.004c-0.169,0-0.317-0.041-0.445-0.082c-0.127-0.041-0.17-0.167-0.213-0.335l-0.217-1.007
		c-0.295,0.254-0.59,0.484-0.843,0.697c-0.253,0.211-0.548,0.381-0.844,0.508c-0.296,0.128-0.592,0.234-0.93,0.32
		s-0.719,0.108-1.142,0.111c-0.423,0.002-0.783-0.061-1.145-0.184c-0.359-0.125-0.7-0.271-0.955-0.5
		c-0.256-0.229-0.469-0.521-0.64-0.877c-0.171-0.356-0.237-0.775-0.239-1.26c-0.002-0.42,0.103-0.841,0.332-1.22
		c0.231-0.379,0.631-0.759,1.139-1.056c0.506-0.297,1.182-0.574,2.027-0.768c0.847-0.193,1.861-0.281,3.088-0.289l-0.004-0.818
		c-0.004-0.84-0.198-1.469-0.561-1.887s-0.893-0.646-1.591-0.643c-0.466,0.002-0.847,0.066-1.163,0.193
		c-0.316,0.129-0.57,0.234-0.803,0.383c-0.231,0.148-0.442,0.255-0.611,0.382c-0.168,0.127-0.316,0.169-0.486,0.17
		c-0.127,0.001-0.254-0.019-0.339-0.082s-0.17-0.167-0.213-0.251l-0.342-0.586c0.589-0.57,1.223-0.973,1.897-1.27
		c0.675-0.299,1.438-0.429,2.283-0.434c0.593-0.003,1.144,0.078,1.61,0.286c0.467,0.207,0.849,0.457,1.168,0.791
		c0.318,0.335,0.554,0.753,0.726,1.256s0.239,1.05,0.242,1.638l0.028,5.313c0.297,0.061,0.932,0.184,1.059,0.225V189.768
		L226.05,189.768z M223.111,186.34c-0.867,0.005-1.607,0.051-2.199,0.159c-0.593,0.106-1.1,0.278-1.479,0.448
		s-0.675,0.382-0.843,0.635s-0.252,0.505-0.25,0.799c0.001,0.294,0.065,0.504,0.151,0.713c0.087,0.21,0.215,0.377,0.385,0.502
		s0.34,0.208,0.552,0.271c0.211,0.062,0.445,0.103,0.699,0.101c0.339-0.001,0.612-0.045,0.889-0.108
		c0.274-0.064,0.528-0.149,0.782-0.277c0.253-0.127,0.484-0.296,0.696-0.465c0.21-0.17,0.421-0.381,0.631-0.592L223.111,186.34z"/>
	<path display="inline" d="M230.924,182.624c0.774-1.579,1.851-2.382,3.247-2.39c0.55-0.004,1.038,0.119,1.462,0.369l-0.227,1.407
		c-0.04,0.169-0.146,0.274-0.272,0.275c-0.127,0-0.297-0.041-0.508-0.103c-0.212-0.063-0.487-0.104-0.869-0.102
		c-1.229,0.007-2.155,0.768-2.739,2.24l0.028,5.248c0.169,0.041,0.572,0.103,1.207,0.227c0.212,0.039,0.318,0.188,0.319,0.396
		l0.005,0.882l-4.932,0.026l-0.004-0.883c-0.001-0.21,0.104-0.357,0.315-0.4l1.205-0.237l-0.04-7.579
		c-0.679-0.123-1.081-0.205-1.208-0.245c-0.212-0.042-0.318-0.188-0.319-0.397l-0.005-0.881l1.523-0.01l1.079-0.005
		c0.212-0.002,0.318,0.021,0.403,0.103c0.085,0.084,0.128,0.209,0.171,0.398l0.136,1.657h0.021V182.624z"/>
	<path display="inline" d="M241.115,180.197c1.186-0.006,2.183,0.408,2.949,1.244l-0.022-4.367
		c-0.721-0.122-1.208-0.203-1.419-0.244s-0.318-0.166-0.319-0.376l-0.005-0.924l3.598-0.021l0.074,13.941
		c0.678,0.122,1.102,0.203,1.229,0.244c0.211,0.041,0.297,0.168,0.298,0.378l0.005,0.924l-2.625,0.014
		c-0.254,0.001-0.424-0.146-0.51-0.396l-0.177-1.279c-1.01,1.223-2.191,1.816-3.588,1.824c-1.27,0.007-2.246-0.45-2.97-1.37
		c-0.725-0.94-1.113-2.263-1.122-4.024c-0.009-1.597,0.408-2.941,1.229-3.953c0.841-1.056,1.98-1.606,3.398-1.614L241.115,180.197
		L241.115,180.197z M241.229,189.667c1.102-0.006,2.071-0.558,2.87-1.633l-0.027-5.123c-0.64-0.836-1.467-1.252-2.482-1.246
		c-1.017,0.005-1.797,0.345-2.343,1.062s-0.795,1.728-0.788,3.028c0.011,2.017,0.524,3.229,1.585,3.687
		c0.339,0.146,0.742,0.207,1.165,0.205L241.229,189.667z"/>
	<path display="inline" d="M253.593,190.063l0.005,0.903l-4.931,0.025l-0.005-0.903c-0.001-0.188,0.125-0.355,0.314-0.398
		c0.19-0.043,1.227-0.237,1.227-0.237l-0.04-7.58c0,0-1.038-0.185-1.229-0.224c-0.189-0.043-0.317-0.211-0.319-0.398l-0.005-0.882
		l3.407-0.019l0.048,9.092c0,0,1.018,0.184,1.208,0.225C253.464,189.706,253.592,189.874,253.593,190.063z M249.844,177.527
		c-0.085-0.168-0.108-0.336-0.109-0.504s0.021-0.357,0.104-0.525c0.084-0.169,0.168-0.314,0.294-0.443
		c0.126-0.125,0.252-0.21,0.421-0.295s0.338-0.107,0.507-0.107c0.169-0.002,0.339,0.02,0.508,0.103
		c0.17,0.083,0.297,0.167,0.426,0.291c0.127,0.126,0.213,0.272,0.298,0.438c0.086,0.168,0.129,0.357,0.13,0.525
		s-0.04,0.336-0.125,0.504c-0.083,0.17-0.167,0.295-0.294,0.422c-0.126,0.127-0.253,0.211-0.422,0.295
		c-0.168,0.086-0.338,0.107-0.508,0.108c-0.169,0.001-0.338-0.021-0.508-0.103c-0.17-0.084-0.297-0.168-0.425-0.291
		C250.015,177.818,249.929,177.693,249.844,177.527z"/>
	<path display="inline" d="M258.101,181.829c1.052-1.14,2.234-1.713,3.546-1.72c1.144-0.008,2.034,0.347,2.673,1.099
		c0.598,0.711,0.919,1.696,0.927,2.913l0.027,5.229c0.679,0.123,1.08,0.204,1.207,0.245c0.212,0.041,0.34,0.188,0.341,0.397
		l0.005,0.902l-3.43,0.019l-0.036-6.761c-0.009-1.68-0.754-2.559-2.257-2.549c-1.058,0.004-2.028,0.515-2.912,1.506l0.033,6.299
		c0.042,0,0.466,0.082,1.229,0.246c0.211,0.039,0.317,0.187,0.318,0.396l0.005,0.882l-4.931,0.026l-0.005-0.882
		c-0.001-0.21,0.083-0.358,0.294-0.4l1.226-0.238l-0.039-7.578c-0.679-0.123-1.103-0.205-1.229-0.245
		c-0.211-0.042-0.297-0.188-0.298-0.397l-0.005-0.882l1.522-0.008l1.102-0.007c0.254-0.002,0.424,0.123,0.51,0.375l0.175,1.154
		v-0.021H258.101z"/>
	<path display="inline" d="M272.147,180.098c0.465-0.004,0.89,0.035,1.292,0.139s0.764,0.248,1.104,0.457l2.92-0.017l0.003,0.692
		c0.001,0.23-0.146,0.379-0.442,0.443l-1.206,0.174c0.258,0.461,0.345,0.965,0.348,1.511c0.003,0.504-0.079,0.985-0.289,1.407
		c-0.21,0.421-0.461,0.779-0.82,1.076c-0.359,0.295-0.78,0.549-1.266,0.721c-0.486,0.17-1.016,0.234-1.607,0.238
		c-0.508,0.002-0.974-0.058-1.419-0.182c-0.211,0.127-0.379,0.296-0.506,0.465c-0.126,0.17-0.167,0.295-0.167,0.463
		c0.001,0.252,0.087,0.439,0.299,0.565c0.212,0.124,0.488,0.229,0.827,0.269c0.338,0.041,0.741,0.08,1.165,0.078
		c0.423-0.003,0.868,0.037,1.312,0.076c0.445,0.04,0.891,0.059,1.313,0.141s0.826,0.205,1.166,0.371
		c0.339,0.166,0.616,0.438,0.829,0.73s0.3,0.671,0.303,1.175c0.002,0.462-0.101,0.925-0.332,1.345
		c-0.229,0.422-0.588,0.803-1.009,1.141c-0.422,0.338-0.928,0.593-1.563,0.806c-0.633,0.214-1.331,0.302-2.113,0.306
		c-0.783,0.004-1.482-0.055-2.076-0.22s-1.082-0.373-1.464-0.623s-0.681-0.563-0.872-0.896c-0.192-0.335-0.3-0.671-0.303-1.048
		c-0.002-0.524,0.165-0.967,0.502-1.348c0.337-0.38,0.8-0.677,1.392-0.89c-0.297-0.124-0.552-0.333-0.723-0.563
		c-0.171-0.229-0.278-0.564-0.28-0.942c-0.001-0.169,0.041-0.296,0.082-0.464s0.125-0.336,0.251-0.504
		c0.126-0.17,0.273-0.317,0.441-0.465c0.168-0.146,0.38-0.255,0.591-0.382c-0.53-0.291-0.956-0.688-1.256-1.169
		c-0.299-0.48-0.449-1.048-0.452-1.697c-0.003-0.504,0.079-0.988,0.289-1.408c0.21-0.422,0.482-0.779,0.841-1.076
		c0.357-0.295,0.801-0.528,1.309-0.699c0.507-0.171,1.036-0.236,1.628-0.24L272.147,180.098z M275.573,191.479
		c-0.001-0.252-0.065-0.461-0.215-0.629c-0.148-0.166-0.36-0.291-0.615-0.373c-0.255-0.084-0.529-0.146-0.869-0.187
		c-0.339-0.039-0.679-0.08-1.06-0.099c-0.381-0.02-0.74-0.018-1.123-0.036c-0.381-0.021-0.74-0.08-1.08-0.12
		c-0.4,0.189-0.737,0.424-0.99,0.697c-0.253,0.274-0.378,0.61-0.376,0.988c0.001,0.252,0.065,0.463,0.194,0.672
		c0.128,0.209,0.319,0.377,0.574,0.521c0.255,0.146,0.573,0.271,0.954,0.353c0.382,0.082,0.848,0.123,1.355,0.119
		c0.508-0.003,0.951-0.068,1.354-0.154s0.74-0.234,1.014-0.403c0.274-0.17,0.485-0.36,0.632-0.593
		c0.146-0.229,0.229-0.463,0.229-0.756H275.573L275.573,191.479z M272.198,185.743c0.382-0.002,0.721-0.067,1.017-0.173
		c0.295-0.106,0.527-0.256,0.738-0.444c0.21-0.19,0.356-0.442,0.439-0.696c0.083-0.252,0.146-0.546,0.145-0.861
		c-0.003-0.649-0.219-1.174-0.622-1.549c-0.404-0.377-0.977-0.563-1.738-0.56c-0.762,0.005-1.333,0.196-1.732,0.577
		c-0.399,0.379-0.588,0.904-0.584,1.556c0.001,0.315,0.067,0.609,0.175,0.86c0.106,0.252,0.235,0.48,0.447,0.67
		c0.213,0.188,0.446,0.333,0.743,0.438c0.297,0.104,0.594,0.144,0.976,0.142v0.041H272.198z"/>
	<path display="inline" d="M285.284,190.251c-0.469-0.459-0.684-1.13-0.688-2.012l-0.035-6.509l-1.291,0.006
		c-0.127,0.002-0.211-0.02-0.297-0.081c-0.084-0.063-0.106-0.188-0.106-0.315l-0.005-0.734l1.756-0.238l0.405-3.301
		c-0.001-0.104,0.041-0.188,0.125-0.252c0.084-0.063,0.169-0.084,0.296-0.086l0.952-0.004l0.021,3.652l3.068-0.018l0.008,1.365
		l-3.069,0.017l0.034,6.383c0.002,0.463,0.109,0.798,0.322,1.006c0.213,0.21,0.53,0.313,0.869,0.312
		c0.211-0.002,0.381-0.045,0.528-0.086c0.148-0.043,0.275-0.106,0.38-0.172c0.105-0.063,0.168-0.125,0.253-0.168
		c0.084-0.043,0.168-0.086,0.211-0.086c0.085-0.001,0.169,0.041,0.254,0.168l0.556,0.879c-0.337,0.295-0.717,0.549-1.182,0.719
		c-0.465,0.171-0.93,0.258-1.417,0.261C286.388,190.959,285.752,190.711,285.284,190.251z"/>
	<path display="inline" d="M297.844,179.938c1.143-0.006,2.034,0.348,2.672,1.078c0.618,0.711,0.939,1.717,0.947,2.935l0.027,5.229
		c0.679,0.12,1.081,0.202,1.208,0.245c0.212,0.039,0.318,0.187,0.32,0.396l0.004,0.883l-3.407,0.018l-0.036-6.761
		c-0.009-1.68-0.775-2.536-2.277-2.528c-1.058,0.006-1.987,0.516-2.87,1.506l0.033,6.299l0.254,0.041
		c0.551,0.104,0.847,0.164,0.932,0.186c0.212,0.04,0.34,0.188,0.342,0.396l0.005,0.882l-4.953,0.026l-0.005-0.883
		c-0.001-0.21,0.125-0.357,0.337-0.4l1.184-0.236l-0.065-12.409c-0.806-0.121-1.271-0.202-1.398-0.245
		c-0.212-0.039-0.34-0.187-0.341-0.396l-0.004-0.882l3.641-0.02l0.033,6.256C295.434,180.497,296.553,179.945,297.844,179.938z"/>
	<path display="inline" d="M311.203,180.245c0.637,0.249,1.188,0.624,1.636,1.083c0.446,0.46,0.789,1.046,1.024,1.717
		c0.237,0.671,0.368,1.426,0.372,2.266s-0.119,1.597-0.348,2.271c-0.229,0.673-0.565,1.263-1.007,1.728s-0.99,0.846-1.624,1.101
		s-1.332,0.385-2.115,0.39c-0.783,0.004-1.482-0.117-2.118-0.367c-0.636-0.248-1.188-0.623-1.635-1.082
		c-0.447-0.461-0.789-1.047-1.046-1.717c-0.257-0.671-0.347-1.427-0.352-2.267c-0.004-0.839,0.076-1.597,0.327-2.269
		c0.25-0.675,0.586-1.265,1.028-1.729s0.99-0.846,1.624-1.102c0.633-0.254,1.331-0.385,2.114-0.389
		C309.867,179.874,310.567,179.997,311.203,180.245z M311.5,188.307c0.504-0.717,0.773-1.705,0.768-2.965
		c-0.006-1.259-0.287-2.244-0.799-2.956c-0.513-0.711-1.318-1.043-2.376-1.036c-0.55,0.002-1.016,0.088-1.396,0.258
		s-0.717,0.467-0.97,0.805c-0.252,0.337-0.461,0.758-0.585,1.263c-0.125,0.505-0.206,1.093-0.203,1.724
		c0.003,0.629,0.091,1.175,0.221,1.679c0.129,0.503,0.344,0.922,0.6,1.257c0.256,0.334,0.596,0.584,0.978,0.75
		s0.849,0.29,1.398,0.287C310.193,189.363,310.995,189.021,311.5,188.307z"/>
	<path display="inline" d="M320.694,189.309c1.059-0.007,2.029-0.516,2.893-1.485l-0.034-6.3c-0.127-0.041-0.53-0.123-1.208-0.244
		c-0.211-0.041-0.318-0.188-0.319-0.398l-0.005-0.902l1.524-0.008l1.884-0.01l0.048,9.112c0.678,0.122,1.08,0.204,1.208,0.245
		c0.212,0.041,0.319,0.166,0.32,0.375l0.005,0.902l-2.646,0.016c-0.254,0.001-0.424-0.146-0.51-0.396l-0.154-1.134
		c-1.01,1.14-2.191,1.712-3.546,1.72c-1.143,0.006-2.034-0.365-2.673-1.099c-0.597-0.711-0.94-1.654-0.947-2.914l-0.027-5.248
		c-0.679-0.123-1.06-0.205-1.188-0.245c-0.212-0.042-0.34-0.188-0.341-0.396l-0.005-0.883l3.429-0.019l0.036,6.761
		c0.004,0.799,0.177,1.447,0.56,1.887c0.384,0.439,0.936,0.646,1.697,0.643V189.309z"/>
	<path display="inline" d="M332.349,179.775c0.465-0.002,0.889,0.037,1.292,0.141c0.402,0.104,0.763,0.248,1.103,0.456l2.92-0.017
		l0.003,0.692c0.002,0.231-0.146,0.38-0.441,0.444l-1.206,0.174c0.256,0.461,0.344,0.964,0.347,1.51
		c0.003,0.504-0.08,0.987-0.289,1.408c-0.21,0.421-0.462,0.78-0.819,1.076c-0.358,0.295-0.78,0.55-1.267,0.72
		c-0.485,0.171-1.015,0.236-1.606,0.239c-0.508,0.003-0.975-0.059-1.419-0.182c-0.211,0.127-0.379,0.297-0.505,0.465
		s-0.169,0.296-0.167,0.464c0.001,0.252,0.087,0.438,0.299,0.565c0.212,0.123,0.487,0.228,0.827,0.268
		c0.338,0.041,0.74,0.08,1.165,0.078c0.424-0.002,0.867,0.037,1.313,0.076c0.444,0.041,0.889,0.06,1.313,0.142
		c0.424,0.082,0.826,0.204,1.165,0.37c0.341,0.167,0.616,0.438,0.83,0.73s0.301,0.67,0.304,1.174
		c0.002,0.463-0.102,0.926-0.332,1.347c-0.231,0.421-0.588,0.801-1.011,1.14c-0.421,0.338-0.929,0.594-1.562,0.807
		c-0.634,0.213-1.332,0.301-2.115,0.306c-0.783,0.004-1.481-0.056-2.075-0.22c-0.594-0.166-1.082-0.373-1.464-0.623
		s-0.68-0.563-0.873-0.897c-0.192-0.334-0.3-0.671-0.302-1.049c-0.003-0.524,0.164-0.968,0.5-1.347
		c0.337-0.379,0.801-0.676,1.393-0.89c-0.298-0.124-0.553-0.333-0.724-0.563c-0.17-0.229-0.278-0.565-0.28-0.943
		c-0.001-0.168,0.041-0.294,0.082-0.462s0.125-0.337,0.251-0.505c0.126-0.169,0.274-0.317,0.442-0.465
		c0.168-0.148,0.38-0.254,0.59-0.381c-0.53-0.291-0.956-0.688-1.254-1.17c-0.299-0.481-0.45-1.047-0.454-1.697
		c-0.002-0.504,0.079-0.987,0.289-1.408c0.209-0.422,0.482-0.779,0.841-1.076c0.358-0.295,0.802-0.527,1.31-0.699
		c0.508-0.171,1.036-0.236,1.628-0.24L332.349,179.775z M335.774,191.159c-0.001-0.252-0.066-0.462-0.215-0.629
		s-0.361-0.292-0.616-0.375c-0.254-0.082-0.53-0.145-0.869-0.186c-0.339-0.038-0.678-0.079-1.059-0.099s-0.741-0.018-1.122-0.036
		s-0.741-0.08-1.08-0.12c-0.401,0.19-0.738,0.424-0.991,0.697c-0.252,0.273-0.377,0.611-0.375,0.988
		c0.001,0.252,0.066,0.463,0.194,0.672s0.319,0.376,0.575,0.521c0.254,0.146,0.572,0.271,0.954,0.354
		c0.381,0.081,0.848,0.12,1.354,0.118c0.508-0.002,0.952-0.068,1.354-0.154c0.401-0.086,0.739-0.234,1.014-0.403
		c0.274-0.17,0.485-0.36,0.631-0.592c0.147-0.231,0.23-0.463,0.229-0.757L335.774,191.159L335.774,191.159z M332.4,185.424
		c0.381-0.002,0.719-0.066,1.015-0.173c0.297-0.106,0.528-0.255,0.739-0.444c0.21-0.19,0.357-0.442,0.441-0.695
		c0.083-0.252,0.145-0.547,0.143-0.862c-0.003-0.649-0.218-1.175-0.622-1.549c-0.403-0.377-0.977-0.563-1.737-0.56
		c-0.762,0.004-1.333,0.195-1.732,0.577c-0.4,0.38-0.588,0.905-0.584,1.556c0.002,0.315,0.067,0.608,0.174,0.86
		c0.106,0.251,0.235,0.481,0.448,0.669c0.212,0.188,0.446,0.334,0.743,0.438c0.297,0.104,0.593,0.144,0.974,0.142L332.4,185.424z"/>
	<path display="inline" d="M345.812,179.684c1.143-0.006,2.034,0.348,2.673,1.078c0.617,0.711,0.94,1.717,0.946,2.935l0.028,5.229
		c0.678,0.122,1.08,0.203,1.208,0.246c0.211,0.04,0.317,0.187,0.318,0.396l0.005,0.883l-3.407,0.019l-0.036-6.761
		c-0.01-1.68-0.775-2.537-2.278-2.529c-1.058,0.006-1.987,0.516-2.871,1.508l0.034,6.299l0.254,0.039
		c0.551,0.104,0.848,0.164,0.933,0.186c0.212,0.04,0.34,0.188,0.342,0.396l0.004,0.881l-4.953,0.027l-0.004-0.883
		c-0.001-0.21,0.125-0.357,0.336-0.4l1.184-0.236l-0.065-12.409c-0.806-0.121-1.271-0.202-1.398-0.244
		c-0.211-0.04-0.339-0.187-0.34-0.396l-0.005-0.883l3.64-0.02l0.033,6.257C343.402,180.242,344.521,179.689,345.812,179.684z"/>
	<path display="inline" d="M354.164,189.886c-0.468-0.46-0.683-1.13-0.688-2.012l-0.035-6.509l-1.291,0.007
		c-0.127,0-0.211-0.021-0.296-0.083s-0.106-0.188-0.106-0.314l-0.005-0.733l1.756-0.24l0.405-3.299
		c-0.001-0.104,0.041-0.188,0.125-0.253c0.084-0.063,0.169-0.085,0.296-0.085l0.953-0.005l0.021,3.651l3.067-0.016l0.007,1.364
		l-3.068,0.016l0.034,6.383c0.002,0.463,0.108,0.799,0.322,1.008c0.212,0.209,0.531,0.313,0.869,0.311
		c0.212-0.001,0.381-0.044,0.529-0.087c0.147-0.044,0.274-0.105,0.38-0.171c0.106-0.063,0.169-0.127,0.253-0.168
		c0.084-0.043,0.169-0.086,0.211-0.086c0.084,0,0.169,0.041,0.255,0.166l0.556,0.879c-0.337,0.297-0.718,0.551-1.183,0.722
		c-0.464,0.17-0.93,0.257-1.417,0.259C355.269,190.594,354.633,190.345,354.164,189.886z"/>
	<path display="inline" d="M365.439,176.557c-1.438,0.008-2.155,0.81-2.146,2.426l0.005,0.986l3.09-0.017l0.007,1.344l-3.048,0.017
		l0.04,7.539c0.847,0.119,1.313,0.201,1.419,0.223c0.212,0.041,0.317,0.188,0.32,0.396l0.005,0.903l-5.249,0.027l-0.005-0.902
		c-0.001-0.209,0.104-0.357,0.314-0.4l1.312-0.236l-0.04-7.496l-1.187-0.141c-0.339-0.082-0.509-0.229-0.51-0.48l-0.004-0.756
		l1.691-0.01l-0.005-1.027c-0.006-1.219,0.307-2.165,0.979-2.84c0.652-0.676,1.541-0.996,2.683-1.002
		c0.466-0.002,0.91,0.078,1.334,0.203l-0.038,0.944c0.001,0.126-0.063,0.21-0.188,0.253c-0.127,0.043-0.275,0.045-0.487,0.045
		l-0.317,0.002H365.439z"/>
	<path display="inline" d="M373.041,189.029c1.06-0.006,2.03-0.516,2.893-1.485l-0.033-6.298c-0.127-0.042-0.53-0.124-1.208-0.246
		c-0.212-0.041-0.317-0.188-0.319-0.396l-0.005-0.902l1.524-0.008l1.883-0.012l0.048,9.112c0.679,0.122,1.081,0.204,1.208,0.246
		c0.212,0.04,0.318,0.166,0.32,0.376l0.004,0.902l-2.646,0.014c-0.255,0.002-0.425-0.145-0.511-0.396l-0.153-1.133
		c-1.011,1.139-2.192,1.713-3.548,1.719c-1.143,0.006-2.033-0.365-2.672-1.098c-0.596-0.711-0.939-1.654-0.945-2.914l-0.028-5.248
		c-0.678-0.123-1.06-0.205-1.188-0.246c-0.212-0.041-0.339-0.188-0.34-0.396l-0.005-0.883l3.429-0.019l0.036,6.761
		c0.004,0.799,0.178,1.447,0.562,1.888s0.935,0.646,1.696,0.642v0.021H373.041z"/>
	<path display="inline" d="M385.532,189.361l0.005,0.902l-4.952,0.026l-0.006-0.903c-0.001-0.209,0.125-0.355,0.337-0.4l1.185-0.235
		l-0.066-12.409c-0.678-0.121-1.059-0.203-1.186-0.244c-0.212-0.041-0.34-0.168-0.341-0.377l-0.005-0.902l3.429-0.019l0.074,13.921
		c0.678,0.121,1.06,0.203,1.187,0.244C385.404,189.006,385.531,189.152,385.532,189.361z"/>
	<path display="inline" d="M395.641,179.377c1.186-0.006,2.182,0.408,2.949,1.244l-0.023-4.367c-0.72-0.122-1.207-0.203-1.419-0.244
		s-0.318-0.166-0.319-0.376l-0.005-0.924l3.599-0.021l0.073,13.941c0.679,0.122,1.102,0.204,1.229,0.245
		c0.212,0.041,0.297,0.167,0.298,0.377l0.005,0.924l-2.624,0.015c-0.254,0-0.424-0.146-0.51-0.396l-0.176-1.279
		c-1.009,1.224-2.191,1.816-3.589,1.824c-1.271,0.008-2.246-0.449-2.971-1.37c-0.725-0.94-1.112-2.262-1.122-4.024
		c-0.008-1.596,0.408-2.941,1.229-3.953c0.841-1.055,1.98-1.606,3.398-1.614L395.641,179.377L395.641,179.377z M395.755,188.848
		c1.1-0.007,2.07-0.56,2.868-1.634l-0.026-5.123c-0.641-0.836-1.466-1.252-2.483-1.246c-1.016,0.005-1.797,0.345-2.343,1.063
		c-0.547,0.717-0.795,1.727-0.789,3.028c0.011,2.016,0.525,3.229,1.586,3.687c0.339,0.146,0.742,0.206,1.166,0.204L395.755,188.848z
		"/>
	<path display="inline" d="M408.118,189.241l0.005,0.903l-4.931,0.025l-0.005-0.902c-0.001-0.188,0.125-0.356,0.315-0.399
		c0.188-0.043,1.226-0.237,1.226-0.237l-0.04-7.58c0,0-1.038-0.184-1.229-0.224c-0.19-0.042-0.318-0.21-0.319-0.397l-0.005-0.883
		l3.407-0.018l0.048,9.092c0,0,1.017,0.183,1.208,0.224C407.99,188.886,408.117,189.053,408.118,189.241z M404.369,176.707
		c-0.085-0.168-0.106-0.336-0.107-0.504s0.02-0.357,0.103-0.525c0.084-0.169,0.168-0.314,0.295-0.443
		c0.126-0.125,0.252-0.209,0.421-0.295c0.168-0.084,0.339-0.106,0.508-0.107c0.17-0.001,0.339,0.02,0.509,0.104
		c0.17,0.082,0.298,0.166,0.426,0.291c0.127,0.125,0.213,0.271,0.298,0.438c0.086,0.168,0.129,0.356,0.13,0.524
		s-0.04,0.336-0.125,0.504c-0.083,0.17-0.167,0.295-0.293,0.423c-0.127,0.126-0.253,0.21-0.423,0.295
		c-0.168,0.085-0.337,0.106-0.507,0.108c-0.169,0-0.339-0.021-0.509-0.104c-0.169-0.083-0.296-0.167-0.424-0.291
		C404.54,176.999,404.454,176.874,404.369,176.707z"/>
	<path display="inline" d="M413.485,179.324c0.74-0.004,1.673,0.181,2.797,0.552l0.004,0.735l0.012,1.994l-0.825,0.004
		c-0.212,0.002-0.318-0.082-0.361-0.293c0-0.041-0.046-0.502-0.135-1.383c-0.636-0.145-1.188-0.226-1.652-0.224h-0.021
		c-0.594,0.003-1.078,0.174-1.457,0.47c-0.379,0.297-0.569,0.612-0.567,0.969c0.002,0.357,0.089,0.631,0.259,0.797
		c0.3,0.334,0.702,0.563,1.232,0.729c0.529,0.165,0.974,0.27,1.313,0.393l1.019,0.373c0.339,0.125,0.639,0.332,0.894,0.541
		c0.595,0.459,0.872,1.066,0.877,1.844c0.006,1.008-0.328,1.828-1.023,2.439c-0.718,0.635-1.688,0.997-2.832,1.004
		c-1.143,0.006-2.328-0.178-3.475-0.55l-0.015-2.771l0.762-0.004c0.169-0.002,0.276,0.082,0.32,0.25
		c0,0.063,0.044,0.504,0.134,1.343c0.594,0.291,1.335,0.413,2.182,0.407c0.698-0.002,1.249-0.193,1.648-0.532
		c0.358-0.317,0.546-0.675,0.543-1.074c-0.002-0.399-0.087-0.69-0.258-0.88c-0.17-0.188-0.382-0.376-0.637-0.501
		c-0.255-0.124-0.553-0.249-0.893-0.331c-0.933-0.289-1.59-0.495-1.971-0.661c-0.382-0.166-0.701-0.374-0.956-0.583
		c-0.595-0.479-0.896-1.129-0.898-1.969c-0.006-0.86,0.329-1.557,1.004-2.146c0.718-0.635,1.688-0.934,3.002-0.939h-0.024V179.324z"
		/>
	<path display="inline" d="M423.027,190.213c-1.376,0.008-2.479-0.47-3.353-1.431c-0.915-1.003-1.39-2.345-1.397-4.024
		c-0.009-1.638,0.408-2.92,1.271-3.933c0.903-1.034,2.172-1.545,3.761-1.554c0.803-0.004,1.863,0.242,3.177,0.738l0.015,2.771
		l-0.847,0.005c-0.21,0.001-0.316-0.082-0.36-0.292c-0.021-0.084-0.045-0.336-0.09-0.799c-0.044-0.461-0.066-0.67-0.066-0.691
		c-0.338-0.104-0.593-0.145-0.764-0.186c-0.423-0.062-0.803-0.079-1.186-0.077c-0.38,0.002-0.783,0.108-1.162,0.278
		c-0.381,0.17-0.718,0.445-0.99,0.782c-0.548,0.718-0.796,1.685-0.789,2.943c0.007,1.26,0.311,2.267,0.862,2.978
		c0.556,0.689,1.297,1.043,2.271,1.037c0.89-0.004,1.672-0.303,2.347-0.894c0.125-0.127,0.272-0.171,0.422-0.171
		c0.148,0,0.254,0.041,0.34,0.166l0.511,0.689C426.113,189.65,424.762,190.204,423.027,190.213z"/>
	<path display="inline" d="M433.412,188.709c1.058-0.006,2.028-0.516,2.891-1.484l-0.033-6.3c-0.126-0.041-0.528-0.123-1.206-0.245
		c-0.213-0.041-0.319-0.187-0.321-0.396l-0.004-0.902l1.522-0.009l1.884-0.011l0.049,9.113c0.68,0.121,1.08,0.203,1.208,0.244
		c0.212,0.041,0.318,0.167,0.319,0.377l0.005,0.902l-2.646,0.014c-0.255,0.002-0.424-0.145-0.511-0.396l-0.153-1.134
		c-1.01,1.14-2.191,1.713-3.547,1.72c-1.142,0.006-2.033-0.366-2.672-1.099c-0.597-0.711-0.938-1.653-0.945-2.914l-0.027-5.248
		c-0.679-0.123-1.062-0.205-1.188-0.245c-0.214-0.042-0.34-0.188-0.342-0.397l-0.004-0.882l3.428-0.019l0.035,6.761
		c0.005,0.798,0.178,1.446,0.563,1.887c0.382,0.438,0.934,0.646,1.695,0.642L433.412,188.709L433.412,188.709z"/>
	<path display="inline" d="M445.109,179.156c0.74-0.004,1.673,0.181,2.797,0.552l0.004,0.735l0.012,1.994l-0.825,0.004
		c-0.212,0.002-0.318-0.082-0.361-0.293c0-0.041-0.046-0.502-0.136-1.383c-0.635-0.145-1.187-0.226-1.65-0.224h-0.021
		c-0.593,0.003-1.078,0.174-1.458,0.47c-0.379,0.297-0.568,0.612-0.566,0.969c0.002,0.357,0.088,0.631,0.258,0.797
		c0.301,0.334,0.702,0.563,1.232,0.729c0.529,0.165,0.975,0.27,1.313,0.393l1.019,0.373c0.34,0.125,0.638,0.332,0.894,0.541
		c0.596,0.459,0.872,1.066,0.876,1.844c0.006,1.008-0.328,1.828-1.021,2.441c-0.718,0.633-1.688,0.995-2.832,1.002
		c-1.143,0.006-2.328-0.178-3.475-0.55l-0.015-2.771l0.762-0.004c0.169-0.002,0.275,0.082,0.318,0.25
		c0,0.063,0.046,0.504,0.135,1.343c0.595,0.291,1.335,0.413,2.183,0.407c0.698-0.002,1.247-0.193,1.648-0.532
		c0.356-0.316,0.545-0.675,0.543-1.074s-0.088-0.69-0.259-0.88c-0.17-0.188-0.382-0.376-0.637-0.501
		c-0.254-0.124-0.552-0.249-0.892-0.331c-0.934-0.289-1.59-0.495-1.973-0.661c-0.381-0.166-0.699-0.374-0.954-0.583
		c-0.596-0.479-0.896-1.129-0.899-1.969c-0.006-0.86,0.329-1.557,1.004-2.146c0.718-0.634,1.688-0.934,3.002-0.939h-0.024V179.156z"
		/>
	<path display="inline" d="M453.787,179.109c0.74-0.004,1.674,0.182,2.797,0.553l0.005,0.734l0.011,1.996l-0.825,0.004
		c-0.213,0-0.318-0.082-0.361-0.293c-0.001-0.041-0.046-0.504-0.136-1.385c-0.635-0.145-1.187-0.226-1.649-0.223h-0.021
		c-0.593,0.003-1.078,0.174-1.459,0.47c-0.378,0.296-0.567,0.612-0.565,0.97c0.002,0.356,0.089,0.629,0.259,0.797
		c0.299,0.334,0.702,0.563,1.231,0.728c0.528,0.165,0.975,0.269,1.313,0.394l1.018,0.371c0.34,0.125,0.638,0.334,0.894,0.541
		c0.596,0.459,0.871,1.067,0.876,1.844c0.006,1.009-0.328,1.83-1.022,2.44c-0.717,0.634-1.688,0.997-2.831,1.003
		c-1.143,0.006-2.328-0.178-3.475-0.549l-0.016-2.771l0.764-0.004c0.169,0,0.274,0.082,0.316,0.25c0,0.063,0.047,0.504,0.136,1.344
		c0.595,0.291,1.336,0.412,2.183,0.408c0.699-0.004,1.247-0.195,1.649-0.533c0.354-0.317,0.545-0.676,0.543-1.074
		s-0.09-0.691-0.26-0.88c-0.17-0.189-0.382-0.376-0.637-0.501c-0.254-0.124-0.553-0.249-0.891-0.331
		c-0.935-0.289-1.59-0.495-1.975-0.661c-0.381-0.166-0.697-0.375-0.953-0.583c-0.596-0.479-0.896-1.129-0.9-1.969
		c-0.005-0.86,0.331-1.556,1.005-2.147c0.718-0.634,1.688-0.933,3.001-0.939h-0.023V179.109z"/>
	<path display="inline" d="M463.219,188.949l0.005,0.902l-4.933,0.026l-0.006-0.903c-0.001-0.188,0.126-0.356,0.317-0.399
		c0.188-0.043,1.226-0.237,1.226-0.237l-0.041-7.58c0,0-1.039-0.184-1.228-0.224c-0.191-0.042-0.32-0.209-0.321-0.397l-0.005-0.882
		l3.408-0.019l0.049,9.092c0,0,1.017,0.184,1.208,0.225S463.218,188.761,463.219,188.949z M459.471,176.414
		c-0.086-0.167-0.108-0.335-0.109-0.503s0.021-0.356,0.104-0.526c0.083-0.168,0.167-0.314,0.293-0.441
		c0.127-0.127,0.253-0.211,0.421-0.297c0.17-0.084,0.339-0.106,0.509-0.107c0.169,0,0.338,0.021,0.508,0.104
		c0.17,0.084,0.298,0.166,0.425,0.291c0.129,0.127,0.215,0.271,0.301,0.439c0.085,0.167,0.128,0.355,0.129,0.523
		s-0.04,0.336-0.123,0.506c-0.084,0.168-0.169,0.293-0.296,0.421c-0.125,0.126-0.253,0.211-0.421,0.296
		c-0.17,0.085-0.34,0.107-0.509,0.107c-0.17,0-0.339-0.021-0.509-0.104s-0.296-0.166-0.425-0.291
		C459.641,176.706,459.556,176.582,459.471,176.414z"/>
	<path display="inline" d="M471.401,179.395c0.637,0.25,1.188,0.625,1.636,1.084c0.448,0.459,0.789,1.045,1.024,1.717
		c0.236,0.671,0.368,1.426,0.373,2.266c0.004,0.84-0.12,1.598-0.35,2.27c-0.229,0.674-0.563,1.264-1.007,1.728
		c-0.441,0.465-0.988,0.847-1.624,1.101c-0.632,0.256-1.331,0.385-2.114,0.391c-0.783,0.004-1.48-0.118-2.118-0.367
		c-0.635-0.248-1.188-0.623-1.637-1.083c-0.444-0.46-0.785-1.046-1.045-1.716c-0.258-0.672-0.346-1.426-0.35-2.266
		c-0.005-0.841,0.075-1.598,0.326-2.271c0.251-0.674,0.586-1.263,1.025-1.728c0.443-0.465,0.992-0.846,1.624-1.102
		c0.636-0.255,1.331-0.385,2.114-0.389C470.066,179.023,470.767,179.146,471.401,179.395z M471.698,187.456
		c0.504-0.717,0.774-1.704,0.769-2.964s-0.287-2.246-0.8-2.957c-0.512-0.711-1.316-1.043-2.377-1.037
		c-0.549,0.003-1.015,0.089-1.395,0.259c-0.381,0.17-0.718,0.466-0.97,0.804s-0.461,0.758-0.586,1.264
		c-0.124,0.505-0.204,1.093-0.201,1.723s0.09,1.176,0.219,1.68c0.131,0.502,0.344,0.922,0.601,1.256
		c0.256,0.334,0.596,0.584,0.979,0.75c0.381,0.166,0.849,0.291,1.396,0.287C470.393,188.514,471.194,188.173,471.698,187.456z"/>
	<path display="inline" d="M478.903,180.657c1.051-1.14,2.233-1.714,3.547-1.722c1.143-0.006,2.033,0.348,2.672,1.101
		c0.597,0.71,0.918,1.696,0.926,2.913l0.026,5.229c0.679,0.122,1.082,0.204,1.208,0.245c0.214,0.041,0.34,0.188,0.342,0.396
		l0.005,0.904l-3.428,0.019l-0.036-6.761c-0.009-1.681-0.756-2.559-2.259-2.551c-1.057,0.006-2.027,0.516-2.911,1.508l0.033,6.299
		c0.041,0,0.465,0.08,1.229,0.244c0.212,0.041,0.316,0.188,0.317,0.397l0.005,0.882l-4.93,0.025l-0.005-0.883
		c-0.001-0.209,0.083-0.356,0.293-0.398l1.227-0.238l-0.039-7.578c-0.678-0.123-1.103-0.205-1.229-0.246
		c-0.21-0.041-0.296-0.188-0.297-0.397l-0.005-0.882l1.522-0.008l1.102-0.006c0.254-0.002,0.425,0.123,0.51,0.375l0.176,1.154
		L478.903,180.657L478.903,180.657z"/>
	<path display="inline" d="M492.99,178.902c0.742-0.004,1.674,0.181,2.797,0.552l0.004,0.735l0.012,1.994l-0.825,0.004
		c-0.211,0.002-0.318-0.082-0.362-0.293c0-0.041-0.044-0.504-0.133-1.384c-0.637-0.145-1.188-0.226-1.654-0.223h-0.02
		c-0.593,0.003-1.08,0.174-1.458,0.47c-0.381,0.296-0.567,0.612-0.565,0.969c0.002,0.357,0.088,0.629,0.258,0.797
		c0.298,0.334,0.699,0.563,1.23,0.729c0.53,0.165,0.977,0.27,1.315,0.393l1.019,0.373c0.339,0.123,0.635,0.332,0.891,0.541
		c0.596,0.459,0.873,1.066,0.879,1.844c0.005,1.008-0.33,1.828-1.024,2.439c-0.716,0.635-1.688,0.996-2.831,1.003
		c-1.144,0.007-2.33-0.178-3.474-0.55l-0.016-2.771l0.763-0.004c0.17-0.002,0.274,0.082,0.317,0.25
		c0.001,0.063,0.044,0.504,0.134,1.344c0.595,0.291,1.338,0.412,2.185,0.408c0.696-0.004,1.247-0.195,1.646-0.533
		c0.358-0.317,0.549-0.676,0.546-1.074c-0.002-0.398-0.088-0.691-0.259-0.88c-0.17-0.189-0.384-0.376-0.639-0.501
		s-0.551-0.249-0.891-0.331c-0.933-0.289-1.592-0.495-1.973-0.661c-0.383-0.166-0.701-0.375-0.956-0.583
		c-0.594-0.479-0.894-1.129-0.897-1.969c-0.004-0.86,0.331-1.556,1.005-2.147c0.715-0.634,1.688-0.933,3-0.939H492.99
		L492.99,178.902z"/>
</g>
<g>
	<path d="M339.046,42.707c-0.766,1.98-1.846,3.645-3.24,5.085c-2.925,2.97-6.705,4.41-11.476,4.41h-14.895v-1.89
		c0-0.45,0.27-0.765,0.72-0.855l2.521-0.495V23.268c-1.44-0.27-2.25-0.45-2.521-0.54c-0.45-0.09-0.72-0.405-0.72-0.855v-1.89h14.895
		c4.771,0,8.596,1.44,11.476,4.41c2.925,2.97,4.41,6.885,4.41,11.7C340.216,38.522,339.812,40.727,339.046,42.707z M334.906,30.783
		c-0.54-1.53-1.26-2.88-2.25-3.96c-2.024-2.25-4.814-3.33-8.325-3.33h-7.244v25.199h7.244c3.511,0,6.256-1.08,8.325-3.33
		c2.07-2.25,3.061-5.31,3.061-9.27C335.717,34.112,335.447,32.313,334.906,30.783z"/>
	<path d="M366.002,19.983v7.785h-2.16c-0.54,0-0.855-0.225-0.945-0.765c0-0.135-0.135-1.305-0.315-3.465h-12.06v10.71h11.879v3.42
		h-11.879v11.024h12.06c0.181-1.98,0.271-3.105,0.271-3.24c0.09-0.54,0.45-0.72,0.99-0.72h2.16v7.47h-23.13v-1.89
		c0-0.45,0.226-0.765,0.676-0.855l2.564-0.495V23.268c-1.439-0.27-2.295-0.45-2.564-0.54c-0.45-0.09-0.676-0.405-0.676-0.855v-1.89
		H366.002z"/>
	<path d="M395.205,43.022c0,2.79-0.989,4.995-2.97,6.615c-2.024,1.71-4.814,2.565-8.37,2.565H369.24v-1.98
		c0-0.45,0.226-0.72,0.675-0.81l2.565-0.54V23.223c-1.44-0.27-2.295-0.45-2.565-0.54c-0.449-0.09-0.675-0.36-0.675-0.81v-1.98
		h13.544c5.761,0,9.315,1.665,10.709,4.905c0.45,1.08,0.63,2.115,0.63,3.195s-0.09,1.98-0.359,2.7
		c-0.271,0.72-0.585,1.395-1.08,2.025c-1.08,1.35-2.61,2.295-4.59,2.925C392.865,36.587,395.205,39.062,395.205,43.022z
		 M376.847,34.382h5.76c3.6,0,5.85-1.08,6.75-3.24c0.271-0.72,0.45-1.44,0.45-2.25c0-1.89-0.54-3.24-1.71-4.14
		s-2.88-1.35-5.311-1.35h-5.938L376.847,34.382L376.847,34.382z M383.822,48.782c3.601,0,5.806-1.17,6.705-3.51
		c0.271-0.72,0.36-1.485,0.36-2.34c0-1.665-0.54-2.97-1.71-3.96c-1.17-0.99-2.971-1.44-5.354-1.44h-6.975v11.205h7.02
		L383.822,48.782z"/>
	<path d="M429.766,50.402v1.8h-9.271v-1.8c0-0.405,0.226-0.63,0.63-0.72l1.846-0.54l-2.521-6.479h-13.904l-2.521,6.479l1.845,0.54
		c0.404,0.09,0.585,0.315,0.585,0.72v1.8h-9.225v-1.8c0-0.405,0.225-0.63,0.585-0.72l1.8-0.54l11.7-29.159h4.409l11.655,29.159
		l1.799,0.54C429.539,49.772,429.766,49.997,429.766,50.402z M419.235,39.512l-4.77-12.419c-0.36-0.81-0.676-1.8-0.99-3.015
		c-0.36,1.35-0.63,2.34-0.899,3.06l-4.814,12.375L419.235,39.512L419.235,39.512z"/>
	<path d="M458.385,19.983v7.11h-2.205c-0.539,0-0.766-0.135-0.854-0.45s-0.271-1.26-0.45-2.97h-7.56v25.289c0,0,0.181,0,0.54,0.09
		c1.17,0.225,1.936,0.36,2.25,0.45s0.449,0.36,0.449,0.81v1.89h-10.889v-1.89c0-0.45,0.27-0.81,0.765-0.9s1.306-0.27,2.476-0.495
		V23.628h-7.604c-0.181,1.71-0.314,2.7-0.404,3.015s-0.36,0.45-0.899,0.45h-2.16v-7.11h24.299h1.53H458.385z"/>
	<path d="M490.92,36.182c0,2.43-0.359,4.59-1.125,6.615c-0.766,2.025-1.846,3.78-3.239,5.22c-1.396,1.44-3.015,2.565-4.995,3.375
		c-1.979,0.81-4.14,1.26-6.479,1.26c-2.34,0-4.5-0.45-6.479-1.26c-1.98-0.81-3.646-1.935-5.04-3.375s-2.476-3.195-3.24-5.22
		c-0.764-2.025-1.17-4.229-1.17-6.66c0-2.43,0.405-4.635,1.17-6.66c0.766-2.025,1.846-3.78,3.24-5.22
		c1.395-1.44,3.06-2.61,5.04-3.42c1.979-0.81,4.14-1.215,6.479-1.215c2.339,0,4.5,0.405,6.479,1.215
		c1.98,0.81,3.645,1.935,5.04,3.375c1.395,1.44,2.475,3.195,3.24,5.22c0.765,2.025,1.124,4.23,1.124,6.66L490.92,36.182z
		 M486.421,36.182c0-1.979-0.271-3.78-0.812-5.354c-0.54-1.575-1.26-2.925-2.25-4.005c-0.989-1.08-2.16-1.89-3.6-2.475
		c-1.44-0.585-3.061-0.855-4.771-0.855s-3.239,0.27-4.681,0.855c-1.439,0.585-2.609,1.395-3.6,2.475
		c-0.991,1.08-1.801,2.43-2.341,4.005c-0.539,1.575-0.81,3.375-0.81,5.354c0,1.98,0.271,3.735,0.81,5.31
		c0.54,1.575,1.351,2.88,2.341,3.96c0.989,1.08,2.159,1.935,3.6,2.52c1.439,0.585,3.016,0.9,4.726,0.9s3.285-0.315,4.726-0.9
		c1.439-0.585,2.609-1.44,3.6-2.52s1.755-2.385,2.295-3.96c0.54-1.575,0.812-3.33,0.812-5.31H486.421z"/>
</g>
</svg>
