<?xml version="1.0" encoding="utf-8"?>
<!-- Generator: Adobe Illustrator 16.0.0, SVG Export Plug-In . SVG Version: 6.00 Build 0)  -->
<!DOCTYPE svg PUBLIC "-//W3C//DTD SVG 1.1//EN" "http://www.w3.org/Graphics/SVG/1.1/DTD/svg11.dtd">
<svg version="1.1" id="Layer_1" xmlns="http://www.w3.org/2000/svg" xmlns:xlink="http://www.w3.org/1999/xlink" x="0px" y="0px"
	 width="800px" height="133.918px" viewBox="0 0 800 133.918" enable-background="new 0 0 800 133.918" xml:space="preserve">
<rect x="0.478" fill="#005551" width="800" height="135.452"/>
<path opacity="0.4" fill="#FFFFFF" enable-background="new    " d="M643.24,51.9c-0.148,6.416,4.932,11.737,11.348,11.887
	c3.919,0.092,7.427-1.771,9.601-4.693c0.459,0.042,0.986-0.04,1.442-0.157c0.565-0.147,1-0.539,1.219-1.028
	c-0.058,0.019-0.112,0.038-0.17,0.053c-0.615,0.159-1.108-0.062-1.486-0.473c0.781-1.517,1.24-3.229,1.282-5.048
	c0.148-6.416-4.932-11.738-11.347-11.888C648.712,40.403,643.39,45.483,643.24,51.9z"/>
<circle opacity="0.2" fill="#FFFFFF" enable-background="new    " cx="556.369" cy="93.836" r="18.442"/>
<circle opacity="0.15" fill="#FFFFFF" enable-background="new    " cx="497.803" cy="53.169" r="26.955"/>
<circle opacity="0.5" fill="#FFFFFF" enable-background="new    " cx="286.346" cy="37.037" r="7.093"/>
<path opacity="0.1" fill="#FFFFFF" enable-background="new    " d="M372.494,25.679c-21.676,0-39.25,17.572-39.25,39.25
	c0,9.759,3.57,18.678,9.465,25.545c-0.765,2.624-2.485,4.685-5.695,4.955c-0.246,0.021-0.491,0.024-0.735,0.028
	c1.504,1.446,3.726,2.274,6.128,2.074c2.085-0.177,4.44-0.601,6.229-1.447c6.611,5.072,14.881,8.094,23.858,8.094
	c21.678,0,39.25-17.572,39.25-39.249C411.744,43.251,394.172,25.679,372.494,25.679z"/>
<line fill="none" x1="279.515" y1="38.952" x2="186.573" y2="65.01"/>
<g opacity="0.15">
	<g>
		<g>
			<g>
				<g>
					<polygon fill="#FFFFFF" points="296.966,41.638 296.286,42.971 292.355,40.991 293.034,39.659 					"/>
					
						<rect x="299.962" y="42.068" transform="matrix(-0.4537 0.8911 -0.8911 -0.4537 476.7062 -203.4483)" fill="#FFFFFF" width="1.496" height="4.638"/>
					
						<rect x="306.114" y="45.222" transform="matrix(-0.4546 0.8907 -0.8907 -0.4546 488.7161 -204.1633)" fill="#FFFFFF" width="1.497" height="4.636"/>
					
						<rect x="312.258" y="48.335" transform="matrix(-0.4542 0.8909 -0.8909 -0.4542 500.316 -205.1858)" fill="#FFFFFF" width="1.496" height="4.638"/>
					
						<rect x="318.404" y="51.49" transform="matrix(-0.4541 0.8909 -0.8909 -0.4541 512.0264 -206.0988)" fill="#FFFFFF" width="1.495" height="4.637"/>
					
						<rect x="324.555" y="54.627" transform="matrix(-0.4546 0.8907 -0.8907 -0.4546 523.9197 -206.9022)" fill="#FFFFFF" width="1.495" height="4.637"/>
				</g>
			</g>
			<g>
				<g>
					<polygon fill="#FFFFFF" points="333.519,60.271 333.205,61.792 329.073,59.687 329.752,58.353 					"/>
				</g>
			</g>
		</g>
	</g>
</g>
<g opacity="0.15">
	<g>
		<g>
			<g>
				<g>
					
						<rect x="571.004" y="108.232" transform="matrix(-0.4535 0.8913 -0.8913 -0.4535 929.5531 -348.9064)" fill="#FFFFFF" width="1.497" height="4.637"/>
					
						<rect x="577.125" y="111.341" transform="matrix(-0.4537 0.8911 -0.8911 -0.4537 941.3584 -349.735)" fill="#FFFFFF" width="1.496" height="4.638"/>
					
						<rect x="583.299" y="114.5" transform="matrix(-0.4545 0.8907 -0.8907 -0.4545 953.5585 -350.3194)" fill="#FFFFFF" width="1.495" height="4.637"/>
					
						<rect x="589.427" y="117.654" transform="matrix(-0.4545 0.8907 -0.8907 -0.4545 965.2804 -351.1912)" fill="#FFFFFF" width="1.495" height="4.637"/>
				</g>
			</g>
			<g>
				<g>
					
						<rect x="595.585" y="120.789" transform="matrix(-0.4535 0.8913 -0.8913 -0.4535 976.4739 -352.5614)" fill="#FFFFFF" width="1.497" height="4.639"/>
					
						<rect x="601.73" y="123.888" transform="matrix(-0.455 0.8905 -0.8905 -0.455 989.0078 -352.8586)" fill="#FFFFFF" width="1.496" height="4.637"/>
					
						<rect x="607.889" y="127.024" transform="matrix(-0.4545 0.8907 -0.8907 -0.4545 1000.4799 -354.007)" fill="#FFFFFF" width="1.495" height="4.637"/>
					
						<rect x="614.042" y="130.163" transform="matrix(-0.4542 0.8909 -0.8909 -0.4542 1012.0811 -355.0406)" fill="#FFFFFF" width="1.496" height="4.636"/>
					
						<rect x="620.218" y="133.324" transform="matrix(-0.4545 0.8907 -0.8907 -0.4545 1024.0258 -355.825)" fill="#FFFFFF" width="1.495" height="4.638"/>
					
						<rect x="626.356" y="136.484" transform="matrix(-0.454 0.891 -0.891 -0.454 1035.478 -356.9342)" fill="#FFFFFF" width="1.495" height="4.637"/>
					
						<rect x="632.508" y="139.621" transform="matrix(-0.4545 0.8907 -0.8907 -0.4545 1047.509 -357.6143)" fill="#FFFFFF" width="1.495" height="4.636"/>
				</g>
			</g>
		</g>
	</g>
</g>
<g opacity="0.15">
	<g>
		<g>
			<g>
				<g>
					
						<rect x="465.221" y="56.986" transform="matrix(-0.1808 -0.9835 0.9835 -0.1808 492.1844 527.9817)" fill="#FFFFFF" width="1.496" height="4.073"/>
					
						<rect x="459.238" y="58.091" transform="matrix(-0.1814 -0.9834 0.9834 -0.1814 484.3026 523.3895)" fill="#FFFFFF" width="1.497" height="4.074"/>
				</g>
			</g>
			<g>
				<g>
					
						<rect x="453.249" y="59.176" transform="matrix(-0.182 -0.9833 0.9833 -0.182 476.4261 518.7711)" fill="#FFFFFF" width="1.497" height="4.076"/>
					
						<rect x="447.327" y="60.279" transform="matrix(-0.1807 -0.9835 0.9835 -0.1807 467.7631 514.275)" fill="#FFFFFF" width="1.497" height="4.074"/>
					
						<rect x="441.338" y="61.393" transform="matrix(-0.1814 -0.9834 0.9834 -0.1814 459.8824 509.6881)" fill="#FFFFFF" width="1.497" height="4.074"/>
					
						<rect x="435.349" y="62.48" transform="matrix(-0.182 -0.9833 0.9833 -0.182 452.0207 505.0731)" fill="#FFFFFF" width="1.497" height="4.074"/>
					
						<rect x="429.388" y="63.6" transform="matrix(-0.182 -0.9833 0.9833 -0.182 443.8741 500.5362)" fill="#FFFFFF" width="1.497" height="4.075"/>
					
						<rect x="423.436" y="64.695" transform="matrix(-0.1814 -0.9834 0.9834 -0.1814 435.4869 495.9836)" fill="#FFFFFF" width="1.497" height="4.072"/>
					
						<rect x="417.45" y="65.783" transform="matrix(-0.1821 -0.9833 0.9833 -0.1821 427.6666 491.3752)" fill="#FFFFFF" width="1.496" height="4.074"/>
				</g>
			</g>
		</g>
	</g>
</g>
<g opacity="0.15">
	<g>
		<g>
			<g>
				<g>
					
						<rect x="666.119" y="41.395" transform="matrix(0.6108 0.7918 -0.7918 0.6108 293.6785 -511.2773)" fill="#FFFFFF" width="1.497" height="3.342"/>
					
						<rect x="670.113" y="38.321" transform="matrix(0.6112 0.7915 -0.7915 0.6112 292.4655 -515.4099)" fill="#FFFFFF" width="1.495" height="3.341"/>
					
						<rect x="674.028" y="35.277" transform="matrix(0.6108 0.7918 -0.7918 0.6108 291.9129 -519.9209)" fill="#FFFFFF" width="1.497" height="3.343"/>
					
						<rect x="677.91" y="32.265" transform="matrix(0.6108 0.7918 -0.7918 0.6108 291.0374 -524.1678)" fill="#FFFFFF" width="1.497" height="3.34"/>
				</g>
			</g>
			<g>
				<g>
					
						<rect x="681.886" y="29.22" transform="matrix(0.6111 0.7916 -0.7916 0.6111 289.952 -528.3438)" fill="#FFFFFF" width="1.496" height="3.342"/>
					
						<rect x="685.826" y="26.181" transform="matrix(0.6109 0.7917 -0.7917 0.6109 289.1909 -532.7247)" fill="#FFFFFF" width="1.496" height="3.342"/>
					
						<rect x="689.726" y="23.155" transform="matrix(0.6106 0.7919 -0.7919 0.6106 288.5363 -537.15)" fill="#FFFFFF" width="1.497" height="3.341"/>
					
						<rect x="693.667" y="20.116" transform="matrix(0.6108 0.7918 -0.7918 0.6108 287.5515 -541.3735)" fill="#FFFFFF" width="1.497" height="3.34"/>
					
						<rect x="697.607" y="17.075" transform="matrix(0.6106 0.7919 -0.7919 0.6106 286.7904 -545.7591)" fill="#FFFFFF" width="1.497" height="3.342"/>
					
						<rect x="701.655" y="14.071" transform="matrix(0.6103 0.7921 -0.7921 0.6103 286.1671 -550.266)" fill="#FFFFFF" width="1.496" height="3.342"/>
					
						<rect x="705.487" y="10.997" transform="matrix(0.6108 0.7918 -0.7918 0.6108 284.9322 -554.2826)" fill="#FFFFFF" width="1.497" height="3.341"/>
				</g>
			</g>
			<g>
				<g>
					
						<rect x="709.44" y="7.926" transform="matrix(0.6113 0.7914 -0.7914 0.6113 283.6326 -558.303)" fill="#FFFFFF" width="1.497" height="3.342"/>
					
						<rect x="713.411" y="4.902" transform="matrix(0.6109 0.7917 -0.7917 0.6109 283.0771 -562.8433)" fill="#FFFFFF" width="1.496" height="3.342"/>
					
						<rect x="717.309" y="1.878" transform="matrix(0.6112 0.7915 -0.7915 0.6112 282.0185 -566.9682)" fill="#FFFFFF" width="1.497" height="3.341"/>
					
						<rect x="721.293" y="-1.177" transform="matrix(0.6105 0.792 -0.792 0.6105 281.626 -571.6763)" fill="#FFFFFF" width="1.496" height="3.341"/>
					
						<rect x="725.191" y="-4.202" transform="matrix(0.6108 0.7918 -0.7918 0.6108 280.5669 -575.8005)" fill="#FFFFFF" width="1.497" height="3.342"/>
					
						<rect x="729.198" y="-7.285" transform="matrix(0.6105 0.792 -0.792 0.6105 279.8675 -580.3159)" fill="#FFFFFF" width="1.496" height="3.34"/>
					
						<rect x="733.071" y="-10.281" transform="matrix(0.611 0.7916 -0.7916 0.611 278.6384 -584.2622)" fill="#FFFFFF" width="1.498" height="3.341"/>
				</g>
			</g>
		</g>
	</g>
</g>
<line fill="none" x1="574.493" y1="90.413" x2="644.527" y2="57.493"/>
<line fill="none" x1="645.584" y1="45.172" x2="573.807" y2="-25.332"/>
<g opacity="0.15">
	<g>
		<g>
			<g>
				<g>
					
						<rect x="571.852" y="-25.864" transform="matrix(-0.7183 -0.6958 0.6958 -0.7183 1000.667 356.9484)" fill="#FFFFFF" width="1.496" height="3.494"/>
					
						<rect x="568.212" y="-22.105" transform="matrix(-0.7186 -0.6954 0.6954 -0.7186 991.9673 360.6885)" fill="#FFFFFF" width="1.498" height="3.493"/>
					
						<rect x="564.564" y="-18.382" transform="matrix(-0.7186 -0.6954 0.6954 -0.7186 983.1082 364.5514)" fill="#FFFFFF" width="1.498" height="3.494"/>
					
						<rect x="560.976" y="-14.621" transform="matrix(-0.7181 -0.6959 0.6959 -0.7181 974.0677 368.7974)" fill="#FFFFFF" width="1.496" height="3.494"/>
					
						<rect x="557.363" y="-10.906" transform="matrix(-0.7184 -0.6956 0.6956 -0.7184 965.4482 372.4796)" fill="#FFFFFF" width="1.497" height="3.493"/>
					
						<rect x="553.716" y="-7.181" transform="matrix(-0.7181 -0.6959 0.6959 -0.7181 956.4164 376.5271)" fill="#FFFFFF" width="1.496" height="3.494"/>
					
						<rect x="550.116" y="-3.414" transform="matrix(-0.7183 -0.6958 0.6958 -0.7183 947.6951 380.405)" fill="#FFFFFF" width="1.497" height="3.492"/>
				</g>
			</g>
			<g>
				<g>
					
						<rect x="546.497" y="0.324" transform="matrix(-0.7184 -0.6956 0.6956 -0.7184 938.964 384.2187)" fill="#FFFFFF" width="1.497" height="3.493"/>
					
						<rect x="542.861" y="4.033" transform="matrix(-0.7181 -0.6959 0.6959 -0.7181 929.9611 388.2401)" fill="#FFFFFF" width="1.496" height="3.494"/>
					
						<rect x="539.292" y="7.819" transform="matrix(-0.7181 -0.6959 0.6959 -0.7181 921.1905 392.2657)" fill="#FFFFFF" width="1.497" height="3.493"/>
					
						<rect x="535.639" y="11.539" transform="matrix(-0.7184 -0.6956 0.6956 -0.7184 912.5044 395.9379)" fill="#FFFFFF" width="1.497" height="3.492"/>
					
						<rect x="532.02" y="15.277" transform="matrix(-0.7183 -0.6958 0.6958 -0.7183 903.5963 399.9333)" fill="#FFFFFF" width="1.497" height="3.494"/>
					
						<rect x="528.4" y="19.016" transform="matrix(-0.7183 -0.6958 0.6958 -0.7183 894.7749 403.8379)" fill="#FFFFFF" width="1.497" height="3.494"/>
					
						<rect x="524.782" y="22.753" transform="matrix(-0.7186 -0.6954 0.6954 -0.7186 886.1321 407.5774)" fill="#FFFFFF" width="1.498" height="3.493"/>
				</g>
			</g>
			<g>
				<g>
					
						<rect x="521.177" y="26.526" transform="matrix(-0.7181 -0.6959 0.6959 -0.7181 877.0521 411.7948)" fill="#FFFFFF" width="1.496" height="3.493"/>
					
						<rect x="517.54" y="30.198" transform="matrix(-0.7188 -0.6953 0.6953 -0.7188 868.6027 415.2514)" fill="#FFFFFF" width="1.496" height="3.495"/>
				</g>
			</g>
		</g>
	</g>
</g>
<line fill="none" x1="187.404" y1="71.693" x2="334.633" y2="75.297"/>
<circle opacity="0.2" fill="#FFFFFF" enable-background="new    " cx="164.716" cy="71.138" r="22.699"/>
<circle fill="#248784" cx="825.044" cy="321.476" r="26.405"/>
<ellipse fill="#B5C4C2" cx="975.546" cy="72.194" rx="84.355" ry="84.696"/>
<g display="none">
	<path display="inline" d="M39.915,181.686c0.636,0.25,1.188,0.625,1.636,1.084c0.447,0.459,0.788,1.045,1.024,1.717
		c0.235,0.67,0.366,1.426,0.37,2.266c0.006,0.84-0.117,1.597-0.348,2.271c-0.229,0.675-0.563,1.265-1.007,1.728
		c-0.443,0.465-0.991,0.846-1.624,1.102s-1.332,0.385-2.114,0.391c-0.783,0.004-1.48-0.119-2.119-0.367
		c-0.636-0.248-1.188-0.623-1.635-1.082c-0.447-0.461-0.789-1.047-1.046-1.717c-0.258-0.672-0.347-1.428-0.351-2.268
		c-0.005-0.84,0.074-1.596,0.325-2.27c0.25-0.674,0.586-1.265,1.027-1.728c0.442-0.465,0.991-0.847,1.624-1.103
		c0.633-0.254,1.332-0.385,2.115-0.389C38.58,181.314,39.279,181.438,39.915,181.686z M40.211,189.747
		c0.504-0.717,0.772-1.705,0.768-2.965c-0.006-1.261-0.287-2.244-0.799-2.955c-0.512-0.713-1.317-1.043-2.375-1.037
		c-0.55,0.002-1.016,0.088-1.396,0.258c-0.382,0.17-0.719,0.467-0.971,0.805s-0.462,0.758-0.586,1.264
		c-0.125,0.504-0.206,1.094-0.202,1.723c0.003,0.631,0.092,1.177,0.222,1.681c0.129,0.502,0.344,0.922,0.6,1.256
		c0.255,0.334,0.596,0.584,0.979,0.75c0.382,0.166,0.848,0.289,1.396,0.287C38.905,190.805,39.708,190.463,40.211,189.747z"/>
	<path display="inline" d="M47.441,183.598c0.774-1.578,1.852-2.383,3.247-2.389c0.55-0.004,1.038,0.119,1.462,0.369l-0.226,1.407
		c-0.042,0.168-0.147,0.272-0.274,0.272c-0.127,0.002-0.296-0.039-0.508-0.102s-0.487-0.104-0.868-0.102
		c-1.228,0.006-2.153,0.77-2.738,2.24l0.026,5.248c0.17,0.041,0.572,0.104,1.208,0.227c0.211,0.039,0.318,0.188,0.319,0.396
		l0.005,0.881l-4.932,0.027l-0.005-0.883c-0.003-0.211,0.104-0.357,0.314-0.4l1.205-0.235l-0.04-7.58
		c-0.678-0.123-1.08-0.205-1.208-0.244c-0.212-0.043-0.319-0.188-0.32-0.397l-0.005-0.883l1.524-0.009l1.08-0.006
		c0.211,0,0.315,0.021,0.4,0.104c0.085,0.082,0.13,0.207,0.174,0.396l0.136,1.656h0.021v0.004H47.441z"/>
	<path display="inline" d="M57.377,181.236c0.465-0.002,0.889,0.035,1.292,0.14c0.4,0.104,0.763,0.248,1.103,0.457l2.921-0.017
		l0.003,0.69c0.001,0.231-0.146,0.381-0.44,0.445l-1.205,0.174c0.256,0.461,0.344,0.963,0.346,1.51
		c0.003,0.505-0.079,0.986-0.289,1.408c-0.21,0.42-0.461,0.778-0.818,1.074c-0.358,0.297-0.78,0.551-1.268,0.721
		c-0.484,0.172-1.014,0.236-1.605,0.24c-0.51,0.002-0.976-0.059-1.419-0.182c-0.211,0.127-0.38,0.295-0.508,0.465
		c-0.126,0.168-0.167,0.294-0.167,0.463c0.001,0.252,0.089,0.439,0.301,0.564s0.485,0.229,0.825,0.27
		c0.341,0.039,0.741,0.078,1.165,0.076c0.426-0.002,0.868,0.037,1.313,0.078c0.445,0.039,0.889,0.059,1.313,0.141
		c0.426,0.082,0.826,0.205,1.166,0.371c0.341,0.166,0.616,0.438,0.829,0.73s0.302,0.67,0.305,1.174
		c0.002,0.461-0.103,0.924-0.331,1.346c-0.231,0.422-0.589,0.801-1.012,1.141c-0.421,0.338-0.928,0.593-1.562,0.806
		c-0.634,0.215-1.332,0.301-2.115,0.308c-0.783,0.004-1.48-0.056-2.075-0.222c-0.594-0.164-1.082-0.373-1.464-0.623
		s-0.68-0.563-0.873-0.896c-0.19-0.336-0.3-0.672-0.302-1.049c-0.003-0.523,0.164-0.968,0.501-1.349
		c0.336-0.379,0.801-0.676,1.392-0.89c-0.296-0.125-0.552-0.332-0.722-0.563s-0.278-0.566-0.28-0.943
		c-0.001-0.168,0.041-0.295,0.083-0.463c0.041-0.168,0.125-0.336,0.251-0.506c0.126-0.168,0.273-0.316,0.442-0.465
		c0.169-0.146,0.38-0.254,0.591-0.381c-0.53-0.291-0.956-0.688-1.255-1.168c-0.299-0.482-0.45-1.049-0.453-1.697
		c-0.002-0.506,0.079-0.988,0.289-1.41c0.209-0.42,0.482-0.777,0.841-1.074c0.358-0.295,0.803-0.528,1.31-0.698
		c0.507-0.173,1.036-0.238,1.629-0.24L57.377,181.236z M60.803,192.62c-0.001-0.252-0.066-0.463-0.215-0.629
		c-0.149-0.168-0.361-0.293-0.616-0.375c-0.254-0.082-0.529-0.146-0.869-0.187c-0.338-0.039-0.678-0.08-1.059-0.099
		c-0.381-0.02-0.741-0.018-1.122-0.037c-0.382-0.02-0.741-0.08-1.081-0.119c-0.401,0.189-0.738,0.425-0.991,0.697
		c-0.252,0.273-0.377,0.609-0.375,0.988c0.001,0.252,0.066,0.463,0.194,0.672s0.317,0.375,0.574,0.52
		c0.254,0.146,0.571,0.271,0.953,0.355c0.383,0.082,0.849,0.12,1.355,0.116c0.508-0.002,0.952-0.067,1.354-0.153
		c0.4-0.086,0.739-0.233,1.015-0.404c0.272-0.168,0.483-0.357,0.632-0.59c0.148-0.233,0.23-0.463,0.229-0.758L60.803,192.62
		L60.803,192.62z M57.428,186.883c0.381-0.002,0.719-0.066,1.015-0.174c0.296-0.104,0.527-0.254,0.738-0.443
		c0.21-0.189,0.357-0.441,0.441-0.695c0.084-0.252,0.146-0.547,0.144-0.861c-0.003-0.649-0.218-1.174-0.622-1.549
		c-0.402-0.377-0.977-0.563-1.739-0.559c-0.762,0.004-1.333,0.193-1.73,0.574c-0.4,0.381-0.588,0.906-0.584,1.559
		c0.002,0.314,0.065,0.607,0.174,0.859s0.235,0.48,0.448,0.67c0.213,0.188,0.447,0.334,0.743,0.438
		c0.297,0.104,0.593,0.146,0.974,0.143L57.428,186.883L57.428,186.883z"/>
	<path display="inline" d="M73.302,190.579c0.191,0.041,0.319,0.209,0.32,0.397l0.005,0.901l-1.375,0.006l-0.148,0.002l-0.677,0.005
		c-0.169,0-0.318-0.041-0.445-0.082s-0.17-0.168-0.214-0.334l-0.217-1.009c-0.295,0.254-0.59,0.486-0.843,0.697
		s-0.548,0.381-0.846,0.51c-0.295,0.125-0.591,0.232-0.929,0.318s-0.719,0.109-1.143,0.111c-0.423,0.002-0.783-0.061-1.146-0.186
		c-0.359-0.123-0.7-0.271-0.956-0.498c-0.255-0.229-0.468-0.521-0.639-0.879c-0.171-0.356-0.237-0.773-0.24-1.258
		c-0.002-0.421,0.104-0.841,0.333-1.222c0.23-0.379,0.631-0.759,1.138-1.056c0.508-0.297,1.184-0.573,2.027-0.768
		c0.846-0.191,1.861-0.281,3.089-0.289l-0.004-0.818c-0.004-0.84-0.198-1.469-0.56-1.887c-0.362-0.418-0.895-0.646-1.591-0.643
		c-0.468,0.002-0.849,0.066-1.163,0.193c-0.317,0.127-0.57,0.233-0.804,0.383c-0.23,0.146-0.441,0.254-0.61,0.381
		s-0.316,0.17-0.486,0.172c-0.127,0-0.254-0.021-0.339-0.082c-0.085-0.063-0.17-0.168-0.213-0.252l-0.342-0.586
		c0.59-0.57,1.222-0.973,1.896-1.271c0.676-0.297,1.438-0.428,2.283-0.433c0.592-0.002,1.143,0.078,1.61,0.285
		c0.467,0.209,0.849,0.457,1.168,0.793c0.317,0.334,0.554,0.752,0.727,1.256c0.172,0.502,0.238,1.05,0.242,1.638l0.028,5.313
		c0.296,0.063,0.932,0.184,1.06,0.227L73.302,190.579z M70.363,187.15c-0.866,0.005-1.606,0.052-2.198,0.16
		c-0.594,0.106-1.101,0.276-1.479,0.446s-0.675,0.382-0.844,0.636c-0.167,0.252-0.251,0.506-0.25,0.799
		c0.001,0.295,0.064,0.504,0.152,0.714c0.085,0.209,0.213,0.377,0.383,0.502s0.34,0.209,0.552,0.271s0.445,0.104,0.699,0.102
		c0.339-0.002,0.614-0.045,0.889-0.109c0.275-0.063,0.528-0.149,0.781-0.276c0.254-0.127,0.483-0.297,0.696-0.466
		c0.21-0.17,0.421-0.381,0.632-0.592L70.363,187.15z"/>
	<path display="inline" d="M78.152,182.784c1.054-1.14,2.234-1.714,3.546-1.72c1.145-0.006,2.034,0.347,2.674,1.099
		c0.597,0.711,0.919,1.696,0.926,2.914l0.028,5.229c0.678,0.123,1.078,0.203,1.208,0.246c0.212,0.041,0.34,0.188,0.341,0.396
		l0.005,0.901l-3.429,0.021l-0.036-6.763c-0.011-1.681-0.754-2.558-2.259-2.549c-1.059,0.006-2.027,0.515-2.911,1.506l0.031,6.3
		c0.042-0.001,0.468,0.081,1.229,0.245c0.211,0.039,0.316,0.187,0.317,0.396l0.007,0.883l-4.933,0.025l-0.005-0.881
		c-0.001-0.212,0.083-0.357,0.294-0.4l1.228-0.236l-0.04-7.58c-0.68-0.123-1.104-0.205-1.229-0.244
		c-0.212-0.043-0.297-0.188-0.298-0.398l-0.005-0.881l1.522-0.008l1.103-0.008c0.254,0,0.424,0.125,0.51,0.375l0.176,1.154V182.784
		L78.152,182.784z"/>
	<path display="inline" d="M92.992,190.915l0.004,0.903l-4.933,0.024l-0.005-0.903c-0.001-0.188,0.125-0.354,0.315-0.397
		c0.188-0.043,1.227-0.237,1.227-0.237l-0.041-7.579c0,0-1.038-0.186-1.229-0.225c-0.19-0.043-0.319-0.209-0.32-0.396l-0.005-0.883
		l3.408-0.02l0.048,9.092c0,0,1.017,0.184,1.208,0.225C92.861,190.559,92.991,190.727,92.992,190.915z M89.242,178.379
		c-0.088-0.168-0.107-0.336-0.108-0.504s0.019-0.355,0.103-0.523c0.083-0.17,0.168-0.314,0.294-0.443
		c0.126-0.125,0.255-0.209,0.424-0.295c0.168-0.086,0.338-0.107,0.507-0.107c0.169-0.002,0.338,0.021,0.508,0.103
		c0.17,0.084,0.297,0.168,0.425,0.291c0.128,0.127,0.213,0.272,0.299,0.44c0.085,0.166,0.129,0.355,0.13,0.523
		c0,0.168-0.04,0.336-0.125,0.506c-0.084,0.168-0.168,0.293-0.294,0.42s-0.253,0.211-0.422,0.295
		c-0.169,0.086-0.338,0.107-0.507,0.107c-0.169,0.002-0.339-0.02-0.508-0.104c-0.17-0.082-0.297-0.166-0.425-0.291
		C89.413,178.672,89.328,178.547,89.242,178.379z"/>
	<path display="inline" d="M102.486,181.122l0.004,0.799c0.003,0.252-0.103,0.504-0.271,0.715l-5.759,7.695l4.762-0.025
		c0.059-0.84,0.12-1.303,0.12-1.387c0.042-0.168,0.146-0.254,0.316-0.254l0.739-0.004l0.019,3.106l-8.169,0.043l-0.004-0.774
		c-0.001-0.211,0.083-0.443,0.25-0.675l5.801-7.735l-4.593,0.022c-0.062,0.776-0.102,1.177-0.101,1.261
		c-0.042,0.17-0.168,0.272-0.337,0.274l-0.741,0.004l-0.016-3.002l1.08-0.006L102.486,181.122z"/>
	<path display="inline" d="M108.868,190.831l0.005,0.901l-4.934,0.026l-0.005-0.903c-0.001-0.188,0.125-0.356,0.316-0.399
		c0.188-0.043,1.226-0.234,1.226-0.234l-0.04-7.58c0,0-1.038-0.186-1.229-0.225c-0.191-0.043-0.319-0.211-0.32-0.398l-0.004-0.883
		l3.407-0.018l0.048,9.092c0,0,1.017,0.184,1.208,0.225S108.867,190.643,108.868,190.831z M105.119,178.295
		c-0.086-0.168-0.108-0.336-0.109-0.504s0.019-0.355,0.104-0.523c0.083-0.17,0.167-0.314,0.296-0.443
		c0.126-0.125,0.252-0.209,0.421-0.295s0.338-0.107,0.507-0.107c0.169-0.002,0.339,0.021,0.509,0.103
		c0.169,0.084,0.297,0.168,0.425,0.291c0.127,0.127,0.213,0.272,0.299,0.438c0.085,0.168,0.128,0.357,0.13,0.525
		s-0.04,0.336-0.123,0.504c-0.084,0.17-0.169,0.295-0.296,0.422c-0.126,0.127-0.252,0.211-0.422,0.295
		c-0.169,0.086-0.337,0.107-0.507,0.107c-0.17,0.002-0.339-0.02-0.509-0.104c-0.169-0.082-0.296-0.166-0.424-0.291
		C105.29,178.588,105.204,178.463,105.119,178.295z"/>
	<path display="inline" d="M113.375,182.598c1.052-1.141,2.232-1.713,3.546-1.721c1.143-0.006,2.034,0.348,2.672,1.1
		c0.597,0.711,0.919,1.695,0.926,2.914l0.028,5.229c0.678,0.123,1.081,0.205,1.208,0.246c0.212,0.041,0.34,0.188,0.341,0.395
		l0.005,0.904l-3.429,0.019l-0.036-6.761c-0.009-1.68-0.754-2.559-2.257-2.551c-1.06,0.006-2.029,0.516-2.913,1.508l0.033,6.299
		c0.042,0,0.466,0.082,1.229,0.244c0.212,0.041,0.319,0.188,0.32,0.396l0.005,0.883l-4.932,0.025l-0.005-0.883
		c-0.003-0.209,0.083-0.357,0.294-0.398l1.226-0.238l-0.04-7.578c-0.678-0.123-1.102-0.205-1.229-0.246
		c-0.213-0.041-0.299-0.188-0.3-0.396l-0.005-0.883l1.524-0.009l1.101-0.006c0.254-0.002,0.424,0.123,0.512,0.375l0.176,1.154
		V182.598z"/>
	<path display="inline" d="M127.421,180.864c0.466-0.003,0.89,0.036,1.292,0.141c0.403,0.104,0.764,0.248,1.103,0.455l2.921-0.017
		l0.005,0.692c0.001,0.23-0.146,0.38-0.442,0.443l-1.206,0.174c0.256,0.461,0.344,0.965,0.347,1.513
		c0.003,0.504-0.08,0.985-0.289,1.405c-0.21,0.422-0.462,0.781-0.818,1.076c-0.358,0.297-0.78,0.551-1.268,0.721
		c-0.484,0.171-1.015,0.236-1.605,0.238c-0.508,0.004-0.976-0.057-1.419-0.182c-0.211,0.127-0.379,0.297-0.505,0.467
		c-0.126,0.168-0.169,0.295-0.167,0.463c0.001,0.252,0.087,0.438,0.299,0.564c0.212,0.123,0.486,0.229,0.827,0.27
		c0.339,0.039,0.739,0.078,1.165,0.076c0.424-0.002,0.866,0.037,1.313,0.076c0.444,0.041,0.889,0.061,1.313,0.143
		c0.424,0.082,0.825,0.203,1.166,0.371c0.34,0.166,0.614,0.438,0.828,0.729c0.215,0.293,0.302,0.67,0.304,1.174
		c0.002,0.463-0.103,0.926-0.331,1.348c-0.231,0.422-0.589,0.801-1.01,1.139c-0.423,0.339-0.93,0.595-1.563,0.808
		c-0.634,0.214-1.332,0.302-2.115,0.306c-0.782,0.004-1.48-0.056-2.075-0.22c-0.593-0.166-1.08-0.373-1.463-0.623
		s-0.68-0.563-0.873-0.897c-0.191-0.334-0.3-0.67-0.302-1.049c-0.003-0.523,0.164-0.967,0.5-1.347
		c0.336-0.379,0.801-0.676,1.394-0.889c-0.299-0.125-0.554-0.334-0.725-0.563c-0.17-0.229-0.276-0.566-0.278-0.943
		c-0.003-0.168,0.04-0.295,0.08-0.463c0.041-0.168,0.125-0.336,0.252-0.504c0.127-0.17,0.273-0.316,0.441-0.465
		c0.169-0.148,0.38-0.255,0.591-0.382c-0.529-0.291-0.956-0.688-1.255-1.17s-0.45-1.047-0.454-1.696
		c-0.002-0.504,0.08-0.988,0.289-1.408c0.209-0.422,0.482-0.779,0.841-1.076c0.358-0.295,0.803-0.527,1.31-0.699
		c0.508-0.17,1.036-0.236,1.629-0.24L127.421,180.864z M130.847,192.247c-0.001-0.252-0.066-0.461-0.215-0.629
		c-0.149-0.166-0.361-0.291-0.616-0.375c-0.254-0.082-0.53-0.144-0.869-0.185c-0.339-0.039-0.678-0.08-1.059-0.101
		c-0.381-0.02-0.741-0.018-1.122-0.035c-0.381-0.021-0.741-0.08-1.081-0.121c-0.401,0.191-0.738,0.425-0.991,0.697
		c-0.252,0.275-0.377,0.611-0.375,0.99c0.001,0.252,0.066,0.461,0.194,0.67c0.128,0.211,0.319,0.377,0.574,0.521
		c0.255,0.146,0.571,0.271,0.954,0.354c0.381,0.082,0.848,0.12,1.354,0.117c0.508-0.002,0.952-0.068,1.354-0.154
		c0.4-0.086,0.738-0.233,1.014-0.402c0.272-0.17,0.484-0.36,0.631-0.592c0.147-0.231,0.23-0.463,0.229-0.758L130.847,192.247
		L130.847,192.247z M127.473,186.512c0.381-0.002,0.719-0.066,1.015-0.174c0.298-0.105,0.528-0.254,0.738-0.443
		c0.211-0.189,0.357-0.441,0.441-0.695c0.083-0.252,0.146-0.547,0.144-0.861c-0.003-0.649-0.218-1.174-0.622-1.549
		c-0.402-0.377-0.977-0.563-1.736-0.561c-0.764,0.004-1.333,0.195-1.733,0.578c-0.4,0.379-0.587,0.904-0.584,1.555
		c0.002,0.314,0.067,0.607,0.174,0.861c0.107,0.25,0.235,0.48,0.448,0.668c0.212,0.188,0.446,0.334,0.743,0.438
		c0.297,0.104,0.593,0.145,0.974,0.143L127.473,186.512L127.473,186.512z"/>
	<path display="inline" d="M147.898,190.184c0.191,0.041,0.319,0.207,0.32,0.396l0.004,0.901l-1.376,0.009h-0.148l-0.677,0.004
		c-0.169,0-0.315-0.041-0.443-0.082c-0.127-0.041-0.172-0.166-0.215-0.334l-0.217-1.009c-0.295,0.255-0.59,0.486-0.843,0.699
		c-0.253,0.209-0.548,0.379-0.844,0.508c-0.296,0.127-0.591,0.233-0.932,0.317c-0.338,0.087-0.719,0.109-1.142,0.113
		c-0.423,0.002-0.784-0.061-1.144-0.186c-0.36-0.123-0.7-0.27-0.955-0.498s-0.471-0.521-0.641-0.879
		c-0.171-0.355-0.235-0.773-0.238-1.258c-0.003-0.422,0.102-0.842,0.332-1.221c0.229-0.379,0.631-0.76,1.137-1.058
		c0.506-0.297,1.182-0.573,2.026-0.767c0.848-0.192,1.861-0.282,3.09-0.288l-0.006-0.82c-0.004-0.84-0.196-1.469-0.56-1.887
		s-0.893-0.646-1.591-0.642c-0.466,0.002-0.846,0.064-1.163,0.193c-0.317,0.128-0.57,0.232-0.802,0.383
		c-0.232,0.146-0.444,0.254-0.612,0.381s-0.316,0.17-0.485,0.17c-0.127,0.002-0.255-0.02-0.339-0.082
		c-0.085-0.063-0.17-0.166-0.213-0.25l-0.342-0.586c0.589-0.569,1.222-0.975,1.896-1.271c0.678-0.297,1.438-0.428,2.283-0.434
		c0.594-0.002,1.146,0.078,1.61,0.287c0.467,0.207,0.849,0.457,1.168,0.791s0.554,0.752,0.726,1.256
		c0.172,0.502,0.238,1.049,0.241,1.637l0.028,5.313c0.297,0.063,0.932,0.186,1.06,0.227L147.898,190.184z M144.959,186.754
		c-0.868,0.006-1.608,0.053-2.2,0.16c-0.592,0.106-1.099,0.276-1.479,0.446c-0.38,0.171-0.675,0.384-0.843,0.636
		c-0.168,0.254-0.251,0.506-0.25,0.799c0.001,0.295,0.066,0.504,0.152,0.713c0.086,0.211,0.214,0.377,0.383,0.502
		c0.17,0.125,0.34,0.209,0.552,0.271s0.445,0.104,0.699,0.102c0.338-0.002,0.614-0.045,0.888-0.107
		c0.275-0.064,0.528-0.15,0.782-0.277c0.253-0.127,0.485-0.297,0.696-0.467s0.421-0.381,0.632-0.592L144.959,186.754z"/>
	<path display="inline" d="M152.748,182.389c1.052-1.141,2.232-1.713,3.546-1.721c1.143-0.006,2.034,0.348,2.673,1.1
		c0.596,0.711,0.919,1.695,0.925,2.914l0.028,5.229c0.678,0.123,1.081,0.205,1.208,0.246c0.212,0.041,0.34,0.188,0.341,0.395
		l0.004,0.904l-3.428,0.019l-0.036-6.761c-0.009-1.68-0.754-2.559-2.257-2.551c-1.06,0.006-2.029,0.516-2.912,1.508l0.033,6.299
		c0.042,0,0.466,0.082,1.229,0.244c0.211,0.041,0.318,0.188,0.319,0.396l0.005,0.883l-4.932,0.025l-0.007-0.883
		c-0.001-0.211,0.083-0.357,0.296-0.398l1.226-0.238l-0.04-7.578c-0.678-0.123-1.102-0.205-1.229-0.246
		c-0.213-0.041-0.299-0.188-0.3-0.396l-0.005-0.883l1.524-0.009l1.101-0.006c0.254-0.002,0.424,0.123,0.51,0.375l0.178,1.154
		V182.389L152.748,182.389z"/>
	<path display="inline" d="M167.048,180.59c1.185-0.006,2.182,0.408,2.949,1.244l-0.023-4.367c-0.721-0.121-1.208-0.201-1.42-0.242
		s-0.318-0.168-0.319-0.377l-0.005-0.926l3.6-0.019l0.072,13.94c0.68,0.121,1.104,0.203,1.229,0.244
		c0.211,0.041,0.297,0.166,0.298,0.377l0.005,0.925l-2.625,0.015c-0.254,0.002-0.424-0.146-0.51-0.396l-0.176-1.279
		c-1.012,1.225-2.191,1.816-3.588,1.825c-1.271,0.007-2.246-0.45-2.972-1.37c-0.725-0.939-1.111-2.262-1.122-4.023
		c-0.008-1.598,0.408-2.941,1.229-3.955c0.841-1.055,1.979-1.604,3.397-1.613L167.048,180.59L167.048,180.59z M167.162,190.061
		c1.101-0.006,2.069-0.559,2.868-1.633l-0.025-5.123c-0.642-0.838-1.467-1.252-2.483-1.246c-1.016,0.006-1.797,0.346-2.343,1.063
		s-0.795,1.728-0.788,3.027c0.011,2.016,0.525,3.23,1.585,3.688c0.34,0.146,0.742,0.207,1.165,0.205L167.162,190.061z"/>
	<path display="inline" d="M182.492,182.881c0.773-1.578,1.85-2.383,3.245-2.391c0.552-0.003,1.038,0.12,1.464,0.37l-0.228,1.408
		c-0.041,0.168-0.146,0.272-0.271,0.272c-0.126,0.002-0.298-0.039-0.51-0.104c-0.212-0.063-0.485-0.104-0.867-0.1
		c-1.229,0.006-2.155,0.768-2.739,2.238l0.026,5.25c0.171,0.041,0.572,0.102,1.208,0.225c0.214,0.041,0.318,0.189,0.319,0.396
		l0.005,0.883l-4.931,0.024l-0.005-0.881c-0.001-0.212,0.104-0.358,0.313-0.399l1.205-0.238l-0.04-7.578
		c-0.678-0.125-1.081-0.205-1.208-0.246c-0.211-0.041-0.316-0.188-0.317-0.396l-0.006-0.883l1.523-0.008l1.079-0.006
		c0.212-0.002,0.318,0.021,0.403,0.104c0.084,0.084,0.128,0.209,0.171,0.396l0.136,1.656h0.021v0.006H182.492z"/>
	<path display="inline" d="M192.619,180.497c0.635-0.004,1.228,0.1,1.778,0.305c0.553,0.209,1.02,0.5,1.401,0.896
		c0.384,0.396,0.725,0.899,0.938,1.485c0.215,0.586,0.347,1.258,0.351,2.015c0.002,0.293-0.02,0.504-0.081,0.588
		c-0.063,0.084-0.211,0.147-0.381,0.147l-7.111,0.038c0.003,0.673,0.091,1.259,0.264,1.763s0.43,0.879,0.728,1.216
		c0.298,0.334,0.638,0.584,1.063,0.75c0.426,0.163,0.85,0.245,1.356,0.243c0.465-0.002,0.888-0.047,1.227-0.153
		c0.34-0.105,0.636-0.232,0.889-0.361c0.253-0.127,0.465-0.232,0.634-0.34c0.168-0.104,0.295-0.168,0.422-0.17
		c0.169,0,0.275,0.063,0.36,0.188l0.531,0.689c-0.229,0.297-0.505,0.508-0.843,0.721c-0.337,0.211-0.652,0.4-1.034,0.529
		c-0.38,0.129-0.761,0.233-1.141,0.301c-0.381,0.064-0.783,0.107-1.164,0.109c-0.741,0.004-1.418-0.117-2.055-0.367
		c-0.636-0.248-1.167-0.623-1.635-1.104c-0.47-0.479-0.812-1.064-1.068-1.777c-0.258-0.713-0.389-1.51-0.396-2.434
		c-0.004-0.756,0.12-1.43,0.351-2.061c0.229-0.631,0.563-1.221,0.986-1.687c0.421-0.465,0.946-0.846,1.58-1.12
		c0.635-0.275,1.331-0.406,2.095-0.41H192.619L192.619,180.497z M192.69,181.861c-0.91,0.005-1.628,0.261-2.133,0.787
		s-0.84,1.267-0.962,2.188l5.82-0.03c-0.002-0.421-0.068-0.817-0.197-1.175s-0.279-0.69-0.513-0.94
		c-0.234-0.252-0.531-0.461-0.871-0.604c-0.34-0.145-0.742-0.207-1.166-0.203L192.69,181.861z"/>
	<path display="inline" d="M215.606,180.564l0.004,0.901c0.001,0.209-0.104,0.336-0.313,0.379c-0.084,0-0.232,0.064-0.528,0.107
		c-0.296,0.045-0.465,0.107-0.529,0.107l-2.936,9.127l-1.481,0.01c-0.188,0.002-0.316-0.082-0.383-0.334l-2.409-7.211
		c-0.063-0.168-0.105-0.336-0.149-0.504c-0.043-0.166-0.065-0.334-0.108-0.461c-0.041,0.168-0.04,0.336-0.082,0.504
		c-0.042,0.17-0.083,0.295-0.125,0.464l-2.375,7.216c-0.083,0.252-0.209,0.355-0.421,0.357l-1.438,0.008l-3.013-9.117
		c-0.042,0-0.188-0.02-0.358-0.063c-0.424-0.08-0.636-0.143-0.699-0.143c-0.212-0.043-0.339-0.188-0.341-0.396l-0.004-0.883
		l4.781-0.025l0.006,0.883c0.001,0.211-0.104,0.357-0.315,0.4c-0.127,0.041-0.529,0.107-1.163,0.236l1.723,5.701
		c0.132,0.629,0.262,1.11,0.306,1.446c0.062-0.295,0.208-0.776,0.416-1.45l2.207-6.898c0.083-0.252,0.252-0.379,0.506-0.381
		l0.825-0.004c0.273-0.002,0.444,0.123,0.529,0.375l2.261,6.875c0.086,0.293,0.216,0.774,0.389,1.426
		c0.082-0.482,0.185-0.967,0.31-1.43l1.705-5.722c-0.084,0.002-0.508-0.08-1.229-0.224c-0.211-0.043-0.34-0.188-0.341-0.396
		l-0.005-0.882H215.606z"/>
	<path display="inline" d="M226.05,189.768c0.188,0.041,0.318,0.209,0.319,0.398l0.005,0.901l-1.375,0.007l-0.148,0.002
		l-0.677,0.004c-0.169,0-0.317-0.041-0.445-0.082c-0.127-0.041-0.17-0.168-0.213-0.336l-0.217-1.006
		c-0.295,0.254-0.59,0.483-0.843,0.696c-0.253,0.211-0.548,0.381-0.845,0.508c-0.296,0.128-0.592,0.233-0.93,0.32
		c-0.338,0.086-0.719,0.108-1.142,0.11s-0.783-0.061-1.146-0.184c-0.358-0.125-0.7-0.271-0.955-0.5
		c-0.256-0.229-0.469-0.521-0.64-0.877s-0.237-0.775-0.239-1.26c-0.002-0.42,0.104-0.842,0.332-1.221
		c0.231-0.379,0.631-0.758,1.14-1.056c0.506-0.297,1.182-0.573,2.026-0.769c0.847-0.192,1.861-0.28,3.088-0.288l-0.004-0.818
		c-0.004-0.84-0.198-1.469-0.561-1.887c-0.363-0.418-0.894-0.646-1.591-0.644c-0.467,0.002-0.848,0.066-1.163,0.193
		c-0.316,0.129-0.57,0.234-0.804,0.383c-0.23,0.148-0.441,0.256-0.61,0.383c-0.168,0.127-0.316,0.168-0.486,0.17
		c-0.127,0-0.254-0.02-0.339-0.082c-0.085-0.063-0.17-0.168-0.213-0.252l-0.342-0.586c0.589-0.57,1.223-0.973,1.896-1.27
		c0.675-0.299,1.438-0.43,2.283-0.434c0.593-0.004,1.144,0.078,1.61,0.285s0.849,0.457,1.168,0.791
		c0.317,0.336,0.554,0.754,0.726,1.256c0.172,0.504,0.239,1.051,0.242,1.639l0.027,5.313c0.298,0.062,0.933,0.184,1.06,0.225v-0.035
		H226.05z M223.111,186.34c-0.866,0.004-1.606,0.051-2.198,0.158c-0.594,0.106-1.101,0.278-1.479,0.449
		c-0.379,0.17-0.675,0.381-0.843,0.635c-0.168,0.252-0.252,0.504-0.25,0.799c0.001,0.293,0.064,0.504,0.15,0.713
		c0.088,0.209,0.216,0.377,0.386,0.502s0.34,0.207,0.552,0.271c0.211,0.061,0.445,0.102,0.699,0.1c0.339,0,0.611-0.045,0.889-0.107
		c0.274-0.064,0.528-0.148,0.782-0.277c0.253-0.127,0.483-0.295,0.696-0.465c0.21-0.17,0.421-0.381,0.631-0.592L223.111,186.34z"/>
	<path display="inline" d="M230.924,182.624c0.773-1.578,1.851-2.381,3.247-2.39c0.55-0.004,1.038,0.119,1.462,0.369l-0.228,1.407
		c-0.039,0.169-0.146,0.273-0.271,0.275c-0.127,0-0.297-0.041-0.508-0.104c-0.212-0.063-0.487-0.104-0.869-0.102
		c-1.229,0.006-2.155,0.768-2.739,2.239l0.028,5.248c0.169,0.041,0.572,0.103,1.207,0.228c0.212,0.039,0.317,0.188,0.318,0.396
		l0.006,0.882l-4.933,0.026l-0.004-0.884c-0.001-0.209,0.104-0.356,0.315-0.399l1.205-0.237l-0.04-7.578
		c-0.68-0.123-1.081-0.205-1.208-0.246c-0.212-0.041-0.318-0.188-0.319-0.396l-0.005-0.881l1.522-0.01l1.079-0.006
		c0.212-0.002,0.318,0.021,0.403,0.104c0.085,0.084,0.128,0.209,0.171,0.398l0.136,1.656h0.021v0.004H230.924z"/>
	<path display="inline" d="M241.115,180.198c1.187-0.007,2.184,0.407,2.949,1.243l-0.021-4.366
		c-0.722-0.123-1.208-0.203-1.419-0.244s-0.318-0.166-0.319-0.377l-0.005-0.924l3.598-0.021l0.074,13.941
		c0.678,0.123,1.102,0.203,1.229,0.244c0.211,0.041,0.297,0.168,0.298,0.379l0.005,0.924l-2.625,0.014
		c-0.254,0-0.424-0.146-0.51-0.396l-0.178-1.279c-1.01,1.224-2.19,1.816-3.588,1.824c-1.27,0.008-2.246-0.449-2.97-1.369
		c-0.725-0.94-1.113-2.264-1.122-4.024c-0.009-1.597,0.408-2.94,1.229-3.953c0.841-1.056,1.979-1.606,3.397-1.614H241.115
		L241.115,180.198z M241.229,189.667c1.103-0.006,2.071-0.558,2.87-1.633l-0.027-5.123c-0.64-0.836-1.467-1.252-2.481-1.246
		c-1.018,0.006-1.797,0.346-2.343,1.063s-0.795,1.729-0.788,3.027c0.011,2.018,0.523,3.229,1.585,3.688
		c0.339,0.146,0.742,0.207,1.165,0.205L241.229,189.667z"/>
	<path display="inline" d="M253.593,190.063l0.005,0.902l-4.931,0.025l-0.005-0.902c-0.001-0.188,0.125-0.355,0.313-0.398
		c0.19-0.043,1.228-0.236,1.228-0.236l-0.04-7.58c0,0-1.038-0.186-1.229-0.225c-0.188-0.043-0.316-0.211-0.319-0.398l-0.005-0.881
		l3.407-0.02l0.048,9.092c0,0,1.019,0.184,1.208,0.225C253.464,189.706,253.592,189.874,253.593,190.063z M249.844,177.527
		c-0.085-0.168-0.108-0.336-0.109-0.504s0.021-0.356,0.104-0.524c0.084-0.17,0.168-0.314,0.294-0.443
		c0.126-0.125,0.252-0.211,0.421-0.295c0.169-0.086,0.338-0.107,0.507-0.107c0.169-0.002,0.339,0.02,0.508,0.104
		c0.17,0.082,0.298,0.166,0.427,0.291c0.127,0.125,0.213,0.271,0.298,0.438c0.086,0.168,0.129,0.357,0.13,0.525
		s-0.04,0.336-0.125,0.504c-0.083,0.17-0.167,0.295-0.294,0.422c-0.126,0.127-0.253,0.211-0.422,0.295
		c-0.168,0.086-0.338,0.107-0.508,0.107c-0.17,0.002-0.339-0.021-0.509-0.103c-0.17-0.084-0.297-0.168-0.425-0.291
		C250.015,177.818,249.929,177.693,249.844,177.527z"/>
	<path display="inline" d="M258.101,181.829c1.052-1.14,2.234-1.713,3.546-1.72c1.145-0.008,2.034,0.347,2.673,1.099
		c0.599,0.711,0.919,1.696,0.928,2.914l0.026,5.229c0.68,0.123,1.08,0.203,1.207,0.244c0.212,0.041,0.34,0.189,0.341,0.398
		l0.006,0.901l-3.431,0.019l-0.036-6.761c-0.009-1.68-0.754-2.56-2.257-2.549c-1.058,0.004-2.027,0.515-2.912,1.506l0.033,6.3
		c0.042,0,0.466,0.082,1.229,0.245c0.211,0.039,0.316,0.187,0.317,0.396l0.005,0.883l-4.931,0.025l-0.005-0.881
		c-0.001-0.211,0.083-0.359,0.294-0.4l1.226-0.238l-0.038-7.578c-0.68-0.123-1.104-0.205-1.229-0.244
		c-0.211-0.043-0.297-0.189-0.298-0.398l-0.005-0.881l1.521-0.008l1.103-0.008c0.254-0.002,0.424,0.123,0.51,0.375l0.175,1.154
		v-0.021H258.101z"/>
	<path display="inline" d="M272.147,180.098c0.465-0.004,0.891,0.035,1.292,0.139c0.402,0.104,0.765,0.248,1.104,0.457l2.92-0.018
		l0.003,0.693c0.001,0.229-0.146,0.379-0.442,0.442l-1.206,0.174c0.259,0.462,0.346,0.966,0.349,1.511
		c0.003,0.504-0.079,0.985-0.289,1.407c-0.21,0.421-0.461,0.779-0.82,1.076c-0.359,0.295-0.78,0.549-1.266,0.722
		c-0.486,0.17-1.017,0.233-1.607,0.237c-0.508,0.002-0.974-0.058-1.419-0.183c-0.211,0.127-0.379,0.297-0.506,0.466
		c-0.126,0.17-0.167,0.295-0.167,0.463c0.001,0.252,0.087,0.438,0.299,0.565c0.212,0.123,0.488,0.229,0.827,0.269
		c0.338,0.041,0.741,0.08,1.165,0.078c0.423-0.003,0.868,0.036,1.312,0.075c0.445,0.041,0.892,0.06,1.313,0.142
		s0.826,0.205,1.166,0.371c0.339,0.166,0.616,0.438,0.829,0.729c0.213,0.293,0.3,0.672,0.303,1.176
		c0.002,0.461-0.101,0.925-0.332,1.345c-0.229,0.422-0.588,0.804-1.009,1.142c-0.422,0.338-0.928,0.592-1.563,0.805
		c-0.633,0.215-1.331,0.303-2.112,0.307c-0.783,0.004-1.482-0.055-2.076-0.221c-0.594-0.164-1.082-0.372-1.464-0.622
		s-0.682-0.563-0.872-0.896c-0.192-0.336-0.3-0.672-0.303-1.049c-0.003-0.523,0.165-0.967,0.502-1.348s0.8-0.678,1.392-0.891
		c-0.297-0.123-0.552-0.332-0.723-0.563c-0.171-0.229-0.278-0.564-0.28-0.941c-0.001-0.17,0.041-0.297,0.082-0.465
		s0.125-0.336,0.251-0.504c0.126-0.17,0.273-0.316,0.441-0.465c0.168-0.146,0.38-0.256,0.591-0.383
		c-0.53-0.291-0.956-0.688-1.256-1.168s-0.449-1.049-0.452-1.697c-0.003-0.504,0.079-0.988,0.289-1.408
		c0.21-0.422,0.481-0.779,0.841-1.076c0.356-0.295,0.801-0.527,1.309-0.699c0.507-0.17,1.036-0.235,1.628-0.24L272.147,180.098z
		 M275.573,191.479c-0.001-0.252-0.064-0.461-0.215-0.629c-0.147-0.166-0.359-0.291-0.614-0.373
		c-0.256-0.084-0.529-0.146-0.869-0.188c-0.339-0.039-0.68-0.08-1.061-0.099c-0.381-0.021-0.739-0.019-1.123-0.036
		c-0.381-0.021-0.739-0.08-1.08-0.119c-0.399,0.188-0.736,0.424-0.989,0.696c-0.253,0.274-0.378,0.61-0.376,0.988
		c0.001,0.252,0.064,0.463,0.193,0.672c0.128,0.209,0.319,0.377,0.574,0.521c0.255,0.146,0.573,0.271,0.954,0.354
		c0.382,0.082,0.848,0.123,1.355,0.119s0.95-0.068,1.354-0.154s0.74-0.234,1.014-0.402c0.274-0.17,0.485-0.361,0.633-0.594
		c0.146-0.229,0.229-0.463,0.229-0.756H275.573L275.573,191.479z M272.198,185.743c0.383-0.002,0.722-0.066,1.018-0.173
		c0.295-0.106,0.527-0.256,0.738-0.444c0.21-0.189,0.355-0.441,0.438-0.695c0.083-0.252,0.146-0.547,0.146-0.861
		c-0.003-0.648-0.22-1.174-0.622-1.549c-0.404-0.377-0.978-0.563-1.738-0.561c-0.762,0.006-1.333,0.197-1.732,0.578
		c-0.398,0.379-0.588,0.903-0.584,1.555c0.001,0.316,0.067,0.609,0.176,0.861c0.105,0.252,0.234,0.479,0.446,0.67
		c0.213,0.188,0.446,0.332,0.743,0.438c0.297,0.104,0.594,0.145,0.977,0.143v0.041h-0.005V185.743z"/>
	<path display="inline" d="M285.284,190.25c-0.47-0.459-0.685-1.129-0.688-2.012l-0.035-6.509l-1.291,0.006
		c-0.127,0.003-0.211-0.021-0.297-0.081c-0.084-0.063-0.105-0.188-0.105-0.314l-0.006-0.734l1.757-0.238l0.404-3.301
		c-0.001-0.104,0.041-0.188,0.125-0.252c0.084-0.063,0.169-0.084,0.296-0.086l0.952-0.004l0.021,3.652l3.067-0.019l0.009,1.365
		l-3.069,0.017l0.034,6.383c0.002,0.463,0.108,0.799,0.321,1.006c0.214,0.211,0.53,0.313,0.869,0.313
		c0.211-0.002,0.381-0.045,0.528-0.086c0.148-0.043,0.275-0.105,0.38-0.172c0.105-0.063,0.168-0.125,0.253-0.168
		c0.084-0.043,0.168-0.086,0.211-0.086c0.085-0.001,0.169,0.041,0.254,0.168l0.557,0.879c-0.337,0.295-0.718,0.549-1.183,0.719
		c-0.465,0.172-0.93,0.258-1.417,0.262C286.388,190.959,285.752,190.711,285.284,190.25z"/>
	<path display="inline" d="M297.844,179.938c1.143-0.006,2.034,0.348,2.672,1.078c0.618,0.711,0.938,1.717,0.947,2.936l0.026,5.229
		c0.68,0.119,1.081,0.201,1.208,0.244c0.212,0.039,0.318,0.188,0.32,0.396l0.004,0.883l-3.407,0.019l-0.036-6.761
		c-0.009-1.68-0.774-2.537-2.276-2.528c-1.058,0.006-1.987,0.517-2.87,1.506l0.033,6.299l0.254,0.041
		c0.551,0.104,0.847,0.164,0.932,0.187c0.212,0.039,0.34,0.188,0.343,0.396l0.005,0.882l-4.953,0.026l-0.005-0.884
		c-0.001-0.209,0.125-0.356,0.337-0.399l1.184-0.235l-0.064-12.41c-0.807-0.12-1.271-0.201-1.398-0.244
		c-0.212-0.039-0.34-0.188-0.341-0.396l-0.004-0.882l3.641-0.021l0.033,6.257C295.434,180.497,296.553,179.945,297.844,179.938z"/>
	<path display="inline" d="M311.202,180.245c0.638,0.25,1.188,0.625,1.637,1.084c0.445,0.459,0.789,1.045,1.023,1.717
		c0.237,0.67,0.368,1.426,0.372,2.266s-0.119,1.598-0.348,2.271c-0.229,0.672-0.565,1.262-1.007,1.728
		c-0.442,0.465-0.99,0.847-1.624,1.101c-0.635,0.256-1.332,0.385-2.115,0.391c-0.783,0.004-1.482-0.117-2.118-0.367
		c-0.636-0.248-1.188-0.623-1.635-1.082c-0.447-0.461-0.789-1.047-1.046-1.717c-0.257-0.672-0.348-1.428-0.353-2.268
		c-0.004-0.839,0.076-1.597,0.327-2.269c0.25-0.675,0.586-1.265,1.028-1.729c0.441-0.463,0.99-0.846,1.624-1.102
		c0.633-0.254,1.331-0.385,2.114-0.389C309.866,179.874,310.567,179.997,311.202,180.245z M311.5,188.307
		c0.504-0.717,0.772-1.705,0.768-2.965c-0.006-1.26-0.287-2.244-0.799-2.957c-0.514-0.711-1.318-1.043-2.376-1.035
		c-0.55,0.002-1.017,0.088-1.396,0.258s-0.717,0.467-0.97,0.805c-0.252,0.338-0.461,0.758-0.585,1.264
		c-0.125,0.505-0.206,1.093-0.203,1.724c0.003,0.629,0.091,1.175,0.221,1.679c0.129,0.504,0.345,0.922,0.601,1.258
		c0.256,0.334,0.596,0.584,0.978,0.75s0.85,0.289,1.398,0.287C310.193,189.364,310.994,189.021,311.5,188.307z"/>
	<path display="inline" d="M320.694,189.309c1.06-0.008,2.029-0.516,2.894-1.484l-0.034-6.301c-0.127-0.041-0.53-0.123-1.208-0.244
		c-0.211-0.041-0.318-0.188-0.319-0.398l-0.005-0.901l1.524-0.008l1.884-0.011l0.048,9.113c0.678,0.121,1.08,0.203,1.208,0.244
		c0.212,0.041,0.319,0.166,0.32,0.375l0.005,0.902l-2.646,0.016c-0.254,0.002-0.424-0.146-0.51-0.396l-0.154-1.133
		c-1.01,1.14-2.19,1.711-3.546,1.719c-1.143,0.007-2.034-0.364-2.673-1.098c-0.597-0.711-0.939-1.654-0.947-2.914l-0.026-5.248
		c-0.68-0.123-1.061-0.205-1.188-0.246c-0.212-0.041-0.34-0.188-0.341-0.396l-0.005-0.883l3.429-0.019l0.036,6.76
		c0.004,0.8,0.177,1.447,0.56,1.888c0.385,0.438,0.937,0.646,1.697,0.644L320.694,189.309L320.694,189.309z"/>
	<path display="inline" d="M332.349,179.775c0.465-0.002,0.889,0.037,1.292,0.142c0.402,0.104,0.763,0.248,1.103,0.455l2.92-0.017
		l0.003,0.692c0.003,0.23-0.146,0.379-0.44,0.443l-1.206,0.174c0.256,0.461,0.344,0.965,0.347,1.51
		c0.003,0.504-0.08,0.988-0.289,1.408c-0.21,0.422-0.462,0.78-0.818,1.076c-0.358,0.295-0.78,0.551-1.268,0.721
		c-0.484,0.17-1.015,0.236-1.605,0.238c-0.508,0.004-0.976-0.059-1.419-0.182c-0.211,0.127-0.379,0.297-0.505,0.465
		s-0.169,0.297-0.167,0.465c0.001,0.252,0.087,0.438,0.299,0.564c0.212,0.123,0.486,0.229,0.827,0.268
		c0.338,0.041,0.739,0.08,1.165,0.078c0.424-0.002,0.866,0.037,1.313,0.076c0.444,0.041,0.889,0.061,1.313,0.143
		c0.424,0.082,0.825,0.203,1.165,0.369c0.341,0.168,0.615,0.438,0.829,0.73c0.215,0.291,0.302,0.67,0.305,1.174
		c0.002,0.463-0.103,0.926-0.332,1.348c-0.231,0.42-0.588,0.801-1.011,1.139c-0.422,0.338-0.93,0.595-1.563,0.808
		c-0.634,0.213-1.332,0.301-2.115,0.306c-0.783,0.004-1.48-0.056-2.075-0.22c-0.594-0.166-1.082-0.373-1.464-0.623
		s-0.68-0.563-0.873-0.897c-0.191-0.334-0.3-0.67-0.302-1.049c-0.003-0.523,0.164-0.968,0.5-1.347
		c0.337-0.379,0.801-0.676,1.394-0.89c-0.299-0.125-0.554-0.334-0.725-0.563c-0.17-0.229-0.277-0.565-0.28-0.942
		c-0.001-0.168,0.041-0.295,0.082-0.463s0.125-0.336,0.251-0.504c0.127-0.17,0.274-0.318,0.442-0.466s0.38-0.254,0.59-0.381
		c-0.53-0.291-0.956-0.688-1.254-1.17c-0.299-0.481-0.45-1.047-0.454-1.696c-0.002-0.505,0.079-0.988,0.289-1.408
		c0.209-0.422,0.482-0.779,0.841-1.076c0.358-0.295,0.803-0.527,1.311-0.699s1.036-0.236,1.628-0.24L332.349,179.775z
		 M335.774,191.159c-0.001-0.252-0.066-0.461-0.215-0.629c-0.149-0.166-0.361-0.292-0.616-0.375
		c-0.254-0.082-0.53-0.145-0.869-0.186c-0.339-0.038-0.678-0.079-1.059-0.1c-0.381-0.02-0.741-0.018-1.122-0.035
		c-0.381-0.019-0.741-0.08-1.08-0.121c-0.401,0.19-0.738,0.425-0.991,0.697c-0.252,0.273-0.377,0.611-0.375,0.988
		c0.001,0.252,0.066,0.463,0.194,0.672s0.319,0.377,0.575,0.521c0.254,0.146,0.571,0.271,0.954,0.354
		c0.381,0.081,0.848,0.12,1.354,0.118c0.508-0.002,0.952-0.067,1.354-0.153c0.4-0.086,0.738-0.234,1.014-0.404
		c0.274-0.17,0.485-0.359,0.631-0.592c0.147-0.23,0.23-0.463,0.229-0.756H335.774L335.774,191.159z M332.4,185.424
		c0.381-0.002,0.719-0.066,1.015-0.174c0.298-0.105,0.528-0.254,0.739-0.443c0.21-0.189,0.357-0.441,0.441-0.695
		c0.083-0.252,0.145-0.547,0.143-0.861c-0.003-0.649-0.218-1.176-0.622-1.549c-0.402-0.377-0.977-0.563-1.736-0.561
		c-0.763,0.004-1.333,0.195-1.732,0.576c-0.4,0.381-0.588,0.906-0.584,1.557c0.002,0.314,0.067,0.607,0.174,0.859
		s0.235,0.482,0.448,0.67c0.212,0.188,0.446,0.334,0.743,0.438s0.593,0.145,0.974,0.143L332.4,185.424z"/>
	<path display="inline" d="M345.812,179.684c1.143-0.006,2.034,0.348,2.673,1.078c0.617,0.711,0.94,1.717,0.946,2.936l0.028,5.229
		c0.678,0.121,1.079,0.203,1.208,0.246c0.211,0.039,0.316,0.187,0.317,0.396l0.005,0.884l-3.406,0.018l-0.036-6.76
		c-0.011-1.681-0.775-2.537-2.278-2.529c-1.058,0.006-1.987,0.516-2.871,1.508l0.034,6.299l0.254,0.039
		c0.551,0.104,0.848,0.164,0.933,0.186c0.212,0.041,0.341,0.188,0.343,0.396l0.004,0.881l-4.953,0.027l-0.004-0.883
		c-0.001-0.211,0.125-0.357,0.336-0.4l1.184-0.236l-0.064-12.408c-0.807-0.121-1.271-0.203-1.398-0.244
		c-0.211-0.04-0.339-0.188-0.34-0.396l-0.005-0.883l3.64-0.02l0.033,6.256C343.402,180.243,344.521,179.689,345.812,179.684z"/>
	<path display="inline" d="M354.163,189.885c-0.468-0.459-0.683-1.129-0.688-2.012l-0.035-6.508l-1.291,0.006
		c-0.127,0-0.211-0.021-0.296-0.082c-0.085-0.063-0.105-0.188-0.105-0.314l-0.006-0.732l1.757-0.24l0.404-3.299
		c-0.001-0.104,0.041-0.188,0.125-0.254c0.084-0.063,0.169-0.084,0.296-0.084l0.953-0.006l0.021,3.65l3.066-0.016l0.007,1.364
		l-3.067,0.017l0.034,6.383c0.002,0.463,0.107,0.799,0.321,1.008c0.212,0.209,0.531,0.313,0.869,0.311
		c0.212,0,0.381-0.043,0.529-0.086c0.146-0.045,0.273-0.105,0.38-0.172c0.106-0.063,0.169-0.127,0.253-0.168
		c0.084-0.043,0.169-0.086,0.211-0.086c0.084,0,0.169,0.041,0.255,0.166l0.557,0.879c-0.337,0.297-0.719,0.551-1.184,0.723
		c-0.464,0.17-0.93,0.256-1.417,0.258C355.269,190.594,354.633,190.344,354.163,189.885z"/>
	<path display="inline" d="M365.439,176.557c-1.438,0.008-2.155,0.811-2.146,2.426l0.005,0.986l3.09-0.018l0.007,1.344l-3.048,0.018
		l0.04,7.539c0.847,0.119,1.313,0.201,1.419,0.223c0.212,0.041,0.316,0.188,0.32,0.396l0.005,0.902l-5.249,0.027l-0.005-0.902
		c-0.001-0.209,0.104-0.356,0.313-0.399l1.313-0.235l-0.04-7.496l-1.188-0.142c-0.339-0.082-0.509-0.229-0.51-0.479l-0.004-0.756
		l1.69-0.011l-0.005-1.026c-0.006-1.22,0.308-2.166,0.979-2.84c0.651-0.677,1.541-0.996,2.683-1.003
		c0.466-0.002,0.91,0.078,1.334,0.203l-0.038,0.944c0.001,0.125-0.063,0.209-0.188,0.253c-0.127,0.043-0.275,0.045-0.487,0.045
		l-0.316,0.002L365.439,176.557L365.439,176.557z"/>
	<path display="inline" d="M373.04,189.029c1.061-0.006,2.03-0.516,2.894-1.485l-0.033-6.297c-0.127-0.043-0.53-0.125-1.208-0.246
		c-0.212-0.041-0.316-0.188-0.319-0.396l-0.005-0.902l1.524-0.008l1.883-0.012l0.048,9.111c0.68,0.123,1.081,0.205,1.208,0.246
		c0.212,0.041,0.318,0.166,0.32,0.377l0.004,0.901l-2.646,0.015c-0.256,0.002-0.426-0.146-0.512-0.396l-0.152-1.133
		c-1.012,1.139-2.192,1.713-3.549,1.719c-1.143,0.006-2.032-0.365-2.672-1.098c-0.596-0.711-0.938-1.654-0.944-2.914l-0.028-5.248
		c-0.678-0.123-1.06-0.205-1.188-0.246c-0.212-0.041-0.339-0.188-0.34-0.396l-0.005-0.883l3.429-0.02l0.036,6.762
		c0.004,0.799,0.179,1.447,0.563,1.889c0.384,0.44,0.935,0.646,1.696,0.641v0.021L373.04,189.029L373.04,189.029z"/>
	<path display="inline" d="M385.531,189.361l0.005,0.902l-4.951,0.026l-0.007-0.904c-0.001-0.209,0.125-0.354,0.338-0.399
		l1.185-0.235l-0.066-12.408c-0.678-0.121-1.059-0.203-1.186-0.244c-0.212-0.041-0.34-0.168-0.341-0.377l-0.005-0.902l3.429-0.02
		l0.074,13.922c0.678,0.121,1.06,0.203,1.187,0.244C385.404,189.006,385.531,189.152,385.531,189.361z"/>
	<path display="inline" d="M395.641,179.377c1.186-0.006,2.182,0.408,2.949,1.244l-0.023-4.367c-0.72-0.123-1.207-0.203-1.419-0.244
		s-0.318-0.166-0.319-0.377l-0.005-0.924l3.6-0.021l0.072,13.94c0.68,0.123,1.103,0.205,1.229,0.246
		c0.212,0.041,0.297,0.166,0.298,0.377l0.005,0.924l-2.624,0.015c-0.254,0-0.424-0.146-0.51-0.396l-0.176-1.279
		c-1.009,1.225-2.191,1.816-3.589,1.824c-1.271,0.008-2.246-0.449-2.972-1.371c-0.725-0.939-1.111-2.262-1.122-4.023
		c-0.008-1.596,0.408-2.941,1.229-3.953c0.841-1.055,1.979-1.605,3.397-1.613L395.641,179.377L395.641,179.377z M395.755,188.848
		c1.1-0.008,2.069-0.561,2.867-1.635l-0.025-5.123c-0.642-0.836-1.466-1.252-2.483-1.246c-1.016,0.006-1.797,0.346-2.343,1.064
		c-0.547,0.717-0.795,1.727-0.789,3.027c0.011,2.016,0.525,3.229,1.586,3.688c0.339,0.146,0.742,0.205,1.166,0.203L395.755,188.848z
		"/>
	<path display="inline" d="M408.117,189.241l0.005,0.903l-4.931,0.024l-0.005-0.901c-0.001-0.188,0.125-0.356,0.315-0.399
		c0.188-0.043,1.226-0.236,1.226-0.236l-0.04-7.58c0,0-1.038-0.184-1.229-0.225s-0.318-0.209-0.319-0.396l-0.005-0.883l3.407-0.019
		l0.048,9.093c0,0,1.017,0.182,1.208,0.223S408.116,189.053,408.117,189.241z M404.368,176.708
		c-0.085-0.168-0.105-0.336-0.106-0.504s0.02-0.357,0.103-0.525c0.084-0.17,0.168-0.314,0.295-0.443
		c0.126-0.125,0.252-0.209,0.421-0.295c0.168-0.084,0.34-0.105,0.509-0.107c0.17,0,0.339,0.021,0.509,0.104
		c0.17,0.082,0.298,0.166,0.426,0.291c0.127,0.125,0.213,0.271,0.298,0.438c0.086,0.168,0.129,0.355,0.13,0.523
		s-0.04,0.336-0.125,0.504c-0.083,0.17-0.167,0.295-0.293,0.424c-0.127,0.125-0.253,0.209-0.423,0.295
		c-0.168,0.084-0.337,0.105-0.507,0.107c-0.169,0-0.339-0.021-0.509-0.104c-0.169-0.084-0.296-0.168-0.424-0.291
		C404.539,176.999,404.453,176.874,404.368,176.708z"/>
	<path display="inline" d="M413.485,179.325c0.74-0.005,1.673,0.18,2.797,0.551l0.004,0.735l0.013,1.994l-0.825,0.004
		c-0.212,0.002-0.318-0.082-0.361-0.293c0-0.041-0.046-0.502-0.135-1.383c-0.636-0.146-1.188-0.226-1.652-0.224h-0.021
		c-0.595,0.002-1.078,0.174-1.457,0.47c-0.379,0.297-0.569,0.612-0.567,0.969s0.089,0.631,0.259,0.797
		c0.301,0.334,0.702,0.563,1.232,0.729c0.529,0.164,0.974,0.27,1.313,0.393l1.019,0.373c0.339,0.125,0.639,0.332,0.894,0.541
		c0.596,0.459,0.872,1.066,0.877,1.844c0.007,1.008-0.327,1.828-1.022,2.439c-0.718,0.635-1.688,0.996-2.832,1.004
		c-1.144,0.006-2.328-0.178-3.475-0.551l-0.016-2.77l0.762-0.005c0.169-0.002,0.276,0.082,0.32,0.25
		c0,0.063,0.044,0.505,0.134,1.343c0.595,0.291,1.335,0.414,2.183,0.407c0.698-0.002,1.249-0.192,1.647-0.532
		c0.358-0.316,0.546-0.675,0.543-1.074c-0.002-0.398-0.087-0.689-0.258-0.879c-0.17-0.188-0.382-0.377-0.637-0.502
		c-0.255-0.123-0.553-0.248-0.894-0.33c-0.933-0.289-1.59-0.496-1.971-0.662c-0.382-0.166-0.701-0.373-0.956-0.582
		c-0.595-0.479-0.896-1.129-0.897-1.969c-0.007-0.861,0.329-1.558,1.004-2.146c0.718-0.635,1.688-0.934,3.002-0.939h-0.024v-0.002
		H413.485z"/>
	<path display="inline" d="M423.027,190.213c-1.376,0.008-2.479-0.471-3.353-1.432c-0.915-1.003-1.391-2.345-1.397-4.023
		c-0.009-1.639,0.408-2.92,1.271-3.934c0.902-1.033,2.172-1.545,3.761-1.554c0.803-0.004,1.863,0.242,3.177,0.737l0.015,2.771
		l-0.847,0.006c-0.21,0-0.315-0.082-0.359-0.293c-0.021-0.084-0.046-0.336-0.091-0.799c-0.044-0.461-0.065-0.67-0.065-0.691
		c-0.338-0.104-0.593-0.145-0.765-0.186c-0.423-0.063-0.803-0.078-1.186-0.076c-0.38,0.002-0.783,0.107-1.162,0.277
		c-0.381,0.17-0.718,0.445-0.99,0.781c-0.548,0.719-0.796,1.686-0.789,2.943c0.008,1.26,0.312,2.268,0.862,2.979
		c0.556,0.689,1.297,1.043,2.271,1.037c0.89-0.004,1.672-0.303,2.347-0.895c0.125-0.127,0.271-0.171,0.422-0.171
		c0.148,0,0.254,0.041,0.34,0.166l0.512,0.688C426.113,189.65,424.762,190.204,423.027,190.213z"/>
	<path display="inline" d="M433.411,188.709c1.059-0.006,2.028-0.517,2.892-1.484l-0.033-6.301
		c-0.126-0.041-0.528-0.123-1.206-0.244c-0.213-0.041-0.319-0.188-0.321-0.396l-0.004-0.902l1.522-0.008l1.884-0.012l0.049,9.113
		c0.68,0.121,1.08,0.203,1.208,0.244c0.212,0.041,0.318,0.167,0.319,0.377l0.005,0.902l-2.646,0.014
		c-0.255,0.002-0.424-0.145-0.511-0.396l-0.152-1.134c-1.011,1.14-2.191,1.713-3.548,1.72c-1.142,0.006-2.032-0.365-2.672-1.099
		c-0.597-0.711-0.938-1.653-0.944-2.914l-0.027-5.248c-0.679-0.123-1.063-0.205-1.188-0.245c-0.214-0.041-0.34-0.188-0.342-0.396
		l-0.004-0.883l3.428-0.019l0.035,6.761c0.005,0.799,0.179,1.446,0.563,1.887c0.382,0.438,0.934,0.646,1.694,0.643V188.709
		L433.411,188.709z"/>
	<path display="inline" d="M445.109,179.157c0.74-0.005,1.673,0.18,2.797,0.551l0.004,0.735l0.013,1.994l-0.825,0.004
		c-0.212,0.002-0.318-0.082-0.361-0.293c0-0.041-0.046-0.502-0.136-1.383c-0.635-0.146-1.188-0.226-1.65-0.224h-0.021
		c-0.593,0.002-1.078,0.174-1.458,0.469c-0.379,0.298-0.568,0.613-0.566,0.97s0.088,0.631,0.258,0.797
		c0.302,0.334,0.702,0.563,1.232,0.729c0.529,0.164,0.975,0.27,1.313,0.393l1.02,0.373c0.34,0.125,0.638,0.332,0.894,0.541
		c0.597,0.459,0.872,1.066,0.876,1.844c0.007,1.008-0.327,1.828-1.021,2.441c-0.718,0.633-1.688,0.994-2.832,1.002
		c-1.144,0.006-2.328-0.178-3.475-0.551l-0.016-2.771l0.763-0.004c0.168-0.002,0.274,0.082,0.317,0.25
		c0,0.063,0.046,0.504,0.135,1.343c0.596,0.291,1.335,0.414,2.184,0.407c0.698-0.002,1.247-0.192,1.647-0.532
		c0.356-0.316,0.545-0.675,0.543-1.074c-0.002-0.398-0.088-0.689-0.259-0.879c-0.17-0.188-0.382-0.377-0.637-0.502
		c-0.254-0.123-0.552-0.248-0.893-0.33c-0.934-0.289-1.59-0.496-1.973-0.662c-0.381-0.166-0.699-0.373-0.954-0.582
		c-0.596-0.479-0.896-1.129-0.898-1.969c-0.006-0.861,0.328-1.558,1.004-2.146c0.718-0.635,1.688-0.934,3.002-0.939h-0.024v-0.002
		H445.109z"/>
	<path display="inline" d="M453.786,179.109c0.74-0.004,1.675,0.183,2.798,0.554l0.005,0.733l0.011,1.996l-0.825,0.004
		c-0.213,0-0.318-0.082-0.361-0.293c-0.001-0.041-0.046-0.504-0.136-1.386c-0.635-0.145-1.187-0.225-1.648-0.223h-0.021
		c-0.593,0.004-1.078,0.174-1.459,0.471c-0.378,0.295-0.566,0.611-0.564,0.97c0.002,0.356,0.089,0.629,0.259,0.797
		c0.299,0.334,0.702,0.563,1.23,0.728c0.528,0.166,0.976,0.27,1.313,0.395l1.018,0.371c0.34,0.125,0.639,0.334,0.895,0.541
		c0.596,0.459,0.871,1.066,0.876,1.844c0.006,1.01-0.328,1.83-1.022,2.439c-0.717,0.635-1.688,0.998-2.831,1.004
		c-1.143,0.006-2.328-0.178-3.475-0.549l-0.017-2.771l0.765-0.004c0.169,0,0.273,0.082,0.315,0.25c0,0.063,0.047,0.504,0.137,1.344
		c0.595,0.291,1.336,0.412,2.183,0.408c0.699-0.004,1.247-0.195,1.649-0.533c0.354-0.316,0.545-0.676,0.543-1.074
		c-0.002-0.397-0.09-0.69-0.261-0.879c-0.17-0.189-0.382-0.377-0.637-0.502c-0.254-0.123-0.553-0.248-0.891-0.33
		c-0.936-0.289-1.59-0.496-1.976-0.662c-0.381-0.166-0.696-0.375-0.953-0.582c-0.596-0.479-0.896-1.129-0.899-1.969
		c-0.005-0.861,0.331-1.557,1.005-2.148c0.718-0.633,1.688-0.932,3.001-0.938h-0.023v-0.004H453.786z"/>
	<path display="inline" d="M463.219,188.95l0.005,0.901l-4.933,0.026l-0.007-0.903c-0.001-0.188,0.126-0.356,0.317-0.399
		c0.188-0.043,1.226-0.236,1.226-0.236l-0.041-7.58c0,0-1.039-0.184-1.228-0.225c-0.191-0.041-0.32-0.209-0.321-0.396l-0.005-0.883
		l3.408-0.019l0.049,9.093c0,0,1.017,0.184,1.208,0.225S463.218,188.76,463.219,188.95z M459.471,176.415
		c-0.086-0.168-0.108-0.336-0.109-0.504s0.021-0.355,0.104-0.525c0.083-0.168,0.167-0.314,0.293-0.441
		c0.127-0.127,0.253-0.211,0.421-0.297c0.17-0.084,0.339-0.105,0.509-0.107c0.169,0,0.338,0.021,0.508,0.104
		c0.17,0.084,0.298,0.166,0.425,0.291c0.129,0.127,0.216,0.271,0.302,0.438c0.085,0.168,0.128,0.355,0.129,0.523
		s-0.04,0.336-0.123,0.506c-0.084,0.168-0.169,0.293-0.296,0.422c-0.125,0.125-0.253,0.211-0.421,0.295
		c-0.171,0.086-0.341,0.107-0.51,0.107c-0.17,0-0.339-0.021-0.509-0.104c-0.17-0.084-0.296-0.166-0.425-0.291
		C459.641,176.706,459.556,176.583,459.471,176.415z"/>
	<path display="inline" d="M471.401,179.395c0.637,0.25,1.188,0.625,1.636,1.084c0.448,0.459,0.789,1.045,1.024,1.717
		c0.236,0.672,0.368,1.426,0.373,2.266c0.004,0.84-0.12,1.599-0.35,2.271c-0.229,0.675-0.563,1.265-1.008,1.728
		c-0.44,0.465-0.987,0.848-1.624,1.102c-0.632,0.256-1.331,0.385-2.113,0.391c-0.783,0.004-1.48-0.117-2.118-0.367
		c-0.635-0.248-1.188-0.623-1.637-1.082c-0.444-0.461-0.785-1.047-1.046-1.717c-0.258-0.672-0.346-1.426-0.35-2.266
		c-0.005-0.841,0.075-1.598,0.326-2.271s0.586-1.263,1.024-1.728c0.443-0.465,0.992-0.847,1.624-1.103
		c0.637-0.254,1.331-0.385,2.114-0.389C470.066,179.023,470.767,179.146,471.401,179.395z M471.698,187.456
		c0.504-0.717,0.774-1.703,0.77-2.963c-0.005-1.261-0.287-2.246-0.801-2.957c-0.512-0.711-1.315-1.043-2.377-1.037
		c-0.549,0.002-1.015,0.088-1.395,0.258c-0.381,0.17-0.718,0.467-0.97,0.805s-0.461,0.758-0.586,1.264
		c-0.124,0.506-0.204,1.094-0.201,1.723c0.003,0.631,0.09,1.177,0.219,1.681c0.131,0.502,0.344,0.922,0.601,1.256
		s0.597,0.584,0.979,0.75c0.381,0.166,0.849,0.291,1.396,0.287C470.393,188.514,471.194,188.172,471.698,187.456z"/>
	<path display="inline" d="M478.903,180.657c1.051-1.14,2.233-1.714,3.547-1.722c1.144-0.006,2.033,0.349,2.672,1.101
		c0.598,0.711,0.918,1.696,0.927,2.914l0.025,5.229c0.68,0.121,1.082,0.203,1.208,0.244c0.214,0.041,0.34,0.188,0.342,0.396
		l0.006,0.904l-3.429,0.02l-0.036-6.762c-0.009-1.682-0.756-2.559-2.259-2.551c-1.057,0.006-2.026,0.516-2.911,1.508l0.033,6.299
		c0.041,0,0.465,0.08,1.229,0.244c0.212,0.041,0.315,0.188,0.316,0.396l0.005,0.883l-4.93,0.025l-0.005-0.884
		c-0.001-0.209,0.083-0.356,0.293-0.397l1.227-0.238l-0.038-7.578c-0.679-0.123-1.104-0.205-1.229-0.246
		c-0.21-0.041-0.296-0.188-0.297-0.396l-0.005-0.883l1.521-0.008l1.103-0.006c0.254-0.002,0.425,0.123,0.51,0.375l0.176,1.154
		L478.903,180.657L478.903,180.657z"/>
	<path display="inline" d="M492.99,178.902c0.742-0.004,1.674,0.181,2.797,0.552l0.005,0.735l0.012,1.994l-0.825,0.004
		c-0.211,0.002-0.318-0.082-0.362-0.293c0-0.041-0.044-0.504-0.133-1.384c-0.637-0.145-1.188-0.227-1.654-0.223h-0.02
		c-0.593,0.002-1.08,0.174-1.458,0.469c-0.381,0.297-0.567,0.613-0.565,0.97s0.088,0.629,0.258,0.797
		c0.299,0.334,0.699,0.563,1.23,0.729c0.53,0.164,0.977,0.27,1.315,0.393l1.019,0.373c0.339,0.123,0.635,0.332,0.891,0.541
		c0.597,0.459,0.873,1.066,0.88,1.844c0.005,1.008-0.33,1.828-1.024,2.439c-0.716,0.635-1.688,0.996-2.831,1.002
		c-1.144,0.008-2.33-0.178-3.474-0.549l-0.017-2.771l0.764-0.004c0.17-0.002,0.273,0.082,0.316,0.25
		c0.001,0.063,0.044,0.504,0.134,1.344c0.596,0.291,1.339,0.412,2.186,0.408c0.696-0.004,1.247-0.195,1.646-0.533
		c0.358-0.316,0.55-0.676,0.546-1.074c-0.002-0.397-0.088-0.69-0.259-0.879c-0.17-0.189-0.384-0.377-0.639-0.502
		s-0.551-0.248-0.892-0.33c-0.933-0.289-1.592-0.496-1.973-0.662c-0.383-0.166-0.701-0.375-0.956-0.582
		c-0.594-0.479-0.894-1.129-0.896-1.969c-0.004-0.861,0.331-1.557,1.005-2.148c0.715-0.633,1.688-0.932,3-0.938h-0.024V178.902z"/>
</g>
<path fill="#FFFFFF" d="M213.694-10.026c0,0,4.472,16.248-4.684,23.574c0,0,18.769-4.146,25.217-26.253"/>
<g>
	<path fill="#FFFFFF" d="M22.36,19.208c-0.322,0.168-1.037,0.406-1.947,0.406c-2.045,0-3.376-1.401-3.376-3.474
		c0-2.087,1.429-3.6,3.642-3.6c0.729,0,1.373,0.182,1.709,0.351l-0.28,0.952c-0.294-0.168-0.756-0.322-1.429-0.322
		c-1.555,0-2.396,1.149-2.396,2.563c0,1.569,1.009,2.536,2.354,2.536c0.7,0,1.163-0.182,1.513-0.336L22.36,19.208z"/>
	<path fill="#FFFFFF" d="M29.85,16.014c0,2.507-1.737,3.6-3.375,3.6c-1.835,0-3.25-1.345-3.25-3.488c0-2.269,1.485-3.6,3.362-3.6
		C28.534,12.526,29.85,13.94,29.85,16.014z M24.471,16.083c0,1.485,0.854,2.605,2.059,2.605c1.177,0,2.059-1.106,2.059-2.633
		c0-1.148-0.574-2.605-2.031-2.605C25.102,13.45,24.471,14.795,24.471,16.083z"/>
	<path fill="#FFFFFF" d="M31.401,14.515c0-0.7-0.014-1.274-0.056-1.835h1.093l0.07,1.121h0.028c0.336-0.644,1.121-1.274,2.241-1.274
		c0.938,0,2.395,0.56,2.395,2.885v4.048H35.94v-3.908c0-1.092-0.406-2.003-1.569-2.003c-0.813,0-1.443,0.574-1.653,1.261
		c-0.056,0.154-0.084,0.364-0.084,0.574v4.076h-1.233V14.515z"/>
	<path fill="#FFFFFF" d="M39.171,14.515c0-0.7-0.014-1.274-0.056-1.835h1.093l0.07,1.121h0.028c0.336-0.644,1.121-1.274,2.241-1.274
		c0.938,0,2.395,0.56,2.395,2.885v4.048H43.71v-3.908c0-1.092-0.406-2.003-1.569-2.003c-0.813,0-1.443,0.574-1.653,1.261
		c-0.056,0.154-0.084,0.364-0.084,0.574v4.076h-1.233V14.515z"/>
	<path fill="#FFFFFF" d="M47.627,16.294c0.028,1.667,1.092,2.353,2.325,2.353c0.882,0,1.415-0.154,1.877-0.35l0.21,0.882
		c-0.434,0.196-1.176,0.435-2.255,0.435c-2.087,0-3.334-1.387-3.334-3.432c0-2.045,1.205-3.656,3.18-3.656
		c2.213,0,2.802,1.947,2.802,3.193c0,0.252-0.028,0.448-0.042,0.575H47.627z M51.241,15.411c0.014-0.784-0.322-2.003-1.709-2.003
		c-1.247,0-1.793,1.148-1.891,2.003H51.241z"/>
	<path fill="#FFFFFF" d="M58.787,19.208c-0.322,0.168-1.037,0.406-1.947,0.406c-2.045,0-3.376-1.401-3.376-3.474
		c0-2.087,1.429-3.6,3.642-3.6c0.729,0,1.373,0.182,1.709,0.351l-0.28,0.952c-0.294-0.168-0.756-0.322-1.429-0.322
		c-1.555,0-2.396,1.149-2.396,2.563c0,1.569,1.009,2.536,2.354,2.536c0.7,0,1.163-0.182,1.513-0.336L58.787,19.208z"/>
	<path fill="#FFFFFF" d="M61.893,11.055v1.625h1.765v0.938h-1.765v3.656c0,0.84,0.238,1.316,0.924,1.316
		c0.336,0,0.533-0.028,0.714-0.084l0.056,0.925c-0.238,0.098-0.616,0.182-1.092,0.182c-0.575,0-1.037-0.196-1.331-0.533
		c-0.35-0.364-0.476-0.966-0.476-1.765v-3.698h-1.051V12.68h1.051v-1.247L61.893,11.055z"/>
	<path fill="#FFFFFF" d="M64.217,21.183c0.294-0.827,0.672-2.326,0.826-3.348l1.373-0.14c-0.322,1.191-0.938,2.746-1.331,3.404
		L64.217,21.183z"/>
	<path fill="#FFFFFF" d="M77.001,16.014c0,2.507-1.737,3.6-3.375,3.6c-1.835,0-3.25-1.345-3.25-3.488c0-2.269,1.485-3.6,3.362-3.6
		C75.685,12.526,77.001,13.94,77.001,16.014z M71.622,16.083c0,1.485,0.854,2.605,2.059,2.605c1.177,0,2.059-1.106,2.059-2.633
		c0-1.148-0.574-2.605-2.031-2.605C72.253,13.45,71.622,14.795,71.622,16.083z"/>
	<path fill="#FFFFFF" d="M78.552,14.795c0-0.798-0.014-1.485-0.056-2.115h1.079l0.042,1.331h0.056
		c0.308-0.911,1.051-1.485,1.877-1.485c0.14,0,0.238,0.014,0.351,0.042v1.163c-0.126-0.028-0.252-0.042-0.42-0.042
		c-0.869,0-1.485,0.658-1.653,1.583c-0.028,0.168-0.056,0.364-0.056,0.575v3.614h-1.219V14.795z"/>
	<path fill="#FFFFFF" d="M88.803,18.479c0,1.555-0.308,2.507-0.966,3.096c-0.659,0.616-1.611,0.813-2.465,0.813
		c-0.813,0-1.709-0.196-2.255-0.561l0.308-0.938c0.448,0.28,1.148,0.532,1.989,0.532c1.261,0,2.185-0.658,2.185-2.367v-0.756h-0.028
		c-0.378,0.63-1.107,1.135-2.157,1.135c-1.681,0-2.886-1.429-2.886-3.306c0-2.297,1.499-3.6,3.054-3.6
		c1.177,0,1.821,0.616,2.115,1.176h0.028l0.056-1.022h1.079c-0.028,0.49-0.056,1.037-0.056,1.863V18.479z M87.585,15.355
		c0-0.21-0.014-0.393-0.07-0.561c-0.224-0.714-0.827-1.303-1.723-1.303c-1.176,0-2.017,0.995-2.017,2.563
		c0,1.331,0.672,2.438,2.003,2.438c0.756,0,1.442-0.477,1.709-1.261c0.07-0.21,0.098-0.448,0.098-0.659V15.355z"/>
	<path fill="#FFFFFF" d="M95.607,17.834c0,0.588,0.028,1.163,0.112,1.625h-1.121L94.5,18.605h-0.042
		c-0.378,0.532-1.107,1.009-2.073,1.009c-1.373,0-2.073-0.967-2.073-1.947c0-1.639,1.457-2.535,4.076-2.521v-0.14
		c0-0.56-0.154-1.569-1.541-1.569c-0.63,0-1.289,0.196-1.765,0.504l-0.28-0.813c0.561-0.364,1.373-0.602,2.227-0.602
		c2.073,0,2.578,1.415,2.578,2.773V17.834z M94.416,16c-1.345-0.028-2.871,0.21-2.871,1.527c0,0.798,0.532,1.177,1.163,1.177
		c0.882,0,1.442-0.561,1.639-1.135c0.042-0.126,0.07-0.266,0.07-0.392V16z"/>
	<path fill="#FFFFFF" d="M97.592,14.515c0-0.7-0.014-1.274-0.056-1.835h1.093l0.07,1.121h0.028c0.336-0.644,1.121-1.274,2.241-1.274
		c0.938,0,2.395,0.56,2.395,2.885v4.048h-1.232v-3.908c0-1.092-0.406-2.003-1.569-2.003c-0.813,0-1.443,0.574-1.653,1.261
		c-0.056,0.154-0.084,0.364-0.084,0.574v4.076h-1.233V14.515z"/>
	<path fill="#FFFFFF" d="M106.735,10.775c0.014,0.42-0.294,0.756-0.785,0.756c-0.434,0-0.742-0.336-0.742-0.756
		c0-0.435,0.322-0.771,0.77-0.771C106.441,10.004,106.735,10.34,106.735,10.775z M105.362,19.459v-6.78h1.233v6.78H105.362z"/>
	<path fill="#FFFFFF" d="M107.867,18.745l3.068-3.992c0.294-0.364,0.574-0.687,0.882-1.051v-0.028h-3.67V12.68h5.169l-0.014,0.771
		l-3.025,3.936c-0.28,0.378-0.561,0.714-0.869,1.064v0.028h3.964v0.98h-5.505V18.745z"/>
	<path fill="#FFFFFF" d="M115.219,16.294c0.028,1.667,1.093,2.353,2.325,2.353c0.882,0,1.415-0.154,1.877-0.35l0.21,0.882
		c-0.434,0.196-1.176,0.435-2.255,0.435c-2.087,0-3.334-1.387-3.334-3.432c0-2.045,1.205-3.656,3.18-3.656
		c2.213,0,2.802,1.947,2.802,3.193c0,0.252-0.028,0.448-0.042,0.575H115.219z M118.832,15.411c0.014-0.784-0.322-2.003-1.709-2.003
		c-1.247,0-1.793,1.148-1.891,2.003H118.832z"/>
	<path fill="#FFFFFF" d="M129.276,17.834c0,0.588,0.028,1.163,0.112,1.625h-1.121l-0.098-0.854h-0.042
		c-0.378,0.532-1.107,1.009-2.073,1.009c-1.373,0-2.073-0.967-2.073-1.947c0-1.639,1.457-2.535,4.076-2.521v-0.14
		c0-0.56-0.154-1.569-1.541-1.569c-0.63,0-1.289,0.196-1.765,0.504l-0.28-0.813c0.561-0.364,1.373-0.602,2.227-0.602
		c2.073,0,2.578,1.415,2.578,2.773V17.834z M128.086,16c-1.345-0.028-2.872,0.21-2.872,1.527c0,0.798,0.532,1.177,1.163,1.177
		c0.882,0,1.442-0.561,1.639-1.135c0.042-0.126,0.07-0.266,0.07-0.392V16z"/>
	<path fill="#FFFFFF" d="M131.261,14.515c0-0.7-0.014-1.274-0.056-1.835h1.093l0.07,1.121h0.028
		c0.336-0.644,1.121-1.274,2.241-1.274c0.938,0,2.395,0.56,2.395,2.885v4.048H135.8v-3.908c0-1.092-0.406-2.003-1.569-2.003
		c-0.813,0-1.443,0.574-1.653,1.261c-0.056,0.154-0.084,0.364-0.084,0.574v4.076h-1.233V14.515z"/>
	<path fill="#FFFFFF" d="M144.887,9.514v8.194c0,0.603,0.014,1.289,0.056,1.751h-1.106l-0.056-1.177h-0.028
		c-0.378,0.756-1.205,1.331-2.312,1.331c-1.639,0-2.899-1.387-2.899-3.446c-0.014-2.255,1.387-3.642,3.04-3.642
		c1.037,0,1.737,0.49,2.045,1.037h0.028V9.514H144.887z M143.654,15.439c0-0.154-0.014-0.364-0.056-0.519
		c-0.182-0.784-0.854-1.429-1.779-1.429c-1.275,0-2.031,1.121-2.031,2.62c0,1.373,0.672,2.507,2.003,2.507
		c0.826,0,1.583-0.546,1.807-1.471c0.042-0.168,0.056-0.336,0.056-0.533V15.439z"/>
	<path fill="#FFFFFF" d="M149.895,14.795c0-0.798-0.014-1.485-0.056-2.115h1.079l0.042,1.331h0.056
		c0.308-0.911,1.051-1.485,1.877-1.485c0.14,0,0.238,0.014,0.35,0.042v1.163c-0.126-0.028-0.252-0.042-0.42-0.042
		c-0.869,0-1.485,0.658-1.653,1.583c-0.028,0.168-0.056,0.364-0.056,0.575v3.614h-1.219V14.795z"/>
	<path fill="#FFFFFF" d="M155.02,16.294c0.028,1.667,1.092,2.353,2.325,2.353c0.882,0,1.415-0.154,1.877-0.35l0.21,0.882
		c-0.434,0.196-1.176,0.435-2.255,0.435c-2.087,0-3.334-1.387-3.334-3.432c0-2.045,1.205-3.656,3.18-3.656
		c2.213,0,2.802,1.947,2.802,3.193c0,0.252-0.028,0.448-0.042,0.575H155.02z M158.634,15.411c0.014-0.784-0.322-2.003-1.709-2.003
		c-1.247,0-1.793,1.148-1.891,2.003H158.634z"/>
	<path fill="#FFFFFF" d="M161.837,12.68l0.896,3.446c0.196,0.757,0.378,1.457,0.504,2.157h0.042
		c0.154-0.686,0.378-1.415,0.603-2.157l1.106-3.446h1.037l1.05,3.39c0.252,0.813,0.448,1.527,0.603,2.213h0.042
		c0.112-0.686,0.294-1.4,0.518-2.199l0.967-3.404h1.219l-2.186,6.78h-1.121l-1.036-3.236c-0.238-0.756-0.435-1.429-0.603-2.227
		h-0.028c-0.168,0.813-0.378,1.513-0.617,2.241l-1.092,3.222h-1.121l-2.045-6.78H161.837z"/>
	<path fill="#FFFFFF" d="M176.358,17.834c0,0.588,0.028,1.163,0.112,1.625h-1.121l-0.098-0.854h-0.042
		c-0.378,0.532-1.107,1.009-2.073,1.009c-1.373,0-2.073-0.967-2.073-1.947c0-1.639,1.457-2.535,4.076-2.521v-0.14
		c0-0.56-0.154-1.569-1.541-1.569c-0.63,0-1.289,0.196-1.765,0.504l-0.28-0.813c0.561-0.364,1.373-0.602,2.227-0.602
		c2.073,0,2.578,1.415,2.578,2.773V17.834z M175.167,16c-1.345-0.028-2.871,0.21-2.871,1.527c0,0.798,0.532,1.177,1.163,1.177
		c0.882,0,1.442-0.561,1.639-1.135c0.042-0.126,0.07-0.266,0.07-0.392V16z"/>
	<path fill="#FFFFFF" d="M178.343,14.795c0-0.798-0.014-1.485-0.056-2.115h1.079l0.042,1.331h0.056
		c0.308-0.911,1.051-1.485,1.877-1.485c0.14,0,0.238,0.014,0.351,0.042v1.163c-0.126-0.028-0.252-0.042-0.42-0.042
		c-0.869,0-1.485,0.658-1.653,1.583c-0.028,0.168-0.056,0.364-0.056,0.575v3.614h-1.219V14.795z"/>
	<path fill="#FFFFFF" d="M188.636,9.514v8.194c0,0.603,0.014,1.289,0.056,1.751h-1.106l-0.056-1.177h-0.028
		c-0.378,0.756-1.205,1.331-2.312,1.331c-1.639,0-2.899-1.387-2.899-3.446c-0.014-2.255,1.387-3.642,3.04-3.642
		c1.037,0,1.737,0.49,2.045,1.037h0.028V9.514H188.636z M187.404,15.439c0-0.154-0.014-0.364-0.056-0.519
		c-0.182-0.784-0.854-1.429-1.779-1.429c-1.275,0-2.031,1.121-2.031,2.62c0,1.373,0.672,2.507,2.003,2.507
		c0.826,0,1.583-0.546,1.807-1.471c0.042-0.168,0.056-0.336,0.056-0.533V15.439z"/>
</g>
</svg>
