<?xml version="1.0" encoding="utf-8"?>
<!-- Generator: Adobe Illustrator 16.0.0, SVG Export Plug-In . SVG Version: 6.00 Build 0)  -->
<!DOCTYPE svg PUBLIC "-//W3C//DTD SVG 1.1//EN" "http://www.w3.org/Graphics/SVG/1.1/DTD/svg11.dtd">
<svg version="1.1" id="Layer_1" xmlns="http://www.w3.org/2000/svg" xmlns:xlink="http://www.w3.org/1999/xlink" x="0px" y="0px"
	 width="800px" height="200.459px" viewBox="0 0 800 200.459" enable-background="new 0 0 800 200.459" xml:space="preserve">
<rect x="0.478" fill="#005551" width="800" height="200.459"/>
<circle opacity="0.15" fill="#FFFFFF" enable-background="new    " cx="497.803" cy="53.169" r="26.955"/>
<circle opacity="0.5" fill="#FFFFFF" enable-background="new    " cx="273.808" cy="26.031" r="7.093"/>
<path opacity="0.1" fill="#FFFFFF" enable-background="new    " d="M346.508,33.7c-44.066,0-79.793,35.723-79.793,79.793
	c0,19.838,7.258,37.971,19.242,51.932c-1.556,5.332-5.052,9.523-11.578,10.074c-0.5,0.041-0.998,0.047-1.494,0.055
	c3.057,2.939,7.576,4.621,12.457,4.217c4.238-0.36,9.027-1.223,12.664-2.94c13.438,10.312,30.252,16.453,48.502,16.453
	c44.069,0,79.793-35.724,79.793-79.789C426.301,69.423,390.577,33.7,346.508,33.7z"/>
<line fill="none" x1="279.515" y1="38.952" x2="186.573" y2="65.01"/>
<g opacity="0.15">
	<g>
		<g>
			<g>
				<g>
					<line fill="none" x1="499.957" y1="54.783" x2="499.247" y2="50.918"/>
					<line fill="none" x1="509.77" y1="48.982" x2="510.481" y2="52.848"/>
					<line fill="none" x1="484.209" y1="57.682" x2="483.495" y2="53.814"/>
				</g>
			</g>
			<g>
				<g>
					
						<rect x="455.864" y="55.198" transform="matrix(-0.1808 -0.9835 0.9835 -0.1808 481.0577 521.7815)" fill="#FFFFFF" width="3.932" height="10.703"/>
					
						<rect x="440.07" y="58.085" transform="matrix(-0.182 -0.9833 0.9833 -0.182 460.1139 509.6358)" fill="#FFFFFF" width="3.933" height="10.703"/>
					
						<rect x="424.374" y="60.93" transform="matrix(-0.1818 -0.9833 0.9833 -0.1818 438.6592 497.5661)" fill="#FFFFFF" width="3.933" height="10.702"/>
					<line fill="none" x1="415.571" y1="66.334" x2="416.286" y2="70.199"/>
					<line fill="none" x1="384.227" y1="72.045" x2="384.944" y2="75.91"/>
					<line fill="none" x1="374.418" y1="77.861" x2="373.702" y2="73.994"/>
				</g>
			</g>
		</g>
	</g>
</g>
<g opacity="0.15">
	<g>
		<g>
			<g>
				<g>
					
						<rect x="730.488" y="48.071" transform="matrix(0.6113 0.7914 -0.7914 0.6113 327.7692 -559.2083)" fill="#FFFFFF" width="5.377" height="12.009"/>
					
						<rect x="744.645" y="37.16" transform="matrix(0.6112 0.7915 -0.7915 0.6112 324.7487 -574.7303)" fill="#FFFFFF" width="5.372" height="12.004"/>
					
						<rect x="758.952" y="26.088" transform="matrix(0.6106 0.7919 -0.7919 0.6106 321.9656 -590.6531)" fill="#FFFFFF" width="5.377" height="12.009"/>
					
						<rect x="772.86" y="15.226" transform="matrix(0.6111 0.7916 -0.7916 0.6111 318.4512 -605.6619)" fill="#FFFFFF" width="5.379" height="12.001"/>
				</g>
			</g>
			<g>
				<g>
					
						<rect x="787.099" y="4.456" transform="matrix(0.6111 0.7915 -0.7915 0.6111 315.4213 -621.0867)" fill="#FFFFFF" width="5.374" height="12.006"/>
					
						<rect x="801.151" y="-6.52" transform="matrix(0.6109 0.7917 -0.7917 0.6109 312.3253 -636.5761)" fill="#FFFFFF" width="5.374" height="12.006"/>
					
						<rect x="815.181" y="-17.487" transform="matrix(0.6105 0.792 -0.792 0.6105 309.4548 -652.2352)" fill="#FFFFFF" width="5.378" height="12"/>
					
						<rect x="829.463" y="-28.42" transform="matrix(0.6111 0.7916 -0.7916 0.6111 305.88 -667.4153)" fill="#FFFFFF" width="5.379" height="11.999"/>
					
						<rect x="843.551" y="-39.362" transform="matrix(0.6106 0.7919 -0.7919 0.6106 303.1098 -683.1628)" fill="#FFFFFF" width="5.377" height="12.004"/>
					
						<rect x="857.922" y="-50.179" transform="matrix(0.6102 0.7923 -0.7923 0.6102 300.4796 -699.0454)" fill="#FFFFFF" width="5.374" height="12.005"/>
					
						<rect x="871.966" y="-61.14" transform="matrix(0.6106 0.7919 -0.7919 0.6106 296.8897 -714.1142)" fill="#FFFFFF" width="5.377" height="12.002"/>
				</g>
			</g>
			<g>
				<g>
					
						<rect x="885.935" y="-72.062" transform="matrix(0.6112 0.7915 -0.7915 0.6112 293.2088 -729.007)" fill="#FFFFFF" width="5.377" height="12.002"/>
					
						<rect x="900.218" y="-82.985" transform="matrix(0.6113 0.7914 -0.7914 0.6113 290.0519 -744.4935)" fill="#FFFFFF" width="5.373" height="12.01"/>
					
						<rect x="914.417" y="-93.872" transform="matrix(0.6109 0.7917 -0.7917 0.6109 287.2514 -760.2459)" fill="#FFFFFF" width="5.376" height="12.001"/>
					
						<rect x="928.59" y="-104.88" transform="matrix(0.6103 0.7921 -0.7921 0.6103 284.5533 -776.2286)" fill="#FFFFFF" width="5.374" height="12.002"/>
					
						<rect x="942.7" y="-115.787" transform="matrix(0.6111 0.7916 -0.7916 0.6111 280.8033 -791.0617)" fill="#FFFFFF" width="5.379" height="12.006"/>
					
						<rect x="956.946" y="-126.776" transform="matrix(0.6103 0.7922 -0.7922 0.6103 278.2785 -807.2444)" fill="#FFFFFF" width="5.373" height="11.999"/>
					
						<rect x="970.932" y="-137.576" transform="matrix(0.6106 0.7919 -0.7919 0.6106 274.9011 -822.2579)" fill="#FFFFFF" width="5.382" height="11.999"/>
				</g>
			</g>
		</g>
	</g>
</g>
<line fill="none" x1="574.491" y1="90.413" x2="644.527" y2="57.493"/>
<line fill="none" x1="645.584" y1="45.172" x2="573.807" y2="-25.332"/>
<g opacity="0.15">
	<g>
		<g>
			<g>
				<g>
					
						<rect x="697.775" y="-161.673" transform="matrix(-0.7185 -0.6955 0.6955 -0.7185 1311.8131 218.9165)" fill="#FFFFFF" width="4.862" height="11.348"/>
					
						<rect x="685.981" y="-149.313" transform="matrix(-0.7187 -0.6954 0.6954 -0.7187 1283.0291 231.8238)" fill="#FFFFFF" width="4.862" height="11.344"/>
					
						<rect x="674.133" y="-137.227" transform="matrix(-0.7185 -0.6956 0.6956 -0.7185 1254.1531 244.5266)" fill="#FFFFFF" width="4.863" height="11.345"/>
					
						<rect x="662.527" y="-125.039" transform="matrix(-0.718 -0.696 0.696 -0.718 1225.4933 257.746)" fill="#FFFFFF" width="4.858" height="11.347"/>
					
						<rect x="650.824" y="-113.028" transform="matrix(-0.7183 -0.6958 0.6958 -0.7183 1197.1616 270.0401)" fill="#FFFFFF" width="4.859" height="11.341"/>
					
						<rect x="638.949" y="-100.884" transform="matrix(-0.7181 -0.6959 0.6959 -0.7181 1168.2271 282.7604)" fill="#FFFFFF" width="4.859" height="11.345"/>
					
						<rect x="627.18" y="-88.757" transform="matrix(-0.7183 -0.6958 0.6958 -0.7183 1139.6484 295.2923)" fill="#FFFFFF" width="4.859" height="11.34"/>
				</g>
			</g>
			<g>
				<g>
					
						<rect x="615.542" y="-76.563" transform="matrix(-0.7187 -0.6954 0.6954 -0.7187 1111.3813 307.877)" fill="#FFFFFF" width="4.862" height="11.344"/>
					
						<rect x="603.697" y="-64.467" transform="matrix(-0.7183 -0.6957 0.6957 -0.7183 1082.4246 320.6559)" fill="#FFFFFF" width="4.856" height="11.345"/>
					
						<rect x="592.091" y="-52.161" transform="matrix(-0.718 -0.696 0.696 -0.718 1053.7596 333.9239)" fill="#FFFFFF" width="4.858" height="11.342"/>
					
						<rect x="580.28" y="-40.144" transform="matrix(-0.7184 -0.6957 0.6957 -0.7184 1025.2922 346.1311)" fill="#FFFFFF" width="4.861" height="11.339"/>
					
						<rect x="568.425" y="-28.064" transform="matrix(-0.7184 -0.6956 0.6956 -0.7184 996.5424 358.6196)" fill="#FFFFFF" width="4.861" height="11.347"/>
					
						<rect x="556.669" y="-15.926" transform="matrix(-0.7185 -0.6955 0.6955 -0.7185 967.9517 371.2412)" fill="#FFFFFF" width="4.862" height="11.345"/>
					
						<rect x="544.944" y="-3.668" transform="matrix(-0.7185 -0.6956 0.6956 -0.7185 939.2505 384.1781)" fill="#FFFFFF" width="4.863" height="11.34"/>
				</g>
			</g>
			<g>
				<g>
					
						<rect x="533.277" y="8.564" transform="matrix(-0.7179 -0.6962 0.6962 -0.7179 910.3682 397.3922)" fill="#FFFFFF" width="4.856" height="11.341"/>
					
						<rect x="521.388" y="20.38" transform="matrix(-0.7187 -0.6954 0.6954 -0.7187 882.1501 409.0199)" fill="#FFFFFF" width="4.859" height="11.35"/>
				</g>
			</g>
		</g>
	</g>
</g>
<line fill="none" x1="187.404" y1="71.693" x2="334.633" y2="75.297"/>
<circle opacity="0.2" fill="#FFFFFF" enable-background="new    " cx="173.766" cy="80.124" r="37.309"/>
<circle fill="#248784" cx="825.044" cy="321.476" r="26.405"/>
<ellipse fill="#B5C4C2" cx="975.546" cy="72.194" rx="84.354" ry="84.696"/>
<g display="none">
	<path display="inline" d="M39.915,181.687c0.636,0.25,1.188,0.625,1.636,1.084c0.447,0.459,0.788,1.045,1.024,1.717
		c0.233,0.671,0.364,1.427,0.368,2.267c0.008,0.84-0.115,1.597-0.348,2.271c-0.229,0.677-0.563,1.267-1.007,1.729
		c-0.443,0.465-0.991,0.847-1.624,1.103s-1.332,0.386-2.114,0.392c-0.783,0.004-1.479-0.119-2.119-0.367
		c-0.636-0.248-1.188-0.623-1.635-1.082c-0.447-0.461-0.789-1.047-1.046-1.717c-0.258-0.672-0.347-1.429-0.351-2.269
		c-0.007-0.84,0.072-1.597,0.323-2.271c0.25-0.674,0.586-1.267,1.027-1.729c0.442-0.465,0.991-0.847,1.624-1.103
		c0.633-0.254,1.332-0.385,2.115-0.39C38.58,181.313,39.279,181.438,39.915,181.687z M40.211,189.747
		c0.504-0.717,0.771-1.705,0.768-2.965c-0.006-1.262-0.287-2.244-0.799-2.955c-0.512-0.713-1.317-1.043-2.375-1.037
		c-0.55,0.002-1.016,0.088-1.396,0.258c-0.384,0.17-0.721,0.469-0.973,0.807s-0.462,0.758-0.586,1.264
		c-0.125,0.504-0.206,1.094-0.202,1.723c0.003,0.631,0.094,1.178,0.224,1.682c0.129,0.502,0.344,0.922,0.6,1.256
		c0.255,0.335,0.596,0.585,0.979,0.75c0.382,0.166,0.848,0.289,1.396,0.287C38.905,190.806,39.708,190.463,40.211,189.747z"/>
	<path display="inline" d="M47.441,183.599c0.774-1.578,1.854-2.384,3.247-2.39c0.55-0.004,1.038,0.119,1.462,0.369l-0.226,1.405
		c-0.042,0.168-0.147,0.272-0.274,0.272c-0.127,0.002-0.296-0.039-0.508-0.102c-0.212-0.063-0.487-0.104-0.868-0.104
		c-1.228,0.007-2.151,0.771-2.736,2.24l0.024,5.248c0.17,0.041,0.572,0.104,1.208,0.228c0.211,0.039,0.318,0.188,0.319,0.396
		l0.005,0.881l-4.932,0.026l-0.005-0.883c-0.005-0.211,0.104-0.356,0.313-0.399l1.205-0.233l-0.04-7.58
		c-0.678-0.123-1.08-0.205-1.208-0.244c-0.212-0.043-0.319-0.188-0.32-0.397l-0.005-0.883l1.524-0.009l1.08-0.006
		c0.211,0,0.313,0.021,0.398,0.104c0.085,0.082,0.13,0.207,0.174,0.396l0.138,1.654h0.021v0.006h0.003L47.441,183.599
		L47.441,183.599z"/>
	<path display="inline" d="M57.377,181.235c0.465-0.002,0.889,0.035,1.292,0.141c0.398,0.104,0.763,0.248,1.103,0.457l2.921-0.018
		l0.003,0.689c0.001,0.23-0.146,0.381-0.438,0.445l-1.205,0.174c0.256,0.461,0.344,0.963,0.346,1.51
		c0.003,0.506-0.079,0.986-0.289,1.408c-0.21,0.42-0.461,0.777-0.816,1.074c-0.358,0.297-0.78,0.551-1.27,0.721
		c-0.482,0.172-1.014,0.236-1.604,0.24c-0.51,0.002-0.978-0.059-1.419-0.182c-0.211,0.127-0.38,0.295-0.509,0.465
		c-0.127,0.168-0.167,0.293-0.167,0.463c0.002,0.252,0.09,0.438,0.302,0.563s0.483,0.229,0.825,0.271
		c0.341,0.039,0.739,0.078,1.163,0.076c0.428-0.002,0.868,0.037,1.313,0.078c0.445,0.039,0.889,0.059,1.313,0.141
		c0.427,0.082,0.825,0.205,1.166,0.371c0.342,0.166,0.615,0.438,0.828,0.729c0.214,0.291,0.304,0.671,0.307,1.175
		c0.002,0.461-0.104,0.924-0.331,1.346c-0.231,0.422-0.589,0.801-1.014,1.141c-0.421,0.338-0.928,0.594-1.562,0.807
		c-0.634,0.215-1.332,0.302-2.115,0.309c-0.783,0.004-1.479-0.057-2.075-0.223c-0.594-0.164-1.082-0.373-1.464-0.623
		s-0.68-0.563-0.873-0.896c-0.188-0.336-0.3-0.672-0.302-1.049c-0.003-0.522,0.164-0.97,0.501-1.351
		c0.336-0.379,0.801-0.676,1.394-0.89c-0.298-0.125-0.554-0.332-0.724-0.563c-0.17-0.229-0.276-0.564-0.28-0.941
		c-0.001-0.168,0.041-0.295,0.083-0.463c0.041-0.168,0.125-0.336,0.252-0.506c0.126-0.168,0.272-0.316,0.441-0.467
		c0.169-0.146,0.38-0.254,0.591-0.381c-0.528-0.291-0.956-0.688-1.255-1.168s-0.45-1.049-0.453-1.695
		c-0.002-0.508,0.079-0.988,0.289-1.41c0.209-0.42,0.482-0.777,0.841-1.074c0.358-0.295,0.805-0.527,1.312-0.697
		c0.507-0.174,1.036-0.238,1.629-0.24L57.377,181.235z M60.803,192.62c-0.001-0.252-0.066-0.463-0.215-0.629
		c-0.149-0.168-0.361-0.293-0.616-0.375c-0.254-0.082-0.529-0.146-0.869-0.188c-0.338-0.039-0.678-0.08-1.059-0.1
		s-0.741-0.018-1.122-0.037c-0.382-0.02-0.741-0.08-1.081-0.119c-0.401,0.189-0.738,0.426-0.991,0.697
		c-0.252,0.273-0.377,0.609-0.375,0.988c0.001,0.252,0.066,0.463,0.194,0.672s0.315,0.375,0.574,0.52
		c0.254,0.146,0.569,0.271,0.951,0.355c0.385,0.082,0.851,0.119,1.355,0.115c0.508-0.002,0.952-0.066,1.354-0.152
		c0.4-0.086,0.739-0.233,1.017-0.404c0.271-0.168,0.481-0.357,0.632-0.59c0.148-0.232,0.23-0.463,0.229-0.758L60.803,192.62
		L60.803,192.62z M57.428,186.883c0.381-0.002,0.719-0.065,1.015-0.174c0.296-0.104,0.527-0.254,0.738-0.442
		c0.21-0.188,0.357-0.44,0.441-0.695c0.084-0.252,0.146-0.547,0.144-0.86c-0.003-0.649-0.218-1.174-0.622-1.549
		c-0.4-0.377-0.977-0.563-1.739-0.56c-0.762,0.004-1.333,0.192-1.729,0.573c-0.4,0.382-0.588,0.906-0.584,1.56
		c0.002,0.313,0.063,0.606,0.174,0.858c0.11,0.253,0.235,0.48,0.448,0.671c0.213,0.188,0.447,0.334,0.743,0.438
		c0.297,0.104,0.593,0.146,0.974,0.145L57.428,186.883L57.428,186.883z"/>
	<path display="inline" d="M73.302,190.579c0.191,0.041,0.319,0.209,0.32,0.396l0.005,0.9l-1.375,0.006l-0.148,0.002l-0.677,0.006
		c-0.169,0-0.318-0.041-0.445-0.082s-0.17-0.168-0.214-0.334l-0.217-1.01c-0.295,0.254-0.59,0.486-0.843,0.697
		s-0.548,0.381-0.848,0.51c-0.295,0.125-0.591,0.232-0.929,0.318s-0.719,0.109-1.143,0.111c-0.423,0.002-0.783-0.063-1.146-0.188
		c-0.357-0.123-0.7-0.271-0.956-0.498c-0.255-0.229-0.468-0.521-0.639-0.879c-0.171-0.355-0.237-0.771-0.24-1.26
		c-0.002-0.42,0.104-0.84,0.333-1.221c0.23-0.38,0.631-0.76,1.138-1.057c0.51-0.297,1.186-0.573,2.027-0.768
		c0.846-0.191,1.861-0.281,3.089-0.289l-0.004-0.818c-0.004-0.84-0.198-1.469-0.56-1.887c-0.362-0.418-0.896-0.646-1.592-0.644
		c-0.469,0.002-0.85,0.065-1.162,0.192c-0.317,0.127-0.57,0.232-0.806,0.383c-0.229,0.146-0.439,0.254-0.608,0.381
		c-0.169,0.128-0.316,0.171-0.486,0.174c-0.127,0-0.254-0.021-0.339-0.082c-0.085-0.063-0.17-0.168-0.213-0.252l-0.342-0.587
		c0.59-0.569,1.222-0.974,1.896-1.271c0.676-0.297,1.438-0.428,2.283-0.434c0.592-0.003,1.143,0.077,1.608,0.284
		c0.469,0.209,0.851,0.457,1.169,0.793c0.316,0.334,0.555,0.752,0.728,1.257c0.172,0.502,0.238,1.051,0.242,1.639l0.026,5.313
		c0.298,0.063,0.934,0.184,1.062,0.229L73.302,190.579z M70.363,187.149c-0.864,0.006-1.604,0.053-2.196,0.16
		c-0.596,0.105-1.103,0.275-1.479,0.445s-0.675,0.383-0.844,0.637c-0.167,0.252-0.251,0.506-0.25,0.799
		c0.001,0.295,0.063,0.504,0.152,0.715c0.085,0.209,0.213,0.377,0.383,0.502s0.34,0.209,0.552,0.271
		c0.212,0.063,0.445,0.104,0.699,0.104c0.339-0.003,0.614-0.046,0.889-0.109c0.275-0.063,0.528-0.149,0.781-0.276
		c0.254-0.127,0.481-0.297,0.696-0.465c0.21-0.171,0.421-0.382,0.632-0.593L70.363,187.149z"/>
	<path display="inline" d="M78.152,182.784c1.056-1.141,2.234-1.715,3.546-1.721c1.146-0.006,2.034,0.348,2.676,1.1
		c0.597,0.711,0.919,1.695,0.926,2.914l0.028,5.229c0.678,0.123,1.076,0.202,1.208,0.245c0.212,0.041,0.34,0.188,0.341,0.396
		l0.005,0.901l-3.429,0.021l-0.036-6.763c-0.013-1.683-0.754-2.56-2.261-2.549c-1.059,0.006-2.025,0.515-2.909,1.506l0.029,6.299
		c0.042,0,0.47,0.082,1.229,0.246c0.211,0.039,0.314,0.187,0.315,0.396l0.009,0.884l-4.935,0.024l-0.005-0.881
		c-0.001-0.212,0.083-0.357,0.294-0.4l1.229-0.235l-0.04-7.58c-0.682-0.123-1.104-0.205-1.229-0.243
		c-0.212-0.044-0.297-0.188-0.298-0.398l-0.005-0.881l1.521-0.008l1.104-0.009c0.254,0,0.424,0.125,0.51,0.375l0.176,1.154V182.784
		L78.152,182.784z"/>
	<path display="inline" d="M92.992,190.915l0.004,0.902l-4.935,0.023l-0.005-0.902c-0.001-0.188,0.125-0.354,0.315-0.396
		c0.188-0.043,1.227-0.236,1.227-0.236l-0.041-7.578c0,0-1.038-0.188-1.229-0.227c-0.19-0.043-0.319-0.209-0.32-0.396l-0.005-0.883
		l3.408-0.021l0.048,9.092c0,0,1.017,0.185,1.208,0.226C92.861,190.56,92.991,190.728,92.992,190.915z M89.242,178.379
		c-0.09-0.168-0.107-0.336-0.108-0.504s0.019-0.354,0.103-0.522c0.083-0.17,0.168-0.313,0.294-0.442
		c0.126-0.125,0.257-0.209,0.426-0.295c0.168-0.087,0.338-0.107,0.507-0.107c0.169-0.002,0.338,0.021,0.508,0.103
		c0.17,0.084,0.297,0.168,0.425,0.291c0.128,0.127,0.213,0.272,0.299,0.44c0.085,0.166,0.13,0.355,0.132,0.523
		c0,0.168-0.04,0.336-0.125,0.506c-0.084,0.168-0.169,0.293-0.296,0.42c-0.126,0.127-0.253,0.211-0.422,0.295
		c-0.169,0.086-0.338,0.106-0.507,0.106c-0.169,0.002-0.339-0.021-0.508-0.104c-0.17-0.082-0.297-0.166-0.425-0.291
		C89.413,178.672,89.328,178.547,89.242,178.379z"/>
	<path display="inline" d="M102.486,181.122l0.004,0.799c0.005,0.252-0.103,0.504-0.271,0.715l-5.759,7.695l4.762-0.023
		c0.059-0.842,0.12-1.305,0.12-1.389c0.042-0.168,0.146-0.254,0.316-0.254l0.737-0.004l0.021,3.105l-8.169,0.043l-0.004-0.773
		c-0.001-0.211,0.083-0.443,0.25-0.676l5.801-7.734l-4.593,0.021c-0.063,0.775-0.104,1.178-0.103,1.262
		c-0.042,0.17-0.168,0.271-0.337,0.273l-0.741,0.004l-0.016-3.002l1.08-0.006L102.486,181.122z"/>
	<path display="inline" d="M108.868,190.831l0.005,0.9l-4.936,0.025l-0.005-0.902c-0.001-0.188,0.125-0.355,0.316-0.398
		c0.188-0.043,1.226-0.232,1.226-0.232l-0.04-7.58c0,0-1.038-0.188-1.229-0.227c-0.191-0.043-0.319-0.211-0.32-0.396l-0.004-0.885
		l3.407-0.018l0.048,9.092c0,0,1.017,0.186,1.208,0.227S108.867,190.644,108.868,190.831z M105.119,178.295
		c-0.086-0.168-0.108-0.336-0.109-0.504s0.019-0.354,0.104-0.522c0.083-0.17,0.167-0.313,0.298-0.442
		c0.126-0.125,0.252-0.209,0.421-0.295c0.169-0.087,0.338-0.107,0.507-0.107c0.169-0.002,0.339,0.021,0.509,0.103
		c0.169,0.084,0.297,0.168,0.425,0.291c0.127,0.127,0.213,0.272,0.299,0.438c0.086,0.168,0.13,0.356,0.132,0.525
		c0.002,0.168-0.04,0.336-0.123,0.504c-0.084,0.17-0.169,0.295-0.296,0.422s-0.254,0.211-0.424,0.295
		c-0.169,0.086-0.337,0.106-0.507,0.106c-0.17,0.002-0.339-0.021-0.509-0.104c-0.169-0.082-0.296-0.166-0.424-0.291
		C105.29,178.588,105.204,178.463,105.119,178.295z"/>
	<path display="inline" d="M113.375,182.599c1.052-1.142,2.23-1.714,3.546-1.722c1.143-0.006,2.034,0.349,2.672,1.101
		c0.597,0.711,0.919,1.694,0.926,2.914l0.028,5.229c0.678,0.123,1.081,0.205,1.208,0.246c0.212,0.041,0.34,0.188,0.341,0.396
		l0.005,0.902l-3.429,0.02l-0.036-6.762c-0.009-1.68-0.754-2.559-2.257-2.551c-1.062,0.006-2.029,0.518-2.913,1.508l0.033,6.301
		c0.042,0,0.466,0.082,1.229,0.242c0.212,0.041,0.319,0.188,0.32,0.396l0.005,0.884l-4.932,0.024l-0.005-0.884
		c-0.005-0.209,0.083-0.355,0.294-0.396l1.226-0.238l-0.04-7.578c-0.678-0.123-1.102-0.205-1.229-0.246
		c-0.215-0.041-0.301-0.188-0.302-0.396l-0.005-0.883l1.524-0.01l1.101-0.007c0.254-0.002,0.424,0.123,0.514,0.375l0.176,1.154
		V182.599z"/>
	<path display="inline" d="M127.421,180.864c0.466-0.004,0.89,0.035,1.292,0.141c0.403,0.104,0.764,0.248,1.103,0.455l2.921-0.018
		l0.007,0.691c0.001,0.23-0.146,0.381-0.442,0.443l-1.206,0.174c0.256,0.461,0.344,0.965,0.347,1.514
		c0.003,0.504-0.08,0.984-0.289,1.404c-0.21,0.422-0.462,0.781-0.816,1.076c-0.358,0.297-0.78,0.551-1.27,0.721
		c-0.482,0.172-1.015,0.236-1.604,0.238c-0.508,0.004-0.978-0.057-1.419-0.182c-0.211,0.127-0.379,0.297-0.505,0.467
		c-0.126,0.168-0.169,0.295-0.167,0.463c0.001,0.252,0.087,0.438,0.299,0.564c0.212,0.123,0.484,0.229,0.827,0.27
		c0.339,0.039,0.737,0.078,1.165,0.076c0.424-0.002,0.864,0.037,1.313,0.076c0.444,0.041,0.89,0.061,1.313,0.143
		s0.823,0.203,1.166,0.371c0.34,0.166,0.612,0.438,0.828,0.729c0.215,0.293,0.302,0.67,0.304,1.174
		c0.002,0.463-0.104,0.928-0.331,1.35c-0.231,0.422-0.589,0.801-1.01,1.139c-0.424,0.34-0.932,0.596-1.563,0.809
		c-0.634,0.215-1.332,0.303-2.115,0.307c-0.78,0.004-1.479-0.057-2.073-0.221c-0.595-0.165-1.08-0.372-1.465-0.622
		c-0.383-0.25-0.68-0.563-0.872-0.897c-0.19-0.334-0.301-0.67-0.303-1.049c-0.003-0.523,0.164-0.967,0.5-1.347
		s0.802-0.677,1.396-0.89c-0.299-0.125-0.556-0.334-0.727-0.563c-0.17-0.229-0.274-0.565-0.276-0.943
		c-0.003-0.168,0.04-0.295,0.08-0.463c0.041-0.168,0.125-0.336,0.252-0.504c0.127-0.17,0.271-0.315,0.439-0.465
		c0.169-0.147,0.38-0.255,0.591-0.383c-0.527-0.29-0.956-0.688-1.255-1.171c-0.299-0.48-0.449-1.047-0.454-1.694
		c-0.002-0.504,0.08-0.988,0.289-1.408c0.209-0.422,0.482-0.778,0.842-1.075c0.357-0.296,0.804-0.527,1.311-0.699
		c0.508-0.17,1.036-0.235,1.629-0.239L127.421,180.864z M130.847,192.247c-0.001-0.252-0.066-0.461-0.215-0.629
		c-0.149-0.166-0.361-0.291-0.616-0.375c-0.254-0.082-0.53-0.145-0.869-0.186c-0.339-0.039-0.678-0.08-1.059-0.102
		c-0.381-0.02-0.741-0.018-1.122-0.035c-0.381-0.021-0.741-0.08-1.081-0.121c-0.401,0.191-0.738,0.426-0.991,0.697
		c-0.252,0.275-0.377,0.611-0.375,0.99c0.001,0.252,0.066,0.461,0.194,0.67c0.128,0.211,0.319,0.377,0.574,0.521
		c0.255,0.146,0.569,0.271,0.954,0.354c0.381,0.082,0.848,0.119,1.354,0.117c0.508-0.002,0.952-0.068,1.354-0.154
		c0.398-0.086,0.736-0.232,1.014-0.402c0.271-0.17,0.482-0.359,0.631-0.592c0.147-0.23,0.23-0.463,0.229-0.758L130.847,192.247
		L130.847,192.247z M127.473,186.512c0.381-0.002,0.719-0.065,1.015-0.174c0.3-0.104,0.528-0.254,0.738-0.442
		c0.211-0.188,0.357-0.44,0.441-0.694c0.083-0.252,0.146-0.548,0.144-0.861c-0.003-0.649-0.218-1.174-0.622-1.549
		c-0.4-0.377-0.977-0.563-1.734-0.562c-0.766,0.004-1.333,0.194-1.733,0.578c-0.4,0.379-0.587,0.903-0.584,1.555
		c0.002,0.313,0.067,0.606,0.174,0.861c0.107,0.25,0.235,0.479,0.448,0.668c0.212,0.188,0.446,0.334,0.743,0.438
		s0.593,0.146,0.974,0.145L127.473,186.512L127.473,186.512z"/>
	<path display="inline" d="M147.898,190.185c0.191,0.041,0.319,0.207,0.32,0.396l0.004,0.899l-1.376,0.011h-0.148l-0.677,0.004
		c-0.169,0-0.313-0.041-0.441-0.082c-0.127-0.041-0.174-0.166-0.217-0.334l-0.217-1.011c-0.295,0.257-0.59,0.486-0.843,0.699
		c-0.253,0.209-0.548,0.379-0.844,0.508c-0.296,0.127-0.591,0.233-0.934,0.317c-0.338,0.087-0.719,0.109-1.142,0.113
		c-0.423,0.002-0.784-0.062-1.144-0.187c-0.36-0.123-0.7-0.271-0.955-0.498c-0.257-0.229-0.473-0.521-0.643-0.879
		c-0.171-0.354-0.233-0.772-0.237-1.259c-0.004-0.422,0.103-0.842,0.331-1.221c0.229-0.379,0.633-0.761,1.139-1.06
		c0.506-0.297,1.182-0.571,2.024-0.767c0.85-0.192,1.861-0.282,3.092-0.288l-0.008-0.82c-0.004-0.84-0.194-1.469-0.56-1.887
		s-0.894-0.646-1.591-0.642c-0.466,0.002-0.848,0.063-1.163,0.192c-0.317,0.129-0.57,0.231-0.802,0.383
		c-0.232,0.146-0.444,0.255-0.612,0.382s-0.316,0.17-0.485,0.17c-0.127,0.002-0.255-0.021-0.339-0.082
		c-0.085-0.063-0.17-0.166-0.213-0.25l-0.342-0.586c0.589-0.569,1.222-0.976,1.896-1.271c0.68-0.299,1.438-0.43,2.283-0.436
		c0.594-0.002,1.146,0.078,1.61,0.287c0.467,0.207,0.849,0.457,1.168,0.791c0.317,0.334,0.554,0.752,0.726,1.256
		c0.172,0.502,0.238,1.049,0.241,1.637l0.028,5.313c0.297,0.063,0.932,0.187,1.06,0.228L147.898,190.185z M144.959,186.754
		c-0.868,0.006-1.608,0.054-2.2,0.16c-0.592,0.104-1.099,0.274-1.479,0.444c-0.38,0.173-0.675,0.386-0.843,0.638
		c-0.168,0.254-0.251,0.506-0.25,0.799c0.001,0.295,0.066,0.504,0.152,0.713c0.086,0.211,0.214,0.377,0.383,0.502
		c0.17,0.125,0.34,0.209,0.552,0.271c0.212,0.062,0.445,0.104,0.699,0.102c0.338-0.002,0.614-0.045,0.888-0.106
		c0.275-0.063,0.528-0.149,0.782-0.276c0.253-0.127,0.485-0.297,0.696-0.467c0.211-0.171,0.421-0.382,0.632-0.593L144.959,186.754z"
		/>
	<path display="inline" d="M152.748,182.39c1.052-1.142,2.23-1.714,3.546-1.722c1.143-0.006,2.034,0.349,2.673,1.101
		c0.596,0.711,0.919,1.694,0.925,2.914l0.028,5.229c0.678,0.123,1.081,0.205,1.208,0.246c0.212,0.041,0.34,0.188,0.341,0.395
		l0.004,0.904l-3.428,0.02l-0.036-6.762c-0.009-1.68-0.754-2.559-2.257-2.551c-1.062,0.006-2.029,0.518-2.912,1.508l0.033,6.301
		c0.042,0,0.466,0.08,1.229,0.242c0.211,0.041,0.318,0.188,0.319,0.396l0.005,0.884l-4.932,0.024l-0.009-0.884
		c-0.001-0.211,0.083-0.356,0.298-0.396l1.226-0.238l-0.04-7.578c-0.678-0.123-1.102-0.205-1.229-0.246
		c-0.215-0.041-0.301-0.188-0.302-0.396l-0.005-0.883l1.524-0.01l1.101-0.007c0.254-0.002,0.424,0.123,0.51,0.375l0.18,1.154V182.39
		L152.748,182.39z"/>
	<path display="inline" d="M167.048,180.59c1.185-0.006,2.182,0.408,2.949,1.244l-0.023-4.367c-0.721-0.12-1.208-0.2-1.42-0.241
		s-0.318-0.168-0.319-0.377l-0.005-0.927l3.602-0.021l0.07,13.94c0.682,0.121,1.104,0.203,1.229,0.244
		c0.211,0.041,0.297,0.166,0.298,0.377l0.005,0.925l-2.625,0.016c-0.254,0.003-0.424-0.146-0.51-0.396l-0.176-1.278
		c-1.014,1.226-2.191,1.815-3.588,1.826c-1.271,0.006-2.246-0.451-2.974-1.371c-0.725-0.938-1.109-2.263-1.122-4.022
		c-0.008-1.599,0.408-2.94,1.229-3.955c0.841-1.056,1.979-1.604,3.396-1.613L167.048,180.59L167.048,180.59z M167.162,190.062
		c1.101-0.006,2.067-0.56,2.866-1.634l-0.023-5.122c-0.644-0.839-1.467-1.253-2.483-1.246c-1.016,0.006-1.797,0.347-2.343,1.063
		s-0.795,1.729-0.788,3.025c0.011,2.018,0.525,3.23,1.585,3.688c0.34,0.146,0.742,0.207,1.165,0.205L167.162,190.062z"/>
	<path display="inline" d="M182.492,182.881c0.771-1.578,1.85-2.383,3.243-2.391c0.554-0.005,1.038,0.118,1.466,0.368l-0.229,1.408
		c-0.041,0.168-0.146,0.272-0.271,0.272c-0.126,0.002-0.3-0.039-0.512-0.104c-0.212-0.063-0.483-0.104-0.865-0.1
		c-1.229,0.006-2.155,0.768-2.739,2.238l0.024,5.25c0.172,0.041,0.572,0.102,1.208,0.225c0.216,0.041,0.318,0.189,0.319,0.396
		l0.005,0.883l-4.931,0.023l-0.005-0.882c-0.001-0.212,0.104-0.356,0.313-0.397l1.205-0.238l-0.04-7.578
		c-0.678-0.125-1.081-0.205-1.208-0.246c-0.211-0.041-0.314-0.188-0.315-0.396l-0.008-0.883l1.523-0.008l1.079-0.007
		c0.212-0.002,0.317,0.021,0.403,0.104c0.084,0.084,0.128,0.209,0.171,0.396l0.136,1.656h0.021v0.006h0.006L182.492,182.881
		L182.492,182.881z"/>
	<path display="inline" d="M192.619,180.497c0.635-0.004,1.228,0.102,1.776,0.305c0.555,0.209,1.021,0.5,1.401,0.896
		c0.384,0.396,0.725,0.898,0.938,1.484c0.217,0.586,0.349,1.258,0.353,2.016c0.002,0.293-0.021,0.504-0.081,0.588
		c-0.063,0.084-0.211,0.146-0.381,0.146l-7.111,0.037c0.003,0.674,0.091,1.26,0.264,1.764c0.175,0.504,0.432,0.879,0.729,1.217
		c0.298,0.334,0.638,0.584,1.063,0.75c0.428,0.162,0.852,0.244,1.356,0.242c0.465-0.002,0.888-0.047,1.227-0.152
		c0.342-0.104,0.638-0.23,0.891-0.361c0.253-0.127,0.465-0.23,0.634-0.34c0.168-0.104,0.295-0.168,0.422-0.17
		c0.169,0,0.275,0.063,0.36,0.188l0.529,0.688c-0.229,0.297-0.505,0.508-0.843,0.722c-0.337,0.211-0.65,0.399-1.034,0.528
		c-0.38,0.129-0.761,0.233-1.141,0.302c-0.381,0.063-0.783,0.106-1.164,0.108c-0.741,0.004-1.418-0.117-2.055-0.367
		c-0.636-0.248-1.167-0.623-1.635-1.104c-0.472-0.479-0.813-1.063-1.068-1.775c-0.258-0.713-0.389-1.51-0.396-2.436
		c-0.004-0.756,0.12-1.43,0.353-2.061c0.229-0.631,0.563-1.221,0.986-1.688c0.421-0.465,0.944-0.847,1.578-1.119
		c0.637-0.275,1.331-0.406,2.097-0.41L192.619,180.497L192.619,180.497z M192.69,181.86c-0.91,0.006-1.628,0.262-2.133,0.787
		s-0.84,1.268-0.962,2.188l5.82-0.028c-0.002-0.423-0.068-0.817-0.197-1.177c-0.129-0.356-0.279-0.688-0.513-0.938
		c-0.234-0.252-0.531-0.461-0.871-0.604c-0.34-0.146-0.742-0.207-1.166-0.203L192.69,181.86z"/>
	<path display="inline" d="M215.606,180.563l0.004,0.9c0.001,0.209-0.104,0.336-0.313,0.379c-0.084,0-0.232,0.064-0.528,0.107
		c-0.296,0.045-0.465,0.107-0.529,0.107l-2.936,9.127l-1.481,0.01c-0.188,0.002-0.314-0.082-0.383-0.334l-2.409-7.211
		c-0.063-0.168-0.104-0.336-0.147-0.504c-0.043-0.166-0.065-0.334-0.108-0.461c-0.041,0.168-0.04,0.336-0.082,0.504
		c-0.042,0.17-0.083,0.295-0.125,0.463l-2.375,7.217c-0.083,0.252-0.209,0.355-0.421,0.357l-1.438,0.008l-3.015-9.117
		c-0.042,0-0.188-0.021-0.356-0.063c-0.424-0.079-0.636-0.143-0.699-0.143c-0.212-0.043-0.339-0.188-0.341-0.396l-0.004-0.884
		l4.779-0.023l0.008,0.883c0.001,0.211-0.104,0.356-0.315,0.399c-0.127,0.041-0.529,0.106-1.163,0.235l1.725,5.701
		c0.132,0.629,0.262,1.109,0.306,1.445c0.062-0.295,0.208-0.775,0.416-1.449l2.207-6.898c0.083-0.252,0.252-0.379,0.506-0.381
		l0.825-0.004c0.271-0.002,0.442,0.123,0.527,0.375L210,187.79c0.086,0.293,0.216,0.773,0.389,1.426
		c0.082-0.48,0.186-0.967,0.311-1.43l1.704-5.723c-0.084,0.002-0.508-0.08-1.229-0.225c-0.211-0.043-0.34-0.188-0.341-0.396
		l-0.005-0.881h4.775L215.606,180.563L215.606,180.563z"/>
	<path display="inline" d="M226.05,189.769c0.188,0.041,0.318,0.209,0.319,0.397l0.005,0.899l-1.375,0.009l-0.148,0.002
		l-0.677,0.004c-0.169,0-0.317-0.041-0.445-0.082c-0.127-0.041-0.17-0.168-0.213-0.336l-0.217-1.006
		c-0.295,0.254-0.59,0.481-0.843,0.694c-0.253,0.211-0.548,0.381-0.847,0.508c-0.296,0.129-0.592,0.233-0.93,0.32
		c-0.338,0.086-0.719,0.108-1.142,0.11s-0.783-0.062-1.146-0.185c-0.356-0.125-0.7-0.271-0.955-0.5
		c-0.256-0.229-0.469-0.521-0.64-0.877s-0.237-0.774-0.239-1.261c-0.002-0.42,0.104-0.842,0.332-1.221
		c0.231-0.379,0.631-0.758,1.14-1.058c0.508-0.297,1.184-0.571,2.026-0.769c0.847-0.192,1.861-0.28,3.088-0.288l-0.004-0.818
		c-0.004-0.84-0.198-1.469-0.561-1.887c-0.363-0.418-0.896-0.646-1.593-0.644c-0.467,0.002-0.848,0.065-1.161,0.192
		c-0.316,0.129-0.57,0.233-0.806,0.383c-0.229,0.147-0.439,0.257-0.608,0.384c-0.168,0.127-0.316,0.168-0.486,0.17
		c-0.127,0-0.254-0.021-0.339-0.082c-0.085-0.063-0.17-0.168-0.213-0.252l-0.342-0.586c0.589-0.57,1.223-0.974,1.896-1.271
		c0.675-0.3,1.438-0.431,2.283-0.435c0.593-0.004,1.144,0.078,1.608,0.285c0.468,0.207,0.851,0.457,1.168,0.791
		c0.317,0.336,0.556,0.754,0.728,1.256c0.172,0.504,0.239,1.051,0.242,1.639l0.025,5.313c0.3,0.062,0.935,0.184,1.062,0.225v-0.033
		h0.006L226.05,189.769L226.05,189.769z M223.111,186.34c-0.864,0.004-1.604,0.052-2.196,0.158
		c-0.596,0.104-1.103,0.276-1.479,0.449c-0.379,0.17-0.675,0.381-0.843,0.635c-0.168,0.252-0.252,0.504-0.25,0.799
		c0.001,0.293,0.063,0.504,0.148,0.713c0.09,0.209,0.218,0.378,0.388,0.503s0.34,0.206,0.552,0.271
		c0.211,0.061,0.445,0.102,0.699,0.1c0.339,0,0.609-0.045,0.889-0.106c0.274-0.063,0.528-0.147,0.782-0.276
		c0.253-0.127,0.481-0.295,0.696-0.465c0.21-0.17,0.421-0.382,0.631-0.593L223.111,186.34z"/>
	<path display="inline" d="M230.924,182.624c0.771-1.578,1.851-2.381,3.247-2.391c0.55-0.004,1.038,0.119,1.462,0.369l-0.229,1.406
		c-0.037,0.17-0.146,0.273-0.271,0.275c-0.127,0-0.297-0.041-0.508-0.104c-0.212-0.063-0.487-0.104-0.869-0.104
		c-1.229,0.006-2.155,0.77-2.739,2.238l0.028,5.248c0.169,0.041,0.572,0.104,1.207,0.229c0.212,0.039,0.315,0.188,0.316,0.396
		l0.008,0.883l-4.935,0.024l-0.004-0.884c-0.001-0.209,0.104-0.355,0.315-0.398l1.205-0.236L229.12,182
		c-0.682-0.123-1.081-0.205-1.208-0.246c-0.212-0.041-0.318-0.188-0.319-0.396l-0.005-0.881l1.521-0.011l1.079-0.006
		c0.212-0.002,0.318,0.021,0.403,0.104s0.128,0.209,0.171,0.397l0.136,1.656h0.021v0.004L230.924,182.624L230.924,182.624z"/>
	<path display="inline" d="M241.115,180.198c1.188-0.008,2.186,0.406,2.949,1.242l-0.021-4.365
		c-0.724-0.123-1.208-0.203-1.419-0.244s-0.318-0.166-0.319-0.377l-0.005-0.924l3.598-0.021l0.074,13.941
		c0.678,0.123,1.104,0.201,1.229,0.242c0.211,0.041,0.297,0.168,0.298,0.381l0.005,0.924l-2.625,0.014
		c-0.254,0-0.424-0.146-0.51-0.396l-0.18-1.279c-1.01,1.226-2.188,1.815-3.588,1.824c-1.27,0.008-2.246-0.449-2.97-1.369
		c-0.725-0.938-1.113-2.265-1.122-4.022c-0.009-1.599,0.408-2.94,1.229-3.953c0.841-1.058,1.979-1.606,3.396-1.614h-0.022v-0.003
		H241.115z M241.229,189.667c1.104-0.006,2.071-0.559,2.87-1.633l-0.027-5.123c-0.64-0.836-1.467-1.252-2.479-1.246
		c-1.02,0.006-1.797,0.346-2.343,1.063s-0.795,1.729-0.788,3.026c0.011,2.019,0.521,3.229,1.585,3.688
		c0.339,0.146,0.742,0.207,1.165,0.205L241.229,189.667z"/>
	<path display="inline" d="M253.593,190.063l0.005,0.901l-4.931,0.025l-0.005-0.902c-0.001-0.188,0.125-0.354,0.313-0.397
		c0.19-0.043,1.229-0.235,1.229-0.235l-0.04-7.58c0,0-1.038-0.187-1.229-0.226c-0.188-0.043-0.314-0.211-0.318-0.397l-0.006-0.881
		l3.407-0.021l0.048,9.092c0,0,1.021,0.185,1.208,0.226C253.464,189.706,253.592,189.874,253.593,190.063z M249.844,177.526
		c-0.085-0.168-0.108-0.336-0.109-0.504s0.021-0.355,0.104-0.523c0.084-0.17,0.168-0.313,0.294-0.441
		c0.126-0.125,0.252-0.213,0.421-0.297c0.169-0.086,0.338-0.105,0.507-0.105c0.169-0.002,0.339,0.02,0.508,0.104
		c0.17,0.082,0.3,0.166,0.429,0.291c0.127,0.125,0.213,0.271,0.298,0.438c0.086,0.17,0.129,0.357,0.13,0.525
		s-0.04,0.336-0.125,0.504c-0.083,0.17-0.167,0.295-0.294,0.422c-0.126,0.127-0.253,0.211-0.422,0.295
		c-0.168,0.086-0.338,0.107-0.508,0.107c-0.172,0.002-0.341-0.021-0.511-0.104c-0.17-0.084-0.297-0.168-0.425-0.291
		C250.015,177.817,249.929,177.692,249.844,177.526z"/>
	<path display="inline" d="M258.101,181.829c1.052-1.141,2.234-1.713,3.546-1.721c1.146-0.008,2.034,0.348,2.673,1.1
		c0.601,0.711,0.919,1.695,0.93,2.914l0.024,5.229c0.682,0.123,1.08,0.203,1.207,0.243c0.212,0.041,0.34,0.189,0.341,0.398
		l0.008,0.901l-3.433,0.019l-0.036-6.761c-0.009-1.68-0.754-2.562-2.257-2.549c-1.058,0.004-2.025,0.515-2.912,1.506l0.033,6.3
		c0.042,0,0.466,0.082,1.229,0.245c0.211,0.039,0.314,0.187,0.315,0.396l0.005,0.884l-4.931,0.024l-0.005-0.881
		c-0.001-0.211,0.083-0.359,0.294-0.4l1.226-0.237l-0.037-7.578c-0.681-0.123-1.104-0.204-1.229-0.243
		c-0.211-0.043-0.297-0.189-0.298-0.398l-0.005-0.881l1.521-0.008l1.104-0.008c0.254-0.003,0.424,0.122,0.51,0.375l0.175,1.153
		L258.101,181.829L258.101,181.829L258.101,181.829z"/>
	<path display="inline" d="M272.147,180.099c0.465-0.005,0.893,0.034,1.292,0.139c0.402,0.104,0.767,0.248,1.104,0.457l2.92-0.019
		l0.003,0.693c0.001,0.229-0.146,0.379-0.442,0.44l-1.206,0.174c0.261,0.464,0.348,0.968,0.351,1.513
		c0.003,0.504-0.079,0.983-0.289,1.405c-0.21,0.423-0.461,0.779-0.82,1.076c-0.357,0.295-0.78,0.549-1.266,0.724
		c-0.486,0.17-1.019,0.231-1.607,0.235c-0.508,0.002-0.974-0.058-1.419-0.183c-0.211,0.127-0.379,0.297-0.506,0.466
		c-0.126,0.17-0.167,0.295-0.167,0.463c0.001,0.252,0.087,0.438,0.299,0.565c0.212,0.123,0.488,0.229,0.827,0.269
		c0.338,0.041,0.741,0.08,1.165,0.078c0.423-0.003,0.868,0.036,1.313,0.075c0.444,0.041,0.893,0.06,1.313,0.142
		s0.826,0.205,1.166,0.371c0.339,0.166,0.616,0.438,0.829,0.729c0.213,0.293,0.3,0.672,0.303,1.176
		c0.002,0.461-0.101,0.925-0.332,1.345c-0.229,0.422-0.588,0.805-1.009,1.144c-0.422,0.338-0.928,0.592-1.563,0.805
		c-0.633,0.216-1.329,0.304-2.11,0.308c-0.783,0.004-1.482-0.056-2.076-0.222c-0.594-0.164-1.082-0.37-1.464-0.62
		s-0.684-0.563-0.872-0.896c-0.192-0.336-0.3-0.672-0.303-1.049c-0.003-0.523,0.165-0.967,0.502-1.35
		c0.337-0.381,0.8-0.678,1.392-0.891c-0.297-0.123-0.552-0.332-0.723-0.563c-0.171-0.229-0.278-0.563-0.28-0.94
		c-0.001-0.171,0.041-0.298,0.082-0.466s0.125-0.336,0.251-0.504c0.126-0.17,0.273-0.315,0.441-0.465
		c0.168-0.146,0.38-0.257,0.591-0.384c-0.53-0.291-0.956-0.688-1.256-1.168c-0.302-0.479-0.449-1.049-0.452-1.696
		c-0.003-0.504,0.079-0.988,0.289-1.408c0.21-0.422,0.479-0.778,0.841-1.075c0.355-0.295,0.801-0.527,1.309-0.699
		c0.508-0.17,1.036-0.235,1.628-0.24L272.147,180.099z M275.573,191.479c-0.001-0.252-0.063-0.461-0.215-0.629
		c-0.146-0.166-0.357-0.291-0.612-0.373c-0.258-0.084-0.529-0.146-0.869-0.188c-0.339-0.039-0.682-0.08-1.063-0.101
		s-0.737-0.019-1.123-0.035c-0.381-0.021-0.737-0.079-1.08-0.118c-0.397,0.188-0.734,0.424-0.987,0.694
		c-0.253,0.274-0.378,0.61-0.376,0.988c0.001,0.252,0.063,0.463,0.191,0.672c0.128,0.209,0.319,0.377,0.574,0.521
		c0.255,0.146,0.573,0.271,0.954,0.354c0.382,0.082,0.848,0.123,1.354,0.119c0.509-0.004,0.95-0.068,1.354-0.154
		s0.74-0.232,1.014-0.4c0.274-0.17,0.485-0.361,0.635-0.596c0.146-0.229,0.229-0.463,0.229-0.756h0.021V191.479z M272.198,185.743
		c0.385-0.002,0.724-0.066,1.02-0.174c0.295-0.105,0.527-0.256,0.738-0.443c0.21-0.188,0.354-0.439,0.438-0.693
		c0.083-0.254,0.146-0.549,0.146-0.861c-0.003-0.648-0.222-1.174-0.622-1.549c-0.404-0.377-0.979-0.563-1.738-0.563
		c-0.762,0.006-1.333,0.197-1.732,0.578c-0.396,0.379-0.588,0.902-0.584,1.555c0.001,0.316,0.067,0.609,0.178,0.861
		c0.104,0.252,0.232,0.479,0.444,0.67c0.213,0.188,0.446,0.332,0.743,0.438c0.297,0.104,0.594,0.146,0.979,0.144v0.041H272.2
		L272.198,185.743L272.198,185.743z"/>
	<path display="inline" d="M285.284,190.25c-0.472-0.459-0.687-1.129-0.688-2.012l-0.035-6.511l-1.291,0.006
		c-0.127,0.005-0.211-0.021-0.297-0.08c-0.084-0.063-0.104-0.188-0.104-0.313l-0.008-0.733l1.759-0.237l0.402-3.302
		c-0.001-0.104,0.041-0.188,0.125-0.252s0.169-0.084,0.296-0.086l0.952-0.004l0.021,3.651l3.065-0.021l0.011,1.365l-3.069,0.019
		l0.034,6.383c0.002,0.463,0.106,0.799,0.319,1.006c0.216,0.211,0.53,0.313,0.869,0.313c0.211-0.002,0.381-0.045,0.528-0.086
		c0.147-0.043,0.275-0.104,0.38-0.172c0.105-0.063,0.168-0.125,0.253-0.168c0.084-0.043,0.168-0.086,0.211-0.086
		c0.085,0,0.169,0.041,0.254,0.168l0.559,0.879c-0.337,0.295-0.72,0.549-1.185,0.72c-0.465,0.172-0.93,0.258-1.417,0.262
		C286.388,190.959,285.752,190.711,285.284,190.25z"/>
	<path display="inline" d="M297.844,179.938c1.143-0.006,2.034,0.349,2.672,1.078c0.618,0.711,0.938,1.717,0.947,2.937l0.024,5.229
		c0.682,0.117,1.081,0.199,1.208,0.242c0.212,0.039,0.318,0.188,0.32,0.396l0.004,0.883l-3.407,0.02l-0.036-6.762
		c-0.009-1.68-0.772-2.537-2.274-2.527c-1.058,0.006-1.987,0.518-2.87,1.506l0.033,6.3l0.254,0.041
		c0.551,0.104,0.847,0.163,0.932,0.187c0.212,0.039,0.34,0.188,0.345,0.396l0.005,0.882l-4.953,0.026l-0.005-0.886
		c-0.001-0.209,0.125-0.354,0.337-0.397l1.184-0.235l-0.063-12.41c-0.809-0.12-1.271-0.2-1.398-0.243
		c-0.212-0.039-0.34-0.188-0.341-0.396l-0.004-0.883l3.641-0.021l0.033,6.257C295.434,180.497,296.553,179.944,297.844,179.938z"/>
	<path display="inline" d="M311.2,180.245c0.64,0.25,1.188,0.625,1.639,1.084c0.443,0.459,0.789,1.045,1.021,1.717
		c0.237,0.67,0.368,1.428,0.372,2.268s-0.119,1.598-0.348,2.271c-0.229,0.672-0.565,1.262-1.007,1.728
		c-0.442,0.465-0.99,0.849-1.624,1.103c-0.637,0.256-1.332,0.385-2.115,0.392c-0.783,0.004-1.482-0.117-2.118-0.367
		c-0.636-0.248-1.188-0.623-1.635-1.082c-0.447-0.461-0.789-1.047-1.046-1.717c-0.257-0.673-0.35-1.429-0.354-2.269
		c-0.004-0.84,0.076-1.599,0.327-2.271c0.25-0.675,0.586-1.265,1.028-1.729c0.439-0.463,0.989-0.846,1.624-1.102
		c0.633-0.254,1.331-0.387,2.112-0.391C309.865,179.874,310.567,179.997,311.2,180.245z M311.5,188.308
		c0.504-0.718,0.771-1.705,0.768-2.966c-0.006-1.26-0.287-2.243-0.799-2.957c-0.516-0.711-1.318-1.043-2.376-1.034
		c-0.55,0.002-1.019,0.088-1.396,0.258s-0.717,0.468-0.97,0.806c-0.252,0.338-0.461,0.758-0.585,1.264
		c-0.125,0.505-0.206,1.093-0.203,1.724s0.091,1.177,0.221,1.681c0.129,0.504,0.347,0.922,0.603,1.258
		c0.256,0.334,0.596,0.584,0.978,0.75s0.852,0.289,1.398,0.287C310.193,189.364,310.992,189.021,311.5,188.308z"/>
	<path display="inline" d="M320.694,189.31c1.062-0.009,2.029-0.517,2.896-1.483l-0.034-6.302c-0.127-0.041-0.53-0.123-1.208-0.243
		c-0.211-0.041-0.318-0.188-0.319-0.398l-0.005-0.901l1.524-0.008l1.884-0.011l0.048,9.113c0.678,0.121,1.08,0.202,1.208,0.243
		c0.212,0.041,0.319,0.166,0.32,0.375l0.005,0.902l-2.646,0.017c-0.254,0.002-0.424-0.146-0.51-0.396l-0.154-1.133
		c-1.01,1.14-2.188,1.711-3.546,1.719c-1.143,0.007-2.034-0.364-2.673-1.098c-0.597-0.711-0.938-1.654-0.947-2.914l-0.024-5.248
		c-0.682-0.123-1.063-0.205-1.188-0.246c-0.212-0.041-0.34-0.188-0.341-0.396l-0.005-0.883l3.429-0.021l0.036,6.76
		c0.004,0.802,0.177,1.447,0.562,1.89c0.385,0.438,0.937,0.646,1.695,0.644L320.694,189.31L320.694,189.31z"/>
	<path display="inline" d="M332.349,179.774c0.465-0.002,0.889,0.037,1.292,0.143c0.402,0.104,0.763,0.248,1.103,0.455l2.92-0.018
		l0.003,0.691c0.005,0.23-0.146,0.379-0.438,0.443l-1.206,0.174c0.256,0.461,0.344,0.965,0.347,1.51
		c0.003,0.504-0.08,0.988-0.289,1.408c-0.21,0.422-0.462,0.779-0.816,1.076c-0.358,0.295-0.78,0.551-1.27,0.721
		c-0.482,0.17-1.015,0.236-1.604,0.238c-0.508,0.004-0.978-0.059-1.419-0.182c-0.211,0.127-0.379,0.297-0.505,0.465
		s-0.169,0.297-0.167,0.465c0.001,0.252,0.087,0.438,0.299,0.563c0.212,0.123,0.484,0.229,0.827,0.27
		c0.338,0.041,0.737,0.08,1.165,0.078c0.424-0.002,0.864,0.037,1.313,0.076c0.444,0.041,0.889,0.061,1.313,0.143
		c0.424,0.082,0.823,0.203,1.165,0.369c0.341,0.168,0.613,0.438,0.828,0.729c0.216,0.291,0.303,0.671,0.306,1.176
		c0.002,0.463-0.104,0.926-0.332,1.348c-0.231,0.42-0.588,0.801-1.011,1.139c-0.424,0.338-0.932,0.596-1.563,0.809
		c-0.634,0.213-1.332,0.302-2.115,0.307c-0.781,0.004-1.479-0.057-2.074-0.221c-0.595-0.166-1.081-0.373-1.465-0.623
		c-0.382-0.25-0.68-0.563-0.872-0.896c-0.19-0.334-0.301-0.67-0.303-1.049c-0.003-0.521,0.164-0.969,0.5-1.348
		c0.337-0.379,0.801-0.676,1.396-0.891c-0.3-0.125-0.556-0.334-0.727-0.563c-0.17-0.229-0.275-0.565-0.278-0.942
		c-0.001-0.168,0.04-0.295,0.081-0.463c0.04-0.168,0.125-0.336,0.252-0.504c0.127-0.17,0.272-0.318,0.44-0.466
		c0.168-0.148,0.38-0.254,0.59-0.381c-0.528-0.291-0.956-0.688-1.254-1.17c-0.299-0.481-0.45-1.047-0.454-1.696
		c-0.002-0.505,0.079-0.988,0.289-1.408c0.209-0.422,0.482-0.779,0.841-1.076c0.358-0.295,0.805-0.526,1.313-0.698
		c0.508-0.173,1.036-0.235,1.628-0.24L332.349,179.774z M335.774,191.159c-0.001-0.252-0.066-0.461-0.215-0.629
		c-0.149-0.166-0.361-0.293-0.616-0.375c-0.254-0.082-0.53-0.146-0.869-0.188c-0.339-0.037-0.678-0.078-1.059-0.1
		c-0.381-0.02-0.741-0.018-1.122-0.035c-0.381-0.02-0.741-0.08-1.08-0.121c-0.401,0.189-0.738,0.426-0.991,0.697
		c-0.252,0.273-0.377,0.611-0.375,0.988c0.001,0.252,0.066,0.463,0.194,0.672s0.319,0.377,0.575,0.521
		c0.254,0.146,0.569,0.271,0.954,0.354c0.381,0.08,0.848,0.119,1.354,0.117c0.508-0.002,0.952-0.066,1.354-0.152
		c0.398-0.086,0.736-0.234,1.014-0.404c0.274-0.17,0.485-0.359,0.631-0.592c0.147-0.23,0.23-0.463,0.229-0.756L335.774,191.159
		L335.774,191.159z M332.4,185.424c0.381-0.002,0.719-0.065,1.015-0.174c0.3-0.104,0.528-0.254,0.739-0.442
		c0.21-0.188,0.357-0.44,0.441-0.695c0.083-0.252,0.145-0.547,0.143-0.86c-0.003-0.649-0.218-1.176-0.622-1.549
		c-0.4-0.377-0.977-0.563-1.734-0.562c-0.765,0.004-1.333,0.194-1.732,0.575c-0.398,0.382-0.588,0.906-0.584,1.558
		c0.002,0.313,0.067,0.606,0.174,0.858c0.107,0.252,0.235,0.482,0.448,0.67c0.212,0.188,0.446,0.335,0.743,0.438
		s0.593,0.145,0.974,0.143L332.4,185.424z"/>
	<path display="inline" d="M345.812,179.685c1.143-0.007,2.034,0.349,2.673,1.078c0.617,0.711,0.94,1.717,0.946,2.937l0.028,5.229
		c0.678,0.121,1.077,0.203,1.208,0.246c0.211,0.039,0.314,0.187,0.315,0.396l0.005,0.886l-3.404,0.019l-0.036-6.761
		c-0.013-1.681-0.775-2.537-2.278-2.528c-1.058,0.006-1.987,0.517-2.871,1.508l0.034,6.3l0.254,0.038
		c0.551,0.104,0.848,0.164,0.933,0.187c0.212,0.041,0.343,0.188,0.345,0.396l0.004,0.883l-4.953,0.025l-0.004-0.883
		c-0.001-0.211,0.125-0.356,0.336-0.399l1.184-0.235l-0.063-12.408c-0.809-0.119-1.271-0.201-1.398-0.242
		c-0.211-0.041-0.339-0.188-0.34-0.396l-0.005-0.883l3.64-0.021l0.033,6.258C343.402,180.243,344.521,179.688,345.812,179.685z"/>
	<path display="inline" d="M354.161,189.885c-0.468-0.459-0.683-1.129-0.688-2.012l-0.035-6.508l-1.291,0.006
		c-0.127,0-0.211-0.021-0.296-0.082c-0.085-0.063-0.105-0.188-0.105-0.313l-0.006-0.731l1.757-0.24l0.404-3.299
		c-0.001-0.104,0.041-0.188,0.125-0.254c0.084-0.063,0.169-0.084,0.296-0.084l0.953-0.007l0.021,3.649l3.064-0.016l0.007,1.362
		l-3.065,0.019l0.034,6.383c0.002,0.464,0.105,0.8,0.319,1.009c0.212,0.209,0.531,0.313,0.869,0.312
		c0.212,0,0.381-0.043,0.529-0.086c0.146-0.046,0.271-0.105,0.38-0.173c0.105-0.063,0.169-0.127,0.253-0.168
		c0.084-0.043,0.169-0.086,0.211-0.086c0.084,0,0.169,0.041,0.255,0.166l0.559,0.879c-0.339,0.298-0.721,0.552-1.186,0.724
		c-0.464,0.17-0.93,0.256-1.417,0.258C355.269,190.594,354.633,190.344,354.161,189.885z"/>
	<path display="inline" d="M365.439,176.558c-1.438,0.008-2.155,0.812-2.146,2.426l0.005,0.985l3.09-0.018l0.007,1.344l-3.048,0.019
		l0.04,7.539c0.847,0.119,1.313,0.2,1.419,0.224c0.212,0.041,0.314,0.188,0.32,0.396l0.005,0.902l-5.249,0.027l-0.005-0.902
		c-0.001-0.209,0.104-0.355,0.313-0.398l1.313-0.234l-0.04-7.496l-1.188-0.143c-0.339-0.082-0.509-0.229-0.51-0.479l-0.004-0.756
		l1.688-0.012l-0.005-1.025c-0.006-1.221,0.31-2.166,0.979-2.84c0.649-0.678,1.541-0.996,2.683-1.004
		c0.466-0.002,0.91,0.078,1.334,0.203l-0.038,0.943c0.001,0.125-0.063,0.209-0.188,0.253c-0.127,0.044-0.275,0.046-0.487,0.046
		l-0.316,0.002L365.439,176.558L365.439,176.558z"/>
	<path display="inline" d="M373.038,189.028c1.063-0.006,2.03-0.516,2.896-1.484l-0.033-6.297c-0.127-0.043-0.53-0.125-1.208-0.246
		c-0.212-0.041-0.314-0.188-0.319-0.396l-0.005-0.901l1.524-0.009l1.883-0.012l0.048,9.11c0.682,0.123,1.081,0.205,1.208,0.246
		c0.212,0.041,0.318,0.166,0.32,0.377l0.004,0.901l-2.646,0.015c-0.258,0.002-0.428-0.146-0.514-0.396l-0.15-1.133
		c-1.014,1.139-2.192,1.713-3.551,1.719c-1.143,0.006-2.03-0.365-2.672-1.1c-0.596-0.711-0.938-1.652-0.942-2.913l-0.028-5.247
		c-0.678-0.123-1.06-0.205-1.188-0.246c-0.212-0.041-0.339-0.188-0.34-0.396l-0.005-0.883l3.429-0.021l0.036,6.764
		c0.004,0.799,0.181,1.445,0.563,1.889c0.384,0.439,0.935,0.646,1.696,0.641v0.021L373.038,189.028L373.038,189.028z"/>
	<path display="inline" d="M385.531,189.36l0.005,0.902l-4.949,0.025l-0.009-0.904c-0.001-0.209,0.125-0.354,0.339-0.398
		l1.186-0.234l-0.066-12.408c-0.678-0.119-1.059-0.201-1.186-0.242c-0.212-0.041-0.34-0.168-0.341-0.377l-0.005-0.902l3.429-0.021
		l0.074,13.924c0.678,0.119,1.06,0.201,1.187,0.242C385.404,189.006,385.531,189.151,385.531,189.36z"/>
	<path display="inline" d="M395.641,179.377c1.186-0.006,2.182,0.408,2.949,1.244l-0.023-4.367c-0.72-0.123-1.207-0.203-1.419-0.244
		s-0.318-0.166-0.319-0.377l-0.005-0.924l3.602-0.021l0.07,13.939c0.682,0.123,1.104,0.205,1.229,0.246
		c0.212,0.041,0.297,0.166,0.298,0.377l0.005,0.924l-2.624,0.016c-0.254,0-0.424-0.146-0.51-0.396l-0.176-1.277
		c-1.009,1.225-2.191,1.814-3.589,1.822c-1.271,0.01-2.246-0.447-2.974-1.371c-0.725-0.938-1.109-2.262-1.122-4.021
		c-0.008-1.596,0.408-2.941,1.229-3.953c0.841-1.055,1.979-1.605,3.396-1.613L395.641,179.377L395.641,179.377z M395.755,188.849
		c1.1-0.009,2.067-0.562,2.865-1.636l-0.023-5.123c-0.644-0.836-1.466-1.252-2.483-1.246c-1.016,0.007-1.797,0.347-2.343,1.064
		c-0.547,0.717-0.795,1.727-0.789,3.026c0.011,2.017,0.525,3.229,1.586,3.688c0.339,0.146,0.742,0.205,1.166,0.203L395.755,188.849z
		"/>
	<path display="inline" d="M408.115,189.241l0.005,0.902l-4.931,0.023l-0.005-0.9c-0.001-0.188,0.125-0.355,0.315-0.398
		c0.188-0.043,1.226-0.236,1.226-0.236l-0.04-7.58c0,0-1.038-0.184-1.229-0.225c-0.189-0.041-0.316-0.209-0.317-0.396l-0.005-0.884
		l3.407-0.019l0.048,9.093c0,0,1.017,0.183,1.208,0.224C407.988,188.886,408.115,189.053,408.115,189.241z M404.366,176.708
		c-0.085-0.168-0.104-0.336-0.104-0.504s0.02-0.355,0.103-0.523c0.084-0.172,0.168-0.314,0.295-0.443
		c0.126-0.125,0.252-0.209,0.421-0.295c0.168-0.084,0.342-0.105,0.511-0.107c0.17,0,0.339,0.021,0.509,0.104
		c0.17,0.084,0.298,0.166,0.426,0.291c0.127,0.125,0.213,0.271,0.298,0.438c0.086,0.168,0.129,0.354,0.13,0.522
		s-0.04,0.336-0.125,0.504c-0.083,0.171-0.167,0.296-0.293,0.425c-0.127,0.125-0.253,0.209-0.423,0.295
		c-0.168,0.084-0.337,0.104-0.507,0.106c-0.169,0-0.339-0.021-0.509-0.104c-0.169-0.084-0.296-0.168-0.424-0.291
		C404.537,176.999,404.451,176.874,404.366,176.708z"/>
	<path display="inline" d="M413.485,179.325c0.74-0.006,1.673,0.18,2.797,0.551l0.004,0.734l0.015,1.994l-0.825,0.004
		c-0.212,0.002-0.318-0.082-0.361-0.293c0-0.041-0.046-0.502-0.135-1.383c-0.636-0.146-1.188-0.227-1.652-0.225h-0.021
		c-0.597,0.002-1.078,0.174-1.457,0.471s-0.569,0.611-0.567,0.969c0.002,0.356,0.089,0.631,0.26,0.797
		c0.302,0.334,0.701,0.563,1.231,0.729c0.529,0.164,0.974,0.271,1.313,0.394l1.02,0.373c0.339,0.125,0.639,0.332,0.895,0.541
		c0.597,0.459,0.871,1.065,0.877,1.845c0.008,1.008-0.326,1.827-1.021,2.438c-0.718,0.635-1.688,0.995-2.832,1.004
		c-1.144,0.006-2.328-0.179-3.475-0.552l-0.018-2.77l0.762-0.007c0.171-0.002,0.276,0.082,0.32,0.25
		c0,0.063,0.044,0.507,0.134,1.345c0.597,0.291,1.335,0.414,2.185,0.405c0.698-0.002,1.249-0.19,1.646-0.53
		c0.358-0.316,0.546-0.677,0.543-1.074c-0.002-0.397-0.087-0.688-0.258-0.879c-0.17-0.188-0.382-0.377-0.637-0.502
		c-0.255-0.123-0.553-0.248-0.896-0.33c-0.933-0.289-1.59-0.496-1.971-0.662c-0.382-0.166-0.701-0.373-0.956-0.582
		c-0.595-0.479-0.896-1.129-0.896-1.969c-0.009-0.861,0.329-1.56,1.004-2.146c0.718-0.636,1.688-0.935,3.002-0.938h-0.024v-0.002
		L413.485,179.325L413.485,179.325z"/>
	<path display="inline" d="M423.027,190.213c-1.376,0.009-2.479-0.471-3.353-1.432c-0.915-1.005-1.393-2.347-1.397-4.023
		c-0.009-1.639,0.408-2.92,1.271-3.934c0.9-1.033,2.172-1.546,3.761-1.556c0.803-0.004,1.863,0.242,3.177,0.737l0.015,2.771
		l-0.847,0.008c-0.21,0-0.313-0.082-0.357-0.293c-0.021-0.084-0.048-0.338-0.093-0.801c-0.044-0.461-0.063-0.67-0.063-0.689
		c-0.338-0.104-0.593-0.146-0.767-0.188c-0.423-0.063-0.803-0.078-1.186-0.074c-0.38,0.002-0.783,0.105-1.162,0.275
		c-0.381,0.17-0.718,0.445-0.99,0.781c-0.548,0.719-0.796,1.686-0.789,2.943c0.01,1.26,0.313,2.268,0.862,2.979
		c0.556,0.689,1.297,1.043,2.271,1.037c0.89-0.004,1.672-0.303,2.347-0.895c0.125-0.127,0.271-0.172,0.422-0.172
		c0.148,0,0.254,0.041,0.34,0.166l0.512,0.688C426.113,189.649,424.762,190.204,423.027,190.213z"/>
	<path display="inline" d="M433.409,188.709c1.061-0.006,2.028-0.519,2.894-1.483l-0.033-6.302
		c-0.126-0.041-0.528-0.123-1.206-0.243c-0.213-0.041-0.319-0.188-0.321-0.396l-0.004-0.902l1.522-0.008l1.884-0.012l0.049,9.111
		c0.68,0.121,1.08,0.203,1.208,0.244c0.212,0.041,0.318,0.168,0.319,0.377l0.005,0.902l-2.646,0.014
		c-0.257,0.002-0.426-0.145-0.513-0.396l-0.15-1.134c-1.013,1.14-2.191,1.713-3.55,1.72c-1.142,0.006-2.03-0.365-2.672-1.099
		c-0.597-0.711-0.938-1.653-0.942-2.914l-0.027-5.248c-0.679-0.123-1.063-0.205-1.188-0.245c-0.214-0.041-0.34-0.188-0.342-0.396
		l-0.004-0.883l3.428-0.019l0.035,6.761c0.005,0.799,0.181,1.446,0.563,1.887c0.382,0.438,0.934,0.646,1.692,0.644L433.409,188.709
		L433.409,188.709z"/>
	<path display="inline" d="M445.109,179.157c0.74-0.006,1.673,0.18,2.797,0.551l0.004,0.734l0.015,1.994l-0.825,0.004
		c-0.212,0.002-0.318-0.082-0.361-0.293c0-0.041-0.046-0.502-0.136-1.383c-0.635-0.146-1.188-0.227-1.65-0.225h-0.021
		c-0.593,0.002-1.078,0.174-1.458,0.469c-0.379,0.299-0.568,0.613-0.566,0.971c0.002,0.356,0.088,0.631,0.258,0.797
		c0.304,0.334,0.702,0.563,1.232,0.729c0.529,0.164,0.975,0.271,1.313,0.394l1.021,0.373c0.34,0.125,0.638,0.332,0.894,0.541
		c0.599,0.459,0.872,1.065,0.877,1.845c0.008,1.008-0.326,1.827-1.021,2.44c-0.718,0.633-1.688,0.993-2.832,1.002
		c-1.144,0.006-2.328-0.179-3.475-0.552l-0.018-2.771l0.765-0.004c0.168-0.002,0.272,0.082,0.315,0.25
		c0,0.063,0.046,0.504,0.135,1.344c0.598,0.291,1.335,0.414,2.186,0.406c0.698-0.002,1.247-0.191,1.646-0.531
		c0.356-0.316,0.545-0.676,0.543-1.074s-0.088-0.689-0.259-0.879c-0.17-0.188-0.382-0.377-0.637-0.502
		c-0.254-0.123-0.552-0.248-0.895-0.33c-0.934-0.289-1.59-0.496-1.973-0.662c-0.381-0.166-0.699-0.373-0.954-0.582
		c-0.596-0.479-0.896-1.129-0.896-1.969c-0.007-0.861,0.327-1.559,1.004-2.146c0.718-0.635,1.688-0.934,3.002-0.938h-0.024v-0.002
		h-0.003V179.157z"/>
	<path display="inline" d="M453.784,179.108c0.74-0.004,1.677,0.184,2.8,0.555l0.005,0.732l0.011,1.996l-0.825,0.004
		c-0.213,0-0.317-0.082-0.361-0.293c-0.001-0.041-0.046-0.504-0.136-1.387c-0.635-0.145-1.187-0.225-1.646-0.223h-0.021
		c-0.593,0.004-1.078,0.174-1.459,0.471c-0.378,0.295-0.564,0.611-0.563,0.971c0.002,0.355,0.089,0.629,0.259,0.797
		c0.299,0.334,0.702,0.563,1.229,0.729c0.528,0.166,0.978,0.271,1.313,0.396l1.018,0.371c0.34,0.125,0.641,0.334,0.896,0.541
		c0.596,0.459,0.871,1.064,0.876,1.844c0.006,1.01-0.328,1.83-1.022,2.438c-0.717,0.637-1.688,0.998-2.831,1.004
		c-1.143,0.008-2.327-0.178-3.475-0.549l-0.017-2.771l0.765-0.004c0.169,0,0.271,0.082,0.313,0.25c0,0.063,0.049,0.504,0.139,1.345
		c0.595,0.291,1.336,0.411,2.183,0.407c0.699-0.004,1.247-0.194,1.649-0.532c0.354-0.316,0.545-0.677,0.543-1.074
		c-0.002-0.396-0.09-0.688-0.262-0.879c-0.171-0.188-0.383-0.377-0.638-0.502c-0.254-0.123-0.553-0.248-0.891-0.33
		c-0.938-0.289-1.59-0.496-1.978-0.662c-0.381-0.166-0.694-0.375-0.953-0.582c-0.596-0.479-0.896-1.129-0.897-1.969
		c-0.005-0.861,0.331-1.558,1.005-2.148c0.718-0.633,1.688-0.932,3.001-0.938h-0.022v-0.005h-0.005v-0.002H453.784z"/>
	<path display="inline" d="M463.219,188.95l0.005,0.9l-4.933,0.025l-0.009-0.902c-0.001-0.188,0.126-0.355,0.317-0.398
		c0.188-0.043,1.226-0.236,1.226-0.236l-0.041-7.58c0,0-1.039-0.184-1.228-0.225c-0.191-0.041-0.32-0.209-0.321-0.396l-0.005-0.884
		l3.408-0.019l0.049,9.093c0,0,1.017,0.185,1.208,0.226S463.218,188.76,463.219,188.95z M459.471,176.415
		c-0.086-0.168-0.108-0.336-0.109-0.504s0.021-0.354,0.104-0.525c0.083-0.168,0.167-0.313,0.293-0.439
		c0.127-0.127,0.253-0.211,0.421-0.297c0.17-0.084,0.339-0.105,0.509-0.107c0.169,0,0.338,0.021,0.508,0.104
		c0.17,0.084,0.298,0.166,0.425,0.291c0.129,0.127,0.218,0.271,0.304,0.438c0.085,0.168,0.128,0.354,0.129,0.522
		s-0.04,0.336-0.123,0.506c-0.084,0.169-0.169,0.294-0.296,0.423c-0.125,0.125-0.253,0.211-0.421,0.295
		c-0.173,0.086-0.343,0.106-0.512,0.106c-0.17,0-0.339-0.021-0.509-0.104c-0.17-0.084-0.296-0.166-0.425-0.291
		C459.641,176.706,459.556,176.583,459.471,176.415z"/>
	<path display="inline" d="M471.401,179.396c0.637,0.25,1.188,0.625,1.636,1.084c0.448,0.459,0.789,1.045,1.024,1.717
		c0.236,0.673,0.368,1.427,0.373,2.267c0.004,0.84-0.12,1.599-0.35,2.271c-0.229,0.677-0.563,1.267-1.01,1.729
		c-0.438,0.465-0.985,0.849-1.624,1.103c-0.632,0.256-1.331,0.386-2.111,0.392c-0.783,0.004-1.48-0.117-2.118-0.367
		c-0.635-0.248-1.188-0.623-1.637-1.082c-0.444-0.461-0.785-1.047-1.048-1.717c-0.258-0.672-0.346-1.427-0.35-2.267
		c-0.005-0.84,0.075-1.599,0.326-2.271s0.586-1.263,1.022-1.729c0.443-0.465,0.992-0.848,1.624-1.104
		c0.639-0.254,1.331-0.385,2.114-0.389C470.066,179.022,470.767,179.146,471.401,179.396z M471.698,187.456
		c0.504-0.717,0.774-1.703,0.771-2.963c-0.005-1.262-0.287-2.246-0.803-2.957c-0.512-0.711-1.313-1.043-2.377-1.037
		c-0.549,0.002-1.015,0.088-1.395,0.258c-0.381,0.17-0.718,0.469-0.97,0.807s-0.461,0.758-0.586,1.264
		c-0.124,0.506-0.204,1.094-0.201,1.723c0.003,0.631,0.09,1.178,0.219,1.682c0.131,0.502,0.344,0.922,0.601,1.257
		c0.259,0.334,0.599,0.584,0.979,0.75c0.381,0.165,0.849,0.29,1.396,0.286C470.393,188.515,471.194,188.172,471.698,187.456z"/>
	<path display="inline" d="M478.903,180.657c1.051-1.141,2.233-1.715,3.547-1.723c1.146-0.006,2.033,0.35,2.672,1.102
		c0.6,0.711,0.918,1.695,0.929,2.914l0.023,5.229c0.682,0.12,1.082,0.202,1.208,0.243c0.214,0.041,0.34,0.188,0.342,0.396
		l0.008,0.904l-3.431,0.021l-0.036-6.764c-0.009-1.682-0.756-2.559-2.259-2.551c-1.057,0.006-2.024,0.518-2.911,1.508l0.033,6.299
		c0.041,0,0.465,0.08,1.229,0.244c0.212,0.041,0.313,0.188,0.314,0.396l0.005,0.883l-4.93,0.025l-0.005-0.885
		c-0.001-0.209,0.083-0.355,0.293-0.396l1.227-0.238l-0.036-7.578c-0.681-0.123-1.104-0.205-1.229-0.246
		c-0.21-0.041-0.296-0.188-0.297-0.396l-0.005-0.883l1.521-0.009l1.104-0.006c0.254-0.002,0.425,0.123,0.51,0.375l0.176,1.153
		L478.903,180.657L478.903,180.657z"/>
	<path display="inline" d="M492.99,178.901c0.742-0.004,1.674,0.182,2.797,0.553l0.005,0.734l0.014,1.994l-0.825,0.004
		c-0.211,0.002-0.318-0.082-0.362-0.293c0-0.041-0.044-0.504-0.133-1.385c-0.637-0.145-1.188-0.227-1.654-0.223h-0.02
		c-0.593,0.002-1.08,0.174-1.458,0.469c-0.381,0.297-0.567,0.613-0.565,0.971c0.002,0.356,0.09,0.629,0.26,0.797
		c0.299,0.334,0.697,0.563,1.229,0.729c0.53,0.164,0.979,0.271,1.315,0.394l1.019,0.373c0.339,0.123,0.635,0.332,0.893,0.541
		c0.597,0.459,0.871,1.065,0.88,1.844c0.005,1.009-0.33,1.828-1.024,2.438c-0.716,0.636-1.688,0.996-2.831,1.002
		c-1.144,0.009-2.33-0.178-3.474-0.549l-0.019-2.771l0.766-0.004c0.17-0.002,0.271,0.082,0.314,0.25
		c0.001,0.063,0.044,0.504,0.136,1.345c0.596,0.29,1.339,0.411,2.186,0.407c0.696-0.004,1.247-0.194,1.646-0.532
		c0.356-0.316,0.55-0.677,0.546-1.074c-0.003-0.397-0.089-0.69-0.261-0.879c-0.17-0.188-0.384-0.377-0.639-0.502
		s-0.551-0.248-0.892-0.33c-0.935-0.289-1.594-0.496-1.975-0.662c-0.383-0.166-0.701-0.375-0.956-0.582
		c-0.594-0.479-0.894-1.129-0.896-1.969c-0.004-0.861,0.331-1.558,1.005-2.148c0.715-0.633,1.688-0.932,3-0.938h-0.024v-0.003
		h-0.002V178.901z"/>
</g>
<path fill="#FFFFFF" d="M600.48-45.116c0,0,19.081,69.318-19.982,100.57c0,0,80.071-17.688,107.581-112"/>
<path opacity="0.4" fill="#FFFFFF" enable-background="new    " d="M629,92.569c-0.69,30.133,23.168,55.122,53.298,55.825
	c18.405,0.434,34.879-8.316,45.09-22.039c2.156,0.194,4.633-0.188,6.772-0.738c2.652-0.688,4.695-2.531,5.724-4.824
	c-0.271,0.086-0.527,0.176-0.797,0.246c-2.892,0.746-5.207-0.293-6.98-2.219c3.668-7.125,5.824-15.168,6.023-23.711
	c0.69-30.129-23.16-55.125-53.289-55.828C654.703,38.573,629.707,62.433,629,92.569z"/>
<g enable-background="new    ">
	<path fill="#FFFFFF" d="M38.811,52.969c-1.081,0.563-3.478,1.362-6.532,1.362c-6.862,0-11.326-4.699-11.326-11.655
		c0-7.002,4.793-12.078,12.219-12.078c2.444,0,4.606,0.611,5.734,1.175l-0.94,3.196c-0.987-0.564-2.538-1.081-4.794-1.081
		c-5.216,0-8.036,3.854-8.036,8.601c0,5.264,3.384,8.506,7.896,8.506c2.35,0,3.9-0.61,5.076-1.127L38.811,52.969z"/>
	<path fill="#FFFFFF" d="M63.956,42.253c0,8.413-5.828,12.078-11.327,12.078c-6.156,0-10.903-4.512-10.903-11.702
		c0-7.613,4.982-12.078,11.279-12.078C59.538,30.551,63.956,35.298,63.956,42.253z M45.909,42.488c0,4.981,2.867,8.741,6.909,8.741
		c3.947,0,6.908-3.713,6.908-8.835c0-3.854-1.927-8.742-6.814-8.742S45.909,38.164,45.909,42.488z"/>
	<path fill="#FFFFFF" d="M69.174,37.225c0-2.35-0.047-4.277-0.188-6.156h3.666l0.235,3.76h0.094c1.128-2.162,3.76-4.277,7.52-4.277
		c3.148,0,8.036,1.88,8.036,9.682v13.582h-4.136V40.702c0-3.666-1.363-6.721-5.264-6.721c-2.726,0-4.841,1.927-5.545,4.229
		c-0.188,0.518-0.282,1.223-0.282,1.928v13.676h-4.136V37.225z"/>
	<path fill="#FFFFFF" d="M95.259,37.225c0-2.35-0.047-4.277-0.188-6.156h3.666l0.235,3.76h0.094c1.128-2.162,3.76-4.277,7.52-4.277
		c3.148,0,8.036,1.88,8.036,9.682v13.582h-4.136V40.702c0-3.666-1.363-6.721-5.264-6.721c-2.726,0-4.841,1.927-5.545,4.229
		c-0.188,0.518-0.282,1.223-0.282,1.928v13.676h-4.136V37.225z"/>
	<path fill="#FFFFFF" d="M123.646,43.193c0.094,5.593,3.666,7.896,7.802,7.896c2.961,0,4.747-0.518,6.298-1.175l0.705,2.961
		c-1.457,0.657-3.948,1.456-7.566,1.456c-7.002,0-11.185-4.652-11.185-11.514c0-6.862,4.042-12.267,10.668-12.267
		c7.426,0,9.399,6.533,9.399,10.716c0,0.846-0.094,1.504-0.141,1.927H123.646z M135.771,40.232c0.047-2.632-1.081-6.721-5.734-6.721
		c-4.183,0-6.016,3.854-6.344,6.721H135.771z"/>
	<path fill="#FFFFFF" d="M161.104,52.969c-1.081,0.563-3.478,1.362-6.532,1.362c-6.862,0-11.326-4.699-11.326-11.655
		c0-7.002,4.793-12.078,12.219-12.078c2.444,0,4.606,0.611,5.734,1.175l-0.94,3.196c-0.987-0.564-2.538-1.081-4.794-1.081
		c-5.216,0-8.036,3.854-8.036,8.601c0,5.264,3.384,8.506,7.896,8.506c2.35,0,3.9-0.61,5.076-1.127L161.104,52.969z"/>
	<path fill="#FFFFFF" d="M171.538,25.616v5.452h5.921v3.148h-5.921v12.266c0,2.82,0.799,4.418,3.102,4.418
		c1.128,0,1.786-0.094,2.397-0.281l0.188,3.102c-0.799,0.329-2.068,0.61-3.666,0.61c-1.927,0-3.478-0.657-4.465-1.785
		c-1.175-1.223-1.598-3.243-1.598-5.922V34.217h-3.525v-3.148h3.525v-4.184L171.538,25.616z"/>
</g>
<g enable-background="new    ">
	<path fill="#FFFFFF" d="M43.182,98.653c0,8.413-5.828,12.078-11.326,12.078c-6.157,0-10.903-4.512-10.903-11.702
		c0-7.613,4.981-12.078,11.279-12.078C38.764,86.951,43.182,91.698,43.182,98.653z M25.135,98.889c0,4.981,2.867,8.741,6.908,8.741
		c3.948,0,6.909-3.713,6.909-8.835c0-3.854-1.927-8.742-6.814-8.742S25.135,94.564,25.135,98.889z"/>
	<path fill="#FFFFFF" d="M48.4,94.564c0-2.679-0.047-4.981-0.188-7.096h3.619l0.141,4.464h0.188
		c1.034-3.055,3.525-4.981,6.298-4.981c0.47,0,0.799,0.047,1.175,0.141v3.901c-0.423-0.094-0.846-0.142-1.41-0.142
		c-2.914,0-4.981,2.209-5.545,5.312c-0.094,0.563-0.188,1.222-0.188,1.927v12.125H48.4V94.564z"/>
	<path fill="#FFFFFF" d="M79.513,104.764c0,1.974,0.094,3.9,0.376,5.451h-3.76l-0.329-2.867h-0.141
		c-1.269,1.786-3.713,3.384-6.956,3.384c-4.606,0-6.956-3.242-6.956-6.532c0-5.499,4.888-8.507,13.676-8.459V95.27
		c0-1.88-0.517-5.264-5.169-5.264c-2.115,0-4.324,0.658-5.921,1.692l-0.94-2.726c1.88-1.223,4.606-2.021,7.473-2.021
		c6.956,0,8.647,4.747,8.647,9.306V104.764z M75.518,98.606c-4.512-0.094-9.634,0.705-9.634,5.123c0,2.679,1.786,3.947,3.9,3.947
		c2.961,0,4.841-1.88,5.499-3.807c0.141-0.423,0.235-0.893,0.235-1.315V98.606z"/>
	<path fill="#FFFFFF" d="M86.188,93.625c0-2.35-0.047-4.277-0.188-6.156h3.666l0.235,3.76h0.094c1.128-2.162,3.76-4.277,7.52-4.277
		c3.149,0,8.037,1.88,8.037,9.682v13.582h-4.136V97.103c0-3.666-1.363-6.721-5.264-6.721c-2.726,0-4.84,1.927-5.545,4.229
		c-0.188,0.518-0.282,1.223-0.282,1.928v13.676h-4.136V93.625z"/>
	<path fill="#FFFFFF" d="M116.878,81.076c0.047,1.41-0.987,2.538-2.632,2.538c-1.457,0-2.491-1.128-2.491-2.538
		c0-1.456,1.081-2.584,2.585-2.584C115.891,78.492,116.878,79.62,116.878,81.076z M112.272,110.215V87.469h4.136v22.746H112.272z"/>
	<path fill="#FFFFFF" d="M120.686,107.818l10.292-13.395c0.987-1.222,1.927-2.303,2.961-3.524v-0.095h-12.313v-3.336h17.342
		l-0.047,2.584l-10.151,13.207c-0.939,1.269-1.88,2.396-2.914,3.571v0.094h13.3v3.29h-18.47V107.818z"/>
	<path fill="#FFFFFF" d="M145.361,99.594c0.094,5.593,3.666,7.896,7.801,7.896c2.961,0,4.747-0.518,6.297-1.175l0.705,2.961
		c-1.457,0.657-3.948,1.456-7.566,1.456c-7.002,0-11.186-4.652-11.186-11.514c0-6.862,4.042-12.267,10.668-12.267
		c7.426,0,9.399,6.533,9.399,10.716c0,0.846-0.094,1.504-0.141,1.927H145.361z M157.486,96.633c0.047-2.632-1.081-6.721-5.733-6.721
		c-4.183,0-6.016,3.854-6.345,6.721H157.486z"/>
</g>
<g enable-background="new    ">
	<path fill="#FFFFFF" d="M22.597,150.965c0-2.679-0.047-4.981-0.188-7.096h3.619l0.141,4.464h0.188
		c1.034-3.055,3.525-4.981,6.298-4.981c0.47,0,0.799,0.047,1.175,0.141v3.901c-0.423-0.094-0.846-0.142-1.41-0.142
		c-2.914,0-4.981,2.209-5.545,5.312c-0.094,0.563-0.188,1.222-0.188,1.927v12.125h-4.089V150.965z"/>
	<path fill="#FFFFFF" d="M39.799,155.994c0.094,5.593,3.666,7.896,7.801,7.896c2.961,0,4.747-0.518,6.297-1.175l0.705,2.961
		c-1.457,0.657-3.948,1.456-7.566,1.456c-7.002,0-11.186-4.652-11.186-11.514c0-6.862,4.042-12.267,10.668-12.267
		c7.426,0,9.399,6.533,9.399,10.716c0,0.846-0.094,1.504-0.141,1.927H39.799z M51.924,153.033c0.047-2.632-1.081-6.721-5.733-6.721
		c-4.183,0-6.016,3.854-6.345,6.721H51.924z"/>
	<path fill="#FFFFFF" d="M62.688,143.869l3.008,11.561c0.658,2.538,1.269,4.888,1.692,7.238h0.141
		c0.517-2.304,1.269-4.747,2.021-7.238l3.713-11.561h3.478l3.525,11.373c0.846,2.726,1.504,5.122,2.021,7.426h0.141
		c0.376-2.304,0.987-4.7,1.739-7.379l3.243-11.42h4.088l-7.332,22.746h-3.76l-3.478-10.856c-0.799-2.538-1.457-4.794-2.021-7.473
		h-0.094c-0.563,2.726-1.269,5.076-2.067,7.52l-3.666,10.81h-3.76l-6.861-22.746H62.688z"/>
	<path fill="#FFFFFF" d="M111.426,161.164c0,1.974,0.094,3.9,0.376,5.451h-3.76l-0.329-2.867h-0.141
		c-1.269,1.786-3.713,3.384-6.956,3.384c-4.606,0-6.956-3.242-6.956-6.532c0-5.499,4.888-8.507,13.676-8.459v-0.471
		c0-1.88-0.517-5.264-5.17-5.264c-2.115,0-4.324,0.658-5.922,1.692l-0.939-2.726c1.88-1.223,4.605-2.021,7.472-2.021
		c6.956,0,8.647,4.747,8.647,9.306V161.164z M107.431,155.007c-4.512-0.094-9.634,0.705-9.634,5.123
		c0,2.679,1.786,3.947,3.901,3.947c2.96,0,4.84-1.88,5.499-3.807c0.141-0.423,0.235-0.893,0.235-1.315V155.007z"/>
	<path fill="#FFFFFF" d="M118.1,150.965c0-2.679-0.047-4.981-0.188-7.096h3.619l0.141,4.464h0.188
		c1.034-3.055,3.525-4.981,6.298-4.981c0.47,0,0.799,0.047,1.175,0.141v3.901c-0.423-0.094-0.846-0.142-1.41-0.142
		c-2.914,0-4.981,2.209-5.545,5.312c-0.094,0.563-0.188,1.222-0.188,1.927v12.125H118.1V150.965z"/>
	<path fill="#FFFFFF" d="M152.644,133.247v27.493c0,2.021,0.047,4.324,0.188,5.875h-3.713l-0.188-3.947h-0.094
		c-1.269,2.537-4.042,4.464-7.754,4.464c-5.499,0-9.728-4.652-9.728-11.561c-0.047-7.567,4.652-12.22,10.198-12.22
		c3.478,0,5.828,1.645,6.861,3.478h0.094v-13.582H152.644z M148.509,153.127c0-0.517-0.047-1.222-0.188-1.738
		c-0.611-2.633-2.867-4.794-5.969-4.794c-4.277,0-6.814,3.76-6.814,8.788c0,4.605,2.256,8.412,6.721,8.412
		c2.772,0,5.311-1.832,6.063-4.935c0.141-0.563,0.188-1.128,0.188-1.785V153.127z"/>
</g>
</svg>
