<?xml version="1.0" encoding="utf-8"?>
<!-- Generator: Adobe Illustrator 16.0.0, SVG Export Plug-In . SVG Version: 6.00 Build 0)  -->
<!DOCTYPE svg PUBLIC "-//W3C//DTD SVG 1.1//EN" "http://www.w3.org/Graphics/SVG/1.1/DTD/svg11.dtd">
<svg version="1.1" id="Layer_1" xmlns="http://www.w3.org/2000/svg" xmlns:xlink="http://www.w3.org/1999/xlink" x="0px" y="0px"
	 width="800px" height="133.918px" viewBox="0 0 800 133.918" enable-background="new 0 0 800 133.918" xml:space="preserve">
<rect x="0.478" fill="#005551" width="800" height="135.452"/>
<path opacity="0.4" fill="#FFFFFF" enable-background="new    " d="M682.658,52.989c-0.441,19.258,14.805,35.229,34.063,35.678
	c11.762,0.275,22.291-5.314,28.814-14.086c1.379,0.125,2.961-0.119,4.33-0.471c1.693-0.441,3.002-1.617,3.658-3.084
	c-0.174,0.055-0.338,0.113-0.51,0.158c-1.848,0.477-3.328-0.188-4.461-1.42c2.344-4.553,3.723-9.693,3.848-15.152
	c0.443-19.256-14.801-35.23-34.057-35.682C699.084,18.481,683.11,33.729,682.658,52.989z"/>
<circle opacity="0.2" fill="#FFFFFF" enable-background="new    " cx="614.816" cy="104.68" r="18.441"/>
<circle opacity="0.15" fill="#FFFFFF" enable-background="new    " cx="610.829" cy="3.231" r="54.745"/>
<circle opacity="0.5" fill="#FFFFFF" enable-background="new    " cx="282.344" cy="33.034" r="25.815"/>
<path opacity="0.1" fill="#FFFFFF" enable-background="new    " d="M426.301-26.334c-44.254,0-80.135,35.875-80.135,80.135
	c0,19.922,7.289,38.133,19.326,52.154c-1.564,5.355-5.074,9.564-11.629,10.115c-0.502,0.043-1.002,0.049-1.5,0.057
	c3.07,2.951,7.607,4.641,12.51,4.234c4.258-0.363,9.066-1.229,12.719-2.955c13.496,10.355,30.381,16.525,48.709,16.525
	c44.26,0,80.135-35.877,80.135-80.131C506.436,9.541,470.561-26.334,426.301-26.334z"/>
<line fill="none" x1="279.515" y1="38.952" x2="186.573" y2="65.01"/>
<g opacity="0.15">
	<g>
		<g>
			<g>
				<g>
					<polygon fill="#FFFFFF" points="309.322,46.983 308.642,48.316 304.711,46.336 305.39,45.004 					"/>
					
						<rect x="312.328" y="47.402" transform="matrix(0.4537 -0.8911 0.8911 0.4537 126.7161 306.1556)" fill="#FFFFFF" width="1.496" height="4.638"/>
					
						<rect x="318.48" y="50.574" transform="matrix(0.4546 -0.8907 0.8907 0.4546 126.9864 313.1752)" fill="#FFFFFF" width="1.497" height="4.637"/>
					
						<rect x="324.629" y="53.69" transform="matrix(0.4544 -0.8908 0.8908 0.4544 127.6389 320.4081)" fill="#FFFFFF" width="1.496" height="4.638"/>
					
						<rect x="330.77" y="56.825" transform="matrix(0.454 -0.891 0.891 0.454 128.3132 327.6762)" fill="#FFFFFF" width="1.495" height="4.637"/>
					
						<rect x="336.924" y="59.984" transform="matrix(0.4548 -0.8906 0.8906 0.4548 128.6196 334.7007)" fill="#FFFFFF" width="1.495" height="4.637"/>
				</g>
			</g>
			<g>
				<g>
					<polygon fill="#FFFFFF" points="345.875,65.614 345.56,67.135 341.428,65.031 342.108,63.697 					"/>
				</g>
			</g>
		</g>
	</g>
</g>
<g opacity="0.15">
	<g>
		<g>
			<g>
				<g>
					
						<rect x="634.915" y="111.323" transform="matrix(0.4532 -0.8914 0.8914 0.4532 246.2778 628.7747)" fill="#FFFFFF" width="1.498" height="4.637"/>
					
						<rect x="641.081" y="114.401" transform="matrix(0.454 -0.891 0.891 0.454 246.4504 635.6069)" fill="#FFFFFF" width="1.497" height="4.638"/>
					
						<rect x="647.246" y="117.559" transform="matrix(0.4545 -0.8907 0.8907 0.4545 246.6933 642.5856)" fill="#FFFFFF" width="1.495" height="4.637"/>
					
						<rect x="653.373" y="120.711" transform="matrix(0.4545 -0.8907 0.8907 0.4545 247.2271 649.763)" fill="#FFFFFF" width="1.495" height="4.637"/>
				</g>
			</g>
			<g>
				<g>
					
						<rect x="659.496" y="123.882" transform="matrix(0.454 -0.891 0.891 0.454 248.0573 657.192)" fill="#FFFFFF" width="1.497" height="4.639"/>
					
						<rect x="665.68" y="126.986" transform="matrix(0.4555 -0.8902 0.8902 0.4555 247.73 663.6616)" fill="#FFFFFF" width="1.496" height="4.637"/>
					
						<rect x="671.836" y="130.081" transform="matrix(0.4545 -0.8907 0.8907 0.4545 248.9525 671.3196)" fill="#FFFFFF" width="1.495" height="4.637"/>
					
						<rect x="678.003" y="133.266" transform="matrix(0.4542 -0.8909 0.8909 0.4542 249.6413 678.677)" fill="#FFFFFF" width="1.496" height="4.636"/>
					
						<rect x="684.167" y="136.38" transform="matrix(0.4548 -0.8906 0.8906 0.4548 249.9046 685.6102)" fill="#FFFFFF" width="1.495" height="4.638"/>
					
						<rect x="690.287" y="139.56" transform="matrix(0.454 -0.891 0.891 0.454 250.894 693.1815)" fill="#FFFFFF" width="1.495" height="4.637"/>
					
						<rect x="696.456" y="142.677" transform="matrix(0.454 -0.891 0.891 0.454 251.4857 700.3796)" fill="#FFFFFF" width="1.495" height="4.637"/>
				</g>
			</g>
		</g>
	</g>
</g>
<g opacity="0.15">
	<g>
		<g>
			<g>
				<g>
					
						<rect x="551.392" y="13.129" transform="matrix(0.2972 0.9548 -0.9548 0.2972 402.5465 -516.54)" fill="#FFFFFF" width="1.495" height="4.072"/>
					
						<rect x="545.571" y="14.941" transform="matrix(0.2982 0.9545 -0.9545 0.2982 399.6323 -509.5547)" fill="#FFFFFF" width="1.497" height="4.073"/>
				</g>
			</g>
			<g>
				<g>
					
						<rect x="539.744" y="16.734" transform="matrix(0.2988 0.9543 -0.9543 0.2988 396.9298 -502.6445)" fill="#FFFFFF" width="1.497" height="4.075"/>
					
						<rect x="534.014" y="18.551" transform="matrix(0.298 0.9546 -0.9546 0.298 395.0681 -496.0162)" fill="#FFFFFF" width="1.498" height="4.075"/>
					
						<rect x="528.17" y="20.368" transform="matrix(0.2972 0.9548 -0.9548 0.2972 393.1171 -489.2746)" fill="#FFFFFF" width="1.498" height="4.073"/>
					
						<rect x="522.37" y="22.156" transform="matrix(0.2982 0.9545 -0.9545 0.2982 390.2362 -482.344)" fill="#FFFFFF" width="1.497" height="4.075"/>
					
						<rect x="516.588" y="23.982" transform="matrix(0.2991 0.9542 -0.9542 0.2991 387.4133 -475.411)" fill="#FFFFFF" width="1.495" height="4.077"/>
					
						<rect x="510.793" y="25.789" transform="matrix(0.298 0.9546 -0.9546 0.298 385.6752 -468.7696)" fill="#FFFFFF" width="1.498" height="4.073"/>
					
						<rect x="505.002" y="27.571" transform="matrix(0.2988 0.9543 -0.9543 0.2988 382.9096 -461.8894)" fill="#FFFFFF" width="1.497" height="4.075"/>
				</g>
			</g>
		</g>
	</g>
</g>
<g opacity="0.15">
	<g>
		<g>
			<g>
				<g>
					
						<rect x="749.404" y="30.511" transform="matrix(-0.6112 -0.7915 0.7915 -0.6112 1183.1425 645.6014)" fill="#FFFFFF" width="1.497" height="3.342"/>
					
						<rect x="753.345" y="27.477" transform="matrix(-0.6112 -0.7915 0.7915 -0.6112 1191.9437 643.7963)" fill="#FFFFFF" width="1.495" height="3.341"/>
					
						<rect x="757.313" y="24.392" transform="matrix(-0.6108 -0.7918 0.7918 -0.6108 1200.4097 642.2332)" fill="#FFFFFF" width="1.497" height="3.343"/>
					
						<rect x="761.194" y="21.38" transform="matrix(-0.611 -0.7916 0.7916 -0.611 1209.2438 640.3101)" fill="#FFFFFF" width="1.498" height="3.341"/>
				</g>
			</g>
			<g>
				<g>
					
						<rect x="765.159" y="18.365" transform="matrix(-0.6111 -0.7916 0.7916 -0.6111 1218.0673 638.5548)" fill="#FFFFFF" width="1.496" height="3.342"/>
					
						<rect x="769.071" y="15.309" transform="matrix(-0.6111 -0.7916 0.7916 -0.6111 1226.7889 636.7283)" fill="#FFFFFF" width="1.496" height="3.342"/>
					
						<rect x="772.983" y="12.254" transform="matrix(-0.6106 -0.7919 0.7919 -0.6106 1235.1388 635.1786)" fill="#FFFFFF" width="1.497" height="3.341"/>
					
						<rect x="776.952" y="9.23" transform="matrix(-0.611 -0.7916 0.7916 -0.611 1244.2487 633.2112)" fill="#FFFFFF" width="1.498" height="3.34"/>
					
						<rect x="780.863" y="6.173" transform="matrix(-0.6106 -0.7919 0.7919 -0.6106 1252.6462 631.6265)" fill="#FFFFFF" width="1.497" height="3.342"/>
					
						<rect x="784.877" y="3.173" transform="matrix(-0.6103 -0.7921 0.7921 -0.6103 1261.2881 630.124)" fill="#FFFFFF" width="1.496" height="3.342"/>
					
						<rect x="788.773" y="0.11" transform="matrix(-0.6106 -0.7919 0.7919 -0.6106 1270.187 628.1255)" fill="#FFFFFF" width="1.497" height="3.341"/>
				</g>
			</g>
			<g>
				<g>
					
						<rect x="792.678" y="-2.935" transform="matrix(-0.6113 -0.7914 0.7914 -0.6113 1279.4624 625.8692)" fill="#FFFFFF" width="1.497" height="3.342"/>
					
						<rect x="796.656" y="-5.97" transform="matrix(-0.6111 -0.7916 0.7916 -0.6111 1288.0732 624.282)" fill="#FFFFFF" width="1.496" height="3.343"/>
					
						<rect x="800.589" y="-8.999" transform="matrix(-0.6113 -0.7914 0.7914 -0.6113 1297.0085 622.3594)" fill="#FFFFFF" width="1.497" height="3.341"/>
					
						<rect x="804.544" y="-12.06" transform="matrix(-0.6103 -0.7921 0.7921 -0.6103 1305.0248 621.1716)" fill="#FFFFFF" width="1.496" height="3.341"/>
					
						<rect x="808.477" y="-15.09" transform="matrix(-0.611 -0.7916 0.7916 -0.611 1314.2863 618.9888)" fill="#FFFFFF" width="1.498" height="3.342"/>
					
						<rect x="812.45" y="-18.168" transform="matrix(-0.6103 -0.7921 0.7921 -0.6103 1322.5942 617.5979)" fill="#FFFFFF" width="1.496" height="3.34"/>
					
						<rect x="816.32" y="-21.173" transform="matrix(-0.6108 -0.7918 0.7918 -0.6108 1331.6123 615.4996)" fill="#FFFFFF" width="1.498" height="3.341"/>
				</g>
			</g>
		</g>
	</g>
</g>
<line fill="none" x1="574.492" y1="90.413" x2="644.527" y2="57.493"/>
<line fill="none" x1="645.584" y1="45.172" x2="573.807" y2="-25.332"/>
<g opacity="0.15">
	<g>
		<g>
			<g>
				<g>
					
						<rect x="622.786" y="-95.295" transform="matrix(0.7184 0.6956 -0.6956 0.7184 110.4946 -460.0672)" fill="#FFFFFF" width="1.497" height="3.495"/>
					
						<rect x="619.152" y="-91.488" transform="matrix(0.7186 0.6954 -0.6954 0.7186 112.0387 -456.3568)" fill="#FFFFFF" width="1.498" height="3.494"/>
					
						<rect x="615.503" y="-87.765" transform="matrix(0.7184 0.6956 -0.6956 0.7184 113.6878 -452.8893)" fill="#FFFFFF" width="1.498" height="3.494"/>
					
						<rect x="611.933" y="-84.013" transform="matrix(0.7181 0.6959 -0.6959 0.7181 115.4532 -449.5671)" fill="#FFFFFF" width="1.496" height="3.494"/>
					
						<rect x="608.327" y="-80.313" transform="matrix(0.7183 0.6958 -0.6958 0.7183 116.9305 -445.9075)" fill="#FFFFFF" width="1.497" height="3.493"/>
					
						<rect x="604.672" y="-76.574" transform="matrix(0.7181 0.6959 -0.6959 0.7181 118.5836 -442.4172)" fill="#FFFFFF" width="1.496" height="3.494"/>
					
						<rect x="601.046" y="-72.839" transform="matrix(0.7183 0.6958 -0.6958 0.7183 120.0794 -438.7357)" fill="#FFFFFF" width="1.497" height="3.492"/>
				</g>
			</g>
			<g>
				<g>
					
						<rect x="597.46" y="-69.083" transform="matrix(0.7186 0.6954 -0.6954 0.7186 121.5156 -434.9668)" fill="#FFFFFF" width="1.498" height="3.493"/>
					
						<rect x="593.816" y="-65.359" transform="matrix(0.7181 0.6959 -0.6959 0.7181 123.3277 -431.7008)" fill="#FFFFFF" width="1.496" height="3.494"/>
					
						<rect x="590.242" y="-61.568" transform="matrix(0.718 0.6961 -0.6961 0.718 125.0446 -428.2545)" fill="#FFFFFF" width="1.496" height="3.493"/>
					
						<rect x="586.603" y="-57.867" transform="matrix(0.7184 0.6956 -0.6956 0.7184 126.3402 -424.3604)" fill="#FFFFFF" width="1.497" height="3.492"/>
					
						<rect x="582.951" y="-54.147" transform="matrix(0.7183 0.6958 -0.6958 0.7183 127.9875 -420.8797)" fill="#FFFFFF" width="1.497" height="3.495"/>
					
						<rect x="579.332" y="-50.409" transform="matrix(0.7183 0.6958 -0.6958 0.7183 129.5684 -417.3083)" fill="#FFFFFF" width="1.497" height="3.494"/>
					
						<rect x="575.72" y="-46.632" transform="matrix(0.7184 0.6956 -0.6956 0.7184 131.0969 -413.6339)" fill="#FFFFFF" width="1.498" height="3.493"/>
				</g>
			</g>
			<g>
				<g>
					
						<rect x="572.131" y="-42.866" transform="matrix(0.7181 0.6959 -0.6959 0.7181 132.8682 -410.2694)" fill="#FFFFFF" width="1.496" height="3.493"/>
					
						<rect x="568.467" y="-39.228" transform="matrix(0.7186 0.6954 -0.6954 0.7186 134.1138 -406.3947)" fill="#FFFFFF" width="1.496" height="3.495"/>
				</g>
			</g>
		</g>
	</g>
</g>
<line fill="none" x1="187.404" y1="71.693" x2="334.633" y2="75.297"/>
<circle opacity="0.2" fill="#FFFFFF" enable-background="new    " cx="39.115" cy="108.844" r="52.846"/>
<circle fill="#248784" cx="825.044" cy="321.476" r="26.405"/>
<ellipse fill="#B5C4C2" cx="975.546" cy="72.194" rx="84.354" ry="84.696"/>
<g display="none">
	<path display="inline" d="M39.915,181.686c0.636,0.25,1.188,0.625,1.636,1.084c0.447,0.459,0.788,1.045,1.024,1.717
		c0.234,0.671,0.365,1.427,0.369,2.267c0.007,0.84-0.116,1.597-0.348,2.271c-0.229,0.676-0.563,1.266-1.007,1.729
		c-0.443,0.465-0.991,0.846-1.624,1.102s-1.332,0.386-2.114,0.392c-0.783,0.004-1.479-0.119-2.119-0.367
		c-0.636-0.248-1.188-0.623-1.635-1.082c-0.447-0.461-0.789-1.047-1.046-1.717c-0.258-0.672-0.347-1.429-0.351-2.269
		c-0.006-0.84,0.073-1.596,0.324-2.27c0.25-0.674,0.586-1.266,1.027-1.729c0.442-0.465,0.991-0.847,1.624-1.103
		c0.633-0.254,1.332-0.385,2.115-0.39C38.58,181.314,39.279,181.438,39.915,181.686z M40.211,189.747
		c0.504-0.717,0.771-1.705,0.768-2.965c-0.006-1.261-0.287-2.244-0.799-2.955c-0.512-0.713-1.317-1.043-2.375-1.037
		c-0.55,0.002-1.016,0.088-1.396,0.258c-0.383,0.17-0.72,0.468-0.972,0.806s-0.462,0.758-0.586,1.264
		c-0.125,0.504-0.206,1.094-0.202,1.723c0.003,0.631,0.093,1.178,0.223,1.682c0.129,0.502,0.344,0.922,0.6,1.256
		c0.255,0.334,0.596,0.584,0.979,0.75c0.382,0.166,0.848,0.289,1.396,0.287C38.905,190.805,39.708,190.463,40.211,189.747z"/>
	<path display="inline" d="M47.441,183.598c0.774-1.578,1.853-2.383,3.247-2.389c0.55-0.004,1.038,0.119,1.462,0.369l-0.226,1.406
		c-0.042,0.168-0.147,0.272-0.274,0.272c-0.127,0.002-0.296-0.039-0.508-0.102c-0.212-0.063-0.487-0.104-0.868-0.103
		c-1.228,0.006-2.152,0.771-2.737,2.24l0.025,5.248c0.17,0.041,0.572,0.104,1.208,0.227c0.211,0.039,0.318,0.188,0.319,0.396
		l0.005,0.881l-4.932,0.027l-0.005-0.883c-0.004-0.211,0.104-0.357,0.313-0.4l1.205-0.234l-0.04-7.58
		c-0.678-0.123-1.08-0.205-1.208-0.244c-0.212-0.043-0.319-0.188-0.32-0.397l-0.005-0.883l1.524-0.009l1.08-0.006
		c0.211,0,0.314,0.021,0.399,0.104c0.085,0.082,0.13,0.207,0.174,0.396l0.137,1.655h0.021v0.005h0.003V183.598z"/>
	<path display="inline" d="M57.377,181.236c0.465-0.002,0.889,0.035,1.292,0.14c0.399,0.104,0.763,0.248,1.103,0.457l2.921-0.017
		l0.003,0.689c0.001,0.23-0.146,0.381-0.439,0.445l-1.205,0.174c0.256,0.461,0.344,0.963,0.346,1.51
		c0.003,0.506-0.079,0.986-0.289,1.408c-0.21,0.42-0.461,0.777-0.817,1.074c-0.358,0.297-0.78,0.551-1.269,0.721
		c-0.483,0.172-1.014,0.236-1.604,0.24c-0.51,0.002-0.977-0.059-1.419-0.182c-0.211,0.127-0.38,0.295-0.509,0.465
		c-0.126,0.168-0.167,0.294-0.167,0.463c0.002,0.252,0.09,0.439,0.302,0.564s0.484,0.229,0.825,0.27
		c0.341,0.039,0.74,0.078,1.164,0.076c0.427-0.002,0.868,0.037,1.313,0.078c0.445,0.039,0.889,0.059,1.313,0.141
		c0.427,0.082,0.826,0.205,1.166,0.371c0.342,0.166,0.616,0.438,0.829,0.73c0.213,0.291,0.303,0.67,0.306,1.174
		c0.002,0.461-0.104,0.924-0.331,1.346c-0.231,0.422-0.589,0.801-1.013,1.141c-0.421,0.338-0.928,0.594-1.562,0.807
		c-0.634,0.215-1.332,0.301-2.115,0.308c-0.783,0.004-1.479-0.056-2.075-0.222c-0.594-0.164-1.082-0.373-1.464-0.623
		s-0.68-0.563-0.873-0.896c-0.189-0.336-0.3-0.672-0.302-1.049c-0.003-0.523,0.164-0.969,0.501-1.35
		c0.336-0.379,0.801-0.676,1.393-0.89c-0.297-0.125-0.553-0.332-0.723-0.563c-0.17-0.23-0.277-0.565-0.28-0.942
		c-0.001-0.168,0.041-0.295,0.083-0.463c0.041-0.168,0.125-0.336,0.251-0.506c0.126-0.168,0.273-0.316,0.442-0.466
		c0.169-0.146,0.38-0.254,0.591-0.381c-0.529-0.291-0.956-0.688-1.255-1.168c-0.299-0.481-0.45-1.049-0.453-1.696
		c-0.002-0.507,0.079-0.988,0.289-1.41c0.209-0.42,0.482-0.777,0.841-1.074c0.358-0.295,0.804-0.528,1.311-0.698
		c0.507-0.173,1.036-0.238,1.629-0.24L57.377,181.236z M60.803,192.62c-0.001-0.252-0.066-0.463-0.215-0.629
		c-0.149-0.168-0.361-0.293-0.616-0.375c-0.254-0.082-0.529-0.146-0.869-0.187c-0.338-0.039-0.678-0.08-1.059-0.1
		s-0.741-0.018-1.122-0.037c-0.382-0.02-0.741-0.08-1.081-0.119c-0.401,0.189-0.738,0.426-0.991,0.697
		c-0.252,0.273-0.377,0.609-0.375,0.988c0.001,0.252,0.066,0.463,0.194,0.672s0.316,0.375,0.574,0.52
		c0.254,0.146,0.57,0.271,0.952,0.355c0.384,0.082,0.85,0.119,1.355,0.115c0.508-0.002,0.952-0.066,1.354-0.152
		c0.4-0.086,0.739-0.233,1.016-0.404c0.271-0.168,0.482-0.357,0.632-0.59c0.148-0.232,0.23-0.463,0.229-0.758L60.803,192.62
		L60.803,192.62z M57.428,186.883c0.381-0.002,0.719-0.066,1.015-0.174c0.296-0.104,0.527-0.254,0.738-0.443
		c0.21-0.188,0.357-0.44,0.441-0.695c0.084-0.252,0.146-0.547,0.144-0.86c-0.003-0.649-0.218-1.174-0.622-1.549
		c-0.401-0.377-0.977-0.563-1.739-0.56c-0.762,0.004-1.333,0.193-1.729,0.574c-0.4,0.381-0.588,0.906-0.584,1.559
		c0.002,0.314,0.064,0.607,0.174,0.859s0.235,0.48,0.448,0.67c0.213,0.188,0.447,0.334,0.743,0.438
		c0.297,0.104,0.593,0.146,0.974,0.144L57.428,186.883L57.428,186.883z"/>
	<path display="inline" d="M73.302,190.579c0.191,0.041,0.319,0.209,0.32,0.397l0.005,0.9l-1.375,0.006l-0.148,0.002l-0.677,0.006
		c-0.169,0-0.318-0.041-0.445-0.082s-0.17-0.168-0.214-0.334l-0.217-1.01c-0.295,0.254-0.59,0.486-0.843,0.697
		s-0.548,0.381-0.847,0.51c-0.295,0.125-0.591,0.232-0.929,0.318s-0.719,0.109-1.143,0.111c-0.423,0.002-0.783-0.062-1.146-0.187
		c-0.358-0.123-0.7-0.271-0.956-0.498c-0.255-0.229-0.468-0.521-0.639-0.879c-0.171-0.356-0.237-0.772-0.24-1.259
		c-0.002-0.42,0.104-0.84,0.333-1.221c0.23-0.38,0.631-0.76,1.138-1.057c0.509-0.297,1.185-0.573,2.027-0.768
		c0.846-0.191,1.861-0.281,3.089-0.289l-0.004-0.818c-0.004-0.84-0.198-1.469-0.56-1.887c-0.362-0.418-0.896-0.646-1.591-0.643
		c-0.469,0.002-0.85,0.065-1.163,0.192c-0.317,0.127-0.57,0.233-0.805,0.383c-0.229,0.146-0.44,0.254-0.609,0.381
		c-0.169,0.128-0.316,0.171-0.486,0.173c-0.127,0-0.254-0.021-0.339-0.082c-0.085-0.063-0.17-0.168-0.213-0.252l-0.342-0.586
		c0.59-0.57,1.222-0.974,1.896-1.271c0.676-0.297,1.438-0.428,2.283-0.434c0.592-0.002,1.143,0.078,1.609,0.285
		c0.468,0.209,0.85,0.457,1.169,0.793c0.316,0.334,0.554,0.752,0.727,1.256c0.172,0.502,0.238,1.051,0.242,1.639l0.027,5.313
		c0.297,0.063,0.933,0.184,1.061,0.228L73.302,190.579z M70.363,187.15c-0.865,0.005-1.605,0.052-2.197,0.16
		c-0.595,0.105-1.102,0.275-1.479,0.445s-0.675,0.383-0.844,0.637c-0.167,0.252-0.251,0.506-0.25,0.799
		c0.001,0.295,0.063,0.504,0.152,0.714c0.085,0.209,0.213,0.377,0.383,0.502s0.34,0.209,0.552,0.271
		c0.212,0.063,0.445,0.104,0.699,0.103c0.339-0.003,0.614-0.046,0.889-0.109c0.275-0.063,0.528-0.149,0.781-0.276
		c0.254-0.127,0.482-0.297,0.696-0.465c0.21-0.171,0.421-0.382,0.632-0.593L70.363,187.15z"/>
	<path display="inline" d="M78.152,182.784c1.055-1.14,2.234-1.714,3.546-1.72c1.146-0.006,2.034,0.347,2.675,1.099
		c0.597,0.711,0.919,1.696,0.926,2.914l0.028,5.229c0.678,0.123,1.077,0.202,1.208,0.245c0.212,0.041,0.34,0.188,0.341,0.396
		l0.005,0.901l-3.429,0.021l-0.036-6.763c-0.012-1.682-0.754-2.559-2.26-2.549c-1.059,0.006-2.026,0.515-2.91,1.506l0.03,6.3
		c0.042-0.001,0.469,0.081,1.229,0.245c0.211,0.039,0.315,0.187,0.316,0.396l0.008,0.884l-4.934,0.024l-0.005-0.881
		c-0.001-0.212,0.083-0.357,0.294-0.4l1.229-0.235l-0.04-7.58c-0.681-0.123-1.104-0.205-1.229-0.244
		c-0.212-0.043-0.297-0.188-0.298-0.398l-0.005-0.881l1.521-0.008l1.104-0.008c0.254,0,0.424,0.125,0.51,0.375l0.176,1.154V182.784
		L78.152,182.784z"/>
	<path display="inline" d="M92.992,190.915l0.004,0.903l-4.934,0.023l-0.005-0.902c-0.001-0.188,0.125-0.354,0.315-0.397
		c0.188-0.043,1.227-0.237,1.227-0.237l-0.041-7.578c0,0-1.038-0.187-1.229-0.226c-0.19-0.043-0.319-0.209-0.32-0.396l-0.005-0.883
		l3.408-0.021l0.048,9.092c0,0,1.017,0.185,1.208,0.226C92.861,190.559,92.991,190.727,92.992,190.915z M89.242,178.379
		c-0.089-0.168-0.107-0.336-0.108-0.504s0.019-0.355,0.103-0.523c0.083-0.17,0.168-0.313,0.294-0.442
		c0.126-0.125,0.256-0.209,0.425-0.295c0.168-0.087,0.338-0.107,0.507-0.107c0.169-0.002,0.338,0.021,0.508,0.103
		c0.17,0.084,0.297,0.168,0.425,0.291c0.128,0.127,0.213,0.272,0.299,0.44c0.085,0.166,0.129,0.355,0.131,0.523
		c0,0.168-0.04,0.336-0.125,0.506c-0.084,0.168-0.169,0.293-0.295,0.42s-0.253,0.211-0.422,0.295
		c-0.169,0.086-0.338,0.106-0.507,0.106c-0.169,0.002-0.339-0.02-0.508-0.104c-0.17-0.082-0.297-0.166-0.425-0.291
		C89.413,178.672,89.328,178.547,89.242,178.379z"/>
	<path display="inline" d="M102.486,181.122l0.004,0.799c0.004,0.252-0.103,0.504-0.271,0.715l-5.759,7.695l4.762-0.024
		c0.059-0.841,0.12-1.304,0.12-1.388c0.042-0.168,0.146-0.254,0.316-0.254l0.738-0.004l0.02,3.106l-8.169,0.043l-0.004-0.774
		c-0.001-0.211,0.083-0.443,0.25-0.675l5.801-7.735l-4.593,0.022c-0.063,0.775-0.103,1.177-0.102,1.261
		c-0.042,0.17-0.168,0.272-0.337,0.274l-0.741,0.004l-0.016-3.002l1.08-0.006L102.486,181.122z"/>
	<path display="inline" d="M108.868,190.831l0.005,0.901l-4.935,0.025l-0.005-0.902c-0.001-0.188,0.125-0.356,0.316-0.399
		c0.188-0.043,1.226-0.233,1.226-0.233l-0.04-7.58c0,0-1.038-0.187-1.229-0.226c-0.191-0.043-0.319-0.211-0.32-0.397l-0.004-0.884
		l3.407-0.018l0.048,9.092c0,0,1.017,0.185,1.208,0.226C108.737,190.477,108.867,190.643,108.868,190.831z M105.119,178.295
		c-0.086-0.168-0.108-0.336-0.109-0.504s0.019-0.355,0.104-0.523c0.083-0.17,0.167-0.313,0.297-0.442
		c0.126-0.125,0.252-0.209,0.421-0.295c0.169-0.087,0.338-0.107,0.507-0.107c0.169-0.002,0.339,0.021,0.509,0.103
		c0.169,0.084,0.297,0.168,0.425,0.291c0.127,0.127,0.213,0.272,0.299,0.438c0.085,0.168,0.129,0.356,0.131,0.525
		c0.002,0.168-0.04,0.336-0.123,0.504c-0.084,0.17-0.169,0.295-0.296,0.422s-0.253,0.211-0.423,0.295
		c-0.169,0.086-0.337,0.106-0.507,0.106c-0.17,0.002-0.339-0.02-0.509-0.104c-0.169-0.082-0.296-0.166-0.424-0.291
		C105.29,178.588,105.204,178.463,105.119,178.295z"/>
	<path display="inline" d="M113.375,182.598c1.052-1.141,2.231-1.713,3.546-1.721c1.143-0.006,2.034,0.348,2.672,1.1
		c0.597,0.711,0.919,1.695,0.926,2.914l0.028,5.229c0.678,0.123,1.081,0.205,1.208,0.246c0.212,0.041,0.34,0.188,0.341,0.396
		l0.005,0.903l-3.429,0.019l-0.036-6.761c-0.009-1.68-0.754-2.559-2.257-2.551c-1.061,0.006-2.029,0.517-2.913,1.508l0.033,6.3
		c0.042,0,0.466,0.082,1.229,0.243c0.212,0.041,0.319,0.188,0.32,0.396l0.005,0.884l-4.932,0.024l-0.005-0.883
		c-0.004-0.209,0.083-0.356,0.294-0.397l1.226-0.238l-0.04-7.578c-0.678-0.123-1.102-0.205-1.229-0.246
		c-0.214-0.041-0.3-0.188-0.301-0.396l-0.005-0.883l1.524-0.01l1.101-0.006c0.254-0.002,0.424,0.123,0.513,0.375l0.176,1.154
		V182.598z"/>
	<path display="inline" d="M127.421,180.864c0.466-0.003,0.89,0.036,1.292,0.141c0.403,0.104,0.764,0.248,1.103,0.455l2.921-0.017
		l0.006,0.691c0.001,0.23-0.146,0.381-0.442,0.443l-1.206,0.174c0.256,0.461,0.344,0.965,0.347,1.514
		c0.003,0.504-0.08,0.984-0.289,1.404c-0.21,0.422-0.462,0.781-0.817,1.076c-0.358,0.297-0.78,0.551-1.269,0.721
		c-0.483,0.172-1.015,0.236-1.604,0.238c-0.508,0.004-0.977-0.057-1.419-0.182c-0.211,0.127-0.379,0.297-0.505,0.467
		c-0.126,0.168-0.169,0.295-0.167,0.463c0.001,0.252,0.087,0.438,0.299,0.564c0.212,0.123,0.485,0.229,0.827,0.27
		c0.339,0.039,0.738,0.078,1.165,0.076c0.424-0.002,0.865,0.037,1.313,0.076c0.444,0.041,0.889,0.061,1.313,0.143
		c0.424,0.082,0.824,0.203,1.166,0.371c0.34,0.166,0.613,0.438,0.828,0.729c0.215,0.293,0.302,0.67,0.304,1.174
		c0.002,0.463-0.104,0.927-0.331,1.349c-0.231,0.422-0.589,0.801-1.01,1.139c-0.424,0.339-0.931,0.595-1.563,0.808
		c-0.634,0.215-1.332,0.303-2.115,0.307c-0.781,0.004-1.479-0.057-2.074-0.221c-0.594-0.165-1.08-0.372-1.464-0.622
		c-0.383-0.25-0.68-0.563-0.873-0.897c-0.19-0.334-0.3-0.67-0.302-1.049c-0.003-0.523,0.164-0.967,0.5-1.347s0.801-0.677,1.395-0.89
		c-0.299-0.125-0.555-0.334-0.726-0.563c-0.17-0.229-0.275-0.566-0.277-0.943c-0.003-0.168,0.04-0.295,0.08-0.463
		c0.041-0.168,0.125-0.336,0.252-0.504c0.127-0.17,0.272-0.316,0.44-0.465c0.169-0.148,0.38-0.255,0.591-0.383
		c-0.528-0.29-0.956-0.688-1.255-1.17c-0.299-0.481-0.45-1.047-0.454-1.695c-0.002-0.504,0.08-0.988,0.289-1.408
		c0.209-0.422,0.482-0.779,0.841-1.076c0.358-0.295,0.804-0.527,1.311-0.699c0.508-0.17,1.036-0.235,1.629-0.239L127.421,180.864z
		 M130.847,192.247c-0.001-0.252-0.066-0.461-0.215-0.629c-0.149-0.166-0.361-0.291-0.616-0.375
		c-0.254-0.082-0.53-0.144-0.869-0.185c-0.339-0.039-0.678-0.08-1.059-0.102c-0.381-0.02-0.741-0.018-1.122-0.035
		c-0.381-0.021-0.741-0.08-1.081-0.121c-0.401,0.191-0.738,0.426-0.991,0.697c-0.252,0.275-0.377,0.611-0.375,0.99
		c0.001,0.252,0.066,0.461,0.194,0.67c0.128,0.211,0.319,0.377,0.574,0.521c0.255,0.146,0.57,0.271,0.954,0.354
		c0.381,0.082,0.848,0.119,1.354,0.117c0.508-0.002,0.952-0.068,1.354-0.154c0.399-0.086,0.737-0.232,1.014-0.402
		c0.271-0.17,0.483-0.359,0.631-0.592c0.147-0.23,0.23-0.463,0.229-0.758L130.847,192.247L130.847,192.247z M127.473,186.512
		c0.381-0.002,0.719-0.066,1.015-0.174c0.299-0.105,0.528-0.254,0.738-0.443c0.211-0.188,0.357-0.44,0.441-0.694
		c0.083-0.252,0.146-0.548,0.144-0.861c-0.003-0.649-0.218-1.174-0.622-1.549c-0.401-0.377-0.977-0.563-1.735-0.562
		c-0.765,0.004-1.333,0.195-1.733,0.578c-0.4,0.379-0.587,0.904-0.584,1.555c0.002,0.314,0.067,0.607,0.174,0.861
		c0.107,0.25,0.235,0.48,0.448,0.668c0.212,0.188,0.446,0.334,0.743,0.438s0.593,0.146,0.974,0.144L127.473,186.512L127.473,186.512
		z"/>
	<path display="inline" d="M147.898,190.184c0.191,0.041,0.319,0.207,0.32,0.396l0.004,0.9l-1.376,0.01h-0.148l-0.677,0.004
		c-0.169,0-0.314-0.041-0.442-0.082c-0.127-0.041-0.173-0.166-0.216-0.334l-0.217-1.01c-0.295,0.256-0.59,0.486-0.843,0.699
		c-0.253,0.209-0.548,0.379-0.844,0.508c-0.296,0.127-0.591,0.233-0.933,0.317c-0.338,0.087-0.719,0.109-1.142,0.113
		c-0.423,0.002-0.784-0.062-1.144-0.187c-0.36-0.123-0.7-0.27-0.955-0.498c-0.256-0.228-0.472-0.521-0.642-0.879
		c-0.171-0.354-0.234-0.772-0.237-1.258c-0.004-0.422,0.102-0.842,0.331-1.221s0.632-0.76,1.138-1.059
		c0.506-0.297,1.182-0.572,2.025-0.767c0.849-0.192,1.861-0.282,3.091-0.288l-0.007-0.82c-0.004-0.84-0.195-1.469-0.56-1.887
		s-0.893-0.646-1.591-0.642c-0.466,0.002-0.847,0.063-1.163,0.192c-0.317,0.129-0.57,0.232-0.802,0.383
		c-0.232,0.146-0.444,0.255-0.612,0.382s-0.316,0.17-0.485,0.17c-0.127,0.002-0.255-0.021-0.339-0.082
		c-0.085-0.063-0.17-0.166-0.213-0.25l-0.342-0.586c0.589-0.569,1.222-0.976,1.896-1.271c0.679-0.298,1.438-0.429,2.283-0.435
		c0.594-0.002,1.146,0.078,1.61,0.287c0.467,0.207,0.849,0.457,1.168,0.791c0.318,0.334,0.554,0.752,0.726,1.256
		c0.172,0.502,0.238,1.049,0.241,1.637l0.028,5.313c0.297,0.063,0.932,0.186,1.06,0.227L147.898,190.184z M144.959,186.754
		c-0.868,0.006-1.608,0.053-2.2,0.16c-0.592,0.105-1.099,0.275-1.479,0.445c-0.38,0.172-0.675,0.385-0.843,0.637
		c-0.168,0.254-0.251,0.506-0.25,0.799c0.001,0.295,0.066,0.504,0.152,0.713c0.086,0.211,0.214,0.377,0.383,0.502
		c0.17,0.125,0.34,0.209,0.552,0.271c0.212,0.062,0.445,0.104,0.699,0.102c0.338-0.002,0.614-0.045,0.888-0.107
		c0.275-0.063,0.528-0.149,0.782-0.276c0.253-0.127,0.485-0.297,0.696-0.467c0.211-0.171,0.421-0.382,0.632-0.593L144.959,186.754z"
		/>
	<path display="inline" d="M152.748,182.389c1.052-1.141,2.231-1.713,3.546-1.721c1.143-0.006,2.034,0.348,2.673,1.1
		c0.596,0.711,0.919,1.695,0.925,2.914l0.028,5.229c0.678,0.123,1.081,0.205,1.208,0.246c0.212,0.041,0.34,0.188,0.341,0.395
		l0.004,0.904l-3.428,0.019l-0.036-6.761c-0.009-1.68-0.754-2.559-2.257-2.551c-1.061,0.006-2.029,0.517-2.912,1.508l0.033,6.3
		c0.042,0,0.466,0.081,1.229,0.243c0.211,0.041,0.318,0.188,0.319,0.396l0.005,0.884l-4.932,0.024l-0.008-0.883
		c-0.001-0.211,0.083-0.357,0.297-0.397l1.226-0.238l-0.04-7.578c-0.678-0.123-1.102-0.205-1.229-0.246
		c-0.214-0.041-0.3-0.188-0.301-0.396l-0.005-0.883l1.524-0.01l1.101-0.006c0.254-0.002,0.424,0.123,0.51,0.375l0.179,1.154V182.389
		L152.748,182.389z"/>
	<path display="inline" d="M167.048,180.59c1.185-0.006,2.182,0.408,2.949,1.244l-0.023-4.367c-0.721-0.121-1.208-0.201-1.42-0.242
		s-0.318-0.168-0.319-0.377l-0.005-0.926l3.601-0.02l0.071,13.94c0.681,0.121,1.104,0.203,1.229,0.244
		c0.211,0.041,0.297,0.166,0.298,0.377l0.005,0.925l-2.625,0.016c-0.254,0.002-0.424-0.146-0.51-0.396l-0.176-1.279
		c-1.013,1.226-2.191,1.816-3.588,1.826c-1.271,0.006-2.246-0.451-2.973-1.371c-0.725-0.938-1.11-2.262-1.122-4.022
		c-0.008-1.599,0.408-2.94,1.229-3.955c0.841-1.056,1.979-1.604,3.396-1.613L167.048,180.59L167.048,180.59z M167.162,190.061
		c1.101-0.006,2.068-0.559,2.867-1.633l-0.024-5.123c-0.643-0.838-1.467-1.252-2.483-1.246c-1.016,0.006-1.797,0.347-2.343,1.063
		s-0.795,1.728-0.788,3.026c0.011,2.017,0.525,3.23,1.585,3.688c0.34,0.146,0.742,0.207,1.165,0.205L167.162,190.061z"/>
	<path display="inline" d="M182.492,182.881c0.772-1.578,1.85-2.383,3.244-2.391c0.553-0.004,1.038,0.119,1.465,0.369l-0.229,1.408
		c-0.041,0.168-0.146,0.272-0.271,0.272c-0.126,0.002-0.299-0.039-0.511-0.104c-0.212-0.063-0.484-0.104-0.866-0.1
		c-1.229,0.006-2.155,0.768-2.739,2.238l0.025,5.25c0.172,0.041,0.572,0.102,1.208,0.225c0.215,0.041,0.318,0.189,0.319,0.396
		l0.005,0.883l-4.931,0.023l-0.005-0.881c-0.001-0.212,0.104-0.357,0.313-0.398l1.205-0.238l-0.04-7.578
		c-0.678-0.125-1.081-0.205-1.208-0.246c-0.211-0.041-0.315-0.188-0.316-0.396l-0.007-0.884l1.523-0.008l1.079-0.006
		c0.212-0.002,0.318,0.021,0.403,0.104c0.084,0.085,0.128,0.21,0.171,0.396l0.136,1.656h0.021v0.006h0.005V182.881z"/>
	<path display="inline" d="M192.619,180.497c0.635-0.004,1.228,0.101,1.777,0.305c0.554,0.209,1.021,0.5,1.401,0.896
		c0.384,0.396,0.725,0.899,0.938,1.485c0.216,0.586,0.348,1.258,0.352,2.015c0.002,0.293-0.021,0.504-0.081,0.588
		c-0.063,0.084-0.211,0.147-0.381,0.147l-7.111,0.037c0.003,0.674,0.091,1.26,0.264,1.764c0.174,0.504,0.431,0.879,0.729,1.216
		c0.298,0.334,0.638,0.584,1.063,0.75c0.427,0.163,0.851,0.245,1.356,0.243c0.465-0.002,0.888-0.047,1.227-0.153
		c0.341-0.104,0.637-0.231,0.89-0.361c0.253-0.127,0.465-0.231,0.634-0.34c0.168-0.104,0.295-0.168,0.422-0.17
		c0.169,0,0.275,0.063,0.36,0.188l0.53,0.688c-0.229,0.297-0.505,0.508-0.843,0.722c-0.337,0.211-0.651,0.399-1.034,0.528
		c-0.38,0.129-0.761,0.233-1.141,0.302c-0.381,0.063-0.783,0.106-1.164,0.108c-0.741,0.004-1.418-0.117-2.055-0.367
		c-0.636-0.248-1.167-0.623-1.635-1.104c-0.471-0.479-0.813-1.063-1.068-1.776c-0.258-0.713-0.389-1.51-0.396-2.435
		c-0.004-0.756,0.12-1.43,0.352-2.061c0.229-0.631,0.563-1.221,0.986-1.688c0.421-0.465,0.945-0.846,1.579-1.119
		c0.636-0.275,1.331-0.406,2.096-0.41L192.619,180.497L192.619,180.497z M192.69,181.861c-0.91,0.005-1.628,0.261-2.133,0.787
		c-0.505,0.525-0.84,1.267-0.962,2.188l5.82-0.029c-0.002-0.422-0.068-0.817-0.197-1.176c-0.129-0.357-0.279-0.689-0.513-0.939
		c-0.234-0.252-0.531-0.461-0.871-0.604c-0.34-0.146-0.742-0.207-1.166-0.203L192.69,181.861z"/>
	<path display="inline" d="M215.606,180.564l0.004,0.9c0.001,0.209-0.104,0.336-0.313,0.379c-0.084,0-0.232,0.064-0.528,0.107
		c-0.296,0.045-0.465,0.107-0.529,0.107l-2.936,9.127l-1.481,0.01c-0.188,0.002-0.315-0.082-0.383-0.334l-2.409-7.211
		c-0.063-0.168-0.104-0.336-0.148-0.504c-0.043-0.166-0.065-0.334-0.108-0.461c-0.041,0.168-0.04,0.336-0.082,0.504
		c-0.042,0.17-0.083,0.295-0.125,0.463l-2.375,7.217c-0.083,0.252-0.209,0.355-0.421,0.357l-1.438,0.008l-3.014-9.117
		c-0.042,0-0.188-0.02-0.357-0.063c-0.424-0.079-0.636-0.143-0.699-0.143c-0.212-0.043-0.339-0.188-0.341-0.396l-0.004-0.884
		l4.78-0.024l0.007,0.883c0.001,0.211-0.104,0.357-0.315,0.4c-0.127,0.041-0.529,0.106-1.163,0.235l1.724,5.701
		c0.132,0.629,0.262,1.11,0.306,1.446c0.062-0.295,0.208-0.776,0.416-1.45l2.207-6.898c0.083-0.252,0.252-0.379,0.506-0.381
		l0.825-0.004c0.272-0.002,0.443,0.123,0.528,0.375L210,187.79c0.086,0.293,0.216,0.774,0.389,1.426
		c0.082-0.481,0.185-0.967,0.31-1.43l1.705-5.722c-0.084,0.002-0.508-0.08-1.229-0.225c-0.211-0.043-0.34-0.188-0.341-0.396
		l-0.005-0.881h4.776V180.564z"/>
	<path display="inline" d="M226.05,189.768c0.188,0.041,0.318,0.209,0.319,0.398l0.005,0.9l-1.375,0.008l-0.148,0.002l-0.677,0.004
		c-0.169,0-0.317-0.041-0.445-0.082c-0.127-0.041-0.17-0.168-0.213-0.336l-0.217-1.006c-0.295,0.254-0.59,0.482-0.843,0.695
		c-0.253,0.211-0.548,0.381-0.846,0.508c-0.296,0.129-0.592,0.233-0.93,0.32c-0.338,0.086-0.719,0.108-1.142,0.11
		s-0.783-0.062-1.146-0.185c-0.357-0.125-0.7-0.271-0.955-0.5c-0.256-0.229-0.469-0.521-0.64-0.877
		c-0.171-0.355-0.237-0.774-0.239-1.26c-0.002-0.42,0.104-0.842,0.332-1.221c0.231-0.379,0.631-0.758,1.14-1.057
		c0.507-0.297,1.183-0.572,2.026-0.769c0.847-0.192,1.861-0.28,3.088-0.288l-0.004-0.818c-0.004-0.84-0.198-1.469-0.561-1.887
		c-0.363-0.418-0.895-0.646-1.592-0.644c-0.467,0.002-0.848,0.065-1.162,0.192c-0.316,0.129-0.57,0.234-0.805,0.384
		c-0.229,0.147-0.44,0.256-0.609,0.383c-0.168,0.127-0.316,0.168-0.486,0.17c-0.127,0-0.254-0.021-0.339-0.082
		c-0.085-0.063-0.17-0.168-0.213-0.252l-0.342-0.586c0.589-0.57,1.223-0.974,1.896-1.271c0.675-0.299,1.438-0.43,2.283-0.434
		c0.593-0.004,1.144,0.078,1.609,0.285c0.467,0.207,0.85,0.457,1.168,0.791c0.317,0.336,0.555,0.754,0.727,1.256
		c0.172,0.504,0.239,1.051,0.242,1.639l0.026,5.313c0.299,0.062,0.934,0.184,1.061,0.225v-0.034h0.006V189.768z M223.111,186.34
		c-0.865,0.004-1.605,0.051-2.197,0.158c-0.595,0.105-1.102,0.277-1.479,0.449c-0.379,0.17-0.675,0.381-0.843,0.635
		c-0.168,0.252-0.252,0.504-0.25,0.799c0.001,0.293,0.063,0.504,0.149,0.713c0.089,0.209,0.217,0.377,0.387,0.502
		s0.34,0.207,0.552,0.271c0.211,0.061,0.445,0.102,0.699,0.1c0.339,0,0.61-0.045,0.889-0.107c0.274-0.063,0.528-0.147,0.782-0.276
		c0.253-0.127,0.482-0.295,0.696-0.465c0.21-0.17,0.421-0.382,0.631-0.593L223.111,186.34z"/>
	<path display="inline" d="M230.924,182.624c0.772-1.578,1.851-2.381,3.247-2.39c0.55-0.004,1.038,0.119,1.462,0.369l-0.229,1.406
		c-0.038,0.17-0.146,0.273-0.271,0.275c-0.127,0-0.297-0.041-0.508-0.104c-0.212-0.063-0.487-0.104-0.869-0.103
		c-1.229,0.006-2.155,0.769-2.739,2.239l0.028,5.248c0.169,0.041,0.572,0.103,1.207,0.228c0.212,0.039,0.316,0.188,0.317,0.396
		l0.007,0.883l-4.934,0.025l-0.004-0.884c-0.001-0.209,0.104-0.356,0.315-0.399l1.205-0.236L229.12,182
		c-0.681-0.123-1.081-0.205-1.208-0.246c-0.212-0.041-0.318-0.188-0.319-0.396l-0.005-0.881l1.521-0.01l1.079-0.006
		c0.212-0.002,0.318,0.021,0.403,0.104c0.085,0.084,0.128,0.209,0.171,0.398l0.136,1.656h0.021v0.004L230.924,182.624
		L230.924,182.624z"/>
	<path display="inline" d="M241.115,180.198c1.188-0.007,2.185,0.407,2.949,1.243l-0.021-4.366
		c-0.723-0.123-1.208-0.203-1.419-0.244s-0.318-0.166-0.319-0.377l-0.005-0.924l3.598-0.021l0.074,13.941
		c0.678,0.123,1.103,0.202,1.229,0.243c0.211,0.041,0.297,0.168,0.298,0.38l0.005,0.924l-2.625,0.014
		c-0.254,0-0.424-0.146-0.51-0.396l-0.179-1.279c-1.01,1.225-2.189,1.816-3.588,1.824c-1.27,0.008-2.246-0.449-2.97-1.369
		c-0.725-0.939-1.113-2.264-1.122-4.023c-0.009-1.598,0.408-2.94,1.229-3.953c0.841-1.057,1.979-1.606,3.396-1.614h-0.022V180.198z
		 M241.229,189.667c1.104-0.006,2.071-0.558,2.87-1.633l-0.027-5.123c-0.64-0.836-1.467-1.252-2.48-1.246
		c-1.019,0.006-1.797,0.346-2.343,1.063c-0.546,0.717-0.795,1.729-0.788,3.026c0.011,2.019,0.522,3.229,1.585,3.688
		c0.339,0.146,0.742,0.207,1.165,0.205L241.229,189.667z"/>
	<path display="inline" d="M253.593,190.063l0.005,0.902l-4.931,0.025l-0.005-0.902c-0.001-0.188,0.125-0.355,0.313-0.398
		c0.19-0.043,1.229-0.235,1.229-0.235l-0.04-7.58c0,0-1.038-0.187-1.229-0.226c-0.188-0.043-0.315-0.211-0.319-0.397l-0.005-0.881
		l3.407-0.021l0.048,9.092c0,0,1.02,0.185,1.208,0.226C253.464,189.706,253.592,189.874,253.593,190.063z M249.844,177.527
		c-0.085-0.168-0.108-0.336-0.109-0.504s0.021-0.356,0.104-0.524c0.084-0.17,0.168-0.313,0.294-0.442
		c0.126-0.125,0.252-0.212,0.421-0.296c0.169-0.086,0.338-0.106,0.507-0.106c0.169-0.002,0.339,0.02,0.508,0.104
		c0.17,0.082,0.299,0.166,0.428,0.291c0.127,0.125,0.213,0.271,0.298,0.438c0.086,0.169,0.129,0.357,0.13,0.525
		s-0.04,0.336-0.125,0.504c-0.083,0.17-0.167,0.295-0.294,0.422c-0.126,0.127-0.253,0.211-0.422,0.295
		c-0.168,0.086-0.338,0.107-0.508,0.107c-0.171,0.002-0.34-0.021-0.51-0.104c-0.17-0.084-0.297-0.168-0.425-0.291
		C250.015,177.818,249.929,177.693,249.844,177.527z"/>
	<path display="inline" d="M258.101,181.829c1.052-1.14,2.234-1.713,3.546-1.72c1.146-0.008,2.034,0.347,2.673,1.099
		c0.6,0.711,0.919,1.696,0.929,2.914l0.025,5.229c0.681,0.123,1.08,0.203,1.207,0.243c0.212,0.041,0.34,0.189,0.341,0.398
		l0.007,0.901l-3.432,0.019l-0.036-6.761c-0.009-1.68-0.754-2.561-2.257-2.549c-1.058,0.004-2.026,0.515-2.912,1.506l0.033,6.3
		c0.042,0,0.466,0.082,1.229,0.245c0.211,0.039,0.315,0.187,0.316,0.396l0.005,0.884l-4.931,0.024l-0.005-0.881
		c-0.001-0.211,0.083-0.359,0.294-0.4l1.226-0.237l-0.037-7.578c-0.681-0.123-1.104-0.205-1.229-0.244
		c-0.211-0.043-0.297-0.189-0.298-0.398l-0.005-0.881l1.521-0.008l1.104-0.008c0.254-0.002,0.424,0.123,0.51,0.375l0.175,1.154
		v-0.021L258.101,181.829L258.101,181.829z"/>
	<path display="inline" d="M272.147,180.098c0.465-0.004,0.892,0.035,1.292,0.139c0.402,0.104,0.766,0.248,1.104,0.457l2.92-0.018
		l0.003,0.693c0.001,0.229-0.146,0.379-0.442,0.441l-1.206,0.174c0.26,0.463,0.347,0.967,0.35,1.512
		c0.003,0.504-0.079,0.984-0.289,1.406s-0.461,0.779-0.82,1.076c-0.358,0.295-0.78,0.549-1.266,0.723
		c-0.486,0.17-1.018,0.232-1.607,0.236c-0.508,0.002-0.974-0.058-1.419-0.183c-0.211,0.127-0.379,0.297-0.506,0.466
		c-0.126,0.17-0.167,0.295-0.167,0.463c0.001,0.252,0.087,0.438,0.299,0.565c0.212,0.123,0.488,0.229,0.827,0.269
		c0.338,0.041,0.741,0.08,1.165,0.078c0.423-0.003,0.868,0.036,1.312,0.075c0.445,0.041,0.893,0.06,1.313,0.142
		s0.826,0.205,1.166,0.371c0.339,0.166,0.616,0.438,0.829,0.729c0.213,0.293,0.3,0.672,0.303,1.176
		c0.002,0.461-0.101,0.925-0.332,1.345c-0.229,0.422-0.588,0.805-1.009,1.143c-0.422,0.338-0.928,0.592-1.563,0.805
		c-0.633,0.215-1.33,0.303-2.111,0.307c-0.783,0.004-1.482-0.055-2.076-0.221c-0.594-0.164-1.082-0.371-1.464-0.621
		s-0.683-0.563-0.872-0.896c-0.192-0.336-0.3-0.672-0.303-1.049c-0.003-0.523,0.165-0.967,0.502-1.349
		c0.337-0.381,0.8-0.678,1.392-0.891c-0.297-0.123-0.552-0.332-0.723-0.563c-0.171-0.229-0.278-0.563-0.28-0.94
		c-0.001-0.171,0.041-0.298,0.082-0.466s0.125-0.336,0.251-0.504c0.126-0.17,0.273-0.315,0.441-0.465
		c0.168-0.146,0.38-0.256,0.591-0.383c-0.53-0.291-0.956-0.688-1.256-1.168c-0.301-0.48-0.449-1.049-0.452-1.697
		c-0.003-0.504,0.079-0.988,0.289-1.408c0.21-0.422,0.48-0.778,0.841-1.075c0.355-0.295,0.801-0.527,1.309-0.699
		c0.507-0.17,1.036-0.235,1.628-0.24L272.147,180.098z M275.573,191.479c-0.001-0.252-0.063-0.461-0.215-0.629
		c-0.146-0.166-0.358-0.291-0.613-0.373c-0.257-0.084-0.529-0.146-0.869-0.188c-0.339-0.039-0.681-0.08-1.062-0.1
		c-0.381-0.021-0.738-0.019-1.123-0.035c-0.381-0.021-0.738-0.08-1.08-0.119c-0.398,0.188-0.735,0.424-0.988,0.695
		c-0.253,0.274-0.378,0.61-0.376,0.988c0.001,0.252,0.063,0.463,0.192,0.672c0.128,0.209,0.319,0.377,0.574,0.521
		c0.255,0.146,0.573,0.271,0.954,0.354c0.382,0.082,0.848,0.123,1.354,0.119c0.508-0.004,0.95-0.068,1.354-0.154
		s0.74-0.233,1.014-0.401c0.274-0.17,0.485-0.361,0.634-0.595c0.146-0.229,0.229-0.463,0.229-0.756H275.573L275.573,191.479z
		 M272.198,185.743c0.384-0.002,0.723-0.066,1.019-0.173c0.295-0.106,0.527-0.256,0.738-0.444c0.21-0.188,0.354-0.44,0.438-0.694
		c0.083-0.253,0.146-0.548,0.146-0.861c-0.003-0.648-0.221-1.174-0.622-1.549c-0.404-0.377-0.979-0.563-1.738-0.562
		c-0.762,0.006-1.333,0.197-1.732,0.578c-0.397,0.379-0.588,0.903-0.584,1.555c0.001,0.316,0.067,0.609,0.177,0.861
		c0.104,0.252,0.233,0.479,0.445,0.67c0.213,0.188,0.446,0.332,0.743,0.438c0.297,0.104,0.594,0.145,0.978,0.143v0.041h-0.006
		L272.198,185.743L272.198,185.743z"/>
	<path display="inline" d="M285.284,190.25c-0.471-0.459-0.686-1.129-0.688-2.012l-0.035-6.51l-1.291,0.006
		c-0.127,0.004-0.211-0.021-0.297-0.08c-0.084-0.063-0.104-0.188-0.104-0.314l-0.007-0.734l1.758-0.237l0.403-3.302
		c-0.001-0.104,0.041-0.188,0.125-0.252c0.084-0.063,0.169-0.084,0.296-0.086l0.952-0.004l0.021,3.652l3.066-0.02l0.01,1.365
		l-3.069,0.018l0.034,6.383c0.002,0.463,0.107,0.799,0.32,1.006c0.215,0.211,0.53,0.313,0.869,0.313
		c0.211-0.002,0.381-0.045,0.528-0.086c0.147-0.043,0.275-0.104,0.38-0.172c0.105-0.063,0.168-0.125,0.253-0.168
		c0.084-0.043,0.168-0.086,0.211-0.086c0.085,0,0.169,0.041,0.254,0.168l0.558,0.879c-0.337,0.295-0.719,0.549-1.184,0.72
		c-0.465,0.172-0.93,0.258-1.417,0.262C286.388,190.959,285.752,190.711,285.284,190.25z"/>
	<path display="inline" d="M297.844,179.938c1.143-0.006,2.034,0.349,2.672,1.078c0.618,0.711,0.938,1.717,0.947,2.937l0.025,5.229
		c0.681,0.118,1.081,0.2,1.208,0.243c0.212,0.039,0.318,0.188,0.32,0.396l0.004,0.883l-3.407,0.019l-0.036-6.761
		c-0.009-1.68-0.773-2.537-2.275-2.528c-1.058,0.006-1.987,0.518-2.87,1.506l0.033,6.3l0.254,0.041
		c0.551,0.104,0.847,0.163,0.932,0.187c0.212,0.039,0.34,0.188,0.344,0.396l0.005,0.882l-4.953,0.026l-0.005-0.885
		c-0.001-0.209,0.125-0.355,0.337-0.398l1.184-0.235l-0.063-12.41c-0.808-0.12-1.271-0.2-1.398-0.243
		c-0.212-0.039-0.34-0.188-0.341-0.396l-0.004-0.883l3.641-0.021l0.033,6.257C295.434,180.497,296.553,179.945,297.844,179.938z"/>
	<path display="inline" d="M311.201,180.245c0.639,0.25,1.188,0.625,1.638,1.084c0.444,0.459,0.789,1.045,1.022,1.717
		c0.237,0.67,0.368,1.427,0.372,2.267s-0.119,1.598-0.348,2.271c-0.229,0.672-0.565,1.262-1.007,1.728
		c-0.442,0.465-0.99,0.848-1.624,1.102c-0.636,0.256-1.332,0.385-2.115,0.391c-0.783,0.004-1.482-0.117-2.118-0.367
		c-0.636-0.248-1.188-0.623-1.635-1.082c-0.447-0.461-0.789-1.047-1.046-1.717c-0.257-0.672-0.349-1.428-0.354-2.268
		c-0.004-0.84,0.076-1.598,0.327-2.27c0.25-0.675,0.586-1.265,1.028-1.729c0.44-0.463,0.99-0.846,1.624-1.102
		c0.633-0.254,1.331-0.386,2.113-0.39C309.865,179.874,310.567,179.997,311.201,180.245z M311.5,188.307
		c0.504-0.717,0.771-1.705,0.768-2.965c-0.006-1.26-0.287-2.244-0.799-2.957c-0.515-0.711-1.318-1.043-2.376-1.035
		c-0.55,0.002-1.018,0.088-1.396,0.258s-0.717,0.468-0.97,0.806c-0.252,0.338-0.461,0.758-0.585,1.264
		c-0.125,0.505-0.206,1.093-0.203,1.724c0.003,0.63,0.091,1.176,0.221,1.68c0.129,0.504,0.346,0.922,0.602,1.258
		c0.256,0.334,0.596,0.584,0.978,0.75s0.851,0.289,1.398,0.287C310.193,189.364,310.993,189.021,311.5,188.307z"/>
	<path display="inline" d="M320.694,189.309c1.061-0.008,2.029-0.516,2.895-1.483l-0.034-6.302c-0.127-0.041-0.53-0.123-1.208-0.243
		c-0.211-0.041-0.318-0.188-0.319-0.398l-0.005-0.901l1.524-0.008l1.884-0.011l0.048,9.113c0.678,0.121,1.08,0.202,1.208,0.243
		c0.212,0.041,0.319,0.166,0.32,0.375l0.005,0.902l-2.646,0.017c-0.254,0.002-0.424-0.146-0.51-0.396l-0.154-1.133
		c-1.01,1.14-2.189,1.711-3.546,1.719c-1.143,0.007-2.034-0.364-2.673-1.098c-0.597-0.711-0.938-1.654-0.947-2.914l-0.025-5.248
		c-0.681-0.123-1.062-0.205-1.188-0.246c-0.212-0.041-0.34-0.188-0.341-0.396l-0.005-0.883l3.429-0.02l0.036,6.76
		c0.004,0.801,0.177,1.447,0.561,1.889c0.385,0.438,0.937,0.646,1.696,0.644L320.694,189.309L320.694,189.309z"/>
	<path display="inline" d="M332.349,179.775c0.465-0.002,0.889,0.037,1.292,0.142c0.402,0.104,0.763,0.248,1.103,0.455l2.92-0.017
		l0.003,0.691c0.004,0.23-0.146,0.379-0.439,0.443l-1.206,0.174c0.256,0.461,0.344,0.965,0.347,1.51
		c0.003,0.504-0.08,0.988-0.289,1.408c-0.21,0.422-0.462,0.779-0.817,1.076c-0.358,0.295-0.78,0.551-1.269,0.721
		c-0.483,0.17-1.015,0.236-1.604,0.238c-0.508,0.004-0.977-0.059-1.419-0.182c-0.211,0.127-0.379,0.297-0.505,0.465
		s-0.169,0.297-0.167,0.465c0.001,0.252,0.087,0.438,0.299,0.563c0.212,0.123,0.485,0.229,0.827,0.269
		c0.338,0.041,0.738,0.08,1.165,0.078c0.424-0.002,0.865,0.037,1.313,0.076c0.444,0.041,0.889,0.061,1.313,0.143
		c0.424,0.082,0.824,0.203,1.165,0.369c0.341,0.168,0.614,0.438,0.828,0.729c0.216,0.291,0.303,0.671,0.306,1.175
		c0.002,0.463-0.104,0.926-0.332,1.348c-0.231,0.42-0.588,0.801-1.011,1.139s-0.931,0.596-1.563,0.809
		c-0.634,0.213-1.332,0.301-2.115,0.306c-0.782,0.004-1.479-0.056-2.075-0.22c-0.594-0.166-1.081-0.373-1.464-0.623
		c-0.382-0.25-0.68-0.563-0.873-0.897c-0.19-0.334-0.3-0.67-0.302-1.049c-0.003-0.522,0.164-0.968,0.5-1.347
		c0.337-0.379,0.801-0.676,1.395-0.891c-0.3-0.125-0.555-0.334-0.726-0.563c-0.17-0.229-0.276-0.565-0.279-0.942
		c-0.001-0.168,0.04-0.295,0.081-0.463s0.125-0.336,0.252-0.504c0.127-0.17,0.273-0.318,0.441-0.466
		c0.168-0.148,0.38-0.254,0.59-0.381c-0.529-0.291-0.956-0.688-1.254-1.17c-0.299-0.481-0.45-1.047-0.454-1.696
		c-0.002-0.505,0.079-0.988,0.289-1.408c0.209-0.422,0.482-0.779,0.841-1.076c0.358-0.295,0.804-0.526,1.312-0.698
		c0.508-0.173,1.036-0.236,1.628-0.24L332.349,179.775z M335.774,191.159c-0.001-0.252-0.066-0.461-0.215-0.629
		c-0.149-0.166-0.361-0.292-0.616-0.375c-0.254-0.082-0.53-0.146-0.869-0.187c-0.339-0.037-0.678-0.078-1.059-0.1
		c-0.381-0.02-0.741-0.018-1.122-0.035c-0.381-0.02-0.741-0.08-1.08-0.121c-0.401,0.189-0.738,0.426-0.991,0.697
		c-0.252,0.273-0.377,0.611-0.375,0.988c0.001,0.252,0.066,0.463,0.194,0.672s0.319,0.377,0.575,0.521
		c0.254,0.146,0.57,0.271,0.954,0.354c0.381,0.08,0.848,0.119,1.354,0.117c0.508-0.002,0.952-0.066,1.354-0.152
		c0.399-0.086,0.737-0.234,1.014-0.404c0.274-0.17,0.485-0.359,0.631-0.592c0.147-0.23,0.23-0.463,0.229-0.756L335.774,191.159
		L335.774,191.159z M332.4,185.424c0.381-0.002,0.719-0.066,1.015-0.174c0.299-0.105,0.528-0.254,0.739-0.443
		c0.21-0.188,0.357-0.44,0.441-0.695c0.083-0.252,0.145-0.547,0.143-0.86c-0.003-0.649-0.218-1.176-0.622-1.549
		c-0.401-0.377-0.977-0.563-1.735-0.562c-0.764,0.004-1.333,0.195-1.732,0.576s-0.588,0.906-0.584,1.557
		c0.002,0.314,0.067,0.607,0.174,0.859c0.107,0.252,0.235,0.482,0.448,0.67c0.212,0.188,0.446,0.334,0.743,0.438
		s0.593,0.145,0.974,0.143L332.4,185.424z"/>
	<path display="inline" d="M345.812,179.684c1.143-0.006,2.034,0.349,2.673,1.078c0.617,0.711,0.94,1.717,0.946,2.937l0.028,5.229
		c0.678,0.121,1.078,0.203,1.208,0.246c0.211,0.039,0.315,0.187,0.316,0.396l0.005,0.885l-3.405,0.018l-0.036-6.76
		c-0.012-1.681-0.775-2.537-2.278-2.529c-1.058,0.006-1.987,0.517-2.871,1.508l0.034,6.3l0.254,0.038
		c0.551,0.104,0.848,0.164,0.933,0.187c0.212,0.041,0.342,0.188,0.344,0.396l0.004,0.882l-4.953,0.026l-0.004-0.883
		c-0.001-0.211,0.125-0.357,0.336-0.4l1.184-0.235l-0.063-12.408c-0.808-0.12-1.271-0.202-1.398-0.243
		c-0.211-0.041-0.339-0.188-0.34-0.396l-0.005-0.883l3.64-0.021l0.033,6.257C343.402,180.243,344.521,179.689,345.812,179.684z"/>
	<path display="inline" d="M354.162,189.885c-0.468-0.459-0.683-1.129-0.688-2.012l-0.035-6.508l-1.291,0.006
		c-0.127,0-0.211-0.021-0.296-0.082c-0.085-0.063-0.105-0.188-0.105-0.314l-0.006-0.731l1.757-0.24l0.404-3.299
		c-0.001-0.104,0.041-0.188,0.125-0.254c0.084-0.063,0.169-0.084,0.296-0.084l0.953-0.007l0.021,3.65l3.065-0.016l0.007,1.363
		l-3.066,0.018l0.034,6.383c0.002,0.463,0.106,0.799,0.32,1.008c0.212,0.209,0.531,0.313,0.869,0.312
		c0.212,0,0.381-0.043,0.529-0.086c0.146-0.046,0.272-0.105,0.38-0.173c0.106-0.063,0.169-0.127,0.253-0.168
		c0.084-0.043,0.169-0.086,0.211-0.086c0.084,0,0.169,0.041,0.255,0.166l0.558,0.879c-0.338,0.298-0.72,0.552-1.185,0.724
		c-0.464,0.17-0.93,0.256-1.417,0.258C355.269,190.594,354.633,190.344,354.162,189.885z"/>
	<path display="inline" d="M365.439,176.557c-1.438,0.008-2.155,0.812-2.146,2.426l0.005,0.986l3.09-0.018l0.007,1.344l-3.048,0.018
		l0.04,7.539c0.847,0.119,1.313,0.201,1.419,0.224c0.212,0.041,0.315,0.188,0.32,0.396l0.005,0.902l-5.249,0.027l-0.005-0.902
		c-0.001-0.209,0.104-0.355,0.313-0.398l1.313-0.235l-0.04-7.496l-1.188-0.142c-0.339-0.082-0.509-0.229-0.51-0.479l-0.004-0.756
		l1.689-0.011l-0.005-1.026c-0.006-1.22,0.309-2.166,0.979-2.84c0.65-0.677,1.541-0.996,2.683-1.003
		c0.466-0.002,0.91,0.078,1.334,0.203l-0.038,0.943c0.001,0.125-0.063,0.209-0.188,0.253c-0.127,0.043-0.275,0.046-0.487,0.046
		l-0.316,0.002L365.439,176.557L365.439,176.557z"/>
	<path display="inline" d="M373.039,189.029c1.062-0.006,2.03-0.516,2.895-1.485l-0.033-6.297c-0.127-0.043-0.53-0.125-1.208-0.246
		c-0.212-0.041-0.315-0.188-0.319-0.396l-0.005-0.902l1.524-0.008l1.883-0.012l0.048,9.11c0.681,0.123,1.081,0.205,1.208,0.246
		c0.212,0.041,0.318,0.166,0.32,0.377l0.004,0.901l-2.646,0.015c-0.257,0.002-0.427-0.146-0.513-0.396l-0.151-1.133
		c-1.013,1.139-2.192,1.713-3.55,1.719c-1.143,0.006-2.031-0.365-2.672-1.099c-0.596-0.711-0.938-1.653-0.943-2.913l-0.028-5.248
		c-0.678-0.123-1.06-0.205-1.188-0.246c-0.212-0.041-0.339-0.188-0.34-0.396l-0.005-0.883l3.429-0.021l0.036,6.763
		c0.004,0.799,0.18,1.446,0.563,1.889c0.384,0.439,0.935,0.646,1.696,0.641v0.021L373.039,189.029L373.039,189.029z"/>
	<path display="inline" d="M385.531,189.361l0.005,0.902l-4.95,0.025l-0.008-0.904c-0.001-0.209,0.125-0.354,0.339-0.398
		l1.185-0.235l-0.066-12.408c-0.678-0.12-1.059-0.202-1.186-0.243c-0.212-0.041-0.34-0.168-0.341-0.377l-0.005-0.902l3.429-0.021
		l0.074,13.923c0.678,0.12,1.06,0.202,1.187,0.243C385.404,189.006,385.531,189.152,385.531,189.361z"/>
	<path display="inline" d="M395.641,179.377c1.186-0.006,2.182,0.408,2.949,1.244l-0.023-4.367c-0.72-0.123-1.207-0.203-1.419-0.244
		s-0.318-0.166-0.319-0.377l-0.005-0.924l3.601-0.021l0.071,13.94c0.681,0.123,1.104,0.205,1.229,0.246
		c0.212,0.041,0.297,0.166,0.298,0.377l0.005,0.924l-2.624,0.015c-0.254,0-0.424-0.146-0.51-0.396l-0.176-1.278
		c-1.009,1.225-2.191,1.815-3.589,1.823c-1.271,0.009-2.246-0.448-2.973-1.371c-0.725-0.938-1.11-2.262-1.122-4.022
		c-0.008-1.596,0.408-2.941,1.229-3.953c0.841-1.055,1.979-1.605,3.396-1.613L395.641,179.377L395.641,179.377z M395.755,188.848
		c1.1-0.008,2.068-0.561,2.866-1.635l-0.024-5.123c-0.643-0.836-1.466-1.252-2.483-1.246c-1.016,0.006-1.797,0.346-2.343,1.064
		c-0.547,0.717-0.795,1.727-0.789,3.027c0.011,2.016,0.525,3.229,1.586,3.688c0.339,0.146,0.742,0.205,1.166,0.203L395.755,188.848z
		"/>
	<path display="inline" d="M408.116,189.241l0.005,0.903l-4.931,0.023l-0.005-0.9c-0.001-0.188,0.125-0.356,0.315-0.399
		c0.188-0.043,1.226-0.236,1.226-0.236l-0.04-7.58c0,0-1.038-0.184-1.229-0.225c-0.19-0.041-0.317-0.209-0.318-0.396l-0.005-0.884
		l3.407-0.019l0.048,9.093c0,0,1.017,0.183,1.208,0.224C407.988,188.886,408.115,189.053,408.116,189.241z M404.367,176.708
		c-0.085-0.168-0.104-0.336-0.105-0.504s0.02-0.356,0.103-0.524c0.084-0.171,0.168-0.314,0.295-0.443
		c0.126-0.125,0.252-0.209,0.421-0.295c0.168-0.084,0.341-0.105,0.51-0.107c0.17,0,0.339,0.021,0.509,0.104s0.298,0.166,0.426,0.291
		c0.127,0.125,0.213,0.271,0.298,0.438c0.086,0.168,0.129,0.354,0.13,0.522s-0.04,0.336-0.125,0.504
		c-0.083,0.171-0.167,0.296-0.293,0.425c-0.127,0.125-0.253,0.209-0.423,0.295c-0.168,0.084-0.337,0.104-0.507,0.106
		c-0.169,0-0.339-0.021-0.509-0.104c-0.169-0.084-0.296-0.168-0.424-0.291C404.538,176.999,404.452,176.874,404.367,176.708z"/>
	<path display="inline" d="M413.485,179.325c0.74-0.005,1.673,0.18,2.797,0.551l0.004,0.735l0.014,1.994l-0.825,0.004
		c-0.212,0.002-0.318-0.082-0.361-0.293c0-0.041-0.046-0.502-0.135-1.383c-0.636-0.146-1.188-0.227-1.652-0.225h-0.021
		c-0.596,0.002-1.078,0.174-1.457,0.471s-0.569,0.611-0.567,0.969c0.002,0.356,0.089,0.631,0.259,0.797
		c0.302,0.334,0.702,0.563,1.232,0.729c0.529,0.164,0.974,0.27,1.313,0.393l1.02,0.373c0.339,0.125,0.639,0.332,0.894,0.541
		c0.597,0.459,0.872,1.066,0.878,1.845c0.007,1.008-0.327,1.827-1.022,2.438c-0.718,0.635-1.688,0.996-2.832,1.004
		c-1.144,0.006-2.328-0.178-3.475-0.551l-0.017-2.77l0.762-0.006c0.17-0.002,0.276,0.082,0.32,0.25c0,0.063,0.044,0.506,0.134,1.344
		c0.596,0.291,1.335,0.414,2.184,0.406c0.698-0.002,1.249-0.191,1.646-0.531c0.358-0.316,0.546-0.676,0.543-1.074
		c-0.002-0.398-0.087-0.689-0.258-0.879c-0.17-0.188-0.382-0.377-0.637-0.502c-0.255-0.123-0.553-0.248-0.895-0.33
		c-0.933-0.289-1.59-0.496-1.971-0.662c-0.382-0.166-0.701-0.373-0.956-0.582c-0.595-0.479-0.896-1.129-0.896-1.969
		c-0.008-0.861,0.329-1.559,1.004-2.146c0.718-0.635,1.688-0.934,3.002-0.938h-0.024v-0.002H413.485z"/>
	<path display="inline" d="M423.027,190.213c-1.376,0.008-2.479-0.471-3.353-1.432c-0.915-1.004-1.392-2.346-1.397-4.023
		c-0.009-1.639,0.408-2.92,1.271-3.934c0.901-1.033,2.172-1.545,3.761-1.555c0.803-0.004,1.863,0.242,3.177,0.737l0.015,2.771
		l-0.847,0.007c-0.21,0-0.314-0.082-0.358-0.293c-0.021-0.084-0.047-0.337-0.092-0.8c-0.044-0.461-0.064-0.67-0.064-0.69
		c-0.338-0.104-0.593-0.146-0.766-0.187c-0.423-0.063-0.803-0.078-1.186-0.075c-0.38,0.002-0.783,0.106-1.162,0.276
		c-0.381,0.17-0.718,0.445-0.99,0.781c-0.548,0.719-0.796,1.686-0.789,2.943c0.009,1.26,0.313,2.268,0.862,2.979
		c0.556,0.689,1.297,1.043,2.271,1.037c0.89-0.004,1.672-0.303,2.347-0.895c0.125-0.127,0.271-0.172,0.422-0.172
		c0.148,0,0.254,0.041,0.34,0.166l0.512,0.688C426.113,189.65,424.762,190.204,423.027,190.213z"/>
	<path display="inline" d="M433.41,188.709c1.06-0.006,2.028-0.518,2.893-1.484l-0.033-6.301c-0.126-0.041-0.528-0.123-1.206-0.244
		c-0.213-0.041-0.319-0.188-0.321-0.396l-0.004-0.902l1.522-0.008l1.884-0.012l0.049,9.112c0.68,0.121,1.08,0.203,1.208,0.244
		c0.212,0.041,0.318,0.168,0.319,0.377l0.005,0.902l-2.646,0.014c-0.256,0.002-0.425-0.145-0.512-0.396l-0.151-1.134
		c-1.012,1.14-2.191,1.713-3.549,1.72c-1.142,0.006-2.031-0.365-2.672-1.099c-0.597-0.711-0.938-1.653-0.943-2.914l-0.027-5.248
		c-0.679-0.123-1.063-0.205-1.188-0.245c-0.214-0.041-0.34-0.188-0.342-0.396l-0.004-0.883l3.428-0.019l0.035,6.761
		c0.005,0.799,0.18,1.446,0.563,1.887c0.382,0.438,0.934,0.646,1.693,0.644L433.41,188.709L433.41,188.709z"/>
	<path display="inline" d="M445.109,179.157c0.74-0.005,1.673,0.18,2.797,0.551l0.004,0.735l0.014,1.994l-0.825,0.004
		c-0.212,0.002-0.318-0.082-0.361-0.293c0-0.041-0.046-0.502-0.136-1.383c-0.635-0.146-1.188-0.227-1.65-0.225h-0.021
		c-0.593,0.002-1.078,0.174-1.458,0.469c-0.379,0.299-0.568,0.613-0.566,0.971c0.002,0.356,0.088,0.631,0.258,0.797
		c0.303,0.334,0.702,0.563,1.232,0.729c0.529,0.164,0.975,0.27,1.313,0.393l1.02,0.373c0.34,0.125,0.638,0.332,0.894,0.541
		c0.598,0.459,0.872,1.066,0.876,1.845c0.008,1.008-0.326,1.827-1.021,2.44c-0.718,0.633-1.688,0.994-2.832,1.002
		c-1.144,0.006-2.328-0.178-3.475-0.551l-0.017-2.771l0.764-0.004c0.168-0.002,0.273,0.082,0.316,0.25
		c0,0.063,0.046,0.504,0.135,1.344c0.597,0.291,1.335,0.414,2.185,0.406c0.698-0.002,1.247-0.191,1.646-0.531
		c0.356-0.316,0.545-0.676,0.543-1.074s-0.088-0.689-0.259-0.879c-0.17-0.188-0.382-0.377-0.637-0.502
		c-0.254-0.123-0.552-0.248-0.894-0.33c-0.934-0.289-1.59-0.496-1.973-0.662c-0.381-0.166-0.699-0.373-0.954-0.582
		c-0.596-0.479-0.896-1.129-0.897-1.969c-0.007-0.861,0.327-1.559,1.004-2.146c0.718-0.635,1.688-0.934,3.002-0.938h-0.024v-0.002
		H445.109z"/>
	<path display="inline" d="M453.785,179.109c0.74-0.004,1.676,0.183,2.799,0.554l0.005,0.733l0.011,1.996l-0.825,0.004
		c-0.213,0-0.317-0.082-0.361-0.293c-0.001-0.041-0.046-0.504-0.136-1.387c-0.635-0.145-1.187-0.225-1.647-0.223h-0.021
		c-0.593,0.004-1.078,0.174-1.459,0.471c-0.378,0.295-0.565,0.611-0.563,0.971c0.002,0.355,0.089,0.629,0.259,0.797
		c0.299,0.334,0.702,0.563,1.229,0.728c0.528,0.166,0.977,0.271,1.313,0.396l1.018,0.371c0.34,0.125,0.64,0.334,0.896,0.541
		c0.596,0.459,0.871,1.065,0.876,1.844c0.006,1.01-0.328,1.83-1.022,2.438c-0.717,0.636-1.688,0.998-2.831,1.004
		c-1.143,0.007-2.328-0.178-3.475-0.549l-0.017-2.771l0.765-0.004c0.169,0,0.272,0.082,0.314,0.25c0,0.063,0.048,0.504,0.138,1.344
		c0.595,0.291,1.336,0.412,2.183,0.408c0.699-0.004,1.247-0.195,1.649-0.533c0.354-0.316,0.545-0.676,0.543-1.074
		c-0.002-0.396-0.09-0.689-0.262-0.879c-0.17-0.189-0.382-0.377-0.637-0.502c-0.254-0.123-0.553-0.248-0.891-0.33
		c-0.937-0.289-1.59-0.496-1.977-0.662c-0.381-0.166-0.695-0.375-0.953-0.582c-0.596-0.479-0.896-1.129-0.898-1.969
		c-0.005-0.861,0.331-1.557,1.005-2.148c0.718-0.633,1.688-0.932,3.001-0.938h-0.023v-0.004h-0.004V179.109z"/>
	<path display="inline" d="M463.219,188.95l0.005,0.901l-4.933,0.025l-0.008-0.902c-0.001-0.188,0.126-0.356,0.317-0.399
		c0.188-0.043,1.226-0.236,1.226-0.236l-0.041-7.58c0,0-1.039-0.184-1.228-0.225c-0.191-0.041-0.32-0.209-0.321-0.396l-0.005-0.884
		l3.408-0.019l0.049,9.093c0,0,1.017,0.185,1.208,0.226S463.218,188.76,463.219,188.95z M459.471,176.415
		c-0.086-0.168-0.108-0.336-0.109-0.504s0.021-0.354,0.104-0.525c0.083-0.168,0.167-0.313,0.293-0.44
		c0.127-0.127,0.253-0.211,0.421-0.297c0.17-0.084,0.339-0.105,0.509-0.107c0.169,0,0.338,0.021,0.508,0.104
		c0.17,0.084,0.298,0.166,0.425,0.291c0.129,0.127,0.217,0.271,0.303,0.438c0.085,0.168,0.128,0.354,0.129,0.522
		s-0.04,0.336-0.123,0.506c-0.084,0.169-0.169,0.294-0.296,0.423c-0.125,0.125-0.253,0.211-0.421,0.295
		c-0.172,0.086-0.342,0.106-0.511,0.106c-0.17,0-0.339-0.021-0.509-0.104c-0.17-0.084-0.296-0.166-0.425-0.291
		C459.641,176.706,459.556,176.583,459.471,176.415z"/>
	<path display="inline" d="M471.401,179.395c0.637,0.25,1.188,0.625,1.636,1.084c0.448,0.459,0.789,1.045,1.024,1.717
		c0.236,0.673,0.368,1.427,0.373,2.267c0.004,0.84-0.12,1.599-0.35,2.271c-0.229,0.676-0.563,1.266-1.009,1.729
		c-0.439,0.465-0.986,0.848-1.624,1.102c-0.632,0.256-1.331,0.386-2.112,0.392c-0.783,0.004-1.48-0.117-2.118-0.367
		c-0.635-0.248-1.188-0.623-1.637-1.082c-0.444-0.461-0.785-1.047-1.047-1.717c-0.258-0.672-0.346-1.427-0.35-2.267
		c-0.005-0.84,0.075-1.598,0.326-2.271s0.586-1.263,1.023-1.728c0.443-0.465,0.992-0.848,1.624-1.104
		c0.638-0.254,1.331-0.385,2.114-0.389C470.066,179.023,470.767,179.146,471.401,179.395z M471.698,187.456
		c0.504-0.717,0.774-1.703,0.771-2.963c-0.005-1.261-0.287-2.246-0.802-2.957c-0.512-0.711-1.314-1.043-2.377-1.037
		c-0.549,0.002-1.015,0.088-1.395,0.258c-0.381,0.17-0.718,0.468-0.97,0.806s-0.461,0.758-0.586,1.264
		c-0.124,0.506-0.204,1.094-0.201,1.723c0.003,0.631,0.09,1.178,0.219,1.682c0.131,0.502,0.344,0.922,0.601,1.256
		c0.258,0.334,0.598,0.584,0.979,0.75c0.381,0.166,0.849,0.291,1.396,0.287C470.393,188.514,471.194,188.172,471.698,187.456z"/>
	<path display="inline" d="M478.903,180.657c1.051-1.14,2.233-1.714,3.547-1.722c1.145-0.006,2.033,0.349,2.672,1.101
		c0.599,0.711,0.918,1.696,0.928,2.914l0.024,5.229c0.681,0.12,1.082,0.202,1.208,0.243c0.214,0.041,0.34,0.188,0.342,0.396
		l0.007,0.904l-3.43,0.021l-0.036-6.763c-0.009-1.682-0.756-2.559-2.259-2.551c-1.057,0.006-2.025,0.517-2.911,1.508l0.033,6.299
		c0.041,0,0.465,0.08,1.229,0.244c0.212,0.041,0.314,0.188,0.315,0.396l0.005,0.883l-4.93,0.025l-0.005-0.885
		c-0.001-0.209,0.083-0.355,0.293-0.396l1.227-0.238l-0.037-7.578c-0.68-0.123-1.104-0.205-1.229-0.246
		c-0.21-0.041-0.296-0.188-0.297-0.396l-0.005-0.883l1.521-0.008l1.104-0.007c0.254-0.002,0.425,0.123,0.51,0.375l0.176,1.154
		L478.903,180.657L478.903,180.657z"/>
	<path display="inline" d="M492.99,178.902c0.742-0.004,1.674,0.181,2.797,0.552l0.005,0.735l0.013,1.994l-0.825,0.004
		c-0.211,0.002-0.318-0.082-0.362-0.293c0-0.041-0.044-0.504-0.133-1.385c-0.637-0.145-1.188-0.227-1.654-0.223h-0.02
		c-0.593,0.002-1.08,0.174-1.458,0.469c-0.381,0.297-0.567,0.613-0.565,0.971c0.002,0.356,0.089,0.629,0.259,0.797
		c0.299,0.334,0.698,0.563,1.229,0.729c0.53,0.164,0.978,0.27,1.315,0.393l1.019,0.373c0.339,0.123,0.635,0.332,0.892,0.541
		c0.597,0.459,0.872,1.066,0.88,1.844c0.005,1.009-0.33,1.828-1.024,2.439c-0.716,0.635-1.688,0.996-2.831,1.002
		c-1.144,0.008-2.33-0.178-3.474-0.549l-0.018-2.771l0.765-0.004c0.17-0.002,0.272,0.082,0.315,0.25
		c0.001,0.063,0.044,0.504,0.135,1.345c0.596,0.29,1.339,0.411,2.186,0.407c0.696-0.004,1.247-0.194,1.646-0.532
		c0.357-0.316,0.55-0.677,0.546-1.074c-0.003-0.397-0.089-0.69-0.26-0.879c-0.17-0.188-0.384-0.377-0.639-0.502
		s-0.551-0.248-0.892-0.33c-0.934-0.289-1.593-0.496-1.974-0.662c-0.383-0.166-0.701-0.375-0.956-0.582
		c-0.594-0.479-0.894-1.129-0.896-1.969c-0.004-0.861,0.331-1.558,1.005-2.148c0.715-0.633,1.688-0.932,3-0.938h-0.024v-0.002
		H492.99z"/>
</g>
<path fill="#FFFFFF" d="M209.503-18.552c0,0,6.837,24.84-7.16,36.039c0,0,28.692-6.338,38.551-40.135"/>
<g>
	<path fill="#FFFFFF" d="M22.36,19.208c-0.321,0.168-1.037,0.406-1.946,0.406c-2.045,0-3.376-1.401-3.376-3.474
		c0-2.087,1.429-3.6,3.642-3.6c0.729,0,1.373,0.182,1.709,0.351l-0.28,0.952c-0.294-0.168-0.756-0.322-1.429-0.322
		c-1.555,0-2.396,1.149-2.396,2.563c0,1.569,1.009,2.536,2.354,2.536c0.7,0,1.163-0.182,1.513-0.336L22.36,19.208z"/>
	<path fill="#FFFFFF" d="M29.85,16.014c0,2.507-1.737,3.6-3.375,3.6c-1.835,0-3.25-1.345-3.25-3.488c0-2.269,1.485-3.6,3.362-3.6
		C28.534,12.526,29.85,13.94,29.85,16.014z M24.471,16.083c0,1.485,0.854,2.605,2.059,2.605c1.178,0,2.06-1.106,2.06-2.633
		c0-1.148-0.574-2.605-2.031-2.605C25.102,13.45,24.471,14.795,24.471,16.083z"/>
	<path fill="#FFFFFF" d="M31.401,14.515c0-0.7-0.014-1.274-0.056-1.835h1.093l0.07,1.121h0.028c0.336-0.644,1.121-1.274,2.24-1.274
		c0.938,0,2.396,0.56,2.396,2.885v4.048H35.94v-3.908c0-1.092-0.405-2.003-1.568-2.003c-0.813,0-1.443,0.574-1.653,1.261
		c-0.056,0.154-0.084,0.364-0.084,0.574v4.076h-1.233V14.515z"/>
	<path fill="#FFFFFF" d="M39.171,14.515c0-0.7-0.014-1.274-0.056-1.835h1.093l0.069,1.121h0.028
		c0.336-0.644,1.121-1.274,2.241-1.274c0.938,0,2.395,0.56,2.395,2.885v4.048H43.71v-3.908c0-1.092-0.406-2.003-1.569-2.003
		c-0.813,0-1.443,0.574-1.653,1.261c-0.056,0.154-0.084,0.364-0.084,0.574v4.076h-1.232V14.515L39.171,14.515z"/>
	<path fill="#FFFFFF" d="M47.627,16.294c0.027,1.667,1.092,2.353,2.325,2.353c0.882,0,1.415-0.154,1.877-0.35l0.21,0.882
		c-0.435,0.196-1.177,0.435-2.255,0.435c-2.088,0-3.334-1.387-3.334-3.432s1.204-3.656,3.18-3.656c2.213,0,2.802,1.947,2.802,3.193
		c0,0.252-0.028,0.448-0.042,0.575H47.627z M51.241,15.411c0.014-0.784-0.322-2.003-1.709-2.003c-1.247,0-1.794,1.148-1.892,2.003
		H51.241z"/>
	<path fill="#FFFFFF" d="M58.787,19.208c-0.322,0.168-1.037,0.406-1.947,0.406c-2.045,0-3.376-1.401-3.376-3.474
		c0-2.087,1.429-3.6,3.642-3.6c0.729,0,1.373,0.182,1.709,0.351l-0.279,0.952c-0.294-0.168-0.757-0.322-1.43-0.322
		c-1.555,0-2.396,1.149-2.396,2.563c0,1.569,1.009,2.536,2.354,2.536c0.7,0,1.163-0.182,1.514-0.336L58.787,19.208z"/>
	<path fill="#FFFFFF" d="M61.893,11.055v1.625h1.766v0.938h-1.766v3.656c0,0.84,0.238,1.316,0.924,1.316
		c0.336,0,0.533-0.028,0.714-0.084l0.057,0.925c-0.238,0.098-0.616,0.182-1.092,0.182c-0.575,0-1.037-0.196-1.331-0.533
		c-0.351-0.364-0.477-0.966-0.477-1.765v-3.698h-1.051V12.68h1.051v-1.247L61.893,11.055z"/>
	<path fill="#FFFFFF" d="M64.217,21.183c0.294-0.827,0.672-2.326,0.826-3.348l1.373-0.14c-0.322,1.191-0.938,2.746-1.331,3.404
		L64.217,21.183z"/>
	<path fill="#FFFFFF" d="M77.001,16.014c0,2.507-1.737,3.6-3.375,3.6c-1.835,0-3.25-1.345-3.25-3.488c0-2.269,1.484-3.6,3.361-3.6
		C75.685,12.526,77.001,13.94,77.001,16.014z M71.622,16.083c0,1.485,0.854,2.605,2.059,2.605c1.177,0,2.059-1.106,2.059-2.633
		c0-1.148-0.573-2.605-2.03-2.605C72.253,13.45,71.622,14.795,71.622,16.083z"/>
	<path fill="#FFFFFF" d="M78.552,14.795c0-0.798-0.014-1.485-0.056-2.115h1.079l0.042,1.331h0.056
		c0.308-0.911,1.051-1.485,1.877-1.485c0.14,0,0.238,0.014,0.351,0.042v1.163c-0.126-0.028-0.252-0.042-0.42-0.042
		c-0.869,0-1.484,0.658-1.652,1.583c-0.028,0.168-0.057,0.364-0.057,0.575v3.614h-1.219L78.552,14.795L78.552,14.795z"/>
	<path fill="#FFFFFF" d="M88.803,18.479c0,1.555-0.308,2.507-0.966,3.096c-0.659,0.616-1.611,0.813-2.465,0.813
		c-0.813,0-1.709-0.196-2.255-0.561l0.308-0.938c0.448,0.28,1.147,0.532,1.989,0.532c1.261,0,2.185-0.658,2.185-2.367v-0.756h-0.028
		c-0.378,0.63-1.106,1.135-2.156,1.135c-1.682,0-2.887-1.429-2.887-3.306c0-2.297,1.499-3.6,3.055-3.6
		c1.177,0,1.82,0.616,2.114,1.176h0.028l0.056-1.022h1.079c-0.027,0.49-0.056,1.037-0.056,1.863L88.803,18.479L88.803,18.479z
		 M87.585,15.355c0-0.21-0.015-0.393-0.07-0.561c-0.224-0.714-0.827-1.303-1.723-1.303c-1.176,0-2.018,0.995-2.018,2.563
		c0,1.331,0.672,2.438,2.003,2.438c0.757,0,1.442-0.477,1.709-1.261c0.07-0.21,0.099-0.448,0.099-0.659V15.355z"/>
	<path fill="#FFFFFF" d="M95.607,17.834c0,0.588,0.028,1.163,0.112,1.625h-1.121L94.5,18.605h-0.042
		c-0.378,0.532-1.107,1.009-2.073,1.009c-1.373,0-2.073-0.967-2.073-1.947c0-1.639,1.457-2.535,4.076-2.521v-0.14
		c0-0.56-0.154-1.569-1.541-1.569c-0.63,0-1.289,0.196-1.765,0.504l-0.28-0.813c0.561-0.364,1.373-0.602,2.227-0.602
		c2.073,0,2.578,1.415,2.578,2.773V17.834z M94.416,16c-1.346-0.028-2.871,0.21-2.871,1.527c0,0.798,0.532,1.177,1.163,1.177
		c0.882,0,1.441-0.561,1.639-1.135c0.042-0.126,0.07-0.266,0.07-0.392L94.416,16L94.416,16z"/>
	<path fill="#FFFFFF" d="M97.592,14.515c0-0.7-0.014-1.274-0.056-1.835h1.093l0.07,1.121h0.027c0.336-0.644,1.121-1.274,2.241-1.274
		c0.938,0,2.395,0.56,2.395,2.885v4.048h-1.231v-3.908c0-1.092-0.406-2.003-1.569-2.003c-0.813,0-1.442,0.574-1.652,1.261
		c-0.057,0.154-0.084,0.364-0.084,0.574v4.076h-1.233V14.515L97.592,14.515z"/>
	<path fill="#FFFFFF" d="M106.735,10.775c0.015,0.42-0.294,0.756-0.784,0.756c-0.435,0-0.742-0.336-0.742-0.756
		c0-0.435,0.321-0.771,0.77-0.771C106.441,10.004,106.735,10.34,106.735,10.775z M105.362,19.459v-6.78h1.233v6.78H105.362z"/>
	<path fill="#FFFFFF" d="M107.867,18.745l3.067-3.992c0.294-0.364,0.574-0.687,0.882-1.051v-0.028h-3.67V12.68h5.169l-0.014,0.771
		l-3.025,3.936c-0.279,0.378-0.561,0.714-0.868,1.064v0.028h3.964v0.98h-5.505V18.745z"/>
	<path fill="#FFFFFF" d="M115.219,16.294c0.028,1.667,1.093,2.353,2.325,2.353c0.882,0,1.415-0.154,1.877-0.35l0.21,0.882
		c-0.435,0.196-1.176,0.435-2.255,0.435c-2.087,0-3.334-1.387-3.334-3.432s1.205-3.656,3.18-3.656c2.213,0,2.802,1.947,2.802,3.193
		c0,0.252-0.027,0.448-0.042,0.575H115.219z M118.832,15.411c0.014-0.784-0.322-2.003-1.709-2.003c-1.247,0-1.793,1.148-1.892,2.003
		H118.832z"/>
	<path fill="#FFFFFF" d="M129.276,17.834c0,0.588,0.028,1.163,0.112,1.625h-1.121l-0.098-0.854h-0.042
		c-0.378,0.532-1.107,1.009-2.073,1.009c-1.373,0-2.073-0.967-2.073-1.947c0-1.639,1.457-2.535,4.076-2.521v-0.14
		c0-0.56-0.154-1.569-1.541-1.569c-0.63,0-1.289,0.196-1.765,0.504l-0.28-0.813c0.561-0.364,1.373-0.602,2.227-0.602
		c2.073,0,2.578,1.415,2.578,2.773V17.834L129.276,17.834z M128.086,16c-1.345-0.028-2.872,0.21-2.872,1.527
		c0,0.798,0.532,1.177,1.163,1.177c0.882,0,1.441-0.561,1.639-1.135c0.042-0.126,0.07-0.266,0.07-0.392V16L128.086,16z"/>
	<path fill="#FFFFFF" d="M131.261,14.515c0-0.7-0.014-1.274-0.056-1.835h1.093l0.07,1.121h0.027
		c0.336-0.644,1.121-1.274,2.241-1.274c0.938,0,2.396,0.56,2.396,2.885v4.048H135.8v-3.908c0-1.092-0.406-2.003-1.569-2.003
		c-0.813,0-1.442,0.574-1.652,1.261c-0.057,0.154-0.084,0.364-0.084,0.574v4.076h-1.233V14.515z"/>
	<path fill="#FFFFFF" d="M144.887,9.514v8.194c0,0.603,0.014,1.289,0.056,1.751h-1.105l-0.057-1.177h-0.027
		c-0.378,0.756-1.205,1.331-2.313,1.331c-1.639,0-2.898-1.387-2.898-3.446c-0.015-2.255,1.387-3.642,3.04-3.642
		c1.037,0,1.736,0.49,2.045,1.037h0.027V9.514H144.887z M143.654,15.439c0-0.154-0.014-0.364-0.056-0.519
		c-0.182-0.784-0.854-1.429-1.779-1.429c-1.274,0-2.03,1.121-2.03,2.62c0,1.373,0.672,2.507,2.003,2.507
		c0.826,0,1.583-0.546,1.807-1.471c0.042-0.168,0.056-0.336,0.056-0.533V15.439z"/>
	<path fill="#FFFFFF" d="M149.895,14.795c0-0.798-0.014-1.485-0.056-2.115h1.079l0.042,1.331h0.056
		c0.309-0.911,1.051-1.485,1.877-1.485c0.141,0,0.238,0.014,0.351,0.042v1.163c-0.126-0.028-0.252-0.042-0.42-0.042
		c-0.869,0-1.485,0.658-1.653,1.583c-0.028,0.168-0.057,0.364-0.057,0.575v3.614h-1.219V14.795L149.895,14.795z"/>
	<path fill="#FFFFFF" d="M155.02,16.294c0.028,1.667,1.092,2.353,2.325,2.353c0.882,0,1.415-0.154,1.877-0.35l0.21,0.882
		c-0.434,0.196-1.176,0.435-2.255,0.435c-2.087,0-3.334-1.387-3.334-3.432s1.205-3.656,3.18-3.656c2.213,0,2.803,1.947,2.803,3.193
		c0,0.252-0.028,0.448-0.042,0.575H155.02z M158.634,15.411c0.014-0.784-0.322-2.003-1.709-2.003c-1.247,0-1.793,1.148-1.891,2.003
		H158.634z"/>
	<path fill="#FFFFFF" d="M161.837,12.68l0.896,3.446c0.196,0.757,0.378,1.457,0.504,2.157h0.042
		c0.154-0.686,0.379-1.415,0.604-2.157l1.105-3.446h1.037l1.051,3.39c0.252,0.813,0.447,1.527,0.603,2.213h0.042
		c0.112-0.686,0.294-1.4,0.518-2.199l0.968-3.404h1.219l-2.187,6.78h-1.12l-1.036-3.236c-0.238-0.756-0.436-1.429-0.604-2.227
		h-0.027c-0.168,0.813-0.379,1.513-0.617,2.241l-1.092,3.222h-1.121l-2.045-6.78H161.837z"/>
	<path fill="#FFFFFF" d="M176.358,17.834c0,0.588,0.028,1.163,0.112,1.625h-1.121l-0.098-0.854h-0.042
		c-0.378,0.532-1.107,1.009-2.073,1.009c-1.373,0-2.073-0.967-2.073-1.947c0-1.639,1.457-2.535,4.076-2.521v-0.14
		c0-0.56-0.154-1.569-1.541-1.569c-0.63,0-1.289,0.196-1.765,0.504l-0.28-0.813c0.561-0.364,1.373-0.602,2.227-0.602
		c2.073,0,2.578,1.415,2.578,2.773V17.834z M175.167,16c-1.346-0.028-2.871,0.21-2.871,1.527c0,0.798,0.532,1.177,1.163,1.177
		c0.882,0,1.441-0.561,1.639-1.135c0.042-0.126,0.07-0.266,0.07-0.392L175.167,16L175.167,16z"/>
	<path fill="#FFFFFF" d="M178.343,14.795c0-0.798-0.014-1.485-0.056-2.115h1.079l0.042,1.331h0.056
		c0.308-0.911,1.051-1.485,1.877-1.485c0.14,0,0.238,0.014,0.351,0.042v1.163c-0.126-0.028-0.252-0.042-0.42-0.042
		c-0.869,0-1.484,0.658-1.652,1.583c-0.028,0.168-0.057,0.364-0.057,0.575v3.614h-1.219L178.343,14.795L178.343,14.795z"/>
	<path fill="#FFFFFF" d="M188.636,9.514v8.194c0,0.603,0.014,1.289,0.056,1.751h-1.105l-0.057-1.177h-0.027
		c-0.378,0.756-1.205,1.331-2.313,1.331c-1.639,0-2.898-1.387-2.898-3.446c-0.015-2.255,1.387-3.642,3.04-3.642
		c1.037,0,1.736,0.49,2.045,1.037h0.027V9.514H188.636z M187.404,15.439c0-0.154-0.014-0.364-0.056-0.519
		c-0.182-0.784-0.854-1.429-1.779-1.429c-1.274,0-2.03,1.121-2.03,2.62c0,1.373,0.672,2.507,2.003,2.507
		c0.826,0,1.583-0.546,1.807-1.471c0.042-0.168,0.056-0.336,0.056-0.533V15.439z"/>
</g>
</svg>
