<?xml version="1.0" encoding="utf-8"?>
<!-- Generator: Adobe Illustrator 16.0.0, SVG Export Plug-In . SVG Version: 6.00 Build 0)  -->
<!DOCTYPE svg PUBLIC "-//W3C//DTD SVG 1.1//EN" "http://www.w3.org/Graphics/SVG/1.1/DTD/svg11.dtd">
<svg version="1.1" id="Layer_1" xmlns="http://www.w3.org/2000/svg" xmlns:xlink="http://www.w3.org/1999/xlink" x="0px" y="0px"
	 width="640px" height="480px" viewBox="0 0 640 480" enable-background="new 0 0 640 480" xml:space="preserve">
<rect x="1.667" fill="#005551" width="638.333" height="480"/>
<path opacity="0.5" fill="#FFFFFF" enable-background="new    " d="M-95.441-422.861
	C-210.982-209.823-131.964,56.574,81.103,172.129c95.903,52.012,202.604,64.464,301.533,43.129
	c21.698,21.518,32.791,49.398,18.332,82.391c-1.104,2.531-2.381,4.952-3.645,7.37c22.221-7.073,42.2-24.505,53.046-49.167
	c9.367-21.446,17.754-46.852,18.98-68.942c85.09-37.937,158.874-103.108,206.725-191.342
	c115.555-213.063,36.511-479.438-176.529-594.978C286.476-714.966,20.11-635.924-95.441-422.861z"/>
<path display="none" opacity="0.4" fill="#FFFFFF" enable-background="new    " d="M-45.849,275.016
	c-0.912,39.801,30.598,72.807,70.398,73.734c24.307,0.57,46.068-10.982,59.549-29.111c2.852,0.26,6.121-0.246,8.949-0.973
	c3.5-0.912,6.205-3.342,7.561-6.373c-0.359,0.113-0.697,0.234-1.053,0.326c-3.818,0.986-6.879-0.387-9.219-2.934
	c4.844-9.41,7.693-20.033,7.951-31.314c0.916-39.797-30.588-72.813-70.385-73.744C-11.901,203.699-44.915,235.211-45.849,275.016z"
	/>
<circle display="none" opacity="0.2" fill="#FFFFFF" enable-background="new    " cx="599.337" cy="341.141" r="18.441"/>
<path display="none" opacity="0.15" fill="#FFFFFF" enable-background="new    " d="M22.784,314.372
	c50.091,0,90.697,40.606,90.697,90.697s-40.606,90.701-90.697,90.701c-50.095,0-90.701-40.61-90.701-90.701
	S-27.311,314.372,22.784,314.372z"/>
<line fill="none" x1="77.515" y1="153.952" x2="-15.428" y2="180.01"/>
<g opacity="0.15">
	<g>
		<g>
			<g>
				<g>
					
						<rect x="738.76" y="236.839" transform="matrix(0.4532 -0.8914 0.8914 0.4532 191.1741 789.974)" fill="#FFFFFF" width="1.498" height="4.637"/>
					
						<rect x="744.925" y="239.916" transform="matrix(0.454 -0.891 0.891 0.454 191.3156 796.6669)" fill="#FFFFFF" width="1.497" height="4.638"/>
					
						<rect x="751.091" y="243.074" transform="matrix(0.4545 -0.8907 0.8907 0.4545 191.5374 803.5513)" fill="#FFFFFF" width="1.495" height="4.637"/>
					
						<rect x="757.218" y="246.227" transform="matrix(0.4545 -0.8907 0.8907 0.4545 192.0712 810.7286)" fill="#FFFFFF" width="1.495" height="4.637"/>
				</g>
			</g>
			<g>
				<g>
					
						<rect x="763.34" y="249.397" transform="matrix(0.454 -0.891 0.891 0.454 192.9224 818.2518)" fill="#FFFFFF" width="1.497" height="4.639"/>
					
						<rect x="769.524" y="252.501" transform="matrix(0.4555 -0.8902 0.8902 0.4555 192.5329 824.4424)" fill="#FFFFFF" width="1.496" height="4.637"/>
					
						<rect x="775.681" y="255.597" transform="matrix(0.4545 -0.8907 0.8907 0.4545 193.7965 832.2853)" fill="#FFFFFF" width="1.495" height="4.637"/>
					
						<rect x="781.847" y="258.781" transform="matrix(0.4542 -0.8909 0.8909 0.4542 194.4959 839.6898)" fill="#FFFFFF" width="1.496" height="4.636"/>
					
						<rect x="788.012" y="261.896" transform="matrix(0.4548 -0.8906 0.8906 0.4548 194.7382 846.5287)" fill="#FFFFFF" width="1.495" height="4.638"/>
					
						<rect x="794.131" y="265.076" transform="matrix(0.454 -0.891 0.891 0.454 195.7587 854.2397)" fill="#FFFFFF" width="1.495" height="4.637"/>
					
						<rect x="800.3" y="268.193" transform="matrix(0.454 -0.891 0.891 0.454 196.3504 861.4378)" fill="#FFFFFF" width="1.495" height="4.637"/>
				</g>
			</g>
		</g>
	</g>
</g>
<g display="none" opacity="0.15">
	<g display="inline">
		<g>
			<g>
				<g>
					
						<rect x="71.518" y="47.833" transform="matrix(0.6645 -0.7473 0.7473 0.6645 -13.875 71.8819)" fill="#FFFFFF" width="3.188" height="7.12"/>
					
						<rect x="79.429" y="54.886" transform="matrix(0.6644 -0.7474 0.7474 0.6644 -16.4881 80.1731)" fill="#FFFFFF" width="3.187" height="7.119"/>
					
						<rect x="87.451" y="61.972" transform="matrix(0.665 -0.7468 0.7468 0.665 -19.1142 88.4499)" fill="#FFFFFF" width="3.189" height="7.123"/>
					
						<rect x="95.294" y="68.911" transform="matrix(0.6646 -0.7472 0.7472 0.6646 -21.652 96.7032)" fill="#FFFFFF" width="3.192" height="7.117"/>
				</g>
			</g>
			<g>
				<g>
					
						<rect x="103.175" y="76.016" transform="matrix(0.6649 -0.747 0.747 0.6649 -24.329 104.9284)" fill="#FFFFFF" width="3.187" height="7.121"/>
					
						<rect x="111.118" y="83" transform="matrix(0.6646 -0.7472 0.7472 0.6646 -26.8739 113.2527)" fill="#FFFFFF" width="3.185" height="7.119"/>
					
						<rect x="119.058" y="89.983" transform="matrix(0.6648 -0.747 0.747 0.6648 -29.4353 121.4838)" fill="#FFFFFF" width="3.19" height="7.118"/>
					
						<rect x="126.958" y="97.101" transform="matrix(0.6652 -0.7467 0.7467 0.6652 -32.1164 129.6937)" fill="#FFFFFF" width="3.192" height="7.114"/>
					
						<rect x="134.903" y="104.079" transform="matrix(0.6652 -0.7467 0.7467 0.6652 -34.6705 137.9549)" fill="#FFFFFF" width="3.189" height="7.118"/>
					
						<rect x="142.771" y="111.296" transform="matrix(0.6651 -0.7467 0.7467 0.6651 -37.4216 146.2668)" fill="#FFFFFF" width="3.188" height="7.119"/>
					
						<rect x="150.722" y="118.241" transform="matrix(0.6649 -0.7469 0.7469 0.6649 -39.9353 154.5872)" fill="#FFFFFF" width="3.19" height="7.119"/>
				</g>
			</g>
			<g>
				<g>
					
						<rect x="158.641" y="125.215" transform="matrix(0.6639 -0.7478 0.7478 0.6639 -42.4459 163.1066)" fill="#FFFFFF" width="3.189" height="7.119"/>
					
						<rect x="166.566" y="132.339" transform="matrix(0.6641 -0.7476 0.7476 0.6641 -45.1217 171.3601)" fill="#FFFFFF" width="3.189" height="7.122"/>
					
						<rect x="174.462" y="139.38" transform="matrix(0.6643 -0.7475 0.7475 0.6643 -47.7411 179.5815)" fill="#FFFFFF" width="3.188" height="7.12"/>
					
						<rect x="182.436" y="146.45" transform="matrix(0.665 -0.7468 0.7468 0.665 -50.3843 187.6906)" fill="#FFFFFF" width="3.187" height="7.118"/>
					
						<rect x="190.33" y="153.487" transform="matrix(0.6645 -0.7473 0.7473 0.6645 -52.969 196.1109)" fill="#FFFFFF" width="3.191" height="7.121"/>
					
						<rect x="198.347" y="160.587" transform="matrix(0.6647 -0.7471 0.7471 0.6647 -55.5946 204.4137)" fill="#FFFFFF" width="3.188" height="7.117"/>
					
						<rect x="206.166" y="167.505" transform="matrix(0.6648 -0.747 0.747 0.6648 -58.1483 212.5329)" fill="#FFFFFF" width="3.191" height="7.119"/>
				</g>
			</g>
		</g>
	</g>
</g>
<line fill="none" x1="372.492" y1="205.413" x2="442.526" y2="172.493"/>
<line fill="none" x1="102.821" y1="84.865" x2="31.043" y2="14.361"/>
<g opacity="0.15">
	<g>
		<g>
			<g>
				<g>
					
						<rect x="825.055" y="91.195" transform="matrix(0.7184 0.6956 -0.6956 0.7184 297.1685 -548.2554)" fill="#FFFFFF" width="1.497" height="3.495"/>
					
						<rect x="821.421" y="95.002" transform="matrix(0.7186 0.6954 -0.6954 0.7186 298.6524 -544.5416)" fill="#FFFFFF" width="1.498" height="3.494"/>
					
						<rect x="817.773" y="98.726" transform="matrix(0.7184 0.6956 -0.6956 0.7184 300.3658 -541.0778)" fill="#FFFFFF" width="1.498" height="3.494"/>
					
						<rect x="814.202" y="102.477" transform="matrix(0.7181 0.6959 -0.6959 0.7181 302.2518 -537.7624)" fill="#FFFFFF" width="1.496" height="3.494"/>
					
						<rect x="810.597" y="106.177" transform="matrix(0.7183 0.6958 -0.6958 0.7183 303.6688 -534.0994)" fill="#FFFFFF" width="1.497" height="3.493"/>
					
						<rect x="806.942" y="109.917" transform="matrix(0.7181 0.6959 -0.6959 0.7181 305.3823 -530.6125)" fill="#FFFFFF" width="1.496" height="3.494"/>
					
						<rect x="803.315" y="113.651" transform="matrix(0.7183 0.6958 -0.6958 0.7183 306.8177 -526.9276)" fill="#FFFFFF" width="1.497" height="3.492"/>
				</g>
			</g>
			<g>
				<g>
					
						<rect x="799.73" y="117.407" transform="matrix(0.7186 0.6954 -0.6954 0.7186 308.1293 -523.1516)" fill="#FFFFFF" width="1.498" height="3.493"/>
					
						<rect x="796.085" y="121.131" transform="matrix(0.7181 0.6959 -0.6959 0.7181 310.1264 -519.8961)" fill="#FFFFFF" width="1.496" height="3.494"/>
					
						<rect x="792.511" y="124.922" transform="matrix(0.718 0.6961 -0.6961 0.718 311.9076 -516.4534)" fill="#FFFFFF" width="1.496" height="3.493"/>
					
						<rect x="788.872" y="128.623" transform="matrix(0.7184 0.6956 -0.6956 0.7184 313.0141 -512.5486)" fill="#FFFFFF" width="1.497" height="3.492"/>
					
						<rect x="785.221" y="132.343" transform="matrix(0.7183 0.6958 -0.6958 0.7183 314.7258 -509.0716)" fill="#FFFFFF" width="1.497" height="3.495"/>
					
						<rect x="781.601" y="136.081" transform="matrix(0.7183 0.6958 -0.6958 0.7183 316.3067 -505.5002)" fill="#FFFFFF" width="1.497" height="3.494"/>
					
						<rect x="777.989" y="139.858" transform="matrix(0.7184 0.6956 -0.6956 0.7184 317.7749 -501.8223)" fill="#FFFFFF" width="1.498" height="3.493"/>
				</g>
			</g>
			<g>
				<g>
					
						<rect x="774.4" y="143.624" transform="matrix(0.7181 0.6959 -0.6959 0.7181 319.6669 -498.4648)" fill="#FFFFFF" width="1.496" height="3.493"/>
					
						<rect x="770.736" y="147.262" transform="matrix(0.7186 0.6954 -0.6954 0.7186 320.7233 -494.5792)" fill="#FFFFFF" width="1.496" height="3.495"/>
				</g>
			</g>
		</g>
	</g>
</g>
<line fill="none" x1="-14.597" y1="186.693" x2="132.633" y2="190.297"/>
<circle display="none" opacity="0.2" fill="#FFFFFF" enable-background="new    " cx="22.782" cy="14.361" r="52.846"/>
<circle display="none" fill="#248784" cx="229.432" cy="190.297" r="26.405"/>
<ellipse display="none" opacity="0.2" fill="#B5C4C2" cx="381.701" cy="412.118" rx="121.045" ry="121.536"/>
<g display="none" opacity="0.15">
	<g display="inline">
		<g>
			<g>
				<g>
					
						<rect x="447.582" y="231.191" transform="matrix(0.9491 0.3151 -0.3151 0.9491 97.2453 -129.5564)" fill="#FFFFFF" width="3.54" height="9.638"/>
					<polygon fill="#FFFFFF" points="444.979,254.835 441.615,253.722 444.645,244.573 448.006,245.679 					"/>
				</g>
			</g>
			<g>
				<g>
					
						<rect x="438.454" y="258.563" transform="matrix(0.9497 0.3131 -0.3131 0.9497 104.5938 -124.5861)" fill="#FFFFFF" width="3.543" height="9.644"/>
					
						<rect x="434.045" y="272.09" transform="matrix(0.9495 0.3139 -0.3139 0.9495 108.9565 -122.8119)" fill="#FFFFFF" width="3.546" height="9.644"/>
					<polygon fill="#FFFFFF" points="431.424,295.79 428.055,294.673 431.086,285.521 434.447,286.634 					"/>
				</g>
			</g>
		</g>
	</g>
</g>
</svg>
