<?xml version="1.0" encoding="utf-8"?>
<!-- Generator: Adobe Illustrator 16.0.0, SVG Export Plug-In . SVG Version: 6.00 Build 0)  -->
<!DOCTYPE svg PUBLIC "-//W3C//DTD SVG 1.1//EN" "http://www.w3.org/Graphics/SVG/1.1/DTD/svg11.dtd">
<svg version="1.1" id="Layer_1" xmlns="http://www.w3.org/2000/svg" xmlns:xlink="http://www.w3.org/1999/xlink" x="0px" y="0px"
	 width="640px" height="480px" viewBox="0 0 640 480" enable-background="new 0 0 640 480" xml:space="preserve">
<rect x="1.667" fill="#005551" width="638.333" height="480"/>
<path opacity="0.5" fill="#FFFFFF" enable-background="new    " d="M510.061-123.865c-99.941,0-180.975,81.018-180.975,180.973
	c0,44.99,16.463,86.117,43.646,117.783c-3.533,12.096-11.459,21.6-26.262,22.844c-1.135,0.098-2.264,0.111-3.389,0.129
	c6.934,6.664,17.18,10.48,28.252,9.563c9.615-0.82,20.475-2.775,28.723-6.674c30.48,23.387,68.611,37.32,110.004,37.32
	c99.953,0,180.973-81.023,180.973-180.965C691.033-42.848,610.014-123.865,510.061-123.865z"/>
<path opacity="0.4" fill="#FFFFFF" enable-background="new    " d="M-46.01,273.049c-1.156,39.794,30.151,72.993,69.946,74.164
	c24.303,0.719,46.134-10.699,59.726-28.746c2.85,0.277,6.122-0.208,8.955-0.918c3.505-0.891,6.225-3.303,7.599-6.326
	c-0.36,0.111-0.698,0.23-1.055,0.319c-3.824,0.964-6.876-0.428-9.201-2.989c4.901-9.381,7.816-19.986,8.143-31.266
	c1.16-39.79-30.142-72.999-69.932-74.174C-11.626,201.942-44.832,233.251-46.01,273.049z"/>
<circle opacity="0.2" fill="#FFFFFF" enable-background="new    " cx="598.759" cy="343.124" r="18.442"/>
<path opacity="0.15" fill="#FFFFFF" enable-background="new    " d="M22.38,312.825c50.09,0.307,90.447,41.161,90.14,91.251
	c-0.307,50.089-41.161,90.451-91.251,90.144c-50.094-0.307-90.451-41.165-90.144-91.255S-27.713,312.519,22.38,312.825z"/>
<line fill="none" x1="77.515" y1="153.952" x2="-15.428" y2="180.01"/>
<g opacity="0.15">
	<g>
		<g>
			<g>
				<g>
					
						<rect x="738.76" y="236.839" transform="matrix(0.4532 -0.8914 0.8914 0.4532 191.1741 789.974)" fill="#FFFFFF" width="1.498" height="4.637"/>
					
						<rect x="744.925" y="239.916" transform="matrix(0.454 -0.891 0.891 0.454 191.3156 796.6669)" fill="#FFFFFF" width="1.497" height="4.638"/>
					
						<rect x="751.091" y="243.074" transform="matrix(0.4545 -0.8907 0.8907 0.4545 191.5374 803.5513)" fill="#FFFFFF" width="1.495" height="4.637"/>
					
						<rect x="757.218" y="246.227" transform="matrix(0.4545 -0.8907 0.8907 0.4545 192.0712 810.7286)" fill="#FFFFFF" width="1.495" height="4.637"/>
				</g>
			</g>
			<g>
				<g>
					
						<rect x="763.34" y="249.397" transform="matrix(0.454 -0.891 0.891 0.454 192.9224 818.2518)" fill="#FFFFFF" width="1.497" height="4.639"/>
					
						<rect x="769.524" y="252.501" transform="matrix(0.4555 -0.8902 0.8902 0.4555 192.5329 824.4424)" fill="#FFFFFF" width="1.496" height="4.637"/>
					
						<rect x="775.681" y="255.597" transform="matrix(0.4545 -0.8907 0.8907 0.4545 193.7965 832.2853)" fill="#FFFFFF" width="1.495" height="4.637"/>
					
						<rect x="781.847" y="258.781" transform="matrix(0.4542 -0.8909 0.8909 0.4542 194.4959 839.6898)" fill="#FFFFFF" width="1.496" height="4.636"/>
					
						<rect x="788.012" y="261.896" transform="matrix(0.4548 -0.8906 0.8906 0.4548 194.7382 846.5287)" fill="#FFFFFF" width="1.495" height="4.638"/>
					
						<rect x="794.131" y="265.076" transform="matrix(0.454 -0.891 0.891 0.454 195.7587 854.2397)" fill="#FFFFFF" width="1.495" height="4.637"/>
					
						<rect x="800.3" y="268.193" transform="matrix(0.454 -0.891 0.891 0.454 196.3504 861.4378)" fill="#FFFFFF" width="1.495" height="4.637"/>
				</g>
			</g>
		</g>
	</g>
</g>
<g opacity="0.15">
	<g>
		<g>
			<g>
				<g>
					
						<rect x="72.724" y="46.598" transform="matrix(0.669 -0.7433 0.7433 0.669 -12.6815 71.8407)" fill="#FFFFFF" width="3.189" height="7.12"/>
					
						<rect x="80.592" y="53.7" transform="matrix(0.6689 -0.7434 0.7434 0.6689 -15.3522 80.0526)" fill="#FFFFFF" width="3.186" height="7.119"/>
					
						<rect x="88.57" y="60.835" transform="matrix(0.6696 -0.7428 0.7428 0.6696 -18.0373 88.2491)" fill="#FFFFFF" width="3.189" height="7.123"/>
					
						<rect x="96.371" y="67.822" transform="matrix(0.6692 -0.7431 0.7431 0.6692 -20.6342 96.4109)" fill="#FFFFFF" width="3.192" height="7.117"/>
				</g>
			</g>
			<g>
				<g>
					
						<rect x="104.208" y="74.976" transform="matrix(0.6695 -0.7428 0.7428 0.6695 -23.369 104.5534)" fill="#FFFFFF" width="3.187" height="7.12"/>
					
						<rect x="112.108" y="82.008" transform="matrix(0.6692 -0.7431 0.7431 0.6692 -25.9718 112.796)" fill="#FFFFFF" width="3.185" height="7.12"/>
					
						<rect x="120.006" y="89.039" transform="matrix(0.6693 -0.743 0.743 0.6693 -28.588 120.9632)" fill="#FFFFFF" width="3.19" height="7.118"/>
					
						<rect x="127.862" y="96.205" transform="matrix(0.6698 -0.7426 0.7426 0.6698 -31.3296 129.0767)" fill="#FFFFFF" width="3.192" height="7.115"/>
					
						<rect x="135.763" y="103.232" transform="matrix(0.6698 -0.7425 0.7425 0.6698 -33.9419 137.2539)" fill="#FFFFFF" width="3.189" height="7.118"/>
					
						<rect x="143.587" y="110.497" transform="matrix(0.6697 -0.7426 0.7426 0.6697 -36.7496 145.485)" fill="#FFFFFF" width="3.188" height="7.119"/>
					
						<rect x="151.495" y="117.491" transform="matrix(0.6694 -0.7429 0.7429 0.6694 -39.3179 153.7451)" fill="#FFFFFF" width="3.19" height="7.119"/>
				</g>
			</g>
			<g>
				<g>
					
						<rect x="159.371" y="124.513" transform="matrix(0.6684 -0.7438 0.7438 0.6684 -41.8864 162.1849)" fill="#FFFFFF" width="3.189" height="7.12"/>
					
						<rect x="167.253" y="131.685" transform="matrix(0.6688 -0.7435 0.7435 0.6688 -44.6235 170.3356)" fill="#FFFFFF" width="3.189" height="7.122"/>
					
						<rect x="175.106" y="138.775" transform="matrix(0.6689 -0.7433 0.7433 0.6689 -47.3003 178.4755)" fill="#FFFFFF" width="3.188" height="7.12"/>
					
						<rect x="183.036" y="145.894" transform="matrix(0.6696 -0.7427 0.7427 0.6696 -50.0012 186.5024)" fill="#FFFFFF" width="3.187" height="7.118"/>
					
						<rect x="190.886" y="152.978" transform="matrix(0.6689 -0.7434 0.7434 0.6689 -52.6313 194.9212)" fill="#FFFFFF" width="3.192" height="7.122"/>
					
						<rect x="198.86" y="160.128" transform="matrix(0.6693 -0.743 0.743 0.6693 -55.3277 203.0627)" fill="#FFFFFF" width="3.188" height="7.116"/>
					
						<rect x="206.637" y="167.093" transform="matrix(0.6694 -0.7429 0.7429 0.6694 -57.938 211.1038)" fill="#FFFFFF" width="3.191" height="7.119"/>
				</g>
			</g>
		</g>
	</g>
</g>
<line fill="none" x1="372.492" y1="205.413" x2="442.526" y2="172.493"/>
<line fill="none" x1="102.821" y1="84.865" x2="31.043" y2="14.361"/>
<g opacity="0.15">
	<g>
		<g>
			<g>
				<g>
					
						<rect x="825.055" y="91.195" transform="matrix(0.7184 0.6956 -0.6956 0.7184 297.1685 -548.2554)" fill="#FFFFFF" width="1.497" height="3.495"/>
					
						<rect x="821.421" y="95.002" transform="matrix(0.7186 0.6954 -0.6954 0.7186 298.6524 -544.5416)" fill="#FFFFFF" width="1.498" height="3.494"/>
					
						<rect x="817.773" y="98.726" transform="matrix(0.7184 0.6956 -0.6956 0.7184 300.3658 -541.0778)" fill="#FFFFFF" width="1.498" height="3.494"/>
					
						<rect x="814.202" y="102.477" transform="matrix(0.7181 0.6959 -0.6959 0.7181 302.2518 -537.7624)" fill="#FFFFFF" width="1.496" height="3.494"/>
					
						<rect x="810.597" y="106.177" transform="matrix(0.7183 0.6958 -0.6958 0.7183 303.6688 -534.0994)" fill="#FFFFFF" width="1.497" height="3.493"/>
					
						<rect x="806.942" y="109.917" transform="matrix(0.7181 0.6959 -0.6959 0.7181 305.3823 -530.6125)" fill="#FFFFFF" width="1.496" height="3.494"/>
					
						<rect x="803.315" y="113.651" transform="matrix(0.7183 0.6958 -0.6958 0.7183 306.8177 -526.9276)" fill="#FFFFFF" width="1.497" height="3.492"/>
				</g>
			</g>
			<g>
				<g>
					
						<rect x="799.73" y="117.407" transform="matrix(0.7186 0.6954 -0.6954 0.7186 308.1293 -523.1516)" fill="#FFFFFF" width="1.498" height="3.493"/>
					
						<rect x="796.085" y="121.131" transform="matrix(0.7181 0.6959 -0.6959 0.7181 310.1264 -519.8961)" fill="#FFFFFF" width="1.496" height="3.494"/>
					
						<rect x="792.511" y="124.922" transform="matrix(0.718 0.6961 -0.6961 0.718 311.9076 -516.4534)" fill="#FFFFFF" width="1.496" height="3.493"/>
					
						<rect x="788.872" y="128.623" transform="matrix(0.7184 0.6956 -0.6956 0.7184 313.0141 -512.5486)" fill="#FFFFFF" width="1.497" height="3.492"/>
					
						<rect x="785.221" y="132.343" transform="matrix(0.7183 0.6958 -0.6958 0.7183 314.7258 -509.0716)" fill="#FFFFFF" width="1.497" height="3.495"/>
					
						<rect x="781.601" y="136.081" transform="matrix(0.7183 0.6958 -0.6958 0.7183 316.3067 -505.5002)" fill="#FFFFFF" width="1.497" height="3.494"/>
					
						<rect x="777.989" y="139.858" transform="matrix(0.7184 0.6956 -0.6956 0.7184 317.7749 -501.8223)" fill="#FFFFFF" width="1.498" height="3.493"/>
				</g>
			</g>
			<g>
				<g>
					
						<rect x="774.4" y="143.624" transform="matrix(0.7181 0.6959 -0.6959 0.7181 319.6669 -498.4648)" fill="#FFFFFF" width="1.496" height="3.493"/>
					
						<rect x="770.736" y="147.262" transform="matrix(0.7186 0.6954 -0.6954 0.7186 320.7233 -494.5792)" fill="#FFFFFF" width="1.496" height="3.495"/>
				</g>
			</g>
		</g>
	</g>
</g>
<line fill="none" x1="-14.597" y1="186.693" x2="132.633" y2="190.297"/>
<circle opacity="0.2" fill="#FFFFFF" enable-background="new    " cx="24.216" cy="12.82" r="52.846"/>
<circle fill="#248784" cx="229.784" cy="190.018" r="26.405"/>
<ellipse transform="matrix(0.0061 -1 1 0.0061 -34.3983 790.9255)" opacity="0.2" fill="#B5C4C2" cx="380.692" cy="412.768" rx="121.536" ry="121.044"/>
<g opacity="0.15">
	<g>
		<g>
			<g>
				<g>
					
						<rect x="447.65" y="232.258" transform="matrix(0.947 0.3211 -0.3211 0.947 99.9268 -131.7567)" fill="#FFFFFF" width="3.54" height="9.637"/>
					<polygon fill="#FFFFFF" points="444.932,255.874 441.575,254.74 444.661,245.611 448.016,246.736 					"/>
				</g>
			</g>
			<g>
				<g>
					
						<rect x="438.355" y="259.573" transform="matrix(0.9479 0.3186 -0.3186 0.9479 107.1818 -126.4553)" fill="#FFFFFF" width="3.543" height="9.644"/>
					
						<rect x="433.863" y="273.074" transform="matrix(0.9474 0.3199 -0.3199 0.9474 111.8089 -124.7716)" fill="#FFFFFF" width="3.547" height="9.644"/>
					<polygon fill="#FFFFFF" points="431.127,296.746 427.765,295.607 430.852,286.475 434.206,287.607 					"/>
				</g>
			</g>
		</g>
	</g>
</g>
</svg>
