<?xml version="1.0" encoding="utf-8"?>
<!-- Generator: Adobe Illustrator 16.0.0, SVG Export Plug-In . SVG Version: 6.00 Build 0)  -->
<!DOCTYPE svg PUBLIC "-//W3C//DTD SVG 1.1//EN" "http://www.w3.org/Graphics/SVG/1.1/DTD/svg11.dtd">
<svg version="1.1" id="Layer_1" xmlns="http://www.w3.org/2000/svg" xmlns:xlink="http://www.w3.org/1999/xlink" x="0px" y="0px"
	 width="2400px" height="800px" viewBox="0 0 2400 800" enable-background="new 0 0 2400 800" xml:space="preserve">
<g>
	<path fill-rule="evenodd" clip-rule="evenodd" fill="#3782D1" d="M852.044,687.25c-22.949,22.784-50.467,38.049-80.926,48.18
		c-14.11,4.693-28.257,9.54-43.343,10.245c-4.058-0.842-1.972-4.238-2.692-6.47c19.392-15.208,34.815-33.434,43.555-56.836
		c4.184-11.2,4.282-10.94-7.416-12.867c-35.713-5.882-74.423-10.95-153.34-35.612c-7.166-2.238-53.565-36.696-41.164-106.7
		c1.073-6.284,34.025-150.215,42.204-160.228c20.268-39.742,31.217-39.742,60.026-39.351
		c42.217-6.233,463.742,64.147,479.618,67.567c12.347,2.658,24.114,6.487,35.409,12.114c8.09,4.032,14.367,10.984,23.067,13.946
		c0,0-0.032-0.069-0.035-0.066c2.656,4.504,5.508,8.809,10.8,10.633c0,0-0.098-0.005-0.098-0.003
		c1.02,2.329,1.545,5.087,3.143,6.911c10.91,12.467,16.309,27.411,20.165,43.154c3.332,13.608-23.739,161.382-26.667,169.932
		C1193.449,764.695,995.017,716.629,852.044,687.25z"/>
	<path fill-rule="evenodd" clip-rule="evenodd" fill="#15CBC6" d="M700.641,45.455c10.185,0,31.752,211.103,31.048,217.353
		c-0.509,4.514-373.123,43.016-374.053,45.748c-0.957,2.811,16.817,35.545,29.8,44.622c4.672,4.724,9.633,9.098,14.853,13.23
		c10.018,7.929,19.831,16.118,29.728,24.197c0.029,0.831,0.445,1.199,1.276,1.076l0.137,0.105c4.434,6.227,4.069,7.207-3.058,8.214
		c-43.72-15.924-87.435-31.864-131.163-47.765c-19.551-7.11-39.035-14.421-58.73-21.104
		c-11.211-3.804-130.963,12.474-145.797,14.458c-9.753,1.304-18.555,3.131-24.313-0.757c-5.139-3.47-37.475-211.918-36.01-224.244
		C37.184,120.035,699.335,45.455,700.641,45.455z"/>
	<path fill-rule="evenodd" clip-rule="evenodd" fill="#3C7741" d="M1296.397,31.656c0.739-0.179,1.479-0.357,2.22-0.536
		c26.297-5.629,52.853-8.779,79.785-8.01c34.623,0.988,68.436,6.283,101.761,16.249c24.136,7.217,47.198,16.701,70.101,26.861
		c-0.001,0.001,0.27-0.21,0.271-0.213c1.037,2.107,3.093,2.479,5.075,2.975c17.189,10.281,34.748,19.981,50.738,32.15
		c21.714,16.522,41.642,34.734,59.298,55.791c27.411,32.69,47.59,68.666,54.913,110.912c8.177,47.179-2.306,90.09-33.155,127.094
		c-22.334,26.789-51.138,44.494-83.825,56.183c-43.448,15.535-88.209,19.06-133.835,15.004
		c-0.84-1.454-62.136-11.785-103.544-38.638c-2.091-0.348-5.334,0.138-5.912,3.604c-2.175,2.487-47.234,102.573-47.305,103.791
		c-0.778,0.525-1.557,1.052-2.332,1.575c-4.723-33.41-9.444-66.819-14.173-100.227c-1.146-8.098-2.54-16.171-3.373-24.3
		c-0.437-4.279-2.128-7.094-5.777-9.363c-6.932-4.316-13.612-9.037-20.397-13.59l-0.059,0.014
		c-3.436-2.721-18.955-15.378-23.309-18.826c-0.359-0.119-22.956-22.484-25.821-25.661c-29.446-32.666-52.265-68.94-62.069-112.493
		c-7.358-32.683-5.762-64.658,7.172-95.681c18.539-44.477,52.541-72.989,95.811-91.787
		C1262.096,43.039,1290.248,33.22,1296.397,31.656z"/>
	<g>
		<g>
			<path fill-rule="evenodd" clip-rule="evenodd" fill="#EA9D01" d="M2317.481,279.812c9.075-0.731,12.717,2.976,13.423,11.845
				c3.391,42.563,25.769,311.435,28.563,342.641c0.037,0.42,0.063,0.84,0.085,1.261c0.455,8.97-1.664,11.386-10.679,12.027
				c-13.434,0.956-26.892,1.639-40.29,2.943c-4.014,0.392-98.701,5.419-103.621,8.327c-4.534,0.41-6.92,4.008-9.201,7.041
				c-20.374,27.071-89.896,117.557-90.869,119.376c-2.94,5.499-6.349,5.059-10.197,1.056c0.082-2.026,8.143-106.443,7.879-116.744
				c-0.081-3.147-6.204-2.562-6.924-2.629c-8.604-0.131-311.574,25.763-312.362,25.85c-6.032-0.387-10.618-3.553-14.712-7.661
				c-0.117-2.002-27.52-334.048-28.363-347.646c-0.327-5.273,0.357-9.893,4.688-13.393"/>
		</g>
	</g>
</g>
</svg>
