<svg version="1" xmlns="http://www.w3.org/2000/svg" width="933.333" height="933.333" viewBox="0 0 700.000000 700.000000"><path d="M0 429.1c0 183.5.1 191.8 1.9 200.4 3.8 18.4 10.9 31.5 24 44.6 13.1 13.1 26.2 20.2 44.6 24C79.2 699.9 89 700 350 700s270.8-.1 279.5-1.9c18.4-3.8 31.5-10.9 44.6-24 13.1-13.1 20.2-26.2 24-44.6 1.8-8.6 1.9-16.8 1.9-196.8V245h-27.3c-15.1 0-38.2-.3-51.3-.7l-24-.6-4.8 6.8c-8.1 11.2-19.6 25.3-30.9 37.7-41.6 45.5-99.9 84-156.7 103.6-19.6 6.7-19.4 6.9-7.2-5.5 27.7-28 43.4-65.2 48.7-115.7.8-7.6 1.5-16.9 1.5-20.6v-6.8l-19.2-.6c-10.6-.3-97.8-1.2-193.8-2.1-96-.8-188.1-1.8-204.7-2.1L0 237.8v191.3z"/></svg>